G75*
%MOIN*%
%OFA0B0*%
%FSLAX24Y24*%
%IPPOS*%
%LPD*%
%AMOC8*
5,1,8,0,0,1.08239X$1,22.5*
%
%ADD10C,0.0000*%
D10*
X000200Y000468D02*
X000200Y020468D01*
X015200Y020468D01*
X015200Y000468D01*
X000200Y000468D01*
X000575Y001468D02*
X000577Y001518D01*
X000583Y001567D01*
X000593Y001616D01*
X000606Y001663D01*
X000624Y001710D01*
X000645Y001755D01*
X000669Y001798D01*
X000697Y001839D01*
X000728Y001878D01*
X000762Y001914D01*
X000799Y001948D01*
X000839Y001978D01*
X000880Y002005D01*
X000924Y002029D01*
X000969Y002049D01*
X001016Y002065D01*
X001064Y002078D01*
X001113Y002087D01*
X001163Y002092D01*
X001212Y002093D01*
X001262Y002090D01*
X001311Y002083D01*
X001360Y002072D01*
X001407Y002058D01*
X001453Y002039D01*
X001498Y002017D01*
X001541Y001992D01*
X001581Y001963D01*
X001619Y001931D01*
X001655Y001897D01*
X001688Y001859D01*
X001717Y001819D01*
X001743Y001777D01*
X001766Y001733D01*
X001785Y001687D01*
X001801Y001640D01*
X001813Y001591D01*
X001821Y001542D01*
X001825Y001493D01*
X001825Y001443D01*
X001821Y001394D01*
X001813Y001345D01*
X001801Y001296D01*
X001785Y001249D01*
X001766Y001203D01*
X001743Y001159D01*
X001717Y001117D01*
X001688Y001077D01*
X001655Y001039D01*
X001619Y001005D01*
X001581Y000973D01*
X001541Y000944D01*
X001498Y000919D01*
X001453Y000897D01*
X001407Y000878D01*
X001360Y000864D01*
X001311Y000853D01*
X001262Y000846D01*
X001212Y000843D01*
X001163Y000844D01*
X001113Y000849D01*
X001064Y000858D01*
X001016Y000871D01*
X000969Y000887D01*
X000924Y000907D01*
X000880Y000931D01*
X000839Y000958D01*
X000799Y000988D01*
X000762Y001022D01*
X000728Y001058D01*
X000697Y001097D01*
X000669Y001138D01*
X000645Y001181D01*
X000624Y001226D01*
X000606Y001273D01*
X000593Y001320D01*
X000583Y001369D01*
X000577Y001418D01*
X000575Y001468D01*
X013575Y001468D02*
X013577Y001518D01*
X013583Y001567D01*
X013593Y001616D01*
X013606Y001663D01*
X013624Y001710D01*
X013645Y001755D01*
X013669Y001798D01*
X013697Y001839D01*
X013728Y001878D01*
X013762Y001914D01*
X013799Y001948D01*
X013839Y001978D01*
X013880Y002005D01*
X013924Y002029D01*
X013969Y002049D01*
X014016Y002065D01*
X014064Y002078D01*
X014113Y002087D01*
X014163Y002092D01*
X014212Y002093D01*
X014262Y002090D01*
X014311Y002083D01*
X014360Y002072D01*
X014407Y002058D01*
X014453Y002039D01*
X014498Y002017D01*
X014541Y001992D01*
X014581Y001963D01*
X014619Y001931D01*
X014655Y001897D01*
X014688Y001859D01*
X014717Y001819D01*
X014743Y001777D01*
X014766Y001733D01*
X014785Y001687D01*
X014801Y001640D01*
X014813Y001591D01*
X014821Y001542D01*
X014825Y001493D01*
X014825Y001443D01*
X014821Y001394D01*
X014813Y001345D01*
X014801Y001296D01*
X014785Y001249D01*
X014766Y001203D01*
X014743Y001159D01*
X014717Y001117D01*
X014688Y001077D01*
X014655Y001039D01*
X014619Y001005D01*
X014581Y000973D01*
X014541Y000944D01*
X014498Y000919D01*
X014453Y000897D01*
X014407Y000878D01*
X014360Y000864D01*
X014311Y000853D01*
X014262Y000846D01*
X014212Y000843D01*
X014163Y000844D01*
X014113Y000849D01*
X014064Y000858D01*
X014016Y000871D01*
X013969Y000887D01*
X013924Y000907D01*
X013880Y000931D01*
X013839Y000958D01*
X013799Y000988D01*
X013762Y001022D01*
X013728Y001058D01*
X013697Y001097D01*
X013669Y001138D01*
X013645Y001181D01*
X013624Y001226D01*
X013606Y001273D01*
X013593Y001320D01*
X013583Y001369D01*
X013577Y001418D01*
X013575Y001468D01*
X013575Y019468D02*
X013577Y019518D01*
X013583Y019567D01*
X013593Y019616D01*
X013606Y019663D01*
X013624Y019710D01*
X013645Y019755D01*
X013669Y019798D01*
X013697Y019839D01*
X013728Y019878D01*
X013762Y019914D01*
X013799Y019948D01*
X013839Y019978D01*
X013880Y020005D01*
X013924Y020029D01*
X013969Y020049D01*
X014016Y020065D01*
X014064Y020078D01*
X014113Y020087D01*
X014163Y020092D01*
X014212Y020093D01*
X014262Y020090D01*
X014311Y020083D01*
X014360Y020072D01*
X014407Y020058D01*
X014453Y020039D01*
X014498Y020017D01*
X014541Y019992D01*
X014581Y019963D01*
X014619Y019931D01*
X014655Y019897D01*
X014688Y019859D01*
X014717Y019819D01*
X014743Y019777D01*
X014766Y019733D01*
X014785Y019687D01*
X014801Y019640D01*
X014813Y019591D01*
X014821Y019542D01*
X014825Y019493D01*
X014825Y019443D01*
X014821Y019394D01*
X014813Y019345D01*
X014801Y019296D01*
X014785Y019249D01*
X014766Y019203D01*
X014743Y019159D01*
X014717Y019117D01*
X014688Y019077D01*
X014655Y019039D01*
X014619Y019005D01*
X014581Y018973D01*
X014541Y018944D01*
X014498Y018919D01*
X014453Y018897D01*
X014407Y018878D01*
X014360Y018864D01*
X014311Y018853D01*
X014262Y018846D01*
X014212Y018843D01*
X014163Y018844D01*
X014113Y018849D01*
X014064Y018858D01*
X014016Y018871D01*
X013969Y018887D01*
X013924Y018907D01*
X013880Y018931D01*
X013839Y018958D01*
X013799Y018988D01*
X013762Y019022D01*
X013728Y019058D01*
X013697Y019097D01*
X013669Y019138D01*
X013645Y019181D01*
X013624Y019226D01*
X013606Y019273D01*
X013593Y019320D01*
X013583Y019369D01*
X013577Y019418D01*
X013575Y019468D01*
M02*
