G75*
%MOIN*%
%OFA0B0*%
%FSLAX24Y24*%
%IPPOS*%
%LPD*%
%AMOC8*
5,1,8,0,0,1.08239X$1,22.5*
%
%ADD10C,0.1330*%
%ADD11C,0.0060*%
%ADD12R,0.0730X0.0330*%
%ADD13C,0.0552*%
%ADD14R,0.0395X0.0710*%
%ADD15R,0.0690X0.0316*%
%ADD16R,0.0789X0.0552*%
%ADD17OC8,0.0820*%
%ADD18R,0.0474X0.0513*%
%ADD19R,0.0513X0.0474*%
%ADD20R,0.0631X0.0828*%
%ADD21R,0.0580X0.0300*%
%ADD22R,0.0300X0.0580*%
%ADD23R,0.2360X0.2520*%
%ADD24R,0.0710X0.1260*%
%ADD25C,0.0820*%
%ADD26R,0.0671X0.0592*%
%ADD27R,0.1025X0.1025*%
%ADD28R,0.0330X0.0580*%
%ADD29C,0.0420*%
D10*
X001190Y001450D03*
X014190Y001450D03*
X014190Y019450D03*
X001190Y019450D03*
D11*
X007120Y011700D02*
X008260Y011700D01*
X008260Y010480D01*
X008910Y010480D01*
X008910Y006620D01*
X008260Y006620D01*
X008260Y005400D01*
X007120Y005400D01*
X007120Y006620D01*
X006570Y006620D01*
X006570Y010480D01*
X007120Y010480D01*
X007120Y011700D01*
X007120Y011682D02*
X008260Y011682D01*
X008260Y011624D02*
X007120Y011624D01*
X007120Y011565D02*
X008260Y011565D01*
X008260Y011507D02*
X007120Y011507D01*
X007120Y011448D02*
X008260Y011448D01*
X008260Y011390D02*
X007120Y011390D01*
X007120Y011331D02*
X008260Y011331D01*
X008260Y011273D02*
X007120Y011273D01*
X007120Y011214D02*
X008260Y011214D01*
X008260Y011156D02*
X007120Y011156D01*
X007120Y011097D02*
X008260Y011097D01*
X008260Y011039D02*
X007120Y011039D01*
X007120Y010980D02*
X008260Y010980D01*
X008260Y010922D02*
X007120Y010922D01*
X007120Y010863D02*
X008260Y010863D01*
X008260Y010805D02*
X007120Y010805D01*
X007120Y010746D02*
X008260Y010746D01*
X008260Y010688D02*
X007120Y010688D01*
X007120Y010629D02*
X008260Y010629D01*
X008260Y010571D02*
X007120Y010571D01*
X007120Y010512D02*
X008260Y010512D01*
X008910Y010454D02*
X006570Y010454D01*
X006570Y010395D02*
X008910Y010395D01*
X008910Y010337D02*
X006570Y010337D01*
X006570Y010278D02*
X008910Y010278D01*
X008910Y010220D02*
X006570Y010220D01*
X006570Y010161D02*
X008910Y010161D01*
X008910Y010103D02*
X006570Y010103D01*
X006570Y010044D02*
X008910Y010044D01*
X008910Y009986D02*
X006570Y009986D01*
X006570Y009927D02*
X008910Y009927D01*
X008910Y009869D02*
X006570Y009869D01*
X006570Y009810D02*
X008910Y009810D01*
X008910Y009752D02*
X006570Y009752D01*
X006570Y009693D02*
X008910Y009693D01*
X008910Y009635D02*
X006570Y009635D01*
X006570Y009576D02*
X008910Y009576D01*
X008910Y009518D02*
X006570Y009518D01*
X006570Y009459D02*
X008910Y009459D01*
X008910Y009401D02*
X006570Y009401D01*
X006570Y009342D02*
X008910Y009342D01*
X008910Y009284D02*
X006570Y009284D01*
X006570Y009225D02*
X008910Y009225D01*
X008910Y009167D02*
X006570Y009167D01*
X006570Y009108D02*
X008910Y009108D01*
X008910Y009050D02*
X006570Y009050D01*
X006570Y008991D02*
X008910Y008991D01*
X008910Y008933D02*
X006570Y008933D01*
X006570Y008874D02*
X008910Y008874D01*
X008910Y008816D02*
X006570Y008816D01*
X006570Y008757D02*
X008910Y008757D01*
X008910Y008699D02*
X006570Y008699D01*
X006570Y008640D02*
X008910Y008640D01*
X008910Y008582D02*
X006570Y008582D01*
X006570Y008523D02*
X008910Y008523D01*
X008910Y008465D02*
X006570Y008465D01*
X006570Y008406D02*
X008910Y008406D01*
X008910Y008348D02*
X006570Y008348D01*
X006570Y008289D02*
X008910Y008289D01*
X008910Y008231D02*
X006570Y008231D01*
X006570Y008172D02*
X008910Y008172D01*
X008910Y008114D02*
X006570Y008114D01*
X006570Y008055D02*
X008910Y008055D01*
X008910Y007997D02*
X006570Y007997D01*
X006570Y007938D02*
X008910Y007938D01*
X008910Y007880D02*
X006570Y007880D01*
X006570Y007821D02*
X008910Y007821D01*
X008910Y007763D02*
X006570Y007763D01*
X006570Y007704D02*
X008910Y007704D01*
X008910Y007646D02*
X006570Y007646D01*
X006570Y007587D02*
X008910Y007587D01*
X008910Y007529D02*
X006570Y007529D01*
X006570Y007470D02*
X008910Y007470D01*
X008910Y007412D02*
X006570Y007412D01*
X006570Y007353D02*
X008910Y007353D01*
X008910Y007295D02*
X006570Y007295D01*
X006570Y007236D02*
X008910Y007236D01*
X008910Y007178D02*
X006570Y007178D01*
X006570Y007119D02*
X008910Y007119D01*
X008910Y007061D02*
X006570Y007061D01*
X006570Y007002D02*
X008910Y007002D01*
X008910Y006944D02*
X006570Y006944D01*
X006570Y006885D02*
X008910Y006885D01*
X008910Y006827D02*
X006570Y006827D01*
X006570Y006768D02*
X008910Y006768D01*
X008910Y006710D02*
X006570Y006710D01*
X006570Y006651D02*
X008910Y006651D01*
X008260Y006593D02*
X007120Y006593D01*
X007120Y006534D02*
X008260Y006534D01*
X008260Y006476D02*
X007120Y006476D01*
X007120Y006417D02*
X008260Y006417D01*
X008260Y006359D02*
X007120Y006359D01*
X007120Y006300D02*
X008260Y006300D01*
X008260Y006242D02*
X007120Y006242D01*
X007120Y006183D02*
X008260Y006183D01*
X008260Y006125D02*
X007120Y006125D01*
X007120Y006066D02*
X008260Y006066D01*
X008260Y006008D02*
X007120Y006008D01*
X007120Y005949D02*
X008260Y005949D01*
X008260Y005891D02*
X007120Y005891D01*
X007120Y005832D02*
X008260Y005832D01*
X008260Y005774D02*
X007120Y005774D01*
X007120Y005715D02*
X008260Y005715D01*
X008260Y005657D02*
X007120Y005657D01*
X007120Y005598D02*
X008260Y005598D01*
X008260Y005540D02*
X007120Y005540D01*
X007120Y005481D02*
X008260Y005481D01*
X008260Y005423D02*
X007120Y005423D01*
D12*
X005040Y006300D03*
X005040Y006800D03*
X005040Y007300D03*
X005040Y007800D03*
X005040Y008300D03*
X005040Y008800D03*
X005040Y009300D03*
X005040Y009800D03*
X005040Y010300D03*
X005040Y010800D03*
X010340Y010800D03*
X010340Y010300D03*
X010340Y009800D03*
X010340Y009300D03*
X010340Y008800D03*
X010340Y008300D03*
X010340Y007800D03*
X010340Y007300D03*
X010340Y006800D03*
X010340Y006300D03*
D13*
X014140Y005900D03*
X014240Y004900D03*
X014240Y006900D03*
X014140Y007900D03*
X014240Y008900D03*
X014140Y009900D03*
X014240Y010900D03*
X014140Y011900D03*
X012240Y012900D03*
X012140Y013900D03*
X012240Y014900D03*
X012140Y015900D03*
X012240Y016900D03*
X012140Y017900D03*
X012240Y018900D03*
X012140Y019900D03*
X003240Y018900D03*
X003140Y017900D03*
X003240Y016900D03*
X003140Y015900D03*
X003240Y014900D03*
X003140Y013900D03*
X003240Y012900D03*
X001240Y010900D03*
X001140Y011900D03*
X001140Y009900D03*
X001240Y008900D03*
X001140Y007900D03*
X001240Y006900D03*
X001140Y005900D03*
X001240Y004900D03*
X003140Y019900D03*
D14*
X003040Y009869D03*
X003840Y009869D03*
X003840Y008531D03*
X003040Y008531D03*
X003040Y007519D03*
X003840Y007519D03*
X003840Y006181D03*
X003040Y006181D03*
X011540Y006281D03*
X012340Y006281D03*
X012340Y007619D03*
X012340Y008531D03*
X011540Y008531D03*
X011540Y007619D03*
X011540Y009869D03*
X012340Y009869D03*
D15*
X013153Y013266D03*
X013153Y013659D03*
X013153Y014053D03*
X013153Y014447D03*
X013153Y014841D03*
X013153Y015234D03*
X002229Y015234D03*
X002229Y014841D03*
X002229Y014447D03*
X002229Y014053D03*
X002229Y013659D03*
X002229Y013266D03*
D16*
X000654Y012754D03*
X000654Y015746D03*
X014728Y015746D03*
X014728Y012754D03*
D17*
X010940Y012350D03*
X010840Y013350D03*
X010940Y014350D03*
X009940Y014350D03*
X009840Y013350D03*
X009940Y012350D03*
D18*
X006950Y018800D03*
X006280Y018800D03*
X012840Y004985D03*
X012840Y004315D03*
D19*
X011425Y005625D03*
X010755Y005625D03*
X005690Y002560D03*
X005690Y001890D03*
X003240Y002715D03*
X003240Y003385D03*
X004155Y013850D03*
X004825Y013850D03*
X004725Y017075D03*
X004055Y017075D03*
X008490Y018315D03*
X008490Y018985D03*
X009140Y018985D03*
X009140Y018315D03*
X009740Y018285D03*
X009740Y017615D03*
X010390Y017615D03*
X010390Y018285D03*
X011140Y018285D03*
X011140Y017615D03*
X010340Y016535D03*
X010340Y015865D03*
D20*
X005012Y016316D03*
X004068Y016316D03*
X004068Y014584D03*
X005012Y014584D03*
D21*
X005900Y014948D03*
X005900Y015263D03*
X005900Y015578D03*
X005900Y015893D03*
X005900Y016207D03*
X005900Y016522D03*
X005900Y016837D03*
X005900Y017152D03*
X009280Y017152D03*
X009280Y016837D03*
X009280Y016522D03*
X009280Y016207D03*
X009280Y015893D03*
X009280Y015578D03*
X009280Y015263D03*
X009280Y014948D03*
D22*
X008692Y014360D03*
X008377Y014360D03*
X008062Y014360D03*
X007747Y014360D03*
X007433Y014360D03*
X007118Y014360D03*
X006803Y014360D03*
X006488Y014360D03*
X006488Y017740D03*
X006803Y017740D03*
X007118Y017740D03*
X007433Y017740D03*
X007747Y017740D03*
X008062Y017740D03*
X008377Y017740D03*
X008692Y017740D03*
D23*
X011090Y001850D03*
D24*
X010190Y004680D03*
X011990Y004680D03*
D25*
X008190Y001050D03*
X007190Y001050D03*
X000690Y016650D03*
X000690Y017650D03*
X004340Y017850D03*
X004340Y018850D03*
X004340Y019850D03*
X005390Y018850D03*
X005390Y017850D03*
X008040Y019850D03*
X009040Y019850D03*
X010040Y019850D03*
X011040Y019850D03*
X014690Y017650D03*
X014690Y016650D03*
D26*
X004890Y001885D03*
X004890Y001215D03*
X003890Y001215D03*
X003890Y001885D03*
D27*
X007474Y004050D03*
X009206Y004050D03*
D28*
X007202Y002250D03*
X006878Y002250D03*
X003440Y004950D03*
X003040Y004950D03*
D29*
X006890Y008350D03*
X008440Y007450D03*
X007740Y010650D03*
X010290Y002750D03*
X011090Y001850D03*
X011890Y000950D03*
X011890Y002750D03*
X010290Y000950D03*
M02*
