%
M48
M72
T01C0.0130
T02C0.0200
T03C0.0315
T04C0.0400
T05C0.1250
%
T01
X4350Y6568
X3400Y7568
X4350Y9518
X5700Y9518
X6300Y10193
X6913Y9455
X7400Y9218
X7500Y8668
X8450Y9468
X9100Y9568
X9100Y10468
X9700Y11243
X9700Y12393
X9700Y13368
X10200Y13493
X9250Y14993
X8700Y14168
X8370Y12093
X6900Y11318
X6025Y11918
X6200Y13068
X6200Y13918
X6900Y13918
X6150Y14993
X7700Y16268
X5450Y17418
X3600Y12518
X1550Y9418
X950Y7468
X5500Y5118
X6350Y3268
X7000Y3268
X7050Y2118
X7900Y2618
X7700Y6468
X7050Y6468
X6800Y7093
X6350Y8118
X6450Y8643
X8500Y7168
X9200Y6918
X9700Y8068
X10100Y7818
X11000Y7468
X11225Y6543
X11650Y4618
X13450Y4518
X13450Y3018
X13450Y2618
X14550Y2618
X14750Y4218
X13900Y7418
X14550Y11393
X11800Y1868
X12300Y1768
T02
X8650Y18093
X7700Y19068
X6750Y18093
X6750Y20143
X8650Y20143
T03
X10650Y19918
X10700Y18918
X10700Y17918
X10700Y16918
X10750Y15918
X10700Y14918
X10700Y13918
X10700Y12918
X10700Y11918
X10650Y10918
X10700Y9918
X10700Y8918
X10700Y7918
X10750Y6918
X14150Y7918
X14200Y6918
X14150Y5918
X14200Y4918
X14250Y8918
X14150Y9918
X14250Y10918
X14150Y11918
X12200Y12918
X12150Y13918
X12200Y14918
X12150Y15918
X12250Y16918
X12150Y17918
X12250Y18918
X12150Y19918
X4650Y19918
X4700Y18918
X4700Y17918
X4700Y16918
X4750Y15918
X4700Y14918
X4700Y13918
X4700Y12918
X4700Y11918
X4650Y10918
X4700Y9918
X4700Y8918
X4700Y7918
X4750Y6918
X1250Y6918
X1150Y7918
X1250Y8918
X1200Y9918
X1250Y10918
X1200Y11918
X3150Y13918
X3250Y14918
X3150Y15918
X3250Y16918
X3200Y17918
X3250Y18918
X3200Y19918
X3250Y12918
X1150Y5918
X1250Y4918
T04
X715Y14918
X715Y15918
X715Y16918
X1785Y16918
X1785Y15918
X1785Y14918
X10550Y4143
X10650Y5143
X10650Y3143
X10550Y2143
X13615Y14918
X13615Y15918
X13615Y16918
X14685Y16918
X14685Y15918
X14685Y14918
T05
X1200Y1468
X14200Y1468
X14200Y19468
X1200Y19468
M30
