G75*
%MOIN*%
%OFA0B0*%
%FSLAX24Y24*%
%IPPOS*%
%LPD*%
%AMOC8*
5,1,8,0,0,1.08239X$1,22.5*
%
%ADD10C,0.0080*%
%ADD11C,0.0100*%
D10*
X001389Y002340D02*
X001389Y002760D01*
X001600Y002550D01*
X001319Y002550D01*
X001780Y002620D02*
X001780Y002690D01*
X001850Y002760D01*
X001990Y002760D01*
X002060Y002690D01*
X001780Y002620D02*
X002060Y002340D01*
X001780Y002340D01*
X002890Y003290D02*
X003310Y003290D01*
X003310Y003500D01*
X003240Y003570D01*
X003100Y003570D01*
X003030Y003500D01*
X003030Y003290D01*
X002960Y003750D02*
X002890Y003820D01*
X002890Y003961D01*
X002960Y004031D01*
X003240Y004031D01*
X003310Y003961D01*
X003310Y003820D01*
X003240Y003750D01*
X002960Y003750D01*
X002890Y004211D02*
X003030Y004351D01*
X002890Y004491D01*
X003310Y004491D01*
X003310Y004211D02*
X002890Y004211D01*
X002910Y004840D02*
X002840Y004910D01*
X002840Y005190D01*
X002910Y005260D01*
X003120Y005260D01*
X003120Y004840D01*
X002910Y004840D01*
X003301Y004840D02*
X003301Y005260D01*
X003581Y005260D02*
X003301Y004840D01*
X003581Y004840D02*
X003581Y005260D01*
X003761Y005190D02*
X003831Y005260D01*
X003971Y005260D01*
X004041Y005190D01*
X004041Y004910D01*
X003971Y004840D01*
X003831Y004840D01*
X003761Y004910D01*
X003761Y005050D01*
X003901Y005050D01*
X003960Y004491D02*
X003890Y004421D01*
X003890Y004211D01*
X004310Y004211D01*
X004310Y004421D01*
X004240Y004491D01*
X003960Y004491D01*
X003890Y004031D02*
X004310Y004031D01*
X004310Y003750D02*
X003890Y004031D01*
X003890Y003750D02*
X004310Y003750D01*
X004240Y003570D02*
X004310Y003500D01*
X004310Y003360D01*
X004240Y003290D01*
X003960Y003290D01*
X003890Y003360D01*
X003890Y003500D01*
X003960Y003570D01*
X004100Y003570D01*
X004100Y003430D01*
X004500Y003300D02*
X004600Y003200D01*
X004600Y002050D01*
X004100Y001550D01*
X003600Y002050D02*
X003100Y001550D01*
X003600Y002050D02*
X003600Y003200D01*
X003500Y003300D01*
X004890Y003290D02*
X005310Y003290D01*
X005310Y003500D01*
X005240Y003570D01*
X005100Y003570D01*
X005030Y003500D01*
X005030Y003290D01*
X004960Y003750D02*
X004890Y003820D01*
X004890Y003961D01*
X004960Y004031D01*
X005100Y004031D01*
X005100Y003891D01*
X005240Y004031D02*
X005310Y003961D01*
X005310Y003820D01*
X005240Y003750D01*
X004960Y003750D01*
X004890Y004211D02*
X005310Y004211D01*
X005170Y004351D01*
X005310Y004491D01*
X004890Y004491D01*
X005500Y003300D02*
X005600Y003200D01*
X005600Y002050D01*
X005100Y001550D01*
X006100Y001550D02*
X006600Y002050D01*
X006600Y003200D01*
X006500Y003300D01*
X006310Y003290D02*
X006310Y003500D01*
X006240Y003570D01*
X006100Y003570D01*
X006030Y003500D01*
X006030Y003290D01*
X005890Y003290D02*
X006310Y003290D01*
X006030Y003430D02*
X005890Y003570D01*
X005960Y003750D02*
X005890Y003820D01*
X005890Y003961D01*
X005960Y004031D01*
X006030Y004031D01*
X006100Y003961D01*
X006100Y003820D01*
X006170Y003750D01*
X006240Y003750D01*
X006310Y003820D01*
X006310Y003961D01*
X006240Y004031D01*
X006310Y004211D02*
X006310Y004491D01*
X006310Y004351D02*
X005890Y004351D01*
X006890Y004491D02*
X007310Y004491D01*
X007310Y004671D02*
X007310Y004881D01*
X007240Y004951D01*
X006960Y004951D01*
X006890Y004881D01*
X006890Y004671D01*
X007310Y004671D01*
X006890Y004491D02*
X007310Y004211D01*
X006890Y004211D01*
X006960Y004031D02*
X007100Y004031D01*
X007100Y003891D01*
X006960Y004031D02*
X006890Y003961D01*
X006890Y003820D01*
X006960Y003750D01*
X007240Y003750D01*
X007310Y003820D01*
X007310Y003961D01*
X007240Y004031D01*
X007170Y003570D02*
X006890Y003570D01*
X007100Y003570D02*
X007100Y003290D01*
X007170Y003290D02*
X007310Y003430D01*
X007170Y003570D01*
X007170Y003290D02*
X006890Y003290D01*
X007500Y003300D02*
X007600Y003200D01*
X007600Y002050D01*
X007100Y001550D01*
X008100Y001550D02*
X008600Y002050D01*
X008600Y003200D01*
X008500Y003300D01*
X008310Y003430D02*
X008170Y003570D01*
X007890Y003570D01*
X007890Y003750D02*
X008310Y003750D01*
X008310Y003961D01*
X008240Y004031D01*
X008100Y004031D01*
X008030Y003961D01*
X008030Y003750D01*
X008030Y003891D02*
X007890Y004031D01*
X007890Y004211D02*
X007890Y004491D01*
X007890Y004671D02*
X008310Y004671D01*
X008310Y004951D01*
X008100Y004811D02*
X008100Y004671D01*
X008100Y004351D02*
X008100Y004211D01*
X008310Y004211D02*
X007890Y004211D01*
X008310Y004211D02*
X008310Y004491D01*
X008890Y004421D02*
X008890Y004281D01*
X008960Y004211D01*
X008890Y004031D02*
X008890Y003750D01*
X008890Y003891D02*
X009310Y003891D01*
X009170Y003750D01*
X009170Y003570D02*
X008890Y003570D01*
X008890Y003290D02*
X009170Y003290D01*
X009310Y003430D01*
X009170Y003570D01*
X009100Y003570D02*
X009100Y003290D01*
X009500Y003300D02*
X009600Y003200D01*
X009600Y002050D01*
X009100Y001550D01*
X008170Y003290D02*
X007890Y003290D01*
X008100Y003290D02*
X008100Y003570D01*
X008310Y003430D02*
X008170Y003290D01*
X008890Y004421D02*
X008960Y004491D01*
X009030Y004491D01*
X009100Y004421D01*
X009100Y004351D01*
X009100Y004421D02*
X009170Y004491D01*
X009240Y004491D01*
X009310Y004421D01*
X009310Y004281D01*
X009240Y004211D01*
X009500Y003800D02*
X011700Y003800D01*
X011890Y003841D02*
X012310Y003841D01*
X012170Y003700D01*
X012170Y003520D02*
X011890Y003520D01*
X011890Y003700D02*
X011890Y003981D01*
X011960Y004161D02*
X011890Y004231D01*
X011890Y004371D01*
X011960Y004441D01*
X012240Y004441D01*
X011960Y004161D01*
X012240Y004161D01*
X012310Y004231D01*
X012310Y004371D01*
X012240Y004441D01*
X012250Y004840D02*
X012180Y004910D01*
X012180Y005050D01*
X012320Y005050D01*
X012460Y004910D02*
X012390Y004840D01*
X012250Y004840D01*
X012460Y004910D02*
X012460Y005190D01*
X012390Y005260D01*
X012250Y005260D01*
X012180Y005190D01*
X012000Y005260D02*
X012000Y004840D01*
X011719Y004840D02*
X011719Y005260D01*
X011539Y005260D02*
X011329Y005260D01*
X011259Y005190D01*
X011259Y004910D01*
X011329Y004840D01*
X011539Y004840D01*
X011539Y005260D01*
X011719Y004840D02*
X012000Y005260D01*
X011930Y005840D02*
X011789Y005840D01*
X011719Y005910D01*
X011719Y005980D01*
X011789Y006050D01*
X011930Y006050D01*
X012000Y006120D01*
X012000Y006190D01*
X011930Y006260D01*
X011789Y006260D01*
X011719Y006190D01*
X011539Y006190D02*
X011539Y005910D01*
X011469Y005840D01*
X011329Y005840D01*
X011259Y005910D01*
X011079Y005840D02*
X010799Y005840D01*
X011079Y005840D02*
X011079Y006260D01*
X011259Y006190D02*
X011329Y006260D01*
X011469Y006260D01*
X011539Y006190D01*
X011930Y005840D02*
X012000Y005910D01*
X012180Y005840D02*
X012180Y006120D01*
X012320Y006260D01*
X012460Y006120D01*
X012460Y005840D01*
X012460Y006050D02*
X012180Y006050D01*
X012476Y006851D02*
X012572Y007115D01*
X012488Y007294D01*
X012309Y007210D01*
X012213Y006947D01*
X012067Y007075D02*
X011978Y007033D01*
X011846Y007081D01*
X011804Y007170D01*
X011828Y007236D01*
X011918Y007278D01*
X012050Y007230D01*
X012139Y007272D01*
X012163Y007338D01*
X012121Y007428D01*
X011990Y007476D01*
X011900Y007434D01*
X011755Y007561D02*
X011557Y007633D01*
X011467Y007591D01*
X011371Y007328D01*
X011413Y007238D01*
X011611Y007166D01*
X011755Y007561D01*
X011789Y007840D02*
X011719Y007910D01*
X011719Y007980D01*
X011789Y008050D01*
X011859Y008050D01*
X011789Y008050D02*
X011719Y008120D01*
X011719Y008190D01*
X011789Y008260D01*
X011930Y008260D01*
X012000Y008190D01*
X012000Y007910D02*
X011930Y007840D01*
X011789Y007840D01*
X012180Y007840D02*
X012460Y007840D01*
X012320Y007840D02*
X012320Y008260D01*
X012460Y008120D01*
X012460Y008840D02*
X012180Y008840D01*
X012320Y008840D02*
X012320Y009260D01*
X012460Y009120D01*
X012000Y009050D02*
X011719Y009050D01*
X011789Y008840D02*
X011789Y009260D01*
X012000Y009050D01*
X011930Y009840D02*
X011789Y009840D01*
X011719Y009910D01*
X011719Y010050D01*
X011789Y010120D01*
X011859Y010120D01*
X012000Y010050D01*
X012000Y010260D01*
X011719Y010260D01*
X012000Y009910D02*
X011930Y009840D01*
X012180Y009840D02*
X012460Y009840D01*
X012320Y009840D02*
X012320Y010260D01*
X012460Y010120D01*
X012460Y010840D02*
X012180Y010840D01*
X012320Y010840D02*
X012320Y011260D01*
X012460Y011120D01*
X012000Y011050D02*
X011789Y011050D01*
X011719Y010980D01*
X011719Y010910D01*
X011789Y010840D01*
X011930Y010840D01*
X012000Y010910D01*
X012000Y011050D01*
X011859Y011190D01*
X011719Y011260D01*
X012000Y011840D02*
X012000Y011910D01*
X011719Y012190D01*
X011719Y012260D01*
X012000Y012260D01*
X012320Y012260D02*
X012320Y011840D01*
X012460Y011840D02*
X012180Y011840D01*
X012460Y012120D02*
X012320Y012260D01*
X013840Y012910D02*
X013910Y012840D01*
X014050Y012840D01*
X014120Y012910D01*
X014120Y012980D01*
X014050Y013050D01*
X013910Y013050D01*
X013840Y012980D01*
X013840Y012910D01*
X013910Y013050D02*
X013840Y013120D01*
X013840Y013190D01*
X013910Y013260D01*
X014050Y013260D01*
X014120Y013190D01*
X014120Y013120D01*
X014050Y013050D01*
X014301Y012840D02*
X014581Y012840D01*
X014441Y012840D02*
X014441Y013260D01*
X014581Y013120D01*
X014581Y013840D02*
X014301Y013840D01*
X014441Y013840D02*
X014441Y014260D01*
X014581Y014120D01*
X014120Y014120D02*
X014050Y014050D01*
X013840Y014050D01*
X013840Y013910D02*
X013840Y014190D01*
X013910Y014260D01*
X014050Y014260D01*
X014120Y014190D01*
X014120Y014120D01*
X014120Y013910D02*
X014050Y013840D01*
X013910Y013840D01*
X013840Y013910D01*
X013910Y014840D02*
X014050Y014840D01*
X014120Y014910D01*
X013840Y015190D01*
X013840Y014910D01*
X013910Y014840D01*
X014120Y014910D02*
X014120Y015190D01*
X014050Y015260D01*
X013910Y015260D01*
X013840Y015190D01*
X014301Y015190D02*
X014301Y015120D01*
X014581Y014840D01*
X014301Y014840D01*
X014301Y015190D02*
X014371Y015260D01*
X014511Y015260D01*
X014581Y015190D01*
X014581Y015840D02*
X014301Y015840D01*
X014120Y015840D02*
X013840Y015840D01*
X013980Y015840D02*
X013980Y016260D01*
X014120Y016120D01*
X014301Y016120D02*
X014301Y016190D01*
X014371Y016260D01*
X014511Y016260D01*
X014581Y016190D01*
X014301Y016120D02*
X014581Y015840D01*
X014581Y016840D02*
X014301Y016840D01*
X014120Y016840D02*
X013840Y017120D01*
X013840Y017190D01*
X013910Y017260D01*
X014050Y017260D01*
X014120Y017190D01*
X014301Y017190D02*
X014301Y017120D01*
X014581Y016840D01*
X014581Y017190D02*
X014511Y017260D01*
X014371Y017260D01*
X014301Y017190D01*
X014120Y016840D02*
X013840Y016840D01*
X013910Y017840D02*
X014050Y017840D01*
X014120Y017910D01*
X014301Y017840D02*
X014581Y017840D01*
X014301Y018120D01*
X014301Y018190D01*
X014371Y018260D01*
X014511Y018260D01*
X014581Y018190D01*
X014120Y018190D02*
X014050Y018260D01*
X013910Y018260D01*
X013840Y018190D01*
X013840Y018120D01*
X013910Y018050D01*
X013840Y017980D01*
X013840Y017910D01*
X013910Y017840D01*
X013910Y018050D02*
X013980Y018050D01*
X011600Y019100D02*
X011350Y019100D01*
X011350Y019300D01*
X011350Y019100D02*
X011100Y019100D01*
X011200Y018950D02*
X011500Y018950D01*
X011400Y018800D02*
X011300Y018800D01*
X011214Y019506D02*
X010939Y019655D01*
X011168Y019816D02*
X011214Y019506D01*
X011436Y019747D02*
X011356Y019862D01*
X011373Y019959D01*
X011431Y019999D01*
X011586Y020022D01*
X011465Y020195D01*
X011235Y020034D01*
X011436Y019747D02*
X011534Y019730D01*
X011649Y019810D01*
X011666Y019908D01*
X006341Y019910D02*
X006271Y019840D01*
X006131Y019840D01*
X006061Y019910D01*
X006061Y019980D01*
X006131Y020050D01*
X006201Y020050D01*
X006131Y020050D02*
X006061Y020120D01*
X006061Y020190D01*
X006131Y020260D01*
X006271Y020260D01*
X006341Y020190D01*
X005881Y020120D02*
X005741Y019840D01*
X005601Y020120D01*
X005420Y020190D02*
X005350Y020260D01*
X005210Y020260D01*
X005140Y020190D01*
X005140Y020120D01*
X005210Y020050D01*
X005140Y019980D01*
X005140Y019910D01*
X005210Y019840D01*
X005350Y019840D01*
X005420Y019910D01*
X005280Y020050D02*
X005210Y020050D01*
X004200Y020050D02*
X003400Y020050D01*
X003710Y019260D02*
X003640Y019190D01*
X003920Y018910D01*
X003850Y018840D01*
X003710Y018840D01*
X003640Y018910D01*
X003640Y019190D01*
X003710Y019260D02*
X003850Y019260D01*
X003920Y019190D01*
X003920Y018910D01*
X001460Y018120D02*
X001320Y018260D01*
X001320Y017840D01*
X001460Y017840D02*
X001180Y017840D01*
X001250Y017260D02*
X001390Y017260D01*
X001460Y017190D01*
X001250Y017260D02*
X001180Y017190D01*
X001180Y017120D01*
X001460Y016840D01*
X001180Y016840D01*
X001250Y016260D02*
X001180Y016190D01*
X001180Y016120D01*
X001250Y016050D01*
X001180Y015980D01*
X001180Y015910D01*
X001250Y015840D01*
X001390Y015840D01*
X001460Y015910D01*
X001320Y016050D02*
X001250Y016050D01*
X001250Y016260D02*
X001390Y016260D01*
X001460Y016190D01*
X001250Y015260D02*
X001460Y015050D01*
X001180Y015050D01*
X001250Y014840D02*
X001250Y015260D01*
X001180Y014260D02*
X001460Y014260D01*
X001460Y014050D01*
X001320Y014120D01*
X001250Y014120D01*
X001180Y014050D01*
X001180Y013910D01*
X001250Y013840D01*
X001390Y013840D01*
X001460Y013910D01*
X001180Y013260D02*
X001320Y013190D01*
X001460Y013050D01*
X001250Y013050D01*
X001180Y012980D01*
X001180Y012910D01*
X001250Y012840D01*
X001390Y012840D01*
X001460Y012910D01*
X001460Y013050D01*
X002740Y012260D02*
X002740Y012190D01*
X003020Y011910D01*
X003020Y011840D01*
X003020Y012260D02*
X002740Y012260D01*
X002910Y011260D02*
X002840Y011190D01*
X002840Y011120D01*
X002910Y011050D01*
X003050Y011050D01*
X003120Y011120D01*
X003120Y011190D01*
X003050Y011260D01*
X002910Y011260D01*
X002910Y011050D02*
X002840Y010980D01*
X002840Y010910D01*
X002910Y010840D01*
X003050Y010840D01*
X003120Y010910D01*
X003120Y010980D01*
X003050Y011050D01*
X003050Y010260D02*
X002910Y010260D01*
X002840Y010190D01*
X002840Y009910D01*
X002910Y009840D01*
X003050Y009840D01*
X003120Y009910D01*
X003050Y010050D02*
X002840Y010050D01*
X003050Y010050D02*
X003120Y010120D01*
X003120Y010190D01*
X003050Y010260D01*
X003050Y009260D02*
X002910Y009260D01*
X002840Y009190D01*
X003120Y008910D01*
X003050Y008840D01*
X002910Y008840D01*
X002840Y008910D01*
X002840Y009190D01*
X003050Y009260D02*
X003120Y009190D01*
X003120Y008910D01*
X003301Y008840D02*
X003581Y008840D01*
X003441Y008840D02*
X003441Y009260D01*
X003581Y009120D01*
X003441Y008260D02*
X003441Y007840D01*
X003581Y007840D02*
X003301Y007840D01*
X003581Y008120D02*
X003441Y008260D01*
X003120Y008120D02*
X002980Y008260D01*
X002980Y007840D01*
X003120Y007840D02*
X002840Y007840D01*
X002910Y007260D02*
X003050Y007260D01*
X003120Y007190D01*
X002910Y007260D02*
X002840Y007190D01*
X002840Y007120D01*
X003120Y006840D01*
X002840Y006840D01*
X003301Y006840D02*
X003581Y006840D01*
X003441Y006840D02*
X003441Y007260D01*
X003581Y007120D01*
X003357Y006330D02*
X003357Y006260D01*
X003357Y006120D02*
X003357Y005840D01*
X003427Y005840D02*
X003287Y005840D01*
X003120Y005840D02*
X003120Y006120D01*
X002910Y006120D01*
X002840Y006050D01*
X002840Y005840D01*
X003357Y006120D02*
X003427Y006120D01*
X003607Y005980D02*
X003748Y005840D01*
X003888Y005980D01*
X003888Y006260D01*
X003607Y006260D02*
X003607Y005980D01*
X010915Y007420D02*
X011011Y007683D01*
X011190Y007767D01*
X011274Y007587D01*
X011178Y007324D01*
X011250Y007521D02*
X010987Y007617D01*
X012285Y007145D02*
X012548Y007049D01*
X012170Y003520D02*
X012310Y003380D01*
X012170Y003240D01*
X011890Y003240D01*
X011700Y003200D02*
X011600Y003100D01*
X011600Y002050D01*
X012100Y001550D01*
X013140Y002410D02*
X013210Y002340D01*
X013350Y002340D01*
X013420Y002410D01*
X013601Y002410D02*
X013671Y002340D01*
X013811Y002340D01*
X013881Y002410D01*
X013741Y002550D02*
X013671Y002550D01*
X013601Y002480D01*
X013601Y002410D01*
X013671Y002550D02*
X013601Y002620D01*
X013601Y002690D01*
X013671Y002760D01*
X013811Y002760D01*
X013881Y002690D01*
X013420Y002690D02*
X013350Y002760D01*
X013210Y002760D01*
X013140Y002690D01*
X013140Y002620D01*
X013210Y002550D01*
X013140Y002480D01*
X013140Y002410D01*
X013210Y002550D02*
X013280Y002550D01*
X012100Y003240D02*
X012100Y003520D01*
D11*
X012575Y002550D02*
X013000Y002550D01*
X002625Y002550D02*
X002150Y002550D01*
M02*
