G75*
%MOIN*%
%OFA0B0*%
%FSLAX24Y24*%
%IPPOS*%
%LPD*%
%AMOC8*
5,1,8,0,0,1.08239X$1,22.5*
%
%ADD10C,0.0000*%
D10*
X000100Y000600D02*
X000100Y020600D01*
X015100Y020600D01*
X015100Y000600D01*
X000100Y000600D01*
X000510Y001600D02*
X000512Y001648D01*
X000518Y001695D01*
X000528Y001742D01*
X000541Y001788D01*
X000559Y001833D01*
X000580Y001876D01*
X000604Y001917D01*
X000632Y001956D01*
X000663Y001993D01*
X000697Y002027D01*
X000734Y002058D01*
X000773Y002086D01*
X000814Y002110D01*
X000857Y002131D01*
X000902Y002149D01*
X000948Y002162D01*
X000995Y002172D01*
X001042Y002178D01*
X001090Y002180D01*
X001138Y002178D01*
X001185Y002172D01*
X001232Y002162D01*
X001278Y002149D01*
X001323Y002131D01*
X001366Y002110D01*
X001407Y002086D01*
X001446Y002058D01*
X001483Y002027D01*
X001517Y001993D01*
X001548Y001956D01*
X001576Y001917D01*
X001600Y001876D01*
X001621Y001833D01*
X001639Y001788D01*
X001652Y001742D01*
X001662Y001695D01*
X001668Y001648D01*
X001670Y001600D01*
X001668Y001552D01*
X001662Y001505D01*
X001652Y001458D01*
X001639Y001412D01*
X001621Y001367D01*
X001600Y001324D01*
X001576Y001283D01*
X001548Y001244D01*
X001517Y001207D01*
X001483Y001173D01*
X001446Y001142D01*
X001407Y001114D01*
X001366Y001090D01*
X001323Y001069D01*
X001278Y001051D01*
X001232Y001038D01*
X001185Y001028D01*
X001138Y001022D01*
X001090Y001020D01*
X001042Y001022D01*
X000995Y001028D01*
X000948Y001038D01*
X000902Y001051D01*
X000857Y001069D01*
X000814Y001090D01*
X000773Y001114D01*
X000734Y001142D01*
X000697Y001173D01*
X000663Y001207D01*
X000632Y001244D01*
X000604Y001283D01*
X000580Y001324D01*
X000559Y001367D01*
X000541Y001412D01*
X000528Y001458D01*
X000518Y001505D01*
X000512Y001552D01*
X000510Y001600D01*
X000510Y019600D02*
X000512Y019648D01*
X000518Y019695D01*
X000528Y019742D01*
X000541Y019788D01*
X000559Y019833D01*
X000580Y019876D01*
X000604Y019917D01*
X000632Y019956D01*
X000663Y019993D01*
X000697Y020027D01*
X000734Y020058D01*
X000773Y020086D01*
X000814Y020110D01*
X000857Y020131D01*
X000902Y020149D01*
X000948Y020162D01*
X000995Y020172D01*
X001042Y020178D01*
X001090Y020180D01*
X001138Y020178D01*
X001185Y020172D01*
X001232Y020162D01*
X001278Y020149D01*
X001323Y020131D01*
X001366Y020110D01*
X001407Y020086D01*
X001446Y020058D01*
X001483Y020027D01*
X001517Y019993D01*
X001548Y019956D01*
X001576Y019917D01*
X001600Y019876D01*
X001621Y019833D01*
X001639Y019788D01*
X001652Y019742D01*
X001662Y019695D01*
X001668Y019648D01*
X001670Y019600D01*
X001668Y019552D01*
X001662Y019505D01*
X001652Y019458D01*
X001639Y019412D01*
X001621Y019367D01*
X001600Y019324D01*
X001576Y019283D01*
X001548Y019244D01*
X001517Y019207D01*
X001483Y019173D01*
X001446Y019142D01*
X001407Y019114D01*
X001366Y019090D01*
X001323Y019069D01*
X001278Y019051D01*
X001232Y019038D01*
X001185Y019028D01*
X001138Y019022D01*
X001090Y019020D01*
X001042Y019022D01*
X000995Y019028D01*
X000948Y019038D01*
X000902Y019051D01*
X000857Y019069D01*
X000814Y019090D01*
X000773Y019114D01*
X000734Y019142D01*
X000697Y019173D01*
X000663Y019207D01*
X000632Y019244D01*
X000604Y019283D01*
X000580Y019324D01*
X000559Y019367D01*
X000541Y019412D01*
X000528Y019458D01*
X000518Y019505D01*
X000512Y019552D01*
X000510Y019600D01*
X013530Y019600D02*
X013532Y019648D01*
X013538Y019695D01*
X013548Y019742D01*
X013561Y019788D01*
X013579Y019833D01*
X013600Y019876D01*
X013624Y019917D01*
X013652Y019956D01*
X013683Y019993D01*
X013717Y020027D01*
X013754Y020058D01*
X013793Y020086D01*
X013834Y020110D01*
X013877Y020131D01*
X013922Y020149D01*
X013968Y020162D01*
X014015Y020172D01*
X014062Y020178D01*
X014110Y020180D01*
X014158Y020178D01*
X014205Y020172D01*
X014252Y020162D01*
X014298Y020149D01*
X014343Y020131D01*
X014386Y020110D01*
X014427Y020086D01*
X014466Y020058D01*
X014503Y020027D01*
X014537Y019993D01*
X014568Y019956D01*
X014596Y019917D01*
X014620Y019876D01*
X014641Y019833D01*
X014659Y019788D01*
X014672Y019742D01*
X014682Y019695D01*
X014688Y019648D01*
X014690Y019600D01*
X014688Y019552D01*
X014682Y019505D01*
X014672Y019458D01*
X014659Y019412D01*
X014641Y019367D01*
X014620Y019324D01*
X014596Y019283D01*
X014568Y019244D01*
X014537Y019207D01*
X014503Y019173D01*
X014466Y019142D01*
X014427Y019114D01*
X014386Y019090D01*
X014343Y019069D01*
X014298Y019051D01*
X014252Y019038D01*
X014205Y019028D01*
X014158Y019022D01*
X014110Y019020D01*
X014062Y019022D01*
X014015Y019028D01*
X013968Y019038D01*
X013922Y019051D01*
X013877Y019069D01*
X013834Y019090D01*
X013793Y019114D01*
X013754Y019142D01*
X013717Y019173D01*
X013683Y019207D01*
X013652Y019244D01*
X013624Y019283D01*
X013600Y019324D01*
X013579Y019367D01*
X013561Y019412D01*
X013548Y019458D01*
X013538Y019505D01*
X013532Y019552D01*
X013530Y019600D01*
X013530Y001600D02*
X013532Y001648D01*
X013538Y001695D01*
X013548Y001742D01*
X013561Y001788D01*
X013579Y001833D01*
X013600Y001876D01*
X013624Y001917D01*
X013652Y001956D01*
X013683Y001993D01*
X013717Y002027D01*
X013754Y002058D01*
X013793Y002086D01*
X013834Y002110D01*
X013877Y002131D01*
X013922Y002149D01*
X013968Y002162D01*
X014015Y002172D01*
X014062Y002178D01*
X014110Y002180D01*
X014158Y002178D01*
X014205Y002172D01*
X014252Y002162D01*
X014298Y002149D01*
X014343Y002131D01*
X014386Y002110D01*
X014427Y002086D01*
X014466Y002058D01*
X014503Y002027D01*
X014537Y001993D01*
X014568Y001956D01*
X014596Y001917D01*
X014620Y001876D01*
X014641Y001833D01*
X014659Y001788D01*
X014672Y001742D01*
X014682Y001695D01*
X014688Y001648D01*
X014690Y001600D01*
X014688Y001552D01*
X014682Y001505D01*
X014672Y001458D01*
X014659Y001412D01*
X014641Y001367D01*
X014620Y001324D01*
X014596Y001283D01*
X014568Y001244D01*
X014537Y001207D01*
X014503Y001173D01*
X014466Y001142D01*
X014427Y001114D01*
X014386Y001090D01*
X014343Y001069D01*
X014298Y001051D01*
X014252Y001038D01*
X014205Y001028D01*
X014158Y001022D01*
X014110Y001020D01*
X014062Y001022D01*
X014015Y001028D01*
X013968Y001038D01*
X013922Y001051D01*
X013877Y001069D01*
X013834Y001090D01*
X013793Y001114D01*
X013754Y001142D01*
X013717Y001173D01*
X013683Y001207D01*
X013652Y001244D01*
X013624Y001283D01*
X013600Y001324D01*
X013579Y001367D01*
X013561Y001412D01*
X013548Y001458D01*
X013538Y001505D01*
X013532Y001552D01*
X013530Y001600D01*
M02*
