G75*
%MOIN*%
%OFA0B0*%
%FSLAX24Y24*%
%IPPOS*%
%LPD*%
%AMOC8*
5,1,8,0,0,1.08239X$1,22.5*
%
%ADD10C,0.0570*%
%ADD11OC8,0.0740*%
%ADD12C,0.0472*%
%ADD13C,0.0740*%
%ADD14C,0.0270*%
%ADD15C,0.0100*%
%ADD16C,0.0080*%
%ADD17C,0.0060*%
D10*
X004600Y007050D03*
X004600Y008050D03*
X004600Y009050D03*
X004600Y010050D03*
X004600Y011050D03*
X004600Y012050D03*
X004600Y013050D03*
X004600Y014050D03*
X004600Y015050D03*
X004600Y016050D03*
X004600Y017050D03*
X004600Y018050D03*
X004600Y019050D03*
X004600Y020050D03*
X007600Y014050D03*
X007600Y013050D03*
X007600Y012050D03*
X007600Y011050D03*
X007600Y010050D03*
X007600Y009050D03*
X007600Y008050D03*
X007600Y007050D03*
X006600Y007050D03*
X005600Y007050D03*
X008600Y007050D03*
X008600Y008050D03*
X008600Y009050D03*
X008600Y010050D03*
X008600Y011050D03*
X008600Y012050D03*
X008600Y013050D03*
X008600Y014050D03*
X009600Y015050D03*
X009600Y016050D03*
X009600Y017050D03*
X010600Y017050D03*
X010600Y016050D03*
X010600Y015050D03*
X010600Y014050D03*
X010600Y013050D03*
X010600Y012050D03*
X010600Y011050D03*
X010600Y010050D03*
X010600Y009050D03*
X010600Y008050D03*
X010600Y007050D03*
X009600Y007050D03*
X010600Y018050D03*
X010600Y019050D03*
X010600Y020050D03*
X009600Y019050D03*
D11*
X009100Y002550D03*
X009100Y001550D03*
X010100Y001550D03*
X010100Y002550D03*
X011100Y002550D03*
X011100Y001550D03*
X012100Y001550D03*
X012100Y002550D03*
X008100Y002550D03*
X008100Y001550D03*
X007100Y001550D03*
X007100Y002550D03*
X006100Y002550D03*
X006100Y001550D03*
X005100Y001550D03*
X005100Y002550D03*
X004100Y002550D03*
X004100Y001550D03*
X003100Y001550D03*
X003100Y002550D03*
D12*
X001150Y005050D03*
X001050Y006050D03*
X001150Y007050D03*
X001050Y008050D03*
X001150Y009050D03*
X001050Y010050D03*
X001150Y011050D03*
X001050Y012050D03*
X003050Y014050D03*
X003150Y013050D03*
X003150Y015050D03*
X003050Y016050D03*
X003150Y017050D03*
X003050Y018050D03*
X003150Y019050D03*
X003050Y020050D03*
X012050Y020050D03*
X012150Y019050D03*
X012050Y018050D03*
X012150Y017050D03*
X012050Y016050D03*
X012150Y015050D03*
X012050Y014050D03*
X012150Y013050D03*
X014050Y012050D03*
X014150Y011050D03*
X014050Y010050D03*
X014150Y009050D03*
X014050Y008050D03*
X014150Y007050D03*
X014050Y006050D03*
X014150Y005050D03*
D13*
X013100Y005050D03*
X013100Y006050D03*
X013100Y007050D03*
X013100Y008050D03*
X013100Y009050D03*
X013100Y010050D03*
X013100Y011050D03*
X013100Y012050D03*
X013100Y013050D03*
X013100Y014050D03*
X013100Y015050D03*
X013100Y016050D03*
X013100Y017050D03*
X013100Y018050D03*
X013100Y019050D03*
X013100Y020050D03*
X002100Y020050D03*
X002100Y019050D03*
X002100Y018050D03*
X002100Y017050D03*
X002100Y016050D03*
X002100Y015050D03*
X002100Y014050D03*
X002100Y013050D03*
X002100Y012050D03*
X002100Y011050D03*
X002100Y010050D03*
X002100Y009050D03*
X002100Y008050D03*
X002100Y007050D03*
X002100Y006050D03*
X002100Y005050D03*
D14*
X005425Y004775D03*
X006600Y004900D03*
X007600Y004900D03*
X007600Y003900D03*
X011100Y006600D03*
X011350Y006900D03*
X007400Y009550D03*
X006700Y009550D03*
D15*
X002100Y005050D02*
X002100Y002400D01*
X002450Y002050D01*
X003600Y002050D01*
X004100Y001550D01*
X006600Y007050D02*
X006600Y008275D01*
X006875Y008550D01*
X007800Y008550D01*
X008100Y008850D01*
X008100Y013475D01*
X008300Y013275D01*
X008375Y013275D01*
X008600Y013050D01*
X008100Y013475D02*
X008100Y017700D01*
X008450Y018050D01*
X010600Y018050D01*
X005550Y018050D01*
X005300Y018300D01*
X005300Y019350D01*
X005100Y019550D01*
X003550Y019550D01*
X003050Y020050D01*
X002100Y020050D01*
X006700Y009550D02*
X007400Y009550D01*
D16*
X004600Y009050D02*
X002100Y009050D01*
X001150Y009050D01*
X001050Y008050D02*
X002100Y008050D01*
X004600Y008050D01*
X004600Y007050D02*
X002100Y007050D01*
X001150Y007050D01*
X001050Y006050D02*
X002100Y006050D01*
X002100Y010050D02*
X001050Y010050D01*
X001150Y011050D02*
X002100Y011050D01*
X004600Y011050D01*
X004600Y010050D02*
X002100Y010050D01*
X002100Y012050D02*
X001050Y012050D01*
X002100Y012050D02*
X004600Y012050D01*
X004600Y013050D02*
X003150Y013050D01*
X002100Y013050D01*
X002100Y014050D02*
X003050Y014050D01*
X004600Y014050D01*
X004600Y015050D02*
X003150Y015050D01*
X002100Y015050D01*
X002100Y016050D02*
X003050Y016050D01*
X004600Y016050D01*
X004600Y017050D02*
X003150Y017050D01*
X002100Y017050D01*
X002100Y018050D02*
X003050Y018050D01*
X004600Y018050D01*
X004600Y019050D02*
X003150Y019050D01*
X002100Y019050D01*
X012050Y018050D02*
X013100Y018050D01*
X013100Y017050D02*
X012150Y017050D01*
X012050Y016050D02*
X013100Y016050D01*
X013100Y015050D02*
X012150Y015050D01*
X012050Y014050D02*
X013100Y014050D01*
X013100Y013050D02*
X012150Y013050D01*
X013100Y012050D02*
X014050Y012050D01*
X014150Y011050D02*
X013100Y011050D01*
X013100Y010050D02*
X014050Y010050D01*
X014150Y009050D02*
X013100Y009050D01*
X013100Y008050D02*
X014050Y008050D01*
X014150Y007050D02*
X013100Y007050D01*
X013100Y006050D02*
X014050Y006050D01*
X013100Y020050D02*
X012050Y020050D01*
D17*
X009600Y016050D02*
X010100Y015550D01*
X011100Y015550D01*
X011350Y015300D01*
X011350Y006900D01*
X011100Y006600D02*
X011100Y014300D01*
X010850Y014550D01*
X010100Y014550D01*
X009600Y015050D01*
X010025Y012050D02*
X008600Y012050D01*
X008600Y011050D02*
X009875Y011050D01*
X010025Y010900D01*
X010025Y005500D01*
X010225Y005300D01*
X010900Y005300D01*
X011100Y005100D01*
X011100Y002550D01*
X010100Y002550D02*
X010100Y004800D01*
X009900Y005000D01*
X009400Y005000D01*
X009175Y005225D01*
X009175Y009900D01*
X009025Y010050D01*
X008600Y010050D01*
X008600Y009050D02*
X009025Y008625D01*
X009025Y005075D01*
X009100Y005000D01*
X009100Y002550D01*
X008100Y002550D02*
X007175Y003475D01*
X007175Y007400D01*
X007375Y007600D01*
X008150Y007600D01*
X008600Y008050D01*
X007600Y008050D02*
X007200Y008050D01*
X007025Y007875D01*
X007025Y002625D01*
X007100Y002550D01*
X006600Y002050D02*
X007100Y001550D01*
X006600Y002050D02*
X006600Y004900D01*
X006175Y005175D02*
X006100Y005100D01*
X006100Y002550D01*
X005600Y002050D02*
X006100Y001550D01*
X005600Y002050D02*
X005600Y004600D01*
X005425Y004775D01*
X005300Y005100D02*
X005100Y004900D01*
X005100Y002550D01*
X004100Y002550D02*
X004100Y005100D01*
X004300Y005300D01*
X004975Y005300D01*
X005175Y005500D01*
X005175Y010900D01*
X005325Y011050D01*
X007600Y011050D01*
X007600Y010050D02*
X006200Y010050D01*
X006025Y009875D01*
X006025Y005325D01*
X005800Y005100D01*
X005300Y005100D01*
X004800Y005500D02*
X005025Y005725D01*
X005025Y011900D01*
X005175Y012050D01*
X007600Y012050D01*
X007600Y009050D02*
X006350Y009050D01*
X006175Y008875D01*
X006175Y005175D01*
X004800Y005500D02*
X003300Y005500D01*
X003100Y005300D01*
X003100Y002550D01*
X007600Y003900D02*
X007600Y004900D01*
X010175Y005725D02*
X010400Y005500D01*
X011900Y005500D01*
X012100Y005300D01*
X012100Y002550D01*
X010175Y005725D02*
X010175Y011900D01*
X010025Y012050D01*
M02*
