G75*
%MOIN*%
%OFA0B0*%
%FSLAX24Y24*%
%IPPOS*%
%LPD*%
%AMOC8*
5,1,8,0,0,1.08239X$1,22.5*
%
%ADD10C,0.0050*%
%ADD11C,0.0070*%
%ADD12C,0.0060*%
%ADD13C,0.0040*%
%ADD14C,0.0150*%
%ADD15C,0.0090*%
%ADD16C,0.0080*%
%ADD17R,0.0374X0.0197*%
%ADD18R,0.0160X0.0340*%
%ADD19R,0.0340X0.0160*%
%ADD20C,0.0049*%
%ADD21R,0.0197X0.0374*%
%ADD22C,0.0010*%
%ADD23R,0.0140X0.0400*%
D10*
X006500Y014593D02*
X006500Y015068D01*
X006900Y015068D01*
X006900Y014593D01*
X006500Y014593D01*
X006450Y016043D02*
X006450Y019943D01*
X008950Y019943D01*
X008950Y016043D01*
X006450Y016043D01*
X004067Y019343D02*
X004125Y019401D01*
X004125Y019518D01*
X004067Y019576D01*
X004009Y019576D01*
X003950Y019518D01*
X003892Y019576D01*
X003833Y019576D01*
X003775Y019518D01*
X003775Y019401D01*
X003833Y019343D01*
X003950Y019460D02*
X003950Y019518D01*
X004009Y019711D02*
X003775Y019828D01*
X004009Y019945D01*
X004067Y020080D02*
X004125Y020138D01*
X004125Y020255D01*
X004067Y020313D01*
X004009Y020313D01*
X003950Y020255D01*
X003892Y020313D01*
X003833Y020313D01*
X003775Y020255D01*
X003775Y020138D01*
X003833Y020080D01*
X003950Y020196D02*
X003950Y020255D01*
X002380Y018581D02*
X002447Y018514D01*
X002447Y018314D01*
X002046Y018314D01*
X002046Y018514D01*
X002113Y018581D01*
X002380Y018581D01*
X002447Y018167D02*
X002046Y018167D01*
X002447Y017900D01*
X002046Y017900D01*
X002113Y017752D02*
X002246Y017752D01*
X002246Y017619D01*
X002113Y017752D02*
X002046Y017686D01*
X002046Y017552D01*
X002113Y017485D01*
X002380Y017485D01*
X002447Y017552D01*
X002447Y017686D01*
X002380Y017752D01*
X011072Y019851D02*
X011072Y020118D01*
X011072Y019851D02*
X011206Y019718D01*
X011339Y019851D01*
X011339Y020118D01*
X011487Y020118D02*
X011754Y020118D01*
X011754Y019918D01*
X011620Y019985D01*
X011554Y019985D01*
X011487Y019918D01*
X011487Y019785D01*
X011554Y019718D01*
X011687Y019718D01*
X011754Y019785D01*
X011575Y019346D02*
X011625Y019296D01*
X011625Y019146D01*
X011325Y019146D01*
X011325Y019296D01*
X011375Y019346D01*
X011575Y019346D01*
X011625Y019024D02*
X011325Y019024D01*
X011625Y018823D01*
X011325Y018823D01*
X011375Y018701D02*
X011475Y018701D01*
X011475Y018601D01*
X011375Y018501D02*
X011325Y018551D01*
X011325Y018651D01*
X011375Y018701D01*
X011375Y018501D02*
X011575Y018501D01*
X011625Y018551D01*
X011625Y018651D01*
X011575Y018701D01*
X011575Y018118D02*
X011508Y018052D01*
X011508Y017985D01*
X011775Y017718D01*
X011508Y017718D01*
X011361Y017785D02*
X011294Y017718D01*
X011160Y017718D01*
X011094Y017785D01*
X011094Y017851D01*
X011160Y017918D01*
X011227Y017918D01*
X011160Y017918D02*
X011094Y017985D01*
X011094Y018052D01*
X011160Y018118D01*
X011294Y018118D01*
X011361Y018052D01*
X011575Y018118D02*
X011708Y018118D01*
X011775Y018052D01*
X011708Y017118D02*
X011575Y017118D01*
X011508Y017052D01*
X011508Y016985D01*
X011775Y016718D01*
X011508Y016718D01*
X011361Y016718D02*
X011094Y016985D01*
X011094Y017052D01*
X011160Y017118D01*
X011294Y017118D01*
X011361Y017052D01*
X011361Y016718D02*
X011094Y016718D01*
X011227Y016118D02*
X011227Y015718D01*
X011094Y015718D02*
X011361Y015718D01*
X011508Y015718D02*
X011775Y015718D01*
X011508Y015985D01*
X011508Y016052D01*
X011575Y016118D01*
X011708Y016118D01*
X011775Y016052D01*
X011361Y015985D02*
X011227Y016118D01*
X011160Y015118D02*
X011094Y015052D01*
X011361Y014785D01*
X011294Y014718D01*
X011160Y014718D01*
X011094Y014785D01*
X011094Y015052D01*
X011160Y015118D02*
X011294Y015118D01*
X011361Y015052D01*
X011361Y014785D01*
X011508Y014718D02*
X011775Y014718D01*
X011508Y014985D01*
X011508Y015052D01*
X011575Y015118D01*
X011708Y015118D01*
X011775Y015052D01*
X011642Y014118D02*
X011642Y013718D01*
X011775Y013718D02*
X011508Y013718D01*
X011361Y013785D02*
X011294Y013718D01*
X011160Y013718D01*
X011094Y013785D01*
X011094Y014052D01*
X011160Y014118D01*
X011294Y014118D01*
X011361Y014052D01*
X011361Y013985D01*
X011294Y013918D01*
X011094Y013918D01*
X011642Y014118D02*
X011775Y013985D01*
X011642Y013118D02*
X011642Y012718D01*
X011775Y012718D02*
X011508Y012718D01*
X011361Y012785D02*
X011361Y012851D01*
X011294Y012918D01*
X011160Y012918D01*
X011094Y012851D01*
X011094Y012785D01*
X011160Y012718D01*
X011294Y012718D01*
X011361Y012785D01*
X011294Y012918D02*
X011361Y012985D01*
X011361Y013052D01*
X011294Y013118D01*
X011160Y013118D01*
X011094Y013052D01*
X011094Y012985D01*
X011160Y012918D01*
X011642Y013118D02*
X011775Y012985D01*
X011722Y011646D02*
X011724Y011679D01*
X011730Y011711D01*
X011739Y011743D01*
X011753Y011773D01*
X011769Y011801D01*
X011789Y011827D01*
X011812Y011851D01*
X011838Y011872D01*
X011866Y011889D01*
X011896Y011904D01*
X011927Y011914D01*
X011959Y011921D01*
X011992Y011924D01*
X012025Y011923D01*
X012057Y011918D01*
X012089Y011909D01*
X012120Y011897D01*
X012148Y011881D01*
X012175Y011862D01*
X012199Y011840D01*
X012221Y011815D01*
X012239Y011787D01*
X012254Y011758D01*
X012266Y011727D01*
X012274Y011695D01*
X012278Y011662D01*
X012278Y011630D01*
X012274Y011597D01*
X012266Y011565D01*
X012254Y011534D01*
X012239Y011505D01*
X012221Y011477D01*
X012199Y011452D01*
X012175Y011430D01*
X012148Y011411D01*
X012120Y011395D01*
X012089Y011383D01*
X012057Y011374D01*
X012025Y011369D01*
X011992Y011368D01*
X011959Y011371D01*
X011927Y011378D01*
X011896Y011388D01*
X011866Y011403D01*
X011838Y011420D01*
X011812Y011441D01*
X011789Y011465D01*
X011769Y011491D01*
X011753Y011519D01*
X011739Y011549D01*
X011730Y011581D01*
X011724Y011613D01*
X011722Y011646D01*
X012503Y007457D02*
X012367Y007362D01*
X012327Y007132D01*
X012357Y007305D02*
X012587Y007264D01*
X012597Y007322D02*
X012503Y007457D01*
X012597Y007322D02*
X012557Y007092D01*
X012700Y007126D02*
X012740Y007356D01*
X012808Y007403D01*
X012980Y007373D01*
X012920Y007028D01*
X012747Y007058D01*
X012700Y007126D01*
X012975Y006929D02*
X012827Y006612D01*
X012615Y006711D01*
X012974Y006608D02*
X013002Y006530D01*
X013108Y006481D01*
X013185Y006509D01*
X013284Y006721D01*
X013256Y006798D01*
X013150Y006848D01*
X013072Y006819D01*
X013110Y006994D02*
X013225Y006974D01*
X013292Y007021D01*
X013255Y007147D02*
X013140Y007167D01*
X013073Y007119D01*
X013062Y007062D01*
X013110Y006994D01*
X013255Y007147D02*
X013323Y007194D01*
X013333Y007251D01*
X013286Y007319D01*
X013171Y007339D01*
X013103Y007292D01*
X013456Y007170D02*
X013415Y006940D01*
X013445Y007113D02*
X013675Y007072D01*
X013686Y007130D02*
X013591Y007265D01*
X013456Y007170D01*
X013686Y007130D02*
X013645Y006900D01*
X013590Y006643D02*
X013484Y006692D01*
X013406Y006664D01*
X013410Y006533D02*
X013332Y006505D01*
X013308Y006452D01*
X013336Y006375D01*
X013442Y006325D01*
X013519Y006353D01*
X013516Y006484D02*
X013410Y006533D01*
X013516Y006484D02*
X013593Y006512D01*
X013618Y006565D01*
X013590Y006643D01*
X013715Y006455D02*
X013617Y006244D01*
X013691Y006402D02*
X013902Y006304D01*
X013927Y006357D02*
X013871Y006512D01*
X013715Y006455D01*
X013927Y006357D02*
X013828Y006145D01*
X011775Y017052D02*
X011708Y017118D01*
D11*
X012659Y010183D02*
X013013Y010183D01*
X013013Y009918D01*
X012836Y010007D01*
X012747Y010007D01*
X012659Y009918D01*
X012659Y009741D01*
X012747Y009653D01*
X012924Y009653D01*
X013013Y009741D01*
X013211Y009653D02*
X013565Y009653D01*
X013388Y009653D02*
X013388Y010183D01*
X013565Y010007D01*
X013355Y009233D02*
X013355Y008603D01*
X013565Y008603D02*
X013145Y008603D01*
X012920Y008918D02*
X012500Y008918D01*
X012605Y008603D02*
X012605Y009233D01*
X012920Y008918D01*
X013355Y009233D02*
X013565Y009023D01*
X013355Y008233D02*
X013355Y007603D01*
X013565Y007603D02*
X013145Y007603D01*
X012920Y007708D02*
X012815Y007603D01*
X012605Y007603D01*
X012500Y007708D01*
X012500Y007813D01*
X012605Y007918D01*
X012710Y007918D01*
X012605Y007918D02*
X012500Y008023D01*
X012500Y008128D01*
X012605Y008233D01*
X012815Y008233D01*
X012920Y008128D01*
X013355Y008233D02*
X013565Y008023D01*
X009965Y005458D02*
X009965Y005143D01*
X009755Y005248D01*
X009650Y005248D01*
X009545Y005143D01*
X009545Y004933D01*
X009650Y004828D01*
X009860Y004828D01*
X009965Y004933D01*
X009860Y004458D02*
X009650Y004458D01*
X009545Y004353D01*
X009545Y004143D02*
X009755Y004143D01*
X009965Y003933D02*
X009860Y003828D01*
X009650Y003828D01*
X009545Y003933D01*
X009545Y004143D01*
X009320Y003828D02*
X009320Y004458D01*
X008900Y003828D01*
X008900Y004458D01*
X008676Y004458D02*
X008361Y004458D01*
X008256Y004353D01*
X008256Y003933D01*
X008361Y003828D01*
X008676Y003828D01*
X008676Y004458D01*
X009110Y004828D02*
X008900Y005038D01*
X008900Y005458D01*
X009320Y005458D02*
X009320Y005038D01*
X009110Y004828D01*
X009545Y005458D02*
X009965Y005458D01*
X009860Y004458D02*
X009965Y004353D01*
X009965Y003933D01*
X009965Y003458D02*
X009650Y003458D01*
X009545Y003353D01*
X009545Y003143D01*
X009650Y003038D01*
X009965Y003038D01*
X009965Y002828D02*
X009965Y003458D01*
X009755Y003038D02*
X009545Y002828D01*
X009320Y002828D02*
X008900Y003458D01*
X009320Y003458D02*
X008900Y002828D01*
X008900Y002458D02*
X009320Y001828D01*
X008900Y001828D02*
X009320Y002458D01*
X009545Y002458D02*
X009965Y002458D01*
X009755Y002458D02*
X009755Y001828D01*
X002154Y009603D02*
X002260Y009708D01*
X002154Y009603D02*
X001944Y009603D01*
X001839Y009708D01*
X001839Y010128D01*
X001944Y010233D01*
X002154Y010233D01*
X002260Y010128D01*
X002260Y010023D01*
X002154Y009918D01*
X001839Y009918D01*
X001944Y010603D02*
X001839Y010708D01*
X001839Y010813D01*
X001944Y010918D01*
X002154Y010918D01*
X002260Y011023D01*
X002260Y011128D01*
X002154Y011233D01*
X001944Y011233D01*
X001839Y011128D01*
X001839Y011023D01*
X001944Y010918D01*
X002154Y010918D02*
X002260Y010813D01*
X002260Y010708D01*
X002154Y010603D01*
X001944Y010603D01*
X002260Y011603D02*
X002260Y011708D01*
X001839Y012128D01*
X001839Y012233D01*
X002260Y012233D01*
X003839Y012708D02*
X003839Y012813D01*
X003944Y012918D01*
X004260Y012918D01*
X004260Y012708D01*
X004154Y012603D01*
X003944Y012603D01*
X003839Y012708D01*
X004049Y013128D02*
X004260Y012918D01*
X004049Y013128D02*
X003839Y013233D01*
X003944Y013603D02*
X004154Y013603D01*
X004260Y013708D01*
X004260Y013918D02*
X004049Y014023D01*
X003944Y014023D01*
X003839Y013918D01*
X003839Y013708D01*
X003944Y013603D01*
X004260Y013918D02*
X004260Y014233D01*
X003839Y014233D01*
X003944Y014603D02*
X003944Y015233D01*
X004260Y014918D01*
X003839Y014918D01*
X003944Y015603D02*
X004154Y015603D01*
X004260Y015708D01*
X004049Y015918D02*
X003944Y015918D01*
X003839Y015813D01*
X003839Y015708D01*
X003944Y015603D01*
X003944Y015918D02*
X003839Y016023D01*
X003839Y016128D01*
X003944Y016233D01*
X004154Y016233D01*
X004260Y016128D01*
X004260Y016603D02*
X003839Y017023D01*
X003839Y017128D01*
X003944Y017233D01*
X004154Y017233D01*
X004260Y017128D01*
X004260Y016603D02*
X003839Y016603D01*
X003839Y017603D02*
X004260Y017603D01*
X004049Y017603D02*
X004049Y018233D01*
X004260Y018023D01*
X004154Y018603D02*
X003944Y018603D01*
X003839Y018708D01*
X003839Y019128D01*
X004260Y018708D01*
X004154Y018603D01*
X004260Y018708D02*
X004260Y019128D01*
X004154Y019233D01*
X003944Y019233D01*
X003839Y019128D01*
D12*
X005140Y019408D02*
X006260Y019408D01*
X006260Y019928D01*
X005140Y019928D01*
X005140Y019408D01*
X005935Y018638D02*
X005935Y018298D01*
X006215Y018298D02*
X006215Y018638D01*
X009140Y019408D02*
X010260Y019408D01*
X010260Y019928D01*
X009140Y019928D01*
X009140Y019408D01*
X008970Y013008D02*
X008630Y013008D01*
X008630Y012728D02*
X008970Y012728D01*
X009985Y012238D02*
X009985Y011898D01*
X010265Y011898D02*
X010265Y012238D01*
X012816Y012138D02*
X012816Y012065D01*
X013110Y011771D01*
X013110Y011698D01*
X013276Y011698D02*
X013570Y011698D01*
X013423Y011698D02*
X013423Y012138D01*
X013570Y011992D01*
X013110Y012138D02*
X012816Y012138D01*
X012816Y011138D02*
X012963Y011065D01*
X013110Y010918D01*
X012889Y010918D01*
X012816Y010845D01*
X012816Y010771D01*
X012889Y010698D01*
X013036Y010698D01*
X013110Y010771D01*
X013110Y010918D01*
X013276Y010698D02*
X013570Y010698D01*
X013423Y010698D02*
X013423Y011138D01*
X013570Y010992D01*
X010215Y007088D02*
X010215Y006748D01*
X009935Y006748D02*
X009935Y007088D01*
X008620Y006758D02*
X008280Y006758D01*
X008280Y006478D02*
X008620Y006478D01*
X003880Y007208D02*
X002020Y007208D01*
X002020Y008628D01*
X003880Y008628D01*
X003880Y007208D01*
X013310Y005438D02*
X013310Y005098D01*
X013590Y005098D02*
X013590Y005438D01*
X013590Y003938D02*
X013590Y003598D01*
X013860Y003598D02*
X013860Y003938D01*
X014140Y003938D02*
X014140Y003598D01*
X014410Y003538D02*
X014410Y003198D01*
X014690Y003198D02*
X014690Y003538D01*
X013310Y003598D02*
X013310Y003938D01*
D13*
X014570Y004498D02*
X014570Y004618D01*
X014630Y004678D01*
X014750Y004678D01*
X014750Y004558D01*
X014630Y004438D02*
X014570Y004498D01*
X014630Y004438D02*
X014870Y004438D01*
X014930Y004498D01*
X014930Y004618D01*
X014870Y004678D01*
X014930Y004806D02*
X014570Y005046D01*
X014930Y005046D01*
X014930Y005175D02*
X014930Y005355D01*
X014870Y005415D01*
X014630Y005415D01*
X014570Y005355D01*
X014570Y005175D01*
X014930Y005175D01*
X014930Y004806D02*
X014570Y004806D01*
X012165Y006473D02*
X011885Y006473D01*
X011885Y006808D02*
X012165Y006808D01*
X011612Y009516D02*
X011881Y009593D01*
X011790Y009915D02*
X011520Y009838D01*
X010320Y010678D02*
X010320Y010958D01*
X009985Y010958D02*
X009985Y010678D01*
X008935Y011613D02*
X008935Y011893D01*
X008600Y011893D02*
X008600Y011613D01*
X007390Y011928D02*
X007390Y012208D01*
X007055Y012208D02*
X007055Y011928D01*
X006195Y011083D02*
X006195Y010803D01*
X005860Y010803D02*
X005860Y011083D01*
X006130Y009558D02*
X006130Y009278D01*
X006465Y009278D02*
X006465Y009558D01*
X005995Y008183D02*
X005995Y007903D01*
X005660Y007903D02*
X005660Y008183D01*
X006180Y007508D02*
X006180Y007228D01*
X006515Y007228D02*
X006515Y007508D01*
X009085Y007473D02*
X009365Y007473D01*
X009365Y007808D02*
X009085Y007808D01*
X003140Y009498D02*
X002860Y009498D01*
X002860Y009833D02*
X003140Y009833D01*
X001898Y006459D02*
X001550Y006366D01*
X001960Y006227D01*
X001612Y006134D01*
X001645Y006012D02*
X001676Y005896D01*
X001660Y005954D02*
X002008Y006048D01*
X001993Y006106D02*
X002024Y005990D01*
X002057Y005866D02*
X001825Y005804D01*
X001740Y005657D01*
X001887Y005572D01*
X002119Y005634D01*
X001882Y005419D02*
X001928Y005245D01*
X001580Y005152D01*
X001534Y005326D01*
X001576Y005400D01*
X001808Y005462D01*
X001882Y005419D01*
X001961Y005122D02*
X001613Y005028D01*
X002024Y004890D01*
X001676Y004796D01*
X001767Y004688D02*
X001883Y004719D01*
X001914Y004603D01*
X002061Y004518D02*
X001829Y004456D01*
X001755Y004499D01*
X001724Y004615D01*
X001767Y004688D01*
X001999Y004750D02*
X002072Y004708D01*
X002103Y004592D01*
X002061Y004518D01*
X005985Y016178D02*
X005985Y016458D01*
X006320Y016458D02*
X006320Y016178D01*
X009085Y016178D02*
X009085Y016458D01*
X009420Y016458D02*
X009420Y016178D01*
D14*
X008350Y014993D02*
X007050Y014993D01*
D15*
X011870Y011743D02*
X011872Y011766D01*
X011878Y011787D01*
X011887Y011808D01*
X011900Y011827D01*
X011916Y011843D01*
X011935Y011856D01*
X011956Y011865D01*
X011977Y011871D01*
X012000Y011873D01*
X012023Y011871D01*
X012044Y011865D01*
X012065Y011856D01*
X012084Y011843D01*
X012100Y011827D01*
X012113Y011808D01*
X012122Y011787D01*
X012128Y011766D01*
X012130Y011743D01*
X012128Y011720D01*
X012122Y011699D01*
X012113Y011678D01*
X012100Y011659D01*
X012084Y011643D01*
X012065Y011630D01*
X012044Y011621D01*
X012023Y011615D01*
X012000Y011613D01*
X011977Y011615D01*
X011956Y011621D01*
X011935Y011630D01*
X011916Y011643D01*
X011900Y011659D01*
X011887Y011678D01*
X011878Y011699D01*
X011872Y011720D01*
X011870Y011743D01*
D16*
X012735Y014918D02*
X013015Y014918D01*
X012875Y015778D02*
X012875Y016058D01*
X013015Y015918D02*
X012735Y015918D01*
X012805Y016708D02*
X012945Y016708D01*
X013015Y016778D01*
X012945Y016918D02*
X012805Y016918D01*
X012735Y016848D01*
X012735Y016778D01*
X012805Y016708D01*
X012945Y016918D02*
X013015Y016988D01*
X013015Y017058D01*
X012945Y017128D01*
X012805Y017128D01*
X012735Y017058D01*
X008301Y015508D02*
X008231Y015578D01*
X008090Y015578D01*
X008020Y015508D01*
X008020Y015438D01*
X008090Y015368D01*
X008020Y015298D01*
X008020Y015228D01*
X008090Y015158D01*
X008231Y015158D01*
X008301Y015228D01*
X008160Y015368D02*
X008090Y015368D01*
X007840Y015438D02*
X007700Y015158D01*
X007560Y015438D01*
X007380Y015508D02*
X007310Y015578D01*
X007170Y015578D01*
X007100Y015508D01*
X007100Y015438D01*
X007170Y015368D01*
X007100Y015298D01*
X007100Y015228D01*
X007170Y015158D01*
X007310Y015158D01*
X007380Y015228D01*
X007240Y015368D02*
X007170Y015368D01*
X007330Y014688D02*
X007470Y014408D01*
X007610Y014688D01*
X007790Y014618D02*
X007790Y014478D01*
X007860Y014408D01*
X008000Y014408D01*
X008070Y014478D01*
X008070Y014618D02*
X007930Y014688D01*
X007860Y014688D01*
X007790Y014618D01*
X007790Y014828D02*
X008070Y014828D01*
X008070Y014618D01*
X002665Y014918D02*
X002385Y014918D01*
X002525Y015828D02*
X002525Y016108D01*
X002665Y015968D02*
X002385Y015968D01*
X002455Y016708D02*
X002595Y016708D01*
X002665Y016778D01*
X002595Y016918D02*
X002665Y016988D01*
X002665Y017058D01*
X002595Y017128D01*
X002455Y017128D01*
X002385Y017058D01*
X002455Y016918D02*
X002385Y016848D01*
X002385Y016778D01*
X002455Y016708D01*
X002455Y016918D02*
X002595Y016918D01*
D17*
X006152Y016546D03*
X006152Y016086D03*
X007223Y012300D03*
X007223Y011840D03*
X006027Y011171D03*
X006027Y010711D03*
X006298Y009650D03*
X006298Y009190D03*
X005827Y008271D03*
X005827Y007811D03*
X006348Y007600D03*
X006348Y007140D03*
X008767Y011522D03*
X008767Y011982D03*
X010152Y011046D03*
X010152Y010586D03*
X009252Y016086D03*
X009252Y016546D03*
D18*
X009050Y012868D03*
X008550Y012868D03*
X008700Y006618D03*
X008200Y006618D03*
D19*
X010075Y006668D03*
X010075Y007168D03*
X013450Y005518D03*
X013450Y005018D03*
X013450Y004018D03*
X013450Y003518D03*
X014000Y003518D03*
X014000Y004018D03*
X014550Y003618D03*
X014550Y003118D03*
X010125Y011818D03*
X010125Y012318D03*
X006075Y018218D03*
X006075Y018718D03*
D20*
X002212Y006421D02*
X002212Y000515D01*
X013235Y000515D01*
X013235Y006421D01*
X002212Y006421D01*
D21*
X002768Y009666D03*
X003228Y009666D03*
X008993Y007641D03*
X009453Y007641D03*
G36*
X011623Y009501D02*
X011435Y009447D01*
X011333Y009805D01*
X011521Y009859D01*
X011623Y009501D01*
G37*
G36*
X012065Y009627D02*
X011877Y009573D01*
X011775Y009931D01*
X011963Y009985D01*
X012065Y009627D01*
G37*
X012253Y006641D03*
X011793Y006641D03*
D22*
X006615Y014653D02*
X006654Y014699D01*
X006585Y014756D01*
X006546Y014710D01*
X006600Y014705D02*
X006619Y014728D01*
X006605Y014781D02*
X006644Y014827D01*
X006625Y014804D02*
X006694Y014746D01*
X006722Y014803D02*
X006743Y014805D01*
X006762Y014828D01*
X006761Y014849D01*
X006728Y014857D02*
X006709Y014834D01*
X006711Y014813D01*
X006722Y014803D01*
X006728Y014857D02*
X006726Y014878D01*
X006715Y014888D01*
X006693Y014886D01*
X006674Y014863D01*
X006676Y014842D01*
X006747Y014903D02*
X006793Y014864D01*
X006758Y014893D02*
X006797Y014939D01*
X006785Y014949D02*
X006743Y014945D01*
X006747Y014903D01*
X006785Y014949D02*
X006831Y014910D01*
X006817Y014964D02*
X006839Y014966D01*
X006867Y015000D01*
X006890Y014981D02*
X006821Y015039D01*
X006793Y015004D01*
X006794Y014983D01*
X006817Y014964D01*
D23*
X003700Y008848D03*
X003200Y008848D03*
X002700Y008848D03*
X002200Y008848D03*
X002200Y006988D03*
X002700Y006988D03*
X003200Y006988D03*
X003700Y006988D03*
M02*
