G75*
%MOIN*%
%OFA0B0*%
%FSLAX24Y24*%
%IPPOS*%
%LPD*%
%AMOC8*
5,1,8,0,0,1.08239X$1,22.5*
%
%ADD10C,0.0080*%
%ADD11C,0.0120*%
%ADD12C,0.0090*%
%ADD13C,0.0100*%
D10*
X002915Y004550D02*
X003565Y004550D01*
X003582Y004552D01*
X003599Y004556D01*
X003615Y004563D01*
X003629Y004573D01*
X003642Y004586D01*
X003652Y004600D01*
X003659Y004616D01*
X003663Y004633D01*
X003665Y004650D01*
X003820Y004590D02*
X003820Y004380D01*
X003890Y004310D01*
X003960Y004380D01*
X003960Y004520D01*
X004030Y004590D01*
X004100Y004520D01*
X004100Y004310D01*
X004100Y004130D02*
X003820Y004130D01*
X004100Y004130D02*
X004100Y003920D01*
X004030Y003850D01*
X003820Y003850D01*
X003820Y003683D02*
X003820Y003543D01*
X003750Y003613D02*
X004030Y003613D01*
X004100Y003683D01*
X004100Y003363D02*
X003890Y003363D01*
X003820Y003293D01*
X003820Y003152D01*
X003960Y003152D02*
X003960Y003363D01*
X004100Y003363D02*
X004100Y003152D01*
X004030Y003082D01*
X003960Y003152D01*
X004100Y002916D02*
X004030Y002845D01*
X003750Y002845D01*
X003820Y002775D02*
X003820Y002916D01*
X003750Y002595D02*
X003680Y002525D01*
X003680Y002385D01*
X003750Y002315D01*
X003820Y002315D01*
X003890Y002385D01*
X003890Y002525D01*
X003960Y002595D01*
X004030Y002595D01*
X004100Y002525D01*
X004100Y002385D01*
X004030Y002315D01*
X004680Y002315D02*
X004680Y002525D01*
X004750Y002595D01*
X004890Y002595D01*
X004960Y002525D01*
X004960Y002315D01*
X005100Y002315D02*
X004680Y002315D01*
X004890Y002775D02*
X005030Y002775D01*
X005100Y002845D01*
X005100Y002986D01*
X005030Y003056D01*
X004890Y003056D01*
X004820Y002986D01*
X004820Y002845D01*
X004890Y002775D01*
X004820Y003236D02*
X005030Y003236D01*
X005100Y003306D01*
X005030Y003376D01*
X005100Y003446D01*
X005030Y003516D01*
X004820Y003516D01*
X004890Y003696D02*
X004820Y003766D01*
X004820Y003906D01*
X004890Y003976D01*
X004960Y003976D01*
X004960Y003696D01*
X005030Y003696D02*
X004890Y003696D01*
X005030Y003696D02*
X005100Y003766D01*
X005100Y003906D01*
X005100Y004157D02*
X004820Y004157D01*
X004820Y004297D02*
X004820Y004367D01*
X004820Y004297D02*
X004960Y004157D01*
X003665Y005250D02*
X003663Y005267D01*
X003659Y005284D01*
X003652Y005300D01*
X003642Y005314D01*
X003629Y005327D01*
X003615Y005337D01*
X003599Y005344D01*
X003582Y005348D01*
X003565Y005350D01*
X002915Y005350D01*
X002898Y005348D01*
X002881Y005344D01*
X002865Y005337D01*
X002851Y005327D01*
X002838Y005314D01*
X002828Y005300D01*
X002821Y005284D01*
X002817Y005267D01*
X002815Y005250D01*
X002815Y004650D02*
X002817Y004633D01*
X002821Y004616D01*
X002828Y004600D01*
X002838Y004586D01*
X002851Y004573D01*
X002865Y004563D01*
X002881Y004556D01*
X002898Y004552D01*
X002915Y004550D01*
X003640Y006600D02*
X004040Y006600D01*
X003240Y007100D02*
X002840Y007100D01*
X002840Y008950D02*
X003240Y008950D01*
X003640Y009450D02*
X004040Y009450D01*
X008090Y004450D02*
X008090Y003650D01*
X008615Y004050D01*
X008090Y004450D01*
X008615Y004450D02*
X008615Y004050D01*
X008615Y003650D01*
X007465Y002550D02*
X007465Y001950D01*
X007465Y001951D02*
X007461Y001934D01*
X007454Y001918D01*
X007444Y001904D01*
X007431Y001893D01*
X007416Y001884D01*
X007400Y001878D01*
X007383Y001875D01*
X007366Y001876D01*
X007365Y001875D02*
X006715Y001875D01*
X006715Y001876D02*
X006698Y001875D01*
X006681Y001878D01*
X006665Y001884D01*
X006650Y001893D01*
X006637Y001904D01*
X006627Y001918D01*
X006620Y001934D01*
X006616Y001951D01*
X006615Y001950D02*
X006615Y002550D01*
X006617Y002567D01*
X006621Y002584D01*
X006628Y002600D01*
X006638Y002614D01*
X006651Y002627D01*
X006665Y002637D01*
X006681Y002644D01*
X006698Y002648D01*
X006715Y002650D01*
X007365Y002650D01*
X007382Y002648D01*
X007399Y002644D01*
X007415Y002637D01*
X007429Y002627D01*
X007442Y002614D01*
X007452Y002600D01*
X007459Y002584D01*
X007463Y002567D01*
X007465Y002550D01*
X007440Y001550D02*
X006940Y001550D01*
X006690Y001300D01*
X006690Y000800D01*
X006940Y000550D01*
X007440Y000550D01*
X007690Y000800D01*
X007940Y000550D01*
X008440Y000550D01*
X008690Y000800D01*
X008690Y001300D01*
X008440Y001550D01*
X007940Y001550D01*
X007690Y001300D01*
X007440Y001550D01*
X005140Y000850D02*
X004640Y000850D01*
X004140Y000850D02*
X003640Y000850D01*
X010130Y011090D02*
X010320Y011090D01*
X010225Y011090D02*
X010225Y011660D01*
X010130Y011660D02*
X010320Y011660D01*
X010529Y011565D02*
X010529Y011185D01*
X010624Y011090D01*
X010814Y011090D01*
X010909Y011185D01*
X011128Y011185D02*
X011223Y011090D01*
X011413Y011090D01*
X011508Y011185D01*
X011508Y011280D01*
X011413Y011375D01*
X011223Y011375D01*
X011128Y011470D01*
X011128Y011565D01*
X011223Y011660D01*
X011413Y011660D01*
X011508Y011565D01*
X011726Y011660D02*
X012011Y011660D01*
X012106Y011565D01*
X012106Y011375D01*
X012011Y011280D01*
X011726Y011280D01*
X011726Y011090D02*
X011726Y011660D01*
X011440Y012100D02*
X011440Y012600D01*
X011190Y012850D01*
X011440Y013100D01*
X011440Y013600D01*
X011190Y013850D01*
X011440Y014100D01*
X011440Y014600D01*
X011190Y014850D01*
X009690Y014850D01*
X009440Y014600D01*
X009440Y014100D01*
X009690Y013850D01*
X009440Y013600D01*
X009440Y013100D01*
X009690Y012850D01*
X009440Y012600D01*
X009440Y012100D01*
X009690Y011850D01*
X011190Y011850D01*
X011440Y012100D01*
X010909Y011565D02*
X010814Y011660D01*
X010624Y011660D01*
X010529Y011565D01*
X011340Y009450D02*
X011740Y009450D01*
X012140Y008950D02*
X012540Y008950D01*
X012540Y007200D02*
X012140Y007200D01*
X011740Y006700D02*
X011340Y006700D01*
X014440Y016150D02*
X014190Y016400D01*
X014190Y016900D01*
X014440Y017150D01*
X014190Y017400D01*
X014190Y017900D01*
X014440Y018150D01*
X015240Y018150D01*
X013981Y017720D02*
X013981Y017440D01*
X013981Y017650D02*
X013701Y017650D01*
X013701Y017720D02*
X013701Y017440D01*
X013521Y017440D02*
X013240Y017440D01*
X013521Y017720D01*
X013521Y017790D01*
X013451Y017860D01*
X013310Y017860D01*
X013240Y017790D01*
X013060Y017860D02*
X013060Y017440D01*
X012780Y017440D02*
X012780Y017860D01*
X012920Y017720D01*
X013060Y017860D01*
X013060Y016860D02*
X013060Y016440D01*
X012780Y016440D02*
X012780Y016860D01*
X012920Y016720D01*
X013060Y016860D01*
X013240Y016790D02*
X013310Y016860D01*
X013451Y016860D01*
X013521Y016790D01*
X013521Y016720D01*
X013240Y016440D01*
X013521Y016440D01*
X013701Y016440D02*
X013701Y016860D01*
X013911Y016860D01*
X013981Y016790D01*
X013981Y016720D01*
X013911Y016650D01*
X013701Y016650D01*
X013911Y016650D02*
X013981Y016580D01*
X013981Y016510D01*
X013911Y016440D01*
X013701Y016440D01*
X014440Y016150D02*
X015240Y016150D01*
X013981Y017720D02*
X013841Y017860D01*
X013701Y017720D01*
X011540Y019600D02*
X011540Y020100D01*
X011290Y020350D01*
X010790Y020350D01*
X010540Y020100D01*
X010290Y020350D01*
X009790Y020350D01*
X009540Y020100D01*
X009290Y020350D01*
X008790Y020350D01*
X008540Y020100D01*
X008290Y020350D01*
X007790Y020350D01*
X007540Y020100D01*
X007540Y019600D01*
X007790Y019350D01*
X008290Y019350D01*
X008540Y019600D01*
X008790Y019350D01*
X009290Y019350D01*
X009540Y019600D01*
X009790Y019350D01*
X010290Y019350D01*
X010540Y019600D01*
X010790Y019350D01*
X011290Y019350D01*
X011540Y019600D01*
X005890Y019100D02*
X005890Y018600D01*
X005640Y018350D01*
X005890Y018100D01*
X005890Y017600D01*
X005640Y017350D01*
X005140Y017350D01*
X004890Y017600D01*
X004840Y017600D01*
X004590Y017350D01*
X004090Y017350D01*
X003840Y017600D01*
X003840Y018100D01*
X004090Y018350D01*
X003840Y018600D01*
X003840Y019100D01*
X004090Y019350D01*
X003840Y019600D01*
X003840Y020100D01*
X004090Y020350D01*
X004590Y020350D01*
X004840Y020100D01*
X004840Y019600D01*
X004590Y019350D01*
X004840Y019100D01*
X004890Y019100D01*
X005140Y019350D01*
X005640Y019350D01*
X005890Y019100D01*
X002581Y017720D02*
X002581Y017440D01*
X002581Y017650D02*
X002301Y017650D01*
X002301Y017720D02*
X002301Y017440D01*
X002121Y017440D02*
X001840Y017440D01*
X001981Y017440D02*
X001981Y017860D01*
X001840Y017720D01*
X001660Y017860D02*
X001660Y017440D01*
X001380Y017440D02*
X001380Y017860D01*
X001520Y017720D01*
X001660Y017860D01*
X001190Y017900D02*
X001190Y017400D01*
X000940Y017150D01*
X001190Y016900D01*
X001190Y016400D01*
X000940Y016150D01*
X000140Y016150D01*
X001380Y016440D02*
X001380Y016860D01*
X001520Y016720D01*
X001660Y016860D01*
X001660Y016440D01*
X001840Y016440D02*
X002121Y016440D01*
X001981Y016440D02*
X001981Y016860D01*
X001840Y016720D01*
X002301Y016650D02*
X002511Y016650D01*
X002581Y016580D01*
X002581Y016510D01*
X002511Y016440D01*
X002301Y016440D01*
X002301Y016860D01*
X002511Y016860D01*
X002581Y016790D01*
X002581Y016720D01*
X002511Y016650D01*
X002581Y017720D02*
X002441Y017860D01*
X002301Y017720D01*
X001190Y017900D02*
X000940Y018150D01*
X000140Y018150D01*
D11*
X009265Y014600D02*
X009265Y014100D01*
X006060Y001461D02*
X006060Y000740D01*
X005700Y001100D02*
X006421Y001100D01*
X008950Y001100D02*
X009671Y001100D01*
D12*
X006060Y017945D02*
X006060Y018455D01*
X006315Y018455D01*
X006400Y018370D01*
X006400Y018200D01*
X006315Y018115D01*
X006060Y018115D01*
X005425Y019595D02*
X005255Y019765D01*
X005340Y019765D02*
X005085Y019765D01*
X005085Y019595D02*
X005085Y020105D01*
X005340Y020105D01*
X005425Y020020D01*
X005425Y019850D01*
X005340Y019765D01*
D13*
X006699Y016650D02*
X006701Y016673D01*
X006707Y016696D01*
X006716Y016717D01*
X006729Y016737D01*
X006745Y016754D01*
X006763Y016768D01*
X006783Y016779D01*
X006805Y016787D01*
X006828Y016791D01*
X006852Y016791D01*
X006875Y016787D01*
X006897Y016779D01*
X006917Y016768D01*
X006935Y016754D01*
X006951Y016737D01*
X006964Y016717D01*
X006973Y016696D01*
X006979Y016673D01*
X006981Y016650D01*
X006979Y016627D01*
X006973Y016604D01*
X006964Y016583D01*
X006951Y016563D01*
X006935Y016546D01*
X006917Y016532D01*
X006897Y016521D01*
X006875Y016513D01*
X006852Y016509D01*
X006828Y016509D01*
X006805Y016513D01*
X006783Y016521D01*
X006763Y016532D01*
X006745Y016546D01*
X006729Y016563D01*
X006716Y016583D01*
X006707Y016604D01*
X006701Y016627D01*
X006699Y016650D01*
X004609Y015150D02*
X004611Y015164D01*
X004617Y015178D01*
X004625Y015190D01*
X004637Y015198D01*
X004651Y015204D01*
X004665Y015206D01*
X004679Y015204D01*
X004693Y015198D01*
X004705Y015190D01*
X004713Y015178D01*
X004719Y015164D01*
X004721Y015150D01*
X004719Y015136D01*
X004713Y015122D01*
X004705Y015110D01*
X004693Y015102D01*
X004679Y015096D01*
X004665Y015094D01*
X004651Y015096D01*
X004637Y015102D01*
X004625Y015110D01*
X004617Y015122D01*
X004611Y015136D01*
X004609Y015150D01*
M02*
