G75*
%MOIN*%
%OFA0B0*%
%FSLAX24Y24*%
%IPPOS*%
%LPD*%
%AMOC8*
5,1,8,0,0,1.08239X$1,22.5*
%
%ADD10C,0.0060*%
%ADD11R,0.0056X0.0008*%
%ADD12R,0.0072X0.0008*%
%ADD13R,0.0088X0.0008*%
%ADD14R,0.0112X0.0008*%
%ADD15R,0.0144X0.0008*%
%ADD16R,0.0160X0.0008*%
%ADD17R,0.0176X0.0008*%
%ADD18R,0.0192X0.0008*%
%ADD19R,0.0208X0.0008*%
%ADD20R,0.0240X0.0008*%
%ADD21R,0.0256X0.0008*%
%ADD22R,0.0272X0.0008*%
%ADD23R,0.0016X0.0008*%
%ADD24R,0.0296X0.0008*%
%ADD25R,0.0064X0.0008*%
%ADD26R,0.0304X0.0008*%
%ADD27R,0.0080X0.0008*%
%ADD28R,0.0328X0.0008*%
%ADD29R,0.0096X0.0008*%
%ADD30R,0.0352X0.0008*%
%ADD31R,0.0120X0.0008*%
%ADD32R,0.0368X0.0008*%
%ADD33R,0.0136X0.0008*%
%ADD34R,0.0392X0.0008*%
%ADD35R,0.0408X0.0008*%
%ADD36R,0.0184X0.0008*%
%ADD37R,0.0424X0.0008*%
%ADD38R,0.0008X0.0008*%
%ADD39R,0.0440X0.0008*%
%ADD40R,0.0216X0.0008*%
%ADD41R,0.0464X0.0008*%
%ADD42R,0.0232X0.0008*%
%ADD43R,0.0480X0.0008*%
%ADD44R,0.0504X0.0008*%
%ADD45R,0.0280X0.0008*%
%ADD46R,0.0520X0.0008*%
%ADD47R,0.0544X0.0008*%
%ADD48R,0.0552X0.0008*%
%ADD49R,0.0320X0.0008*%
%ADD50R,0.0576X0.0008*%
%ADD51R,0.0592X0.0008*%
%ADD52R,0.0336X0.0008*%
%ADD53R,0.0632X0.0008*%
%ADD54R,0.0344X0.0008*%
%ADD55R,0.0640X0.0008*%
%ADD56R,0.0656X0.0008*%
%ADD57R,0.0680X0.0008*%
%ADD58R,0.0344X0.0008*%
%ADD59R,0.0688X0.0008*%
%ADD60R,0.0728X0.0008*%
%ADD61R,0.0744X0.0008*%
%ADD62R,0.0768X0.0008*%
%ADD63R,0.0776X0.0008*%
%ADD64R,0.0784X0.0008*%
%ADD65R,0.0800X0.0008*%
%ADD66R,0.0840X0.0008*%
%ADD67R,0.0856X0.0008*%
%ADD68R,0.0880X0.0008*%
%ADD69R,0.0896X0.0008*%
%ADD70R,0.0888X0.0008*%
%ADD71R,0.0912X0.0008*%
%ADD72R,0.0928X0.0008*%
%ADD73R,0.0360X0.0008*%
%ADD74R,0.0936X0.0008*%
%ADD75R,0.1272X0.0008*%
%ADD76R,0.1256X0.0008*%
%ADD77R,0.1224X0.0008*%
%ADD78R,0.1208X0.0008*%
%ADD79R,0.1184X0.0008*%
%ADD80R,0.1168X0.0008*%
%ADD81R,0.1160X0.0008*%
%ADD82R,0.1144X0.0008*%
%ADD83R,0.1120X0.0008*%
%ADD84R,0.1096X0.0008*%
%ADD85R,0.1080X0.0008*%
%ADD86R,0.1056X0.0008*%
%ADD87R,0.1024X0.0008*%
%ADD88R,0.1000X0.0008*%
%ADD89R,0.0976X0.0008*%
%ADD90R,0.0960X0.0008*%
%ADD91R,0.0912X0.0008*%
%ADD92R,0.0872X0.0008*%
%ADD93R,0.0848X0.0008*%
%ADD94R,0.0824X0.0008*%
%ADD95R,0.0752X0.0008*%
%ADD96R,0.0704X0.0008*%
%ADD97R,0.0032X0.0008*%
%ADD98R,0.0664X0.0008*%
%ADD99R,0.0048X0.0008*%
%ADD100R,0.0648X0.0008*%
%ADD101R,0.0624X0.0008*%
%ADD102R,0.0616X0.0008*%
%ADD103R,0.0128X0.0008*%
%ADD104R,0.0144X0.0008*%
%ADD105R,0.0536X0.0008*%
%ADD106R,0.0512X0.0008*%
%ADD107R,0.0192X0.0008*%
%ADD108R,0.0496X0.0008*%
%ADD109R,0.0224X0.0008*%
%ADD110R,0.0232X0.0008*%
%ADD111R,0.0456X0.0008*%
%ADD112R,0.0264X0.0008*%
%ADD113R,0.0416X0.0008*%
%ADD114R,0.0288X0.0008*%
%ADD115R,0.0400X0.0008*%
%ADD116R,0.0376X0.0008*%
%ADD117R,0.0312X0.0008*%
%ADD118R,0.0352X0.0008*%
%ADD119R,0.0072X0.0008*%
%ADD120R,0.0112X0.0008*%
%ADD121R,0.0248X0.0008*%
%ADD122R,0.0424X0.0008*%
%ADD123R,0.0472X0.0008*%
%ADD124R,0.0488X0.0008*%
%ADD125R,0.0528X0.0008*%
%ADD126R,0.0560X0.0008*%
%ADD127R,0.0584X0.0008*%
%ADD128R,0.0592X0.0008*%
%ADD129R,0.0696X0.0008*%
%ADD130R,0.0720X0.0008*%
%ADD131R,0.0752X0.0008*%
%ADD132R,0.0168X0.0008*%
%ADD133R,0.0808X0.0008*%
%ADD134R,0.0824X0.0008*%
%ADD135R,0.0104X0.0008*%
%ADD136R,0.0384X0.0008*%
%ADD137R,0.0384X0.0008*%
%ADD138R,0.0448X0.0008*%
%ADD139R,0.0272X0.0008*%
%ADD140R,0.0312X0.0008*%
%ADD141R,0.0152X0.0008*%
%ADD142R,0.0152X0.0008*%
%ADD143R,0.0200X0.0008*%
%ADD144R,0.0064X0.0008*%
%ADD145R,0.0040X0.0008*%
%ADD146R,0.0712X0.0008*%
%ADD147R,0.0704X0.0008*%
%ADD148R,0.0672X0.0008*%
%ADD149R,0.0600X0.0008*%
%ADD150R,0.0568X0.0008*%
%ADD151R,0.0432X0.0008*%
%ADD152R,0.0392X0.0008*%
%ADD153R,0.0432X0.0008*%
%ADD154R,0.0472X0.0008*%
%ADD155R,0.0632X0.0008*%
%ADD156R,0.0672X0.0008*%
%ADD157R,0.0736X0.0008*%
%ADD158R,0.0872X0.0008*%
%ADD159R,0.0864X0.0008*%
%ADD160R,0.0832X0.0008*%
%ADD161R,0.0816X0.0008*%
%ADD162R,0.0264X0.0008*%
%ADD163R,0.0104X0.0008*%
%ADD164C,0.0130*%
%ADD165C,0.0080*%
D10*
X005049Y005780D02*
X005049Y006000D01*
X005122Y006074D01*
X005342Y006074D01*
X005342Y005780D01*
X005509Y005853D02*
X005509Y006000D01*
X005582Y006074D01*
X005729Y006074D01*
X005803Y006000D01*
X005803Y005853D01*
X005729Y005780D01*
X005582Y005780D01*
X005509Y005853D01*
X005969Y006000D02*
X006263Y006000D01*
X006430Y006074D02*
X006650Y006074D01*
X006723Y006000D01*
X006723Y005853D01*
X006650Y005780D01*
X006430Y005780D01*
X006430Y006220D01*
X006410Y006580D02*
X006264Y006580D01*
X006190Y006653D01*
X006190Y006800D01*
X006264Y006874D01*
X006410Y006874D01*
X006484Y006800D01*
X006484Y006653D01*
X006410Y006580D01*
X006644Y006580D02*
X006717Y006653D01*
X006717Y006947D01*
X006791Y006874D02*
X006644Y006874D01*
X006958Y006800D02*
X006958Y006653D01*
X007031Y006580D01*
X007178Y006580D01*
X007251Y006653D01*
X007251Y006800D01*
X007178Y006874D01*
X007031Y006874D01*
X006958Y006800D01*
X007418Y007020D02*
X007418Y006580D01*
X007565Y006874D02*
X007418Y007020D01*
X007565Y006874D02*
X007712Y007020D01*
X007712Y006580D01*
X007497Y006220D02*
X007351Y006074D01*
X007351Y005780D01*
X007184Y005853D02*
X007184Y006000D01*
X007110Y006074D01*
X006890Y006074D01*
X006890Y006220D02*
X006890Y005780D01*
X007110Y005780D01*
X007184Y005853D01*
X007351Y006000D02*
X007644Y006000D01*
X007644Y006074D02*
X007497Y006220D01*
X007644Y006074D02*
X007644Y005780D01*
X008268Y006074D02*
X008341Y006074D01*
X008488Y005927D01*
X008488Y005780D02*
X008488Y006074D01*
X008655Y006000D02*
X008655Y005927D01*
X008949Y005927D01*
X008949Y006000D02*
X008949Y005853D01*
X008875Y005780D01*
X008728Y005780D01*
X008655Y006000D02*
X008728Y006074D01*
X008875Y006074D01*
X008949Y006000D01*
X009115Y006074D02*
X009262Y005780D01*
X009409Y006074D01*
X009643Y006074D02*
X009643Y005780D01*
X009716Y005780D02*
X009569Y005780D01*
X009643Y006074D02*
X009716Y006074D01*
X009879Y006074D02*
X009953Y006074D01*
X010100Y005927D01*
X010100Y005780D02*
X010100Y006074D01*
X010266Y006147D02*
X010266Y005853D01*
X010340Y005780D01*
X010560Y005780D01*
X010560Y006220D01*
X010340Y006220D01*
X010266Y006147D01*
X009860Y006580D02*
X009640Y006580D01*
X009566Y006653D01*
X009566Y006947D01*
X009640Y007020D01*
X009860Y007020D01*
X009860Y006580D01*
X009643Y006294D02*
X009643Y006220D01*
X009326Y006580D02*
X009106Y006580D01*
X009106Y006874D01*
X008939Y006653D02*
X008866Y006727D01*
X008646Y006727D01*
X008646Y006800D02*
X008646Y006580D01*
X008866Y006580D01*
X008939Y006653D01*
X008866Y006874D02*
X008719Y006874D01*
X008646Y006800D01*
X008479Y006580D02*
X008332Y006580D01*
X008405Y006580D02*
X008405Y007020D01*
X008479Y007020D01*
X009326Y006580D02*
X009400Y006653D01*
X009400Y006874D01*
X006023Y006874D02*
X006023Y006580D01*
X006023Y006727D02*
X005877Y006874D01*
X005803Y006874D01*
X009910Y017798D02*
X009820Y017888D01*
X009820Y018068D01*
X009910Y018158D01*
X010090Y018158D01*
X010090Y017978D01*
X010270Y018158D02*
X010360Y018068D01*
X010360Y017888D01*
X010270Y017798D01*
X009910Y017798D01*
X009820Y018350D02*
X010360Y018350D01*
X009820Y018710D01*
X010360Y018710D01*
X010360Y018903D02*
X010360Y019173D01*
X010270Y019263D01*
X009910Y019263D01*
X009820Y019173D01*
X009820Y018903D01*
X010360Y018903D01*
X010820Y019083D02*
X011180Y019263D01*
X011180Y018903D02*
X010820Y019083D01*
X010910Y018710D02*
X010820Y018620D01*
X010820Y018440D01*
X010910Y018350D01*
X011090Y018350D02*
X011180Y018530D01*
X011180Y018620D01*
X011090Y018710D01*
X010910Y018710D01*
X011090Y018350D02*
X011360Y018350D01*
X011360Y018710D01*
X009360Y018620D02*
X009360Y018350D01*
X008820Y018350D01*
X009000Y018350D02*
X009000Y018620D01*
X009090Y018710D01*
X009270Y018710D01*
X009360Y018620D01*
X009180Y018903D02*
X008820Y019263D01*
X008820Y018903D02*
X009180Y019263D01*
X008820Y018710D02*
X009000Y018530D01*
X008260Y018530D02*
X007720Y018530D01*
X007720Y018903D02*
X008080Y019263D01*
X008080Y018903D02*
X007720Y019263D01*
X008260Y018710D02*
X008260Y018350D01*
D11*
G36*
X009144Y009020D02*
X009190Y009049D01*
X009194Y009042D01*
X009148Y009013D01*
X009144Y009020D01*
G37*
G36*
X008558Y008954D02*
X008604Y008983D01*
X008608Y008976D01*
X008562Y008947D01*
X008558Y008954D01*
G37*
G36*
X008410Y008095D02*
X008456Y008124D01*
X008460Y008117D01*
X008414Y008088D01*
X008410Y008095D01*
G37*
G36*
X007772Y008768D02*
X007818Y008797D01*
X007822Y008790D01*
X007776Y008761D01*
X007772Y008768D01*
G37*
G36*
X009252Y007621D02*
X009298Y007650D01*
X009302Y007643D01*
X009256Y007614D01*
X009252Y007621D01*
G37*
D12*
G36*
X009240Y007623D02*
X009300Y007661D01*
X009304Y007655D01*
X009244Y007617D01*
X009240Y007623D01*
G37*
G36*
X008762Y008095D02*
X008822Y008133D01*
X008826Y008127D01*
X008766Y008089D01*
X008762Y008095D01*
G37*
G36*
X008140Y008950D02*
X008200Y008988D01*
X008204Y008982D01*
X008144Y008944D01*
X008140Y008950D01*
G37*
G36*
X007761Y008770D02*
X007821Y008808D01*
X007825Y008802D01*
X007765Y008764D01*
X007761Y008770D01*
G37*
D13*
G36*
X007743Y008768D02*
X007816Y008815D01*
X007821Y008808D01*
X007748Y008761D01*
X007743Y008768D01*
G37*
G36*
X008137Y008939D02*
X008210Y008986D01*
X008215Y008979D01*
X008142Y008932D01*
X008137Y008939D01*
G37*
G36*
X008548Y008938D02*
X008621Y008985D01*
X008626Y008978D01*
X008553Y008931D01*
X008548Y008938D01*
G37*
G36*
X008380Y008095D02*
X008453Y008142D01*
X008458Y008135D01*
X008385Y008088D01*
X008380Y008095D01*
G37*
G36*
X007473Y008097D02*
X007546Y008144D01*
X007551Y008137D01*
X007478Y008090D01*
X007473Y008097D01*
G37*
G36*
X006959Y008947D02*
X007032Y008994D01*
X007037Y008987D01*
X006964Y008940D01*
X006959Y008947D01*
G37*
G36*
X005785Y008947D02*
X005858Y008994D01*
X005863Y008987D01*
X005790Y008940D01*
X005785Y008947D01*
G37*
G36*
X009236Y007630D02*
X009309Y007677D01*
X009314Y007670D01*
X009241Y007623D01*
X009236Y007630D01*
G37*
D14*
G36*
X009225Y007632D02*
X009318Y007692D01*
X009323Y007686D01*
X009230Y007626D01*
X009225Y007632D01*
G37*
G36*
X008733Y008095D02*
X008826Y008155D01*
X008831Y008149D01*
X008738Y008089D01*
X008733Y008095D01*
G37*
G36*
X006410Y008103D02*
X006503Y008163D01*
X006508Y008157D01*
X006415Y008097D01*
X006410Y008103D01*
G37*
D15*
G36*
X006382Y008104D02*
X006502Y008181D01*
X006506Y008174D01*
X006386Y008097D01*
X006382Y008104D01*
G37*
G36*
X009214Y007635D02*
X009334Y007712D01*
X009338Y007705D01*
X009218Y007628D01*
X009214Y007635D01*
G37*
D16*
G36*
X009209Y007641D02*
X009342Y007727D01*
X009347Y007721D01*
X009214Y007635D01*
X009209Y007641D01*
G37*
G36*
X008687Y008093D02*
X008820Y008179D01*
X008825Y008173D01*
X008692Y008087D01*
X008687Y008093D01*
G37*
G36*
X008323Y008095D02*
X008456Y008181D01*
X008461Y008175D01*
X008328Y008089D01*
X008323Y008095D01*
G37*
G36*
X008545Y008898D02*
X008678Y008984D01*
X008683Y008978D01*
X008550Y008892D01*
X008545Y008898D01*
G37*
G36*
X007685Y008769D02*
X007818Y008855D01*
X007823Y008849D01*
X007690Y008763D01*
X007685Y008769D01*
G37*
G36*
X006957Y008906D02*
X007090Y008992D01*
X007095Y008986D01*
X006962Y008900D01*
X006957Y008906D01*
G37*
G36*
X009978Y008264D02*
X010111Y008350D01*
X010116Y008344D01*
X009983Y008258D01*
X009978Y008264D01*
G37*
D17*
G36*
X009199Y007644D02*
X009345Y007739D01*
X009349Y007732D01*
X009203Y007637D01*
X009199Y007644D01*
G37*
G36*
X008676Y008096D02*
X008822Y008191D01*
X008826Y008184D01*
X008680Y008089D01*
X008676Y008096D01*
G37*
G36*
X008306Y008094D02*
X008452Y008189D01*
X008456Y008182D01*
X008310Y008087D01*
X008306Y008094D01*
G37*
G36*
X008140Y008892D02*
X008286Y008987D01*
X008290Y008980D01*
X008144Y008885D01*
X008140Y008892D01*
G37*
G36*
X007675Y008771D02*
X007821Y008866D01*
X007825Y008859D01*
X007679Y008764D01*
X007675Y008771D01*
G37*
G36*
X006955Y008896D02*
X007101Y008991D01*
X007105Y008984D01*
X006959Y008889D01*
X006955Y008896D01*
G37*
G36*
X006353Y008104D02*
X006499Y008199D01*
X006503Y008192D01*
X006357Y008097D01*
X006353Y008104D01*
G37*
G36*
X005817Y008900D02*
X005963Y008995D01*
X005967Y008988D01*
X005821Y008893D01*
X005817Y008900D01*
G37*
G36*
X008551Y008892D02*
X008697Y008987D01*
X008701Y008980D01*
X008555Y008885D01*
X008551Y008892D01*
G37*
D18*
G36*
X008548Y008881D02*
X008708Y008984D01*
X008712Y008977D01*
X008552Y008874D01*
X008548Y008881D01*
G37*
G36*
X008137Y008882D02*
X008297Y008985D01*
X008301Y008978D01*
X008141Y008875D01*
X008137Y008882D01*
G37*
G36*
X007657Y008770D02*
X007817Y008873D01*
X007821Y008866D01*
X007661Y008763D01*
X007657Y008770D01*
G37*
G36*
X007387Y008098D02*
X007547Y008201D01*
X007551Y008194D01*
X007391Y008091D01*
X007387Y008098D01*
G37*
G36*
X006959Y008889D02*
X007119Y008992D01*
X007123Y008985D01*
X006963Y008882D01*
X006959Y008889D01*
G37*
G36*
X008294Y008096D02*
X008454Y008199D01*
X008458Y008192D01*
X008298Y008089D01*
X008294Y008096D01*
G37*
G36*
X009194Y007651D02*
X009354Y007754D01*
X009358Y007747D01*
X009198Y007644D01*
X009194Y007651D01*
G37*
G36*
X009963Y008274D02*
X010123Y008377D01*
X010127Y008370D01*
X009967Y008267D01*
X009963Y008274D01*
G37*
D19*
G36*
X009183Y007652D02*
X009357Y007764D01*
X009361Y007758D01*
X009187Y007646D01*
X009183Y007652D01*
G37*
G36*
X009074Y008907D02*
X009248Y009019D01*
X009252Y009013D01*
X009078Y008901D01*
X009074Y008907D01*
G37*
G36*
X008141Y008874D02*
X008315Y008986D01*
X008319Y008980D01*
X008145Y008868D01*
X008141Y008874D01*
G37*
G36*
X007645Y008772D02*
X007819Y008884D01*
X007823Y008878D01*
X007649Y008766D01*
X007645Y008772D01*
G37*
G36*
X007672Y008245D02*
X007846Y008357D01*
X007850Y008351D01*
X007676Y008239D01*
X007672Y008245D01*
G37*
G36*
X006957Y008877D02*
X007131Y008989D01*
X007135Y008983D01*
X006961Y008871D01*
X006957Y008877D01*
G37*
G36*
X006477Y008881D02*
X006651Y008993D01*
X006655Y008987D01*
X006481Y008875D01*
X006477Y008881D01*
G37*
D20*
G36*
X006462Y008861D02*
X006662Y008991D01*
X006666Y008985D01*
X006466Y008855D01*
X006462Y008861D01*
G37*
G36*
X006959Y008859D02*
X007159Y008989D01*
X007163Y008983D01*
X006963Y008853D01*
X006959Y008859D01*
G37*
G36*
X006306Y008102D02*
X006506Y008232D01*
X006510Y008226D01*
X006310Y008096D01*
X006306Y008102D01*
G37*
G36*
X005850Y008864D02*
X006050Y008994D01*
X006054Y008988D01*
X005854Y008858D01*
X005850Y008864D01*
G37*
G36*
X007617Y008772D02*
X007817Y008902D01*
X007821Y008896D01*
X007621Y008766D01*
X007617Y008772D01*
G37*
G36*
X007675Y008227D02*
X007875Y008357D01*
X007879Y008351D01*
X007679Y008221D01*
X007675Y008227D01*
G37*
G36*
X009063Y008881D02*
X009263Y009011D01*
X009267Y009005D01*
X009067Y008875D01*
X009063Y008881D01*
G37*
G36*
X009172Y007654D02*
X009372Y007784D01*
X009376Y007778D01*
X009176Y007648D01*
X009172Y007654D01*
G37*
D21*
G36*
X009168Y007662D02*
X009382Y007801D01*
X009386Y007794D01*
X009172Y007655D01*
X009168Y007662D01*
G37*
G36*
X008611Y008092D02*
X008825Y008231D01*
X008829Y008224D01*
X008615Y008085D01*
X008611Y008092D01*
G37*
G36*
X008552Y008845D02*
X008766Y008984D01*
X008770Y008977D01*
X008556Y008838D01*
X008552Y008845D01*
G37*
G36*
X008141Y008845D02*
X008355Y008984D01*
X008359Y008977D01*
X008145Y008838D01*
X008141Y008845D01*
G37*
G36*
X007672Y008217D02*
X007886Y008356D01*
X007890Y008349D01*
X007676Y008210D01*
X007672Y008217D01*
G37*
G36*
X007329Y008099D02*
X007543Y008238D01*
X007547Y008231D01*
X007333Y008092D01*
X007329Y008099D01*
G37*
G36*
X006099Y008568D02*
X006313Y008707D01*
X006317Y008700D01*
X006103Y008561D01*
X006099Y008568D01*
G37*
G36*
X006088Y008571D02*
X006302Y008710D01*
X006306Y008703D01*
X006092Y008564D01*
X006088Y008571D01*
G37*
G36*
X006075Y008591D02*
X006289Y008730D01*
X006293Y008723D01*
X006079Y008584D01*
X006075Y008591D01*
G37*
G36*
X006070Y008598D02*
X006284Y008737D01*
X006288Y008730D01*
X006074Y008591D01*
X006070Y008598D01*
G37*
G36*
X006057Y008618D02*
X006271Y008757D01*
X006275Y008750D01*
X006061Y008611D01*
X006057Y008618D01*
G37*
G36*
X005854Y008858D02*
X006068Y008997D01*
X006072Y008990D01*
X005858Y008851D01*
X005854Y008858D01*
G37*
G36*
X009936Y008285D02*
X010150Y008424D01*
X010154Y008417D01*
X009940Y008278D01*
X009936Y008285D01*
G37*
D22*
G36*
X009163Y007669D02*
X009390Y007816D01*
X009395Y007809D01*
X009168Y007662D01*
X009163Y007669D01*
G37*
G36*
X006277Y008103D02*
X006504Y008250D01*
X006509Y008243D01*
X006282Y008096D01*
X006277Y008103D01*
G37*
G36*
X006017Y008650D02*
X006244Y008797D01*
X006249Y008790D01*
X006022Y008643D01*
X006017Y008650D01*
G37*
G36*
X006000Y008676D02*
X006227Y008823D01*
X006232Y008816D01*
X006005Y008669D01*
X006000Y008676D01*
G37*
G36*
X005982Y008703D02*
X006209Y008850D01*
X006214Y008843D01*
X005987Y008696D01*
X005982Y008703D01*
G37*
G36*
X005895Y008809D02*
X006122Y008956D01*
X006127Y008949D01*
X005900Y008802D01*
X005895Y008809D01*
G37*
G36*
X005886Y008822D02*
X006113Y008969D01*
X006118Y008962D01*
X005891Y008815D01*
X005886Y008822D01*
G37*
D23*
G36*
X006473Y008887D02*
X006485Y008895D01*
X006489Y008889D01*
X006477Y008881D01*
X006473Y008887D01*
G37*
G36*
X006550Y008975D02*
X006562Y008983D01*
X006566Y008977D01*
X006554Y008969D01*
X006550Y008975D01*
G37*
G36*
X006479Y008100D02*
X006491Y008108D01*
X006495Y008102D01*
X006483Y008094D01*
X006479Y008100D01*
G37*
G36*
X007683Y008347D02*
X007695Y008355D01*
X007699Y008349D01*
X007687Y008341D01*
X007683Y008347D01*
G37*
G36*
X008434Y008100D02*
X008446Y008108D01*
X008450Y008102D01*
X008438Y008094D01*
X008434Y008100D01*
G37*
G36*
X009031Y008078D02*
X009043Y008086D01*
X009047Y008080D01*
X009035Y008072D01*
X009031Y008078D01*
G37*
G36*
X008563Y008975D02*
X008575Y008983D01*
X008579Y008977D01*
X008567Y008969D01*
X008563Y008975D01*
G37*
G36*
X010052Y008254D02*
X010064Y008262D01*
X010068Y008256D01*
X010056Y008248D01*
X010052Y008254D01*
G37*
D24*
G36*
X009921Y008294D02*
X010168Y008454D01*
X010173Y008448D01*
X009926Y008288D01*
X009921Y008294D01*
G37*
G36*
X009152Y007670D02*
X009399Y007830D01*
X009404Y007824D01*
X009157Y007664D01*
X009152Y007670D01*
G37*
G36*
X008207Y008097D02*
X008454Y008257D01*
X008459Y008251D01*
X008212Y008091D01*
X008207Y008097D01*
G37*
G36*
X008143Y008828D02*
X008390Y008988D01*
X008395Y008982D01*
X008148Y008822D01*
X008143Y008828D01*
G37*
G36*
X007570Y008770D02*
X007817Y008930D01*
X007822Y008924D01*
X007575Y008764D01*
X007570Y008770D01*
G37*
G36*
X006958Y008831D02*
X007205Y008991D01*
X007210Y008985D01*
X006963Y008825D01*
X006958Y008831D01*
G37*
G36*
X008547Y008823D02*
X008794Y008983D01*
X008799Y008977D01*
X008552Y008817D01*
X008547Y008823D01*
G37*
D25*
G36*
X007490Y008099D02*
X007543Y008133D01*
X007548Y008127D01*
X007495Y008093D01*
X007490Y008099D01*
G37*
G36*
X006450Y008100D02*
X006503Y008134D01*
X006508Y008128D01*
X006455Y008094D01*
X006450Y008100D01*
G37*
G36*
X010020Y008243D02*
X010073Y008277D01*
X010078Y008271D01*
X010025Y008237D01*
X010020Y008243D01*
G37*
D26*
G36*
X009917Y008301D02*
X010171Y008466D01*
X010175Y008459D01*
X009921Y008294D01*
X009917Y008301D01*
G37*
G36*
X009148Y007677D02*
X009402Y007842D01*
X009406Y007835D01*
X009152Y007670D01*
X009148Y007677D01*
G37*
G36*
X008572Y008095D02*
X008826Y008260D01*
X008830Y008253D01*
X008576Y008088D01*
X008572Y008095D01*
G37*
G36*
X008552Y008816D02*
X008806Y008981D01*
X008810Y008974D01*
X008556Y008809D01*
X008552Y008816D01*
G37*
G36*
X009035Y008835D02*
X009289Y009000D01*
X009293Y008993D01*
X009039Y008828D01*
X009035Y008835D01*
G37*
G36*
X009040Y008828D02*
X009294Y008993D01*
X009298Y008986D01*
X009044Y008821D01*
X009040Y008828D01*
G37*
G36*
X006249Y008103D02*
X006503Y008268D01*
X006507Y008261D01*
X006253Y008096D01*
X006249Y008103D01*
G37*
D27*
G36*
X005782Y008954D02*
X005848Y008997D01*
X005852Y008990D01*
X005786Y008947D01*
X005782Y008954D01*
G37*
G36*
X007676Y008314D02*
X007742Y008357D01*
X007746Y008350D01*
X007680Y008307D01*
X007676Y008314D01*
G37*
G36*
X010009Y008246D02*
X010075Y008289D01*
X010079Y008282D01*
X010013Y008239D01*
X010009Y008246D01*
G37*
D28*
G36*
X009137Y007680D02*
X009411Y007857D01*
X009415Y007850D01*
X009141Y007673D01*
X009137Y007680D01*
G37*
G36*
X008554Y008122D02*
X008828Y008299D01*
X008832Y008292D01*
X008558Y008115D01*
X008554Y008122D01*
G37*
G36*
X008550Y008129D02*
X008824Y008306D01*
X008828Y008299D01*
X008554Y008122D01*
X008550Y008129D01*
G37*
G36*
X008548Y008147D02*
X008822Y008324D01*
X008826Y008317D01*
X008552Y008140D01*
X008548Y008147D01*
G37*
G36*
X008546Y008164D02*
X008820Y008341D01*
X008824Y008334D01*
X008550Y008157D01*
X008546Y008164D01*
G37*
G36*
X008548Y008176D02*
X008822Y008353D01*
X008826Y008346D01*
X008552Y008169D01*
X008548Y008176D01*
G37*
G36*
X008549Y008204D02*
X008823Y008381D01*
X008827Y008374D01*
X008553Y008197D01*
X008549Y008204D01*
G37*
G36*
X008549Y008233D02*
X008823Y008410D01*
X008827Y008403D01*
X008553Y008226D01*
X008549Y008233D01*
G37*
G36*
X008547Y008251D02*
X008821Y008428D01*
X008825Y008421D01*
X008551Y008244D01*
X008547Y008251D01*
G37*
G36*
X008549Y008262D02*
X008823Y008439D01*
X008827Y008432D01*
X008553Y008255D01*
X008549Y008262D01*
G37*
G36*
X008545Y008269D02*
X008819Y008446D01*
X008823Y008439D01*
X008549Y008262D01*
X008545Y008269D01*
G37*
G36*
X008548Y008309D02*
X008822Y008486D01*
X008826Y008479D01*
X008552Y008302D01*
X008548Y008309D01*
G37*
G36*
X008548Y008337D02*
X008822Y008514D01*
X008826Y008507D01*
X008552Y008330D01*
X008548Y008337D01*
G37*
G36*
X008546Y008355D02*
X008820Y008532D01*
X008824Y008525D01*
X008550Y008348D01*
X008546Y008355D01*
G37*
G36*
X008549Y008395D02*
X008823Y008572D01*
X008827Y008565D01*
X008553Y008388D01*
X008549Y008395D01*
G37*
G36*
X008547Y008413D02*
X008821Y008590D01*
X008825Y008583D01*
X008551Y008406D01*
X008547Y008413D01*
G37*
G36*
X008549Y008424D02*
X008823Y008601D01*
X008827Y008594D01*
X008553Y008417D01*
X008549Y008424D01*
G37*
G36*
X008549Y008453D02*
X008823Y008630D01*
X008827Y008623D01*
X008553Y008446D01*
X008549Y008453D01*
G37*
G36*
X008550Y008482D02*
X008824Y008659D01*
X008828Y008652D01*
X008554Y008475D01*
X008550Y008482D01*
G37*
G36*
X008548Y008499D02*
X008822Y008676D01*
X008826Y008669D01*
X008552Y008492D01*
X008548Y008499D01*
G37*
G36*
X008550Y008511D02*
X008824Y008688D01*
X008828Y008681D01*
X008554Y008504D01*
X008550Y008511D01*
G37*
G36*
X008550Y008539D02*
X008824Y008716D01*
X008828Y008709D01*
X008554Y008532D01*
X008550Y008539D01*
G37*
G36*
X008549Y008586D02*
X008823Y008763D01*
X008827Y008756D01*
X008553Y008579D01*
X008549Y008586D01*
G37*
G36*
X008551Y008597D02*
X008825Y008774D01*
X008829Y008767D01*
X008555Y008590D01*
X008551Y008597D01*
G37*
G36*
X008547Y008604D02*
X008821Y008781D01*
X008825Y008774D01*
X008551Y008597D01*
X008547Y008604D01*
G37*
G36*
X008550Y008644D02*
X008824Y008821D01*
X008828Y008814D01*
X008554Y008637D01*
X008550Y008644D01*
G37*
G36*
X008550Y008673D02*
X008824Y008850D01*
X008828Y008843D01*
X008554Y008666D01*
X008550Y008673D01*
G37*
G36*
X008548Y008690D02*
X008822Y008867D01*
X008826Y008860D01*
X008552Y008683D01*
X008548Y008690D01*
G37*
G36*
X008550Y008701D02*
X008824Y008878D01*
X008828Y008871D01*
X008554Y008694D01*
X008550Y008701D01*
G37*
G36*
X008551Y008730D02*
X008825Y008907D01*
X008829Y008900D01*
X008555Y008723D01*
X008551Y008730D01*
G37*
G36*
X008549Y008748D02*
X008823Y008925D01*
X008827Y008918D01*
X008553Y008741D01*
X008549Y008748D01*
G37*
G36*
X008551Y008759D02*
X008825Y008936D01*
X008829Y008929D01*
X008555Y008752D01*
X008551Y008759D01*
G37*
G36*
X008547Y008766D02*
X008821Y008943D01*
X008825Y008936D01*
X008551Y008759D01*
X008547Y008766D01*
G37*
G36*
X008179Y008098D02*
X008453Y008275D01*
X008457Y008268D01*
X008183Y008091D01*
X008179Y008098D01*
G37*
G36*
X007271Y008100D02*
X007545Y008277D01*
X007549Y008270D01*
X007275Y008093D01*
X007271Y008100D01*
G37*
G36*
X009031Y008813D02*
X009305Y008990D01*
X009309Y008983D01*
X009035Y008806D01*
X009031Y008813D01*
G37*
G36*
X009035Y008806D02*
X009309Y008983D01*
X009313Y008976D01*
X009039Y008799D01*
X009035Y008806D01*
G37*
D29*
G36*
X009122Y008996D02*
X009202Y009047D01*
X009206Y009040D01*
X009126Y008989D01*
X009122Y008996D01*
G37*
G36*
X008745Y008093D02*
X008825Y008144D01*
X008829Y008137D01*
X008749Y008086D01*
X008745Y008093D01*
G37*
G36*
X007673Y008303D02*
X007753Y008354D01*
X007757Y008347D01*
X007677Y008296D01*
X007673Y008303D01*
G37*
G36*
X007462Y008100D02*
X007542Y008151D01*
X007546Y008144D01*
X007466Y008093D01*
X007462Y008100D01*
G37*
G36*
X006525Y008941D02*
X006605Y008992D01*
X006609Y008985D01*
X006529Y008934D01*
X006525Y008941D01*
G37*
G36*
X010005Y008253D02*
X010085Y008304D01*
X010089Y008297D01*
X010009Y008246D01*
X010005Y008253D01*
G37*
D30*
G36*
X009864Y008323D02*
X010158Y008514D01*
X010162Y008507D01*
X009868Y008316D01*
X009864Y008323D01*
G37*
G36*
X009848Y008332D02*
X010142Y008523D01*
X010146Y008516D01*
X009852Y008325D01*
X009848Y008332D01*
G37*
G36*
X009330Y008616D02*
X009624Y008807D01*
X009628Y008800D01*
X009334Y008609D01*
X009330Y008616D01*
G37*
G36*
X009264Y008659D02*
X009558Y008850D01*
X009562Y008843D01*
X009268Y008652D01*
X009264Y008659D01*
G37*
G36*
X009192Y008698D02*
X009486Y008889D01*
X009490Y008882D01*
X009196Y008691D01*
X009192Y008698D01*
G37*
G36*
X009114Y008743D02*
X009408Y008934D01*
X009412Y008927D01*
X009118Y008736D01*
X009114Y008743D01*
G37*
G36*
X009099Y008752D02*
X009393Y008943D01*
X009397Y008936D01*
X009103Y008745D01*
X009099Y008752D01*
G37*
G36*
X009176Y008707D02*
X009470Y008898D01*
X009474Y008891D01*
X009180Y008700D01*
X009176Y008707D01*
G37*
G36*
X009187Y008704D02*
X009481Y008895D01*
X009485Y008888D01*
X009191Y008697D01*
X009187Y008704D01*
G37*
G36*
X009126Y007682D02*
X009420Y007873D01*
X009424Y007866D01*
X009130Y007675D01*
X009126Y007682D01*
G37*
D31*
G36*
X009994Y008255D02*
X010094Y008320D01*
X010098Y008313D01*
X009998Y008248D01*
X009994Y008255D01*
G37*
G36*
X008550Y008920D02*
X008650Y008985D01*
X008654Y008978D01*
X008554Y008913D01*
X008550Y008920D01*
G37*
G36*
X008140Y008921D02*
X008240Y008986D01*
X008244Y008979D01*
X008144Y008914D01*
X008140Y008921D01*
G37*
G36*
X007714Y008768D02*
X007814Y008833D01*
X007818Y008826D01*
X007718Y008761D01*
X007714Y008768D01*
G37*
G36*
X007444Y008097D02*
X007544Y008162D01*
X007548Y008155D01*
X007448Y008090D01*
X007444Y008097D01*
G37*
G36*
X005788Y008929D02*
X005888Y008994D01*
X005892Y008987D01*
X005792Y008922D01*
X005788Y008929D01*
G37*
D32*
G36*
X006967Y008789D02*
X007275Y008988D01*
X007279Y008981D01*
X006971Y008782D01*
X006967Y008789D01*
G37*
G36*
X007234Y008114D02*
X007542Y008313D01*
X007546Y008306D01*
X007238Y008107D01*
X007234Y008114D01*
G37*
G36*
X007238Y008107D02*
X007546Y008306D01*
X007550Y008299D01*
X007242Y008100D01*
X007238Y008107D01*
G37*
G36*
X008143Y008771D02*
X008451Y008970D01*
X008455Y008963D01*
X008147Y008764D01*
X008143Y008771D01*
G37*
G36*
X008150Y008098D02*
X008458Y008297D01*
X008462Y008290D01*
X008154Y008091D01*
X008150Y008098D01*
G37*
G36*
X009121Y007689D02*
X009429Y007888D01*
X009433Y007881D01*
X009125Y007682D01*
X009121Y007689D01*
G37*
D33*
G36*
X009989Y008262D02*
X010102Y008335D01*
X010107Y008328D01*
X009994Y008255D01*
X009989Y008262D01*
G37*
G36*
X007675Y008286D02*
X007788Y008359D01*
X007793Y008352D01*
X007680Y008279D01*
X007675Y008286D01*
G37*
G36*
X007703Y008771D02*
X007816Y008844D01*
X007821Y008837D01*
X007708Y008764D01*
X007703Y008771D01*
G37*
G36*
X006959Y008918D02*
X007072Y008991D01*
X007077Y008984D01*
X006964Y008911D01*
X006959Y008918D01*
G37*
G36*
X006509Y008921D02*
X006622Y008994D01*
X006627Y008987D01*
X006514Y008914D01*
X006509Y008921D01*
G37*
G36*
X005803Y008921D02*
X005916Y008994D01*
X005921Y008987D01*
X005808Y008914D01*
X005803Y008921D01*
G37*
G36*
X006392Y008101D02*
X006505Y008174D01*
X006510Y008167D01*
X006397Y008094D01*
X006392Y008101D01*
G37*
D34*
G36*
X006176Y008141D02*
X006504Y008354D01*
X006508Y008347D01*
X006180Y008134D01*
X006176Y008141D01*
G37*
G36*
X006176Y008170D02*
X006504Y008383D01*
X006508Y008376D01*
X006180Y008163D01*
X006176Y008170D01*
G37*
G36*
X006179Y008210D02*
X006507Y008423D01*
X006511Y008416D01*
X006183Y008203D01*
X006179Y008210D01*
G37*
G36*
X006179Y008239D02*
X006507Y008452D01*
X006511Y008445D01*
X006183Y008232D01*
X006179Y008239D01*
G37*
G36*
X007673Y008141D02*
X008001Y008354D01*
X008005Y008347D01*
X007677Y008134D01*
X007673Y008141D01*
G37*
G36*
X008132Y008096D02*
X008460Y008309D01*
X008464Y008302D01*
X008136Y008089D01*
X008132Y008096D01*
G37*
G36*
X009110Y007691D02*
X009438Y007904D01*
X009442Y007897D01*
X009114Y007684D01*
X009110Y007691D01*
G37*
D35*
G36*
X009106Y007698D02*
X009447Y007919D01*
X009452Y007912D01*
X009111Y007691D01*
X009106Y007698D01*
G37*
G36*
X007228Y008768D02*
X007569Y008989D01*
X007574Y008982D01*
X007233Y008761D01*
X007228Y008768D01*
G37*
G36*
X007055Y008770D02*
X007396Y008991D01*
X007401Y008984D01*
X007060Y008763D01*
X007055Y008770D01*
G37*
G36*
X006997Y008771D02*
X007338Y008992D01*
X007343Y008985D01*
X007002Y008764D01*
X006997Y008771D01*
G37*
G36*
X007026Y008771D02*
X007367Y008992D01*
X007372Y008985D01*
X007031Y008764D01*
X007026Y008771D01*
G37*
D36*
G36*
X007675Y008257D02*
X007828Y008356D01*
X007833Y008349D01*
X007680Y008250D01*
X007675Y008257D01*
G37*
G36*
X009083Y008923D02*
X009236Y009022D01*
X009241Y009015D01*
X009088Y008916D01*
X009083Y008923D01*
G37*
G36*
X009967Y008267D02*
X010120Y008366D01*
X010125Y008359D01*
X009972Y008260D01*
X009967Y008267D01*
G37*
G36*
X005827Y008898D02*
X005980Y008997D01*
X005985Y008990D01*
X005832Y008891D01*
X005827Y008898D01*
G37*
D37*
G36*
X007676Y008123D02*
X008030Y008353D01*
X008034Y008347D01*
X007680Y008117D01*
X007676Y008123D01*
G37*
G36*
X009095Y007700D02*
X009449Y007930D01*
X009453Y007924D01*
X009099Y007694D01*
X009095Y007700D01*
G37*
D38*
G36*
X009046Y008097D02*
X009052Y008101D01*
X009056Y008095D01*
X009050Y008091D01*
X009046Y008097D01*
G37*
G36*
X009151Y008289D02*
X009157Y008293D01*
X009161Y008287D01*
X009155Y008283D01*
X009151Y008289D01*
G37*
G36*
X008802Y008091D02*
X008808Y008095D01*
X008812Y008089D01*
X008806Y008085D01*
X008802Y008091D01*
G37*
G36*
X009026Y008819D02*
X009032Y008823D01*
X009036Y008817D01*
X009030Y008813D01*
X009026Y008819D01*
G37*
G36*
X009131Y009011D02*
X009137Y009015D01*
X009141Y009009D01*
X009135Y009005D01*
X009131Y009011D01*
G37*
G36*
X009156Y009046D02*
X009162Y009050D01*
X009166Y009044D01*
X009160Y009040D01*
X009156Y009046D01*
G37*
G36*
X008165Y008984D02*
X008171Y008988D01*
X008175Y008982D01*
X008169Y008978D01*
X008165Y008984D01*
G37*
G36*
X008152Y008976D02*
X008158Y008980D01*
X008162Y008974D01*
X008156Y008970D01*
X008152Y008976D01*
G37*
G36*
X007520Y008098D02*
X007526Y008102D01*
X007530Y008096D01*
X007524Y008092D01*
X007520Y008098D01*
G37*
G36*
X006980Y008988D02*
X006986Y008992D01*
X006990Y008986D01*
X006984Y008982D01*
X006980Y008988D01*
G37*
G36*
X006570Y008988D02*
X006576Y008992D01*
X006580Y008986D01*
X006574Y008982D01*
X006570Y008988D01*
G37*
G36*
X006448Y008852D02*
X006454Y008856D01*
X006458Y008850D01*
X006452Y008846D01*
X006448Y008852D01*
G37*
G36*
X006417Y008812D02*
X006423Y008816D01*
X006427Y008810D01*
X006421Y008806D01*
X006417Y008812D01*
G37*
G36*
X006385Y008773D02*
X006391Y008777D01*
X006395Y008771D01*
X006389Y008767D01*
X006385Y008773D01*
G37*
G36*
X006354Y008733D02*
X006360Y008737D01*
X006364Y008731D01*
X006358Y008727D01*
X006354Y008733D01*
G37*
G36*
X006445Y008376D02*
X006439Y008380D01*
X006443Y008386D01*
X006449Y008382D01*
X006445Y008376D01*
G37*
D39*
G36*
X006182Y008279D02*
X006550Y008518D01*
X006554Y008511D01*
X006186Y008272D01*
X006182Y008279D01*
G37*
G36*
X006370Y008754D02*
X006738Y008993D01*
X006742Y008986D01*
X006374Y008747D01*
X006370Y008754D01*
G37*
G36*
X007230Y008750D02*
X007598Y008989D01*
X007602Y008982D01*
X007234Y008743D01*
X007230Y008750D01*
G37*
G36*
X008086Y008094D02*
X008454Y008333D01*
X008458Y008326D01*
X008090Y008087D01*
X008086Y008094D01*
G37*
G36*
X009091Y007707D02*
X009459Y007946D01*
X009463Y007939D01*
X009095Y007700D01*
X009091Y007707D01*
G37*
G36*
X009298Y008548D02*
X009666Y008787D01*
X009670Y008780D01*
X009302Y008541D01*
X009298Y008548D01*
G37*
D40*
G36*
X009072Y008897D02*
X009252Y009014D01*
X009256Y009007D01*
X009076Y008890D01*
X009072Y008897D01*
G37*
G36*
X008546Y008870D02*
X008726Y008987D01*
X008730Y008980D01*
X008550Y008863D01*
X008546Y008870D01*
G37*
G36*
X008277Y008094D02*
X008457Y008211D01*
X008461Y008204D01*
X008281Y008087D01*
X008277Y008094D01*
G37*
G36*
X007677Y008239D02*
X007857Y008356D01*
X007861Y008349D01*
X007681Y008232D01*
X007677Y008239D01*
G37*
G36*
X006324Y008104D02*
X006504Y008221D01*
X006508Y008214D01*
X006328Y008097D01*
X006324Y008104D01*
G37*
G36*
X005841Y008878D02*
X006021Y008995D01*
X006025Y008988D01*
X005845Y008871D01*
X005841Y008878D01*
G37*
G36*
X005830Y008880D02*
X006010Y008997D01*
X006014Y008990D01*
X005834Y008873D01*
X005830Y008880D01*
G37*
G36*
X009952Y008276D02*
X010132Y008393D01*
X010136Y008386D01*
X009956Y008269D01*
X009952Y008276D01*
G37*
D41*
G36*
X009080Y007709D02*
X009468Y007961D01*
X009472Y007955D01*
X009084Y007703D01*
X009080Y007709D01*
G37*
G36*
X007689Y008103D02*
X008077Y008355D01*
X008081Y008349D01*
X007693Y008097D01*
X007689Y008103D01*
G37*
G36*
X007228Y008739D02*
X007616Y008991D01*
X007620Y008985D01*
X007232Y008733D01*
X007228Y008739D01*
G37*
G36*
X006367Y008742D02*
X006755Y008994D01*
X006759Y008988D01*
X006371Y008736D01*
X006367Y008742D01*
G37*
D42*
G36*
X005845Y008871D02*
X006039Y008996D01*
X006043Y008989D01*
X005849Y008864D01*
X005845Y008871D01*
G37*
G36*
X007347Y008101D02*
X007541Y008226D01*
X007545Y008219D01*
X007351Y008094D01*
X007347Y008101D01*
G37*
G36*
X007628Y008770D02*
X007822Y008895D01*
X007826Y008888D01*
X007632Y008763D01*
X007628Y008770D01*
G37*
G36*
X009947Y008283D02*
X010141Y008408D01*
X010145Y008401D01*
X009951Y008276D01*
X009947Y008283D01*
G37*
D43*
G36*
X009280Y008517D02*
X009682Y008778D01*
X009686Y008771D01*
X009284Y008510D01*
X009280Y008517D01*
G37*
G36*
X009075Y007716D02*
X009477Y007977D01*
X009481Y007970D01*
X009079Y007709D01*
X009075Y007716D01*
G37*
G36*
X007722Y008096D02*
X008124Y008357D01*
X008128Y008350D01*
X007726Y008089D01*
X007722Y008096D01*
G37*
G36*
X007693Y008096D02*
X008095Y008357D01*
X008099Y008350D01*
X007697Y008089D01*
X007693Y008096D01*
G37*
G36*
X007226Y008728D02*
X007628Y008989D01*
X007632Y008982D01*
X007230Y008721D01*
X007226Y008728D01*
G37*
G36*
X006180Y008297D02*
X006582Y008558D01*
X006586Y008551D01*
X006184Y008290D01*
X006180Y008297D01*
G37*
D44*
G36*
X009064Y007719D02*
X009486Y007992D01*
X009490Y007985D01*
X009068Y007712D01*
X009064Y007719D01*
G37*
D45*
G36*
X008219Y008095D02*
X008453Y008246D01*
X008457Y008239D01*
X008223Y008088D01*
X008219Y008095D01*
G37*
G36*
X008139Y008835D02*
X008373Y008986D01*
X008377Y008979D01*
X008143Y008828D01*
X008139Y008835D01*
G37*
G36*
X007581Y008768D02*
X007815Y008919D01*
X007819Y008912D01*
X007585Y008761D01*
X007581Y008768D01*
G37*
G36*
X006954Y008838D02*
X007188Y008989D01*
X007192Y008982D01*
X006958Y008831D01*
X006954Y008838D01*
G37*
G36*
X005917Y008775D02*
X006151Y008926D01*
X006155Y008919D01*
X005921Y008768D01*
X005917Y008775D01*
G37*
G36*
X005913Y008782D02*
X006147Y008933D01*
X006151Y008926D01*
X005917Y008775D01*
X005913Y008782D01*
G37*
G36*
X005908Y008789D02*
X006142Y008940D01*
X006146Y008933D01*
X005912Y008782D01*
X005908Y008789D01*
G37*
G36*
X005875Y008825D02*
X006109Y008976D01*
X006113Y008969D01*
X005879Y008818D01*
X005875Y008825D01*
G37*
G36*
X005871Y008831D02*
X006105Y008982D01*
X006109Y008975D01*
X005875Y008824D01*
X005871Y008831D01*
G37*
G36*
X005891Y008815D02*
X006125Y008966D01*
X006129Y008959D01*
X005895Y008808D01*
X005891Y008815D01*
G37*
G36*
X005900Y008802D02*
X006134Y008953D01*
X006138Y008946D01*
X005904Y008795D01*
X005900Y008802D01*
G37*
G36*
X005904Y008795D02*
X006138Y008946D01*
X006142Y008939D01*
X005908Y008788D01*
X005904Y008795D01*
G37*
G36*
X008549Y008834D02*
X008783Y008985D01*
X008787Y008978D01*
X008553Y008827D01*
X008549Y008834D01*
G37*
G36*
X009925Y008288D02*
X010159Y008439D01*
X010163Y008432D01*
X009929Y008281D01*
X009925Y008288D01*
G37*
D46*
G36*
X009059Y007725D02*
X009494Y008007D01*
X009499Y008001D01*
X009064Y007719D01*
X009059Y007725D01*
G37*
D47*
G36*
X009048Y007728D02*
X009503Y008023D01*
X009508Y008016D01*
X009053Y007721D01*
X009048Y007728D01*
G37*
G36*
X007999Y008095D02*
X008454Y008390D01*
X008459Y008383D01*
X008004Y008088D01*
X007999Y008095D01*
G37*
G36*
X007229Y008693D02*
X007684Y008988D01*
X007689Y008981D01*
X007234Y008686D01*
X007229Y008693D01*
G37*
D48*
G36*
X006180Y008326D02*
X006642Y008625D01*
X006646Y008618D01*
X006184Y008319D01*
X006180Y008326D01*
G37*
G36*
X009044Y007735D02*
X009506Y008034D01*
X009510Y008027D01*
X009048Y007728D01*
X009044Y007735D01*
G37*
G36*
X009251Y008460D02*
X009713Y008759D01*
X009717Y008752D01*
X009255Y008453D01*
X009251Y008460D01*
G37*
D49*
G36*
X008556Y008104D02*
X008824Y008277D01*
X008828Y008270D01*
X008560Y008097D01*
X008556Y008104D01*
G37*
G36*
X008552Y008111D02*
X008820Y008284D01*
X008824Y008277D01*
X008556Y008104D01*
X008552Y008111D01*
G37*
G36*
X008190Y008095D02*
X008458Y008268D01*
X008462Y008261D01*
X008194Y008088D01*
X008190Y008095D01*
G37*
G36*
X007676Y008181D02*
X007944Y008354D01*
X007948Y008347D01*
X007680Y008174D01*
X007676Y008181D01*
G37*
G36*
X008549Y008777D02*
X008817Y008950D01*
X008821Y008943D01*
X008553Y008770D01*
X008549Y008777D01*
G37*
G36*
X008551Y008788D02*
X008819Y008961D01*
X008823Y008954D01*
X008555Y008781D01*
X008551Y008788D01*
G37*
G36*
X008547Y008794D02*
X008815Y008967D01*
X008819Y008960D01*
X008551Y008787D01*
X008547Y008794D01*
G37*
G36*
X009901Y008310D02*
X010169Y008483D01*
X010173Y008476D01*
X009905Y008303D01*
X009901Y008310D01*
G37*
G36*
X009905Y008303D02*
X010173Y008476D01*
X010177Y008469D01*
X009909Y008296D01*
X009905Y008303D01*
G37*
G36*
X006237Y008106D02*
X006505Y008279D01*
X006509Y008272D01*
X006241Y008099D01*
X006237Y008106D01*
G37*
D50*
G36*
X009033Y007737D02*
X009515Y008050D01*
X009519Y008043D01*
X009037Y007730D01*
X009033Y007737D01*
G37*
G36*
X009242Y008444D02*
X009724Y008757D01*
X009728Y008750D01*
X009246Y008437D01*
X009242Y008444D01*
G37*
D51*
G36*
X009232Y008429D02*
X009728Y008750D01*
X009732Y008743D01*
X009236Y008422D01*
X009232Y008429D01*
G37*
G36*
X009029Y007744D02*
X009525Y008065D01*
X009529Y008058D01*
X009033Y007737D01*
X009029Y007744D01*
G37*
D52*
G36*
X008545Y008135D02*
X008826Y008317D01*
X008831Y008311D01*
X008550Y008129D01*
X008545Y008135D01*
G37*
G36*
X008543Y008153D02*
X008824Y008335D01*
X008829Y008329D01*
X008548Y008147D01*
X008543Y008153D01*
G37*
G36*
X008543Y008181D02*
X008824Y008363D01*
X008829Y008357D01*
X008548Y008175D01*
X008543Y008181D01*
G37*
G36*
X008546Y008192D02*
X008827Y008374D01*
X008832Y008368D01*
X008551Y008186D01*
X008546Y008192D01*
G37*
G36*
X008544Y008210D02*
X008825Y008392D01*
X008830Y008386D01*
X008549Y008204D01*
X008544Y008210D01*
G37*
G36*
X008546Y008221D02*
X008827Y008403D01*
X008832Y008397D01*
X008551Y008215D01*
X008546Y008221D01*
G37*
G36*
X008544Y008239D02*
X008825Y008421D01*
X008830Y008415D01*
X008549Y008233D01*
X008544Y008239D01*
G37*
G36*
X008547Y008279D02*
X008828Y008461D01*
X008833Y008455D01*
X008552Y008273D01*
X008547Y008279D01*
G37*
G36*
X008542Y008286D02*
X008823Y008468D01*
X008828Y008462D01*
X008547Y008280D01*
X008542Y008286D01*
G37*
G36*
X008545Y008297D02*
X008826Y008479D01*
X008831Y008473D01*
X008550Y008291D01*
X008545Y008297D01*
G37*
G36*
X008543Y008315D02*
X008824Y008497D01*
X008829Y008491D01*
X008548Y008309D01*
X008543Y008315D01*
G37*
G36*
X008545Y008326D02*
X008826Y008508D01*
X008831Y008502D01*
X008550Y008320D01*
X008545Y008326D01*
G37*
G36*
X008543Y008343D02*
X008824Y008525D01*
X008829Y008519D01*
X008548Y008337D01*
X008543Y008343D01*
G37*
G36*
X008548Y008366D02*
X008829Y008548D01*
X008834Y008542D01*
X008553Y008360D01*
X008548Y008366D01*
G37*
G36*
X008543Y008372D02*
X008824Y008554D01*
X008829Y008548D01*
X008548Y008366D01*
X008543Y008372D01*
G37*
G36*
X008546Y008383D02*
X008827Y008565D01*
X008832Y008559D01*
X008551Y008377D01*
X008546Y008383D01*
G37*
G36*
X008544Y008401D02*
X008825Y008583D01*
X008830Y008577D01*
X008549Y008395D01*
X008544Y008401D01*
G37*
G36*
X008544Y008430D02*
X008825Y008612D01*
X008830Y008606D01*
X008549Y008424D01*
X008544Y008430D01*
G37*
G36*
X008546Y008441D02*
X008827Y008623D01*
X008832Y008617D01*
X008551Y008435D01*
X008546Y008441D01*
G37*
G36*
X008544Y008459D02*
X008825Y008641D01*
X008830Y008635D01*
X008549Y008453D01*
X008544Y008459D01*
G37*
G36*
X008547Y008470D02*
X008828Y008652D01*
X008833Y008646D01*
X008552Y008464D01*
X008547Y008470D01*
G37*
G36*
X008545Y008488D02*
X008826Y008670D01*
X008831Y008664D01*
X008550Y008482D01*
X008545Y008488D01*
G37*
G36*
X008545Y008516D02*
X008826Y008698D01*
X008831Y008692D01*
X008550Y008510D01*
X008545Y008516D01*
G37*
G36*
X008547Y008528D02*
X008828Y008710D01*
X008833Y008704D01*
X008552Y008522D01*
X008547Y008528D01*
G37*
G36*
X008545Y008545D02*
X008826Y008727D01*
X008831Y008721D01*
X008550Y008539D01*
X008545Y008545D01*
G37*
G36*
X008548Y008556D02*
X008829Y008738D01*
X008834Y008732D01*
X008553Y008550D01*
X008548Y008556D01*
G37*
G36*
X008543Y008563D02*
X008824Y008745D01*
X008829Y008739D01*
X008548Y008557D01*
X008543Y008563D01*
G37*
G36*
X008546Y008574D02*
X008827Y008756D01*
X008832Y008750D01*
X008551Y008568D01*
X008546Y008574D01*
G37*
G36*
X008549Y008614D02*
X008830Y008796D01*
X008835Y008790D01*
X008554Y008608D01*
X008549Y008614D01*
G37*
G36*
X008544Y008621D02*
X008825Y008803D01*
X008830Y008797D01*
X008549Y008615D01*
X008544Y008621D01*
G37*
G36*
X008547Y008632D02*
X008828Y008814D01*
X008833Y008808D01*
X008552Y008626D01*
X008547Y008632D01*
G37*
G36*
X008545Y008650D02*
X008826Y008832D01*
X008831Y008826D01*
X008550Y008644D01*
X008545Y008650D01*
G37*
G36*
X008547Y008661D02*
X008828Y008843D01*
X008833Y008837D01*
X008552Y008655D01*
X008547Y008661D01*
G37*
G36*
X008545Y008678D02*
X008826Y008860D01*
X008831Y008854D01*
X008550Y008672D01*
X008545Y008678D01*
G37*
G36*
X008545Y008707D02*
X008826Y008889D01*
X008831Y008883D01*
X008550Y008701D01*
X008545Y008707D01*
G37*
G36*
X008548Y008718D02*
X008829Y008900D01*
X008834Y008894D01*
X008553Y008712D01*
X008548Y008718D01*
G37*
G36*
X008546Y008736D02*
X008827Y008918D01*
X008832Y008912D01*
X008551Y008730D01*
X008546Y008736D01*
G37*
G36*
X008138Y008805D02*
X008419Y008987D01*
X008424Y008981D01*
X008143Y008799D01*
X008138Y008805D01*
G37*
G36*
X006953Y008809D02*
X007234Y008991D01*
X007239Y008985D01*
X006958Y008803D01*
X006953Y008809D01*
G37*
G36*
X006219Y008103D02*
X006500Y008285D01*
X006505Y008279D01*
X006224Y008097D01*
X006219Y008103D01*
G37*
G36*
X009063Y008776D02*
X009344Y008958D01*
X009349Y008952D01*
X009068Y008770D01*
X009063Y008776D01*
G37*
G36*
X009151Y008729D02*
X009432Y008911D01*
X009437Y008905D01*
X009156Y008723D01*
X009151Y008729D01*
G37*
G36*
X009301Y008645D02*
X009582Y008827D01*
X009587Y008821D01*
X009306Y008639D01*
X009301Y008645D01*
G37*
G36*
X009890Y008312D02*
X010171Y008494D01*
X010176Y008488D01*
X009895Y008306D01*
X009890Y008312D01*
G37*
D53*
G36*
X009017Y007746D02*
X009546Y008089D01*
X009551Y008082D01*
X009022Y007739D01*
X009017Y007746D01*
G37*
D54*
G36*
X009321Y008629D02*
X009609Y008816D01*
X009613Y008809D01*
X009325Y008622D01*
X009321Y008629D01*
G37*
G36*
X009248Y008668D02*
X009536Y008855D01*
X009540Y008848D01*
X009252Y008661D01*
X009248Y008668D01*
G37*
G36*
X009160Y008716D02*
X009448Y008903D01*
X009452Y008896D01*
X009164Y008709D01*
X009160Y008716D01*
G37*
G36*
X009068Y008770D02*
X009356Y008957D01*
X009360Y008950D01*
X009072Y008763D01*
X009068Y008770D01*
G37*
G36*
X009052Y008779D02*
X009340Y008966D01*
X009344Y008959D01*
X009056Y008772D01*
X009052Y008779D01*
G37*
G36*
X009048Y008786D02*
X009336Y008973D01*
X009340Y008966D01*
X009052Y008779D01*
X009048Y008786D01*
G37*
G36*
X009079Y008768D02*
X009367Y008955D01*
X009371Y008948D01*
X009083Y008761D01*
X009079Y008768D01*
G37*
G36*
X009125Y008740D02*
X009413Y008927D01*
X009417Y008920D01*
X009129Y008733D01*
X009125Y008740D01*
G37*
G36*
X009129Y008734D02*
X009417Y008921D01*
X009421Y008914D01*
X009133Y008727D01*
X009129Y008734D01*
G37*
G36*
X009141Y008731D02*
X009429Y008918D01*
X009433Y008911D01*
X009145Y008724D01*
X009141Y008731D01*
G37*
G36*
X009156Y008722D02*
X009444Y008909D01*
X009448Y008902D01*
X009160Y008715D01*
X009156Y008722D01*
G37*
G36*
X009171Y008713D02*
X009459Y008900D01*
X009463Y008893D01*
X009175Y008706D01*
X009171Y008713D01*
G37*
G36*
X009202Y008695D02*
X009490Y008882D01*
X009494Y008875D01*
X009206Y008688D01*
X009202Y008695D01*
G37*
G36*
X009213Y008693D02*
X009501Y008880D01*
X009505Y008873D01*
X009217Y008686D01*
X009213Y008693D01*
G37*
G36*
X009218Y008686D02*
X009506Y008873D01*
X009510Y008866D01*
X009222Y008679D01*
X009218Y008686D01*
G37*
G36*
X009229Y008684D02*
X009517Y008871D01*
X009521Y008864D01*
X009233Y008677D01*
X009229Y008684D01*
G37*
G36*
X009233Y008677D02*
X009521Y008864D01*
X009525Y008857D01*
X009237Y008670D01*
X009233Y008677D01*
G37*
G36*
X009244Y008675D02*
X009532Y008862D01*
X009536Y008855D01*
X009248Y008668D01*
X009244Y008675D01*
G37*
G36*
X009290Y008647D02*
X009578Y008834D01*
X009582Y008827D01*
X009294Y008640D01*
X009290Y008647D01*
G37*
G36*
X009306Y008638D02*
X009594Y008825D01*
X009598Y008818D01*
X009310Y008631D01*
X009306Y008638D01*
G37*
G36*
X009736Y008402D02*
X010024Y008589D01*
X010028Y008582D01*
X009740Y008395D01*
X009736Y008402D01*
G37*
G36*
X009740Y008396D02*
X010028Y008583D01*
X010032Y008576D01*
X009744Y008389D01*
X009740Y008396D01*
G37*
G36*
X009751Y008393D02*
X010039Y008580D01*
X010043Y008573D01*
X009755Y008386D01*
X009751Y008393D01*
G37*
G36*
X009755Y008387D02*
X010043Y008574D01*
X010047Y008567D01*
X009759Y008380D01*
X009755Y008387D01*
G37*
G36*
X009767Y008384D02*
X010055Y008571D01*
X010059Y008564D01*
X009771Y008377D01*
X009767Y008384D01*
G37*
G36*
X009771Y008378D02*
X010059Y008565D01*
X010063Y008558D01*
X009775Y008371D01*
X009771Y008378D01*
G37*
G36*
X009797Y008366D02*
X010085Y008553D01*
X010089Y008546D01*
X009801Y008359D01*
X009797Y008366D01*
G37*
G36*
X009802Y008359D02*
X010090Y008546D01*
X010094Y008539D01*
X009806Y008352D01*
X009802Y008359D01*
G37*
G36*
X009813Y008357D02*
X010101Y008544D01*
X010105Y008537D01*
X009817Y008350D01*
X009813Y008357D01*
G37*
G36*
X009824Y008355D02*
X010112Y008542D01*
X010116Y008535D01*
X009828Y008348D01*
X009824Y008355D01*
G37*
G36*
X009828Y008348D02*
X010116Y008535D01*
X010120Y008528D01*
X009832Y008341D01*
X009828Y008348D01*
G37*
G36*
X009839Y008346D02*
X010127Y008533D01*
X010131Y008526D01*
X009843Y008339D01*
X009839Y008346D01*
G37*
G36*
X009844Y008339D02*
X010132Y008526D01*
X010136Y008519D01*
X009848Y008332D01*
X009844Y008339D01*
G37*
G36*
X009874Y008321D02*
X010162Y008508D01*
X010166Y008501D01*
X009878Y008314D01*
X009874Y008321D01*
G37*
G36*
X009886Y008319D02*
X010174Y008506D01*
X010178Y008499D01*
X009890Y008312D01*
X009886Y008319D01*
G37*
G36*
X008143Y008799D02*
X008431Y008986D01*
X008435Y008979D01*
X008147Y008792D01*
X008143Y008799D01*
G37*
G36*
X006958Y008802D02*
X007246Y008989D01*
X007250Y008982D01*
X006962Y008795D01*
X006958Y008802D01*
G37*
D55*
G36*
X007225Y008642D02*
X007761Y008989D01*
X007765Y008982D01*
X007229Y008635D01*
X007225Y008642D01*
G37*
G36*
X009013Y007753D02*
X009549Y008100D01*
X009553Y008093D01*
X009017Y007746D01*
X009013Y007753D01*
G37*
D56*
G36*
X009002Y007754D02*
X009551Y008110D01*
X009556Y008104D01*
X009007Y007748D01*
X009002Y007754D01*
G37*
G36*
X006178Y008372D02*
X006727Y008728D01*
X006732Y008722D01*
X006183Y008366D01*
X006178Y008372D01*
G37*
D57*
G36*
X007224Y008613D02*
X007793Y008982D01*
X007798Y008975D01*
X007229Y008606D01*
X007224Y008613D01*
G37*
G36*
X008991Y007757D02*
X009560Y008126D01*
X009565Y008119D01*
X008996Y007750D01*
X008991Y007757D01*
G37*
D58*
G36*
X009332Y008627D02*
X009620Y008814D01*
X009624Y008807D01*
X009336Y008620D01*
X009332Y008627D01*
G37*
G36*
X009260Y008666D02*
X009548Y008853D01*
X009552Y008846D01*
X009264Y008659D01*
X009260Y008666D01*
G37*
G36*
X009110Y008749D02*
X009398Y008936D01*
X009402Y008929D01*
X009114Y008742D01*
X009110Y008749D01*
G37*
G36*
X009037Y008788D02*
X009325Y008975D01*
X009329Y008968D01*
X009041Y008781D01*
X009037Y008788D01*
G37*
G36*
X009033Y008795D02*
X009321Y008982D01*
X009325Y008975D01*
X009037Y008788D01*
X009033Y008795D01*
G37*
G36*
X009782Y008375D02*
X010070Y008562D01*
X010074Y008555D01*
X009786Y008368D01*
X009782Y008375D01*
G37*
G36*
X009786Y008369D02*
X010074Y008556D01*
X010078Y008549D01*
X009790Y008362D01*
X009786Y008369D01*
G37*
G36*
X009859Y008330D02*
X010147Y008517D01*
X010151Y008510D01*
X009863Y008323D01*
X009859Y008330D01*
G37*
G36*
X007674Y008170D02*
X007962Y008357D01*
X007966Y008350D01*
X007678Y008163D01*
X007674Y008170D01*
G37*
D59*
G36*
X007229Y008605D02*
X007805Y008979D01*
X007809Y008973D01*
X007233Y008599D01*
X007229Y008605D01*
G37*
G36*
X007884Y008096D02*
X008460Y008470D01*
X008464Y008464D01*
X007888Y008090D01*
X007884Y008096D01*
G37*
G36*
X008987Y007763D02*
X009563Y008137D01*
X009567Y008131D01*
X008991Y007757D01*
X008987Y007763D01*
G37*
G36*
X009194Y008355D02*
X009770Y008729D01*
X009774Y008723D01*
X009198Y008349D01*
X009194Y008355D01*
G37*
D60*
G36*
X009176Y008325D02*
X009786Y008720D01*
X009790Y008713D01*
X009180Y008318D01*
X009176Y008325D01*
G37*
G36*
X008976Y007766D02*
X009586Y008161D01*
X009590Y008154D01*
X008980Y007759D01*
X008976Y007766D01*
G37*
G36*
X007844Y008100D02*
X008454Y008495D01*
X008458Y008488D01*
X007848Y008093D01*
X007844Y008100D01*
G37*
G36*
X006179Y008401D02*
X006789Y008796D01*
X006793Y008789D01*
X006183Y008394D01*
X006179Y008401D01*
G37*
D61*
G36*
X008971Y007773D02*
X009594Y008177D01*
X009599Y008171D01*
X008976Y007767D01*
X008971Y007773D01*
G37*
D62*
G36*
X008960Y007775D02*
X009603Y008192D01*
X009608Y008185D01*
X008965Y007768D01*
X008960Y007775D01*
G37*
D63*
G36*
X008956Y007782D02*
X009606Y008203D01*
X009610Y008196D01*
X008960Y007775D01*
X008956Y007782D01*
G37*
G36*
X009155Y008284D02*
X009805Y008705D01*
X009809Y008698D01*
X009159Y008277D01*
X009155Y008284D01*
G37*
G36*
X007808Y008096D02*
X008458Y008517D01*
X008462Y008510D01*
X007812Y008089D01*
X007808Y008096D01*
G37*
G36*
X006177Y008419D02*
X006827Y008840D01*
X006831Y008833D01*
X006181Y008412D01*
X006177Y008419D01*
G37*
D64*
G36*
X006180Y008430D02*
X006836Y008856D01*
X006840Y008850D01*
X006184Y008424D01*
X006180Y008430D01*
G37*
G36*
X007798Y008097D02*
X008454Y008523D01*
X008458Y008517D01*
X007802Y008091D01*
X007798Y008097D01*
G37*
G36*
X008952Y007788D02*
X009608Y008214D01*
X009612Y008208D01*
X008956Y007782D01*
X008952Y007788D01*
G37*
D65*
G36*
X008941Y007791D02*
X009611Y008226D01*
X009615Y008219D01*
X008945Y007784D01*
X008941Y007791D01*
G37*
G36*
X009146Y008268D02*
X009816Y008703D01*
X009820Y008696D01*
X009150Y008261D01*
X009146Y008268D01*
G37*
D66*
G36*
X008930Y007793D02*
X009634Y008250D01*
X009638Y008243D01*
X008934Y007786D01*
X008930Y007793D01*
G37*
G36*
X006120Y008535D02*
X006824Y008992D01*
X006828Y008985D01*
X006124Y008528D01*
X006120Y008535D01*
G37*
D67*
G36*
X006124Y008528D02*
X006841Y008993D01*
X006846Y008986D01*
X006129Y008521D01*
X006124Y008528D01*
G37*
G36*
X007739Y008098D02*
X008456Y008563D01*
X008461Y008556D01*
X007744Y008091D01*
X007739Y008098D01*
G37*
G36*
X008925Y007800D02*
X009642Y008265D01*
X009647Y008258D01*
X008930Y007793D01*
X008925Y007800D01*
G37*
D68*
G36*
X008914Y007802D02*
X009651Y008280D01*
X009656Y008274D01*
X008919Y007796D01*
X008914Y007802D01*
G37*
G36*
X006133Y008515D02*
X006870Y008993D01*
X006875Y008987D01*
X006138Y008509D01*
X006133Y008515D01*
G37*
D69*
G36*
X006143Y008502D02*
X006893Y008989D01*
X006897Y008982D01*
X006147Y008495D01*
X006143Y008502D01*
G37*
G36*
X006147Y008495D02*
X006897Y008982D01*
X006901Y008975D01*
X006151Y008488D01*
X006147Y008495D01*
G37*
G36*
X006167Y008479D02*
X006917Y008966D01*
X006921Y008959D01*
X006171Y008472D01*
X006167Y008479D01*
G37*
G36*
X008910Y007809D02*
X009660Y008296D01*
X009664Y008289D01*
X008914Y007802D01*
X008910Y007809D01*
G37*
G36*
X009108Y008195D02*
X009858Y008682D01*
X009862Y008675D01*
X009112Y008188D01*
X009108Y008195D01*
G37*
D70*
G36*
X008912Y007820D02*
X009656Y008303D01*
X009660Y008296D01*
X008916Y007813D01*
X008912Y007820D01*
G37*
G36*
X009103Y008202D02*
X009847Y008685D01*
X009851Y008678D01*
X009107Y008195D01*
X009103Y008202D01*
G37*
G36*
X006171Y008472D02*
X006915Y008955D01*
X006919Y008948D01*
X006175Y008465D01*
X006171Y008472D01*
G37*
G36*
X006138Y008508D02*
X006882Y008991D01*
X006886Y008984D01*
X006142Y008501D01*
X006138Y008508D01*
G37*
G36*
X006158Y008492D02*
X006902Y008975D01*
X006906Y008968D01*
X006162Y008485D01*
X006158Y008492D01*
G37*
G36*
X006162Y008486D02*
X006906Y008969D01*
X006910Y008962D01*
X006166Y008479D01*
X006162Y008486D01*
G37*
D71*
G36*
X008908Y007826D02*
X009672Y008322D01*
X009676Y008316D01*
X008912Y007820D01*
X008908Y007826D01*
G37*
D72*
G36*
X008903Y007833D02*
X009680Y008338D01*
X009685Y008331D01*
X008908Y007826D01*
X008903Y007833D01*
G37*
G36*
X008912Y007849D02*
X009689Y008354D01*
X009694Y008347D01*
X008917Y007842D01*
X008912Y007849D01*
G37*
G36*
X008921Y007864D02*
X009698Y008369D01*
X009703Y008362D01*
X008926Y007857D01*
X008921Y007864D01*
G37*
G36*
X008930Y007880D02*
X009707Y008385D01*
X009712Y008378D01*
X008935Y007873D01*
X008930Y007880D01*
G37*
D73*
G36*
X009334Y008610D02*
X009635Y008805D01*
X009640Y008798D01*
X009339Y008603D01*
X009334Y008610D01*
G37*
G36*
X009718Y008401D02*
X010019Y008596D01*
X010024Y008589D01*
X009723Y008394D01*
X009718Y008401D01*
G37*
G36*
X008138Y008777D02*
X008439Y008972D01*
X008444Y008965D01*
X008143Y008770D01*
X008138Y008777D01*
G37*
G36*
X007671Y008159D02*
X007972Y008354D01*
X007977Y008347D01*
X007676Y008152D01*
X007671Y008159D01*
G37*
G36*
X007242Y008100D02*
X007543Y008295D01*
X007548Y008288D01*
X007247Y008093D01*
X007242Y008100D01*
G37*
G36*
X006962Y008796D02*
X007263Y008991D01*
X007268Y008984D01*
X006967Y008789D01*
X006962Y008796D01*
G37*
G36*
X006407Y008798D02*
X006708Y008993D01*
X006713Y008986D01*
X006412Y008791D01*
X006407Y008798D01*
G37*
G36*
X006197Y008108D02*
X006498Y008303D01*
X006503Y008296D01*
X006202Y008101D01*
X006197Y008108D01*
G37*
G36*
X006201Y008101D02*
X006502Y008296D01*
X006507Y008289D01*
X006206Y008094D01*
X006201Y008101D01*
G37*
D74*
G36*
X008926Y007886D02*
X009710Y008395D01*
X009714Y008388D01*
X008930Y007879D01*
X008926Y007886D01*
G37*
G36*
X009090Y008164D02*
X009874Y008673D01*
X009878Y008666D01*
X009094Y008157D01*
X009090Y008164D01*
G37*
D75*
G36*
X008935Y007901D02*
X010001Y008593D01*
X010005Y008587D01*
X008939Y007895D01*
X008935Y007901D01*
G37*
D76*
G36*
X008945Y007917D02*
X009997Y008600D01*
X010001Y008593D01*
X008949Y007910D01*
X008945Y007917D01*
G37*
D77*
G36*
X008960Y007938D02*
X009986Y008603D01*
X009990Y008596D01*
X008964Y007931D01*
X008960Y007938D01*
G37*
D78*
G36*
X008969Y007953D02*
X009981Y008610D01*
X009985Y008603D01*
X008973Y007946D01*
X008969Y007953D01*
G37*
D79*
G36*
X008978Y007968D02*
X009970Y008612D01*
X009974Y008606D01*
X008982Y007962D01*
X008978Y007968D01*
G37*
D80*
G36*
X008988Y007984D02*
X009966Y008619D01*
X009970Y008612D01*
X008992Y007977D01*
X008988Y007984D01*
G37*
D81*
G36*
X008983Y007990D02*
X009955Y008621D01*
X009959Y008614D01*
X008987Y007983D01*
X008983Y007990D01*
G37*
D82*
G36*
X008992Y008005D02*
X009950Y008627D01*
X009954Y008621D01*
X008996Y007999D01*
X008992Y008005D01*
G37*
D83*
G36*
X009008Y008025D02*
X009946Y008634D01*
X009950Y008627D01*
X009012Y008018D01*
X009008Y008025D01*
G37*
D84*
G36*
X009017Y008040D02*
X009935Y008636D01*
X009939Y008630D01*
X009021Y008034D01*
X009017Y008040D01*
G37*
D85*
G36*
X009026Y008056D02*
X009931Y008643D01*
X009936Y008636D01*
X009031Y008049D01*
X009026Y008056D01*
G37*
D86*
G36*
X009036Y008071D02*
X009920Y008645D01*
X009924Y008639D01*
X009040Y008065D01*
X009036Y008071D01*
G37*
D87*
G36*
X009051Y008091D02*
X009909Y008648D01*
X009913Y008641D01*
X009055Y008084D01*
X009051Y008091D01*
G37*
D88*
G36*
X009060Y008107D02*
X009898Y008650D01*
X009902Y008643D01*
X009064Y008100D01*
X009060Y008107D01*
G37*
G36*
X009055Y008114D02*
X009893Y008657D01*
X009897Y008650D01*
X009059Y008107D01*
X009055Y008114D01*
G37*
D89*
G36*
X009064Y008129D02*
X009882Y008660D01*
X009886Y008653D01*
X009068Y008122D01*
X009064Y008129D01*
G37*
D90*
G36*
X009074Y008144D02*
X009878Y008666D01*
X009882Y008660D01*
X009078Y008138D01*
X009074Y008144D01*
G37*
D91*
G36*
X009099Y008179D02*
X009863Y008675D01*
X009867Y008669D01*
X009103Y008173D01*
X009099Y008179D01*
G37*
D92*
G36*
X009113Y008217D02*
X009843Y008691D01*
X009847Y008685D01*
X009117Y008211D01*
X009113Y008217D01*
G37*
D93*
G36*
X009122Y008233D02*
X009832Y008694D01*
X009836Y008687D01*
X009126Y008226D01*
X009122Y008233D01*
G37*
G36*
X007751Y008096D02*
X008461Y008557D01*
X008465Y008550D01*
X007755Y008089D01*
X007751Y008096D01*
G37*
G36*
X006180Y008459D02*
X006890Y008920D01*
X006894Y008913D01*
X006184Y008452D01*
X006180Y008459D01*
G37*
D94*
G36*
X006177Y008447D02*
X006867Y008895D01*
X006871Y008889D01*
X006181Y008441D01*
X006177Y008447D01*
G37*
G36*
X009137Y008252D02*
X009827Y008700D01*
X009831Y008694D01*
X009141Y008246D01*
X009137Y008252D01*
G37*
D95*
G36*
X009164Y008298D02*
X009794Y008707D01*
X009798Y008700D01*
X009168Y008291D01*
X009164Y008298D01*
G37*
G36*
X009160Y008305D02*
X009790Y008714D01*
X009794Y008707D01*
X009164Y008298D01*
X009160Y008305D01*
G37*
D96*
G36*
X009185Y008340D02*
X009775Y008723D01*
X009779Y008716D01*
X009189Y008333D01*
X009185Y008340D01*
G37*
D97*
G36*
X008791Y008094D02*
X008817Y008111D01*
X008821Y008104D01*
X008795Y008087D01*
X008791Y008094D01*
G37*
G36*
X006468Y008102D02*
X006494Y008119D01*
X006498Y008112D01*
X006472Y008095D01*
X006468Y008102D01*
G37*
D98*
G36*
X007902Y008098D02*
X008458Y008459D01*
X008462Y008452D01*
X007906Y008091D01*
X007902Y008098D01*
G37*
G36*
X009203Y008371D02*
X009759Y008732D01*
X009763Y008725D01*
X009207Y008364D01*
X009203Y008371D01*
G37*
D99*
G36*
X008773Y008093D02*
X008812Y008118D01*
X008817Y008111D01*
X008778Y008086D01*
X008773Y008093D01*
G37*
G36*
X009140Y009027D02*
X009179Y009052D01*
X009184Y009045D01*
X009145Y009020D01*
X009140Y009027D01*
G37*
G36*
X008142Y008961D02*
X008181Y008986D01*
X008186Y008979D01*
X008147Y008954D01*
X008142Y008961D01*
G37*
G36*
X007673Y008332D02*
X007712Y008357D01*
X007717Y008350D01*
X007678Y008325D01*
X007673Y008332D01*
G37*
G36*
X007502Y008097D02*
X007541Y008122D01*
X007546Y008115D01*
X007507Y008090D01*
X007502Y008097D01*
G37*
D100*
G36*
X007229Y008634D02*
X007771Y008986D01*
X007775Y008980D01*
X007233Y008628D01*
X007229Y008634D01*
G37*
G36*
X007913Y008096D02*
X008455Y008448D01*
X008459Y008442D01*
X007917Y008090D01*
X007913Y008096D01*
G37*
G36*
X009212Y008386D02*
X009754Y008738D01*
X009758Y008732D01*
X009216Y008380D01*
X009212Y008386D01*
G37*
D101*
G36*
X009221Y008402D02*
X009743Y008741D01*
X009747Y008734D01*
X009225Y008395D01*
X009221Y008402D01*
G37*
G36*
X007931Y008098D02*
X008453Y008437D01*
X008457Y008430D01*
X007935Y008091D01*
X007931Y008098D01*
G37*
D102*
G36*
X007941Y008096D02*
X008457Y008431D01*
X008461Y008424D01*
X007945Y008089D01*
X007941Y008096D01*
G37*
G36*
X007227Y008652D02*
X007743Y008987D01*
X007747Y008980D01*
X007231Y008645D01*
X007227Y008652D01*
G37*
G36*
X006180Y008354D02*
X006696Y008689D01*
X006700Y008682D01*
X006184Y008347D01*
X006180Y008354D01*
G37*
G36*
X009223Y008413D02*
X009739Y008748D01*
X009743Y008741D01*
X009227Y008406D01*
X009223Y008413D01*
G37*
D103*
G36*
X008716Y008093D02*
X008822Y008162D01*
X008826Y008155D01*
X008720Y008086D01*
X008716Y008093D01*
G37*
G36*
X008352Y008095D02*
X008458Y008164D01*
X008462Y008157D01*
X008356Y008088D01*
X008352Y008095D01*
G37*
G36*
X009111Y008969D02*
X009217Y009038D01*
X009221Y009031D01*
X009115Y008962D01*
X009111Y008969D01*
G37*
G36*
X007434Y008100D02*
X007540Y008169D01*
X007544Y008162D01*
X007438Y008093D01*
X007434Y008100D01*
G37*
G36*
X006955Y008924D02*
X007061Y008993D01*
X007065Y008986D01*
X006959Y008917D01*
X006955Y008924D01*
G37*
G36*
X005799Y008927D02*
X005905Y008996D01*
X005909Y008989D01*
X005803Y008920D01*
X005799Y008927D01*
G37*
D104*
G36*
X008138Y008910D02*
X008258Y008987D01*
X008262Y008980D01*
X008142Y008903D01*
X008138Y008910D01*
G37*
G36*
X008548Y008910D02*
X008668Y008987D01*
X008672Y008980D01*
X008552Y008903D01*
X008548Y008910D01*
G37*
G36*
X009101Y008954D02*
X009221Y009031D01*
X009225Y009024D01*
X009105Y008947D01*
X009101Y008954D01*
G37*
G36*
X008705Y008096D02*
X008825Y008173D01*
X008829Y008166D01*
X008709Y008089D01*
X008705Y008096D01*
G37*
G36*
X008334Y008094D02*
X008454Y008171D01*
X008458Y008164D01*
X008338Y008087D01*
X008334Y008094D01*
G37*
D105*
G36*
X007226Y008699D02*
X007674Y008990D01*
X007678Y008983D01*
X007230Y008692D01*
X007226Y008699D01*
G37*
G36*
X006178Y008315D02*
X006626Y008606D01*
X006630Y008599D01*
X006182Y008308D01*
X006178Y008315D01*
G37*
G36*
X009260Y008475D02*
X009708Y008766D01*
X009712Y008759D01*
X009264Y008468D01*
X009260Y008475D01*
G37*
D106*
G36*
X009269Y008490D02*
X009697Y008768D01*
X009701Y008762D01*
X009273Y008484D01*
X009269Y008490D01*
G37*
G36*
X008028Y008094D02*
X008456Y008372D01*
X008460Y008366D01*
X008032Y008088D01*
X008028Y008094D01*
G37*
G36*
X007228Y008710D02*
X007656Y008988D01*
X007660Y008982D01*
X007232Y008704D01*
X007228Y008710D01*
G37*
G36*
X006338Y008714D02*
X006766Y008992D01*
X006770Y008986D01*
X006342Y008708D01*
X006338Y008714D01*
G37*
G36*
X006176Y008303D02*
X006604Y008581D01*
X006608Y008575D01*
X006180Y008297D01*
X006176Y008303D01*
G37*
D107*
G36*
X008658Y008094D02*
X008818Y008197D01*
X008822Y008190D01*
X008662Y008087D01*
X008658Y008094D01*
G37*
D108*
G36*
X009277Y008506D02*
X009692Y008775D01*
X009697Y008768D01*
X009282Y008499D01*
X009277Y008506D01*
G37*
G36*
X007230Y008721D02*
X007645Y008990D01*
X007650Y008983D01*
X007235Y008714D01*
X007230Y008721D01*
G37*
D109*
G36*
X007357Y008099D02*
X007544Y008220D01*
X007549Y008213D01*
X007362Y008092D01*
X007357Y008099D01*
G37*
G36*
X008139Y008864D02*
X008326Y008985D01*
X008331Y008978D01*
X008144Y008857D01*
X008139Y008864D01*
G37*
G36*
X008549Y008863D02*
X008736Y008984D01*
X008741Y008977D01*
X008554Y008856D01*
X008549Y008863D01*
G37*
G36*
X008640Y008092D02*
X008827Y008213D01*
X008832Y008206D01*
X008645Y008085D01*
X008640Y008092D01*
G37*
D110*
G36*
X008629Y008095D02*
X008823Y008220D01*
X008827Y008213D01*
X008633Y008088D01*
X008629Y008095D01*
G37*
G36*
X008265Y008097D02*
X008459Y008222D01*
X008463Y008215D01*
X008269Y008090D01*
X008265Y008097D01*
G37*
G36*
X006954Y008867D02*
X007148Y008992D01*
X007152Y008985D01*
X006958Y008860D01*
X006954Y008867D01*
G37*
D111*
G36*
X007684Y008110D02*
X008066Y008357D01*
X008070Y008350D01*
X007688Y008103D01*
X007684Y008110D01*
G37*
G36*
X008074Y008097D02*
X008456Y008344D01*
X008460Y008337D01*
X008078Y008090D01*
X008074Y008097D01*
G37*
G36*
X009289Y008533D02*
X009671Y008780D01*
X009675Y008773D01*
X009293Y008526D01*
X009289Y008533D01*
G37*
D112*
G36*
X009054Y008866D02*
X009274Y009009D01*
X009278Y009002D01*
X009058Y008859D01*
X009054Y008866D01*
G37*
G36*
X008601Y008095D02*
X008821Y008238D01*
X008825Y008231D01*
X008605Y008088D01*
X008601Y008095D01*
G37*
G36*
X008237Y008097D02*
X008457Y008240D01*
X008461Y008233D01*
X008241Y008090D01*
X008237Y008097D01*
G37*
G36*
X007599Y008770D02*
X007819Y008913D01*
X007823Y008906D01*
X007603Y008763D01*
X007599Y008770D01*
G37*
G36*
X006957Y008849D02*
X007177Y008992D01*
X007181Y008985D01*
X006961Y008842D01*
X006957Y008849D01*
G37*
G36*
X006097Y008557D02*
X006317Y008700D01*
X006321Y008693D01*
X006101Y008550D01*
X006097Y008557D01*
G37*
G36*
X006084Y008578D02*
X006304Y008721D01*
X006308Y008714D01*
X006088Y008571D01*
X006084Y008578D01*
G37*
G36*
X006079Y008584D02*
X006299Y008727D01*
X006303Y008720D01*
X006083Y008577D01*
X006079Y008584D01*
G37*
G36*
X006062Y008611D02*
X006282Y008754D01*
X006286Y008747D01*
X006066Y008604D01*
X006062Y008611D01*
G37*
G36*
X005996Y008683D02*
X006216Y008826D01*
X006220Y008819D01*
X006000Y008676D01*
X005996Y008683D01*
G37*
G36*
X005992Y008690D02*
X006212Y008833D01*
X006216Y008826D01*
X005996Y008683D01*
X005992Y008690D01*
G37*
G36*
X005987Y008696D02*
X006207Y008839D01*
X006211Y008832D01*
X005991Y008689D01*
X005987Y008696D01*
G37*
G36*
X005979Y008710D02*
X006199Y008853D01*
X006203Y008846D01*
X005983Y008703D01*
X005979Y008710D01*
G37*
G36*
X005974Y008716D02*
X006194Y008859D01*
X006198Y008852D01*
X005978Y008709D01*
X005974Y008716D01*
G37*
G36*
X005970Y008723D02*
X006190Y008866D01*
X006194Y008859D01*
X005974Y008716D01*
X005970Y008723D01*
G37*
G36*
X005869Y008849D02*
X006089Y008992D01*
X006093Y008985D01*
X005873Y008842D01*
X005869Y008849D01*
G37*
G36*
X005858Y008851D02*
X006078Y008994D01*
X006082Y008987D01*
X005862Y008844D01*
X005858Y008851D01*
G37*
D113*
G36*
X007671Y008131D02*
X008019Y008356D01*
X008023Y008349D01*
X007675Y008124D01*
X007671Y008131D01*
G37*
G36*
X009307Y008564D02*
X009655Y008789D01*
X009659Y008782D01*
X009311Y008557D01*
X009307Y008564D01*
G37*
D114*
G36*
X009038Y008846D02*
X009278Y009002D01*
X009282Y008996D01*
X009042Y008840D01*
X009038Y008846D01*
G37*
G36*
X008583Y008092D02*
X008823Y008248D01*
X008827Y008242D01*
X008587Y008086D01*
X008583Y008092D01*
G37*
G36*
X007675Y008198D02*
X007915Y008354D01*
X007919Y008348D01*
X007679Y008192D01*
X007675Y008198D01*
G37*
G36*
X007301Y008099D02*
X007541Y008255D01*
X007545Y008249D01*
X007305Y008093D01*
X007301Y008099D01*
G37*
G36*
X006440Y008837D02*
X006680Y008993D01*
X006684Y008987D01*
X006444Y008831D01*
X006440Y008837D01*
G37*
G36*
X006267Y008104D02*
X006507Y008260D01*
X006511Y008254D01*
X006271Y008098D01*
X006267Y008104D01*
G37*
D115*
G36*
X006175Y008246D02*
X006509Y008463D01*
X006513Y008456D01*
X006179Y008239D01*
X006175Y008246D01*
G37*
G36*
X006177Y008257D02*
X006511Y008474D01*
X006515Y008467D01*
X006181Y008250D01*
X006177Y008257D01*
G37*
G36*
X006976Y008775D02*
X007310Y008992D01*
X007314Y008985D01*
X006980Y008768D01*
X006976Y008775D01*
G37*
G36*
X006987Y008773D02*
X007321Y008990D01*
X007325Y008983D01*
X006991Y008766D01*
X006987Y008773D01*
G37*
G36*
X007016Y008773D02*
X007350Y008990D01*
X007354Y008983D01*
X007020Y008766D01*
X007016Y008773D01*
G37*
G36*
X007045Y008772D02*
X007379Y008989D01*
X007383Y008982D01*
X007049Y008765D01*
X007045Y008772D01*
G37*
G36*
X007073Y008772D02*
X007407Y008989D01*
X007411Y008982D01*
X007077Y008765D01*
X007073Y008772D01*
G37*
G36*
X007091Y008774D02*
X007425Y008991D01*
X007429Y008984D01*
X007095Y008767D01*
X007091Y008774D01*
G37*
G36*
X007102Y008772D02*
X007436Y008989D01*
X007440Y008982D01*
X007106Y008765D01*
X007102Y008772D01*
G37*
G36*
X007120Y008774D02*
X007454Y008991D01*
X007458Y008984D01*
X007124Y008767D01*
X007120Y008774D01*
G37*
G36*
X007131Y008771D02*
X007465Y008988D01*
X007469Y008981D01*
X007135Y008764D01*
X007131Y008771D01*
G37*
G36*
X007149Y008773D02*
X007483Y008990D01*
X007487Y008983D01*
X007153Y008766D01*
X007149Y008773D01*
G37*
G36*
X007160Y008771D02*
X007494Y008988D01*
X007498Y008981D01*
X007164Y008764D01*
X007160Y008771D01*
G37*
G36*
X007178Y008773D02*
X007512Y008990D01*
X007516Y008983D01*
X007182Y008766D01*
X007178Y008773D01*
G37*
G36*
X007189Y008771D02*
X007523Y008988D01*
X007527Y008981D01*
X007193Y008764D01*
X007189Y008771D01*
G37*
G36*
X007207Y008773D02*
X007541Y008990D01*
X007545Y008983D01*
X007211Y008766D01*
X007207Y008773D01*
G37*
G36*
X007218Y008770D02*
X007552Y008987D01*
X007556Y008980D01*
X007222Y008763D01*
X007218Y008770D01*
G37*
G36*
X008122Y008098D02*
X008456Y008315D01*
X008460Y008308D01*
X008126Y008091D01*
X008122Y008098D01*
G37*
G36*
X009317Y008579D02*
X009651Y008796D01*
X009655Y008789D01*
X009321Y008572D01*
X009317Y008579D01*
G37*
D116*
G36*
X009326Y008593D02*
X009640Y008797D01*
X009644Y008791D01*
X009330Y008587D01*
X009326Y008593D01*
G37*
G36*
X008143Y008446D02*
X008457Y008650D01*
X008461Y008644D01*
X008147Y008440D01*
X008143Y008446D01*
G37*
G36*
X008140Y008377D02*
X008454Y008581D01*
X008458Y008575D01*
X008144Y008371D01*
X008140Y008377D01*
G37*
G36*
X008138Y008395D02*
X008452Y008599D01*
X008456Y008593D01*
X008142Y008389D01*
X008138Y008395D01*
G37*
G36*
X008141Y008406D02*
X008455Y008610D01*
X008459Y008604D01*
X008145Y008400D01*
X008141Y008406D01*
G37*
G36*
X008141Y008435D02*
X008455Y008639D01*
X008459Y008633D01*
X008145Y008429D01*
X008141Y008435D01*
G37*
G36*
X008141Y008464D02*
X008455Y008668D01*
X008459Y008662D01*
X008145Y008458D01*
X008141Y008464D01*
G37*
G36*
X008139Y008481D02*
X008453Y008685D01*
X008457Y008679D01*
X008143Y008475D01*
X008139Y008481D01*
G37*
G36*
X008142Y008492D02*
X008456Y008696D01*
X008460Y008690D01*
X008146Y008486D01*
X008142Y008492D01*
G37*
G36*
X008142Y008521D02*
X008456Y008725D01*
X008460Y008719D01*
X008146Y008515D01*
X008142Y008521D01*
G37*
G36*
X008140Y008539D02*
X008454Y008743D01*
X008458Y008737D01*
X008144Y008533D01*
X008140Y008539D01*
G37*
G36*
X008142Y008550D02*
X008456Y008754D01*
X008460Y008748D01*
X008146Y008544D01*
X008142Y008550D01*
G37*
G36*
X008140Y008568D02*
X008454Y008772D01*
X008458Y008766D01*
X008144Y008562D01*
X008140Y008568D01*
G37*
G36*
X008141Y008625D02*
X008455Y008829D01*
X008459Y008823D01*
X008145Y008619D01*
X008141Y008625D01*
G37*
G36*
X008139Y008643D02*
X008453Y008847D01*
X008457Y008841D01*
X008143Y008637D01*
X008139Y008643D01*
G37*
G36*
X008141Y008654D02*
X008455Y008858D01*
X008459Y008852D01*
X008145Y008648D01*
X008141Y008654D01*
G37*
G36*
X008142Y008683D02*
X008456Y008887D01*
X008460Y008881D01*
X008146Y008677D01*
X008142Y008683D01*
G37*
G36*
X008142Y008712D02*
X008456Y008916D01*
X008460Y008910D01*
X008146Y008706D01*
X008142Y008712D01*
G37*
G36*
X008140Y008730D02*
X008454Y008934D01*
X008458Y008928D01*
X008144Y008724D01*
X008140Y008730D01*
G37*
G36*
X008143Y008741D02*
X008457Y008945D01*
X008461Y008939D01*
X008147Y008735D01*
X008143Y008741D01*
G37*
G36*
X008141Y008759D02*
X008455Y008963D01*
X008459Y008957D01*
X008145Y008753D01*
X008141Y008759D01*
G37*
G36*
X007676Y008152D02*
X007990Y008356D01*
X007994Y008350D01*
X007680Y008146D01*
X007676Y008152D01*
G37*
G36*
X007230Y008119D02*
X007544Y008323D01*
X007548Y008317D01*
X007234Y008113D01*
X007230Y008119D01*
G37*
G36*
X007225Y008126D02*
X007539Y008330D01*
X007543Y008324D01*
X007229Y008120D01*
X007225Y008126D01*
G37*
G36*
X007228Y008137D02*
X007542Y008341D01*
X007546Y008335D01*
X007232Y008131D01*
X007228Y008137D01*
G37*
G36*
X007228Y008166D02*
X007542Y008370D01*
X007546Y008364D01*
X007232Y008160D01*
X007228Y008166D01*
G37*
G36*
X007228Y008195D02*
X007542Y008399D01*
X007546Y008393D01*
X007232Y008189D01*
X007228Y008195D01*
G37*
G36*
X007226Y008213D02*
X007540Y008417D01*
X007544Y008411D01*
X007230Y008207D01*
X007226Y008213D01*
G37*
G36*
X007229Y008224D02*
X007543Y008428D01*
X007547Y008422D01*
X007233Y008218D01*
X007229Y008224D01*
G37*
G36*
X007229Y008253D02*
X007543Y008457D01*
X007547Y008451D01*
X007233Y008247D01*
X007229Y008253D01*
G37*
G36*
X007227Y008270D02*
X007541Y008474D01*
X007545Y008468D01*
X007231Y008264D01*
X007227Y008270D01*
G37*
G36*
X007229Y008281D02*
X007543Y008485D01*
X007547Y008479D01*
X007233Y008275D01*
X007229Y008281D01*
G37*
G36*
X007227Y008299D02*
X007541Y008503D01*
X007545Y008497D01*
X007231Y008293D01*
X007227Y008299D01*
G37*
G36*
X007228Y008357D02*
X007542Y008561D01*
X007546Y008555D01*
X007232Y008351D01*
X007228Y008357D01*
G37*
G36*
X007226Y008375D02*
X007540Y008579D01*
X007544Y008573D01*
X007230Y008369D01*
X007226Y008375D01*
G37*
G36*
X007228Y008386D02*
X007542Y008590D01*
X007546Y008584D01*
X007232Y008380D01*
X007228Y008386D01*
G37*
G36*
X007229Y008415D02*
X007543Y008619D01*
X007547Y008613D01*
X007233Y008409D01*
X007229Y008415D01*
G37*
G36*
X007231Y008426D02*
X007545Y008630D01*
X007549Y008624D01*
X007235Y008420D01*
X007231Y008426D01*
G37*
G36*
X007229Y008443D02*
X007543Y008647D01*
X007547Y008641D01*
X007233Y008437D01*
X007229Y008443D01*
G37*
G36*
X007227Y008461D02*
X007541Y008665D01*
X007545Y008659D01*
X007231Y008455D01*
X007227Y008461D01*
G37*
G36*
X007230Y008472D02*
X007544Y008676D01*
X007548Y008670D01*
X007234Y008466D01*
X007230Y008472D01*
G37*
G36*
X007230Y008501D02*
X007544Y008705D01*
X007548Y008699D01*
X007234Y008495D01*
X007230Y008501D01*
G37*
G36*
X007230Y008530D02*
X007544Y008734D01*
X007548Y008728D01*
X007234Y008524D01*
X007230Y008530D01*
G37*
G36*
X007228Y008548D02*
X007542Y008752D01*
X007546Y008746D01*
X007232Y008542D01*
X007228Y008548D01*
G37*
G36*
X007231Y008559D02*
X007545Y008763D01*
X007549Y008757D01*
X007235Y008553D01*
X007231Y008559D01*
G37*
D117*
G36*
X007552Y008769D02*
X007813Y008938D01*
X007818Y008931D01*
X007557Y008762D01*
X007552Y008769D01*
G37*
G36*
X007671Y008188D02*
X007932Y008357D01*
X007937Y008350D01*
X007676Y008181D01*
X007671Y008188D01*
G37*
G36*
X008140Y008817D02*
X008401Y008986D01*
X008406Y008979D01*
X008145Y008810D01*
X008140Y008817D01*
G37*
G36*
X008560Y008097D02*
X008821Y008266D01*
X008826Y008259D01*
X008565Y008090D01*
X008560Y008097D01*
G37*
D118*
G36*
X008161Y008095D02*
X008455Y008286D01*
X008459Y008279D01*
X008165Y008088D01*
X008161Y008095D01*
G37*
G36*
X008141Y008788D02*
X008435Y008979D01*
X008439Y008972D01*
X008145Y008781D01*
X008141Y008788D01*
G37*
G36*
X007254Y008097D02*
X007548Y008288D01*
X007552Y008281D01*
X007258Y008090D01*
X007254Y008097D01*
G37*
G36*
X009084Y008761D02*
X009378Y008952D01*
X009382Y008945D01*
X009088Y008754D01*
X009084Y008761D01*
G37*
G36*
X009088Y008754D02*
X009382Y008945D01*
X009386Y008938D01*
X009092Y008747D01*
X009088Y008754D01*
G37*
G36*
X009275Y008657D02*
X009569Y008848D01*
X009573Y008841D01*
X009279Y008650D01*
X009275Y008657D01*
G37*
G36*
X009280Y008650D02*
X009574Y008841D01*
X009578Y008834D01*
X009284Y008643D01*
X009280Y008650D01*
G37*
G36*
X009311Y008632D02*
X009605Y008823D01*
X009609Y008816D01*
X009315Y008625D01*
X009311Y008632D01*
G37*
D119*
G36*
X008398Y008097D02*
X008458Y008135D01*
X008462Y008129D01*
X008402Y008091D01*
X008398Y008097D01*
G37*
G36*
X006955Y008953D02*
X007015Y008991D01*
X007019Y008985D01*
X006959Y008947D01*
X006955Y008953D01*
G37*
G36*
X006439Y008103D02*
X006499Y008141D01*
X006503Y008135D01*
X006443Y008097D01*
X006439Y008103D01*
G37*
D120*
G36*
X007677Y008296D02*
X007770Y008356D01*
X007775Y008350D01*
X007682Y008290D01*
X007677Y008296D01*
G37*
G36*
X008363Y008093D02*
X008456Y008153D01*
X008461Y008147D01*
X008368Y008087D01*
X008363Y008093D01*
G37*
D121*
G36*
X008247Y008094D02*
X008454Y008228D01*
X008459Y008222D01*
X008252Y008088D01*
X008247Y008094D01*
G37*
G36*
X008137Y008852D02*
X008344Y008986D01*
X008349Y008980D01*
X008142Y008846D01*
X008137Y008852D01*
G37*
G36*
X008547Y008852D02*
X008754Y008986D01*
X008759Y008980D01*
X008552Y008846D01*
X008547Y008852D01*
G37*
G36*
X006295Y008104D02*
X006502Y008238D01*
X006507Y008232D01*
X006300Y008098D01*
X006295Y008104D01*
G37*
D122*
G36*
X008104Y008096D02*
X008458Y008326D01*
X008462Y008320D01*
X008108Y008090D01*
X008104Y008096D01*
G37*
D123*
G36*
X008056Y008094D02*
X008451Y008350D01*
X008456Y008344D01*
X008061Y008088D01*
X008056Y008094D01*
G37*
G36*
X007710Y008098D02*
X008105Y008354D01*
X008110Y008348D01*
X007715Y008092D01*
X007710Y008098D01*
G37*
D124*
G36*
X008046Y008097D02*
X008454Y008362D01*
X008458Y008355D01*
X008050Y008090D01*
X008046Y008097D01*
G37*
D125*
G36*
X008017Y008097D02*
X008459Y008384D01*
X008463Y008377D01*
X008021Y008090D01*
X008017Y008097D01*
G37*
D126*
G36*
X007987Y008097D02*
X008456Y008401D01*
X008461Y008395D01*
X007992Y008091D01*
X007987Y008097D01*
G37*
D127*
G36*
X007970Y008096D02*
X008459Y008413D01*
X008464Y008406D01*
X007975Y008089D01*
X007970Y008096D01*
G37*
G36*
X007224Y008670D02*
X007713Y008987D01*
X007718Y008980D01*
X007229Y008663D01*
X007224Y008670D01*
G37*
G36*
X006175Y008332D02*
X006664Y008649D01*
X006669Y008642D01*
X006180Y008325D01*
X006175Y008332D01*
G37*
D128*
G36*
X006178Y008344D02*
X006674Y008665D01*
X006678Y008658D01*
X006182Y008337D01*
X006178Y008344D01*
G37*
G36*
X007959Y008098D02*
X008455Y008419D01*
X008459Y008412D01*
X007963Y008091D01*
X007959Y008098D01*
G37*
D129*
G36*
X007872Y008099D02*
X008455Y008477D01*
X008460Y008471D01*
X007877Y008093D01*
X007872Y008099D01*
G37*
G36*
X007226Y008594D02*
X007809Y008972D01*
X007814Y008966D01*
X007231Y008588D01*
X007226Y008594D01*
G37*
D130*
G36*
X007854Y008097D02*
X008457Y008488D01*
X008462Y008481D01*
X007859Y008090D01*
X007854Y008097D01*
G37*
D131*
G36*
X007826Y008097D02*
X008456Y008506D01*
X008460Y008499D01*
X007830Y008090D01*
X007826Y008097D01*
G37*
D132*
G36*
X007677Y008268D02*
X007817Y008359D01*
X007821Y008352D01*
X007681Y008261D01*
X007677Y008268D01*
G37*
G36*
X007405Y008100D02*
X007545Y008191D01*
X007549Y008184D01*
X007409Y008093D01*
X007405Y008100D01*
G37*
G36*
X006493Y008901D02*
X006633Y008992D01*
X006637Y008985D01*
X006497Y008894D01*
X006493Y008901D01*
G37*
G36*
X005812Y008907D02*
X005952Y008998D01*
X005956Y008991D01*
X005816Y008900D01*
X005812Y008907D01*
G37*
G36*
X006364Y008101D02*
X006504Y008192D01*
X006508Y008185D01*
X006368Y008094D01*
X006364Y008101D01*
G37*
G36*
X009092Y008938D02*
X009232Y009029D01*
X009236Y009022D01*
X009096Y008931D01*
X009092Y008938D01*
G37*
D133*
G36*
X007779Y008096D02*
X008456Y008535D01*
X008461Y008528D01*
X007784Y008089D01*
X007779Y008096D01*
G37*
G36*
X006181Y008441D02*
X006858Y008880D01*
X006863Y008873D01*
X006186Y008434D01*
X006181Y008441D01*
G37*
D134*
G36*
X007769Y008097D02*
X008459Y008545D01*
X008463Y008539D01*
X007773Y008091D01*
X007769Y008097D01*
G37*
D135*
G36*
X007732Y008771D02*
X007818Y008826D01*
X007822Y008819D01*
X007736Y008764D01*
X007732Y008771D01*
G37*
G36*
X008143Y008933D02*
X008229Y008988D01*
X008233Y008981D01*
X008147Y008926D01*
X008143Y008933D01*
G37*
G36*
X008546Y008928D02*
X008632Y008983D01*
X008636Y008976D01*
X008550Y008921D01*
X008546Y008928D01*
G37*
G36*
X009120Y008985D02*
X009206Y009040D01*
X009210Y009033D01*
X009124Y008978D01*
X009120Y008985D01*
G37*
G36*
X006958Y008936D02*
X007044Y008991D01*
X007048Y008984D01*
X006962Y008929D01*
X006958Y008936D01*
G37*
G36*
X006422Y008101D02*
X006508Y008156D01*
X006512Y008149D01*
X006426Y008094D01*
X006422Y008101D01*
G37*
D136*
G36*
X006184Y008128D02*
X006505Y008336D01*
X006510Y008330D01*
X006189Y008122D01*
X006184Y008128D01*
G37*
G36*
X006180Y008134D02*
X006501Y008342D01*
X006506Y008336D01*
X006185Y008128D01*
X006180Y008134D01*
G37*
G36*
X006180Y008163D02*
X006501Y008371D01*
X006506Y008365D01*
X006185Y008157D01*
X006180Y008163D01*
G37*
G36*
X006178Y008181D02*
X006499Y008389D01*
X006504Y008383D01*
X006183Y008175D01*
X006178Y008181D01*
G37*
G36*
X006181Y008221D02*
X006502Y008429D01*
X006507Y008423D01*
X006186Y008215D01*
X006181Y008221D01*
G37*
G36*
X006398Y008782D02*
X006719Y008990D01*
X006724Y008984D01*
X006403Y008776D01*
X006398Y008782D01*
G37*
G36*
X006971Y008782D02*
X007292Y008990D01*
X007297Y008984D01*
X006976Y008776D01*
X006971Y008782D01*
G37*
G36*
X007225Y008537D02*
X007546Y008745D01*
X007551Y008739D01*
X007230Y008531D01*
X007225Y008537D01*
G37*
G36*
X007224Y008450D02*
X007545Y008658D01*
X007550Y008652D01*
X007229Y008444D01*
X007224Y008450D01*
G37*
G36*
X007223Y008335D02*
X007544Y008543D01*
X007549Y008537D01*
X007228Y008329D01*
X007223Y008335D01*
G37*
G36*
X007224Y008231D02*
X007545Y008439D01*
X007550Y008433D01*
X007229Y008225D01*
X007224Y008231D01*
G37*
G36*
X007223Y008144D02*
X007544Y008352D01*
X007549Y008346D01*
X007228Y008138D01*
X007223Y008144D01*
G37*
G36*
X007225Y008155D02*
X007546Y008363D01*
X007551Y008357D01*
X007230Y008149D01*
X007225Y008155D01*
G37*
G36*
X007223Y008173D02*
X007544Y008381D01*
X007549Y008375D01*
X007228Y008167D01*
X007223Y008173D01*
G37*
G36*
X007225Y008184D02*
X007546Y008392D01*
X007551Y008386D01*
X007230Y008178D01*
X007225Y008184D01*
G37*
G36*
X007226Y008242D02*
X007547Y008450D01*
X007552Y008444D01*
X007231Y008236D01*
X007226Y008242D01*
G37*
G36*
X007224Y008259D02*
X007545Y008467D01*
X007550Y008461D01*
X007229Y008253D01*
X007224Y008259D01*
G37*
G36*
X007224Y008288D02*
X007545Y008496D01*
X007550Y008490D01*
X007229Y008282D01*
X007224Y008288D01*
G37*
G36*
X007222Y008306D02*
X007543Y008514D01*
X007548Y008508D01*
X007227Y008300D01*
X007222Y008306D01*
G37*
G36*
X007225Y008317D02*
X007546Y008525D01*
X007551Y008519D01*
X007230Y008311D01*
X007225Y008317D01*
G37*
G36*
X007227Y008328D02*
X007548Y008536D01*
X007553Y008530D01*
X007232Y008322D01*
X007227Y008328D01*
G37*
G36*
X007223Y008364D02*
X007544Y008572D01*
X007549Y008566D01*
X007228Y008358D01*
X007223Y008364D01*
G37*
G36*
X007223Y008393D02*
X007544Y008601D01*
X007549Y008595D01*
X007228Y008387D01*
X007223Y008393D01*
G37*
G36*
X007226Y008404D02*
X007547Y008612D01*
X007552Y008606D01*
X007231Y008398D01*
X007226Y008404D01*
G37*
G36*
X007226Y008433D02*
X007547Y008641D01*
X007552Y008635D01*
X007231Y008427D01*
X007226Y008433D01*
G37*
G36*
X007225Y008479D02*
X007546Y008687D01*
X007551Y008681D01*
X007230Y008473D01*
X007225Y008479D01*
G37*
G36*
X007225Y008508D02*
X007546Y008716D01*
X007551Y008710D01*
X007230Y008502D01*
X007225Y008508D01*
G37*
G36*
X007227Y008519D02*
X007548Y008727D01*
X007553Y008721D01*
X007232Y008513D01*
X007227Y008519D01*
G37*
G36*
X008135Y008384D02*
X008456Y008592D01*
X008461Y008586D01*
X008140Y008378D01*
X008135Y008384D01*
G37*
G36*
X008137Y008366D02*
X008458Y008574D01*
X008463Y008568D01*
X008142Y008360D01*
X008137Y008366D01*
G37*
G36*
X008138Y008424D02*
X008459Y008632D01*
X008464Y008626D01*
X008143Y008418D01*
X008138Y008424D01*
G37*
G36*
X008138Y008453D02*
X008459Y008661D01*
X008464Y008655D01*
X008143Y008447D01*
X008138Y008453D01*
G37*
G36*
X008136Y008470D02*
X008457Y008678D01*
X008462Y008672D01*
X008141Y008464D01*
X008136Y008470D01*
G37*
G36*
X008137Y008499D02*
X008458Y008707D01*
X008463Y008701D01*
X008142Y008493D01*
X008137Y008499D01*
G37*
G36*
X008139Y008510D02*
X008460Y008718D01*
X008465Y008712D01*
X008144Y008504D01*
X008139Y008510D01*
G37*
G36*
X008137Y008528D02*
X008458Y008736D01*
X008463Y008730D01*
X008142Y008522D01*
X008137Y008528D01*
G37*
G36*
X008135Y008575D02*
X008456Y008783D01*
X008461Y008777D01*
X008140Y008569D01*
X008135Y008575D01*
G37*
G36*
X008138Y008586D02*
X008459Y008794D01*
X008464Y008788D01*
X008143Y008580D01*
X008138Y008586D01*
G37*
G36*
X008140Y008597D02*
X008461Y008805D01*
X008466Y008799D01*
X008145Y008591D01*
X008140Y008597D01*
G37*
G36*
X008136Y008604D02*
X008457Y008812D01*
X008462Y008806D01*
X008141Y008598D01*
X008136Y008604D01*
G37*
G36*
X008138Y008615D02*
X008459Y008823D01*
X008464Y008817D01*
X008143Y008609D01*
X008138Y008615D01*
G37*
G36*
X008136Y008661D02*
X008457Y008869D01*
X008462Y008863D01*
X008141Y008655D01*
X008136Y008661D01*
G37*
G36*
X008139Y008672D02*
X008460Y008880D01*
X008465Y008874D01*
X008144Y008666D01*
X008139Y008672D01*
G37*
G36*
X008137Y008690D02*
X008458Y008898D01*
X008463Y008892D01*
X008142Y008684D01*
X008137Y008690D01*
G37*
G36*
X008137Y008719D02*
X008458Y008927D01*
X008463Y008921D01*
X008142Y008713D01*
X008137Y008719D01*
G37*
G36*
X008138Y008748D02*
X008459Y008956D01*
X008464Y008950D01*
X008143Y008742D01*
X008138Y008748D01*
G37*
D137*
G36*
X008136Y008632D02*
X008457Y008840D01*
X008462Y008834D01*
X008141Y008626D01*
X008136Y008632D01*
G37*
G36*
X008137Y008557D02*
X008458Y008765D01*
X008463Y008759D01*
X008142Y008551D01*
X008137Y008557D01*
G37*
G36*
X008136Y008413D02*
X008457Y008621D01*
X008462Y008615D01*
X008141Y008407D01*
X008136Y008413D01*
G37*
G36*
X008139Y008701D02*
X008460Y008909D01*
X008465Y008903D01*
X008144Y008695D01*
X008139Y008701D01*
G37*
G36*
X007227Y008490D02*
X007548Y008698D01*
X007553Y008692D01*
X007232Y008484D01*
X007227Y008490D01*
G37*
G36*
X007225Y008346D02*
X007546Y008554D01*
X007551Y008548D01*
X007230Y008340D01*
X007225Y008346D01*
G37*
G36*
X007223Y008202D02*
X007544Y008410D01*
X007549Y008404D01*
X007228Y008196D01*
X007223Y008202D01*
G37*
G36*
X006186Y008110D02*
X006507Y008318D01*
X006512Y008312D01*
X006191Y008104D01*
X006186Y008110D01*
G37*
G36*
X006182Y008117D02*
X006503Y008325D01*
X006508Y008319D01*
X006187Y008111D01*
X006182Y008117D01*
G37*
D138*
G36*
X007673Y008113D02*
X008048Y008356D01*
X008053Y008349D01*
X007678Y008106D01*
X007673Y008113D01*
G37*
D139*
G36*
X007676Y008210D02*
X007903Y008357D01*
X007908Y008350D01*
X007681Y008203D01*
X007676Y008210D01*
G37*
G36*
X007318Y008101D02*
X007545Y008248D01*
X007550Y008241D01*
X007323Y008094D01*
X007318Y008101D01*
G37*
G36*
X005958Y008726D02*
X006185Y008873D01*
X006190Y008866D01*
X005963Y008719D01*
X005958Y008726D01*
G37*
G36*
X005954Y008732D02*
X006181Y008879D01*
X006186Y008872D01*
X005959Y008725D01*
X005954Y008732D01*
G37*
G36*
X005950Y008739D02*
X006177Y008886D01*
X006182Y008879D01*
X005955Y008732D01*
X005950Y008739D01*
G37*
G36*
X005945Y008746D02*
X006172Y008893D01*
X006177Y008886D01*
X005950Y008739D01*
X005945Y008746D01*
G37*
G36*
X005941Y008753D02*
X006168Y008900D01*
X006173Y008893D01*
X005946Y008746D01*
X005941Y008753D01*
G37*
G36*
X005936Y008759D02*
X006163Y008906D01*
X006168Y008899D01*
X005941Y008752D01*
X005936Y008759D01*
G37*
G36*
X005932Y008766D02*
X006159Y008913D01*
X006164Y008906D01*
X005937Y008759D01*
X005932Y008766D01*
G37*
G36*
X005928Y008773D02*
X006155Y008920D01*
X006160Y008913D01*
X005933Y008766D01*
X005928Y008773D01*
G37*
G36*
X005866Y008838D02*
X006093Y008985D01*
X006098Y008978D01*
X005871Y008831D01*
X005866Y008838D01*
G37*
D140*
G36*
X006430Y008822D02*
X006691Y008991D01*
X006696Y008984D01*
X006435Y008815D01*
X006430Y008822D01*
G37*
G36*
X006955Y008820D02*
X007216Y008989D01*
X007221Y008982D01*
X006960Y008813D01*
X006955Y008820D01*
G37*
G36*
X007282Y008097D02*
X007543Y008266D01*
X007548Y008259D01*
X007287Y008090D01*
X007282Y008097D01*
G37*
G36*
X008549Y008805D02*
X008810Y008974D01*
X008815Y008967D01*
X008554Y008798D01*
X008549Y008805D01*
G37*
D141*
G36*
X007416Y008097D02*
X007542Y008179D01*
X007546Y008173D01*
X007420Y008091D01*
X007416Y008097D01*
G37*
D142*
G36*
X007673Y008274D02*
X007799Y008356D01*
X007803Y008350D01*
X007677Y008268D01*
X007673Y008274D01*
G37*
G36*
X008142Y008903D02*
X008268Y008985D01*
X008272Y008979D01*
X008146Y008897D01*
X008142Y008903D01*
G37*
G36*
X005808Y008913D02*
X005934Y008995D01*
X005938Y008989D01*
X005812Y008907D01*
X005808Y008913D01*
G37*
D143*
G36*
X005825Y008886D02*
X005992Y008994D01*
X005997Y008988D01*
X005830Y008880D01*
X005825Y008886D01*
G37*
G36*
X006334Y008101D02*
X006501Y008209D01*
X006506Y008203D01*
X006339Y008095D01*
X006334Y008101D01*
G37*
G36*
X007375Y008100D02*
X007542Y008208D01*
X007547Y008202D01*
X007380Y008094D01*
X007375Y008100D01*
G37*
D144*
G36*
X007671Y008321D02*
X007724Y008355D01*
X007729Y008349D01*
X007676Y008315D01*
X007671Y008321D01*
G37*
G36*
X006540Y008960D02*
X006593Y008994D01*
X006598Y008988D01*
X006545Y008954D01*
X006540Y008960D01*
G37*
G36*
X005777Y008960D02*
X005830Y008994D01*
X005835Y008988D01*
X005782Y008954D01*
X005777Y008960D01*
G37*
D145*
G36*
X006965Y008969D02*
X006997Y008990D01*
X007001Y008983D01*
X006969Y008962D01*
X006965Y008969D01*
G37*
G36*
X007790Y008770D02*
X007822Y008791D01*
X007826Y008784D01*
X007794Y008763D01*
X007790Y008770D01*
G37*
G36*
X008560Y008965D02*
X008592Y008986D01*
X008596Y008979D01*
X008564Y008958D01*
X008560Y008965D01*
G37*
D146*
G36*
X007226Y008566D02*
X007822Y008953D01*
X007826Y008946D01*
X007230Y008559D01*
X007226Y008566D01*
G37*
D147*
G36*
X007228Y008577D02*
X007818Y008960D01*
X007822Y008953D01*
X007232Y008570D01*
X007228Y008577D01*
G37*
G36*
X007224Y008584D02*
X007814Y008967D01*
X007818Y008960D01*
X007228Y008577D01*
X007224Y008584D01*
G37*
G36*
X006176Y008390D02*
X006766Y008773D01*
X006770Y008766D01*
X006180Y008383D01*
X006176Y008390D01*
G37*
D148*
G36*
X007227Y008624D02*
X007789Y008989D01*
X007793Y008982D01*
X007231Y008617D01*
X007227Y008624D01*
G37*
D149*
G36*
X007230Y008663D02*
X007732Y008989D01*
X007736Y008983D01*
X007234Y008657D01*
X007230Y008663D01*
G37*
D150*
G36*
X007227Y008681D02*
X007703Y008990D01*
X007707Y008983D01*
X007231Y008674D01*
X007227Y008681D01*
G37*
D151*
G36*
X007226Y008757D02*
X007587Y008991D01*
X007592Y008985D01*
X007231Y008751D01*
X007226Y008757D01*
G37*
D152*
G36*
X006177Y008228D02*
X006505Y008441D01*
X006509Y008434D01*
X006181Y008221D01*
X006177Y008228D01*
G37*
G36*
X006178Y008152D02*
X006506Y008365D01*
X006510Y008358D01*
X006182Y008145D01*
X006178Y008152D01*
G37*
G36*
X006181Y008192D02*
X006509Y008405D01*
X006513Y008398D01*
X006185Y008185D01*
X006181Y008192D01*
G37*
G36*
X006176Y008199D02*
X006504Y008412D01*
X006508Y008405D01*
X006180Y008192D01*
X006176Y008199D01*
G37*
D153*
G36*
X006179Y008268D02*
X006540Y008502D01*
X006545Y008496D01*
X006184Y008262D01*
X006179Y008268D01*
G37*
D154*
G36*
X006177Y008285D02*
X006572Y008541D01*
X006577Y008535D01*
X006182Y008279D01*
X006177Y008285D01*
G37*
D155*
G36*
X006176Y008361D02*
X006705Y008704D01*
X006710Y008697D01*
X006181Y008354D01*
X006176Y008361D01*
G37*
D156*
G36*
X006181Y008383D02*
X006743Y008748D01*
X006747Y008741D01*
X006185Y008376D01*
X006181Y008383D01*
G37*
D157*
G36*
X006181Y008412D02*
X006797Y008812D01*
X006801Y008806D01*
X006185Y008406D01*
X006181Y008412D01*
G37*
D158*
G36*
X006175Y008465D02*
X006905Y008939D01*
X006909Y008933D01*
X006179Y008459D01*
X006175Y008465D01*
G37*
D159*
G36*
X006129Y008522D02*
X006853Y008991D01*
X006857Y008984D01*
X006133Y008515D01*
X006129Y008522D01*
G37*
D160*
G36*
X006116Y008541D02*
X006813Y008993D01*
X006818Y008987D01*
X006121Y008535D01*
X006116Y008541D01*
G37*
D161*
G36*
X006101Y008551D02*
X006784Y008994D01*
X006789Y008987D01*
X006106Y008544D01*
X006101Y008551D01*
G37*
G36*
X006112Y008549D02*
X006795Y008992D01*
X006800Y008985D01*
X006117Y008542D01*
X006112Y008549D01*
G37*
D162*
G36*
X006059Y008600D02*
X006279Y008743D01*
X006283Y008736D01*
X006063Y008593D01*
X006059Y008600D01*
G37*
G36*
X006046Y008620D02*
X006266Y008763D01*
X006270Y008756D01*
X006050Y008613D01*
X006046Y008620D01*
G37*
G36*
X006042Y008627D02*
X006262Y008770D01*
X006266Y008763D01*
X006046Y008620D01*
X006042Y008627D01*
G37*
G36*
X006038Y008634D02*
X006258Y008777D01*
X006262Y008770D01*
X006042Y008627D01*
X006038Y008634D01*
G37*
G36*
X006033Y008640D02*
X006253Y008783D01*
X006257Y008776D01*
X006037Y008633D01*
X006033Y008640D01*
G37*
G36*
X006029Y008647D02*
X006249Y008790D01*
X006253Y008783D01*
X006033Y008640D01*
X006029Y008647D01*
G37*
G36*
X006020Y008660D02*
X006240Y008803D01*
X006244Y008796D01*
X006024Y008653D01*
X006020Y008660D01*
G37*
G36*
X006016Y008667D02*
X006236Y008810D01*
X006240Y008803D01*
X006020Y008660D01*
X006016Y008667D01*
G37*
G36*
X006012Y008674D02*
X006232Y008817D01*
X006236Y008810D01*
X006016Y008667D01*
X006012Y008674D01*
G37*
D163*
G36*
X005791Y008941D02*
X005877Y008996D01*
X005881Y008989D01*
X005795Y008934D01*
X005791Y008941D01*
G37*
D164*
X006411Y007889D02*
X006393Y007372D01*
X006493Y007265D01*
X006700Y007258D01*
X006807Y007357D01*
X006825Y007874D01*
X007101Y007864D02*
X007080Y007244D01*
X007493Y007230D02*
X007515Y007850D01*
X007301Y007651D01*
X007101Y007864D01*
X007768Y007841D02*
X007975Y007834D01*
X007872Y007838D02*
X007850Y007217D01*
X007953Y007214D02*
X007747Y007221D01*
D165*
X007100Y017490D02*
X007100Y017910D01*
X006890Y017910D01*
X006820Y017840D01*
X006820Y017700D01*
X006890Y017630D01*
X007100Y017630D01*
X006960Y017630D02*
X006820Y017490D01*
X006640Y017560D02*
X006570Y017490D01*
X006429Y017490D01*
X006359Y017560D01*
X006359Y017630D01*
X006429Y017700D01*
X006570Y017700D01*
X006640Y017770D01*
X006640Y017840D01*
X006570Y017910D01*
X006429Y017910D01*
X006359Y017840D01*
X006179Y017910D02*
X005899Y017910D01*
X006039Y017910D02*
X006039Y017490D01*
M02*
