G75*
%MOIN*%
%OFA0B0*%
%FSLAX24Y24*%
%IPPOS*%
%LPD*%
%AMOC8*
5,1,8,0,0,1.08239X$1,22.5*
%
%ADD10C,0.1330*%
%ADD11C,0.0552*%
%ADD12OC8,0.0820*%
%ADD13C,0.0820*%
%ADD14C,0.0420*%
D10*
X001190Y001450D03*
X014190Y001450D03*
X014190Y019450D03*
X001190Y019450D03*
D11*
X003140Y019900D03*
X003240Y018900D03*
X003140Y017900D03*
X003240Y016900D03*
X003140Y015900D03*
X003240Y014900D03*
X003140Y013900D03*
X003240Y012900D03*
X001240Y010900D03*
X001140Y011900D03*
X001140Y009900D03*
X001240Y008900D03*
X001140Y007900D03*
X001240Y006900D03*
X001140Y005900D03*
X001240Y004900D03*
X012140Y013900D03*
X012240Y012900D03*
X012240Y014900D03*
X012140Y015900D03*
X012240Y016900D03*
X012140Y017900D03*
X012240Y018900D03*
X012140Y019900D03*
X014140Y011900D03*
X014240Y010900D03*
X014140Y009900D03*
X014240Y008900D03*
X014140Y007900D03*
X014240Y006900D03*
X014140Y005900D03*
X014240Y004900D03*
D12*
X010940Y012350D03*
X010840Y013350D03*
X010940Y014350D03*
X009940Y014350D03*
X009840Y013350D03*
X009940Y012350D03*
D13*
X005390Y017850D03*
X005390Y018850D03*
X004340Y018850D03*
X004340Y017850D03*
X004340Y019850D03*
X008040Y019850D03*
X009040Y019850D03*
X010040Y019850D03*
X011040Y019850D03*
X014690Y017650D03*
X014690Y016650D03*
X008190Y001050D03*
X007190Y001050D03*
X000690Y016650D03*
X000690Y017650D03*
D14*
X006890Y008350D03*
X008440Y007450D03*
X007740Y010650D03*
X010290Y002750D03*
X011090Y001850D03*
X011890Y000950D03*
X011890Y002750D03*
X010290Y000950D03*
M02*
