%
M48
M72
T01C0.0130
T02C0.0150
T03C0.0200
T04C0.0315
T05C0.0400
T06C0.1250
%
T01
X3240Y3850
X4340Y5350
X4840Y5050
X5340Y4750
X5890Y6300
X3840Y6850
X3040Y6850
X3040Y9200
X3840Y9200
X4365Y10300
X5590Y9300
X7240Y12550
X7690Y12550
X8590Y13350
X8990Y13350
X8065Y13900
X7740Y14950
X8190Y15150
X8040Y16400
X8390Y16400
X8790Y16400
X8070Y17240
X7730Y17250
X7090Y18250
X6740Y18250
X6840Y17050
X6390Y16840
X5440Y17125
X4590Y15650
X5565Y14600
X6070Y14360
X6040Y13800
X6800Y13850
X6940Y14950
X8940Y11650
X9790Y9800
X9790Y9300
X11540Y9200
X12340Y9200
X13090Y8850
X12590Y10775
X12040Y12350
X13490Y15550
X13090Y15625
X11790Y17400
X11190Y16750
X11540Y16050
X11190Y15850
X9840Y16700
X9780Y15100
X11940Y18400
X3340Y14375
X2390Y12850
X1690Y14050
X2740Y17150
X11090Y6300
X11540Y6950
X12340Y6850
X10190Y5525
X5690Y3050
T02
X7940Y5950
T03
X8440Y7450
X6890Y8350
X7740Y10650
X10290Y2750
X11090Y1850
X11890Y950
X11890Y2750
X10290Y950
T04
X14140Y5900
X14240Y4900
X14240Y6900
X14140Y7900
X14240Y8900
X14140Y9900
X14240Y10900
X14140Y11900
X12240Y12900
X12140Y13900
X12240Y14900
X12140Y15900
X12240Y16900
X12140Y17900
X12240Y18900
X12140Y19900
X3240Y18900
X3140Y17900
X3240Y16900
X3140Y15900
X3240Y14900
X3140Y13900
X3240Y12900
X1240Y10900
X1140Y11900
X1140Y9900
X1240Y8900
X1140Y7900
X1240Y6900
X1140Y5900
X1240Y4900
X3140Y19900
T05
X4340Y19850
X4340Y18850
X4340Y17850
X5390Y17850
X5390Y18850
X8040Y19850
X9040Y19850
X10040Y19850
X11040Y19850
X14690Y17650
X14690Y16650
X10940Y14350
X10840Y13350
X10940Y12350
X9940Y12350
X9840Y13350
X9940Y14350
X690Y16650
X690Y17650
X7190Y1050
X8190Y1050
T06
X1190Y1450
X14190Y1450
X14190Y19450
X1190Y19450
M30
