G75*
%MOIN*%
%OFA0B0*%
%FSLAX24Y24*%
%IPPOS*%
%LPD*%
%AMOC8*
5,1,8,0,0,1.08239X$1,22.5*
%
%ADD10R,0.0650X0.0250*%
%ADD11C,0.0472*%
%ADD12R,0.0315X0.0630*%
%ADD13R,0.0610X0.0236*%
%ADD14R,0.0709X0.0472*%
%ADD15OC8,0.0740*%
%ADD16R,0.0394X0.0433*%
%ADD17R,0.0433X0.0394*%
%ADD18R,0.0551X0.0748*%
%ADD19R,0.0500X0.0220*%
%ADD20R,0.0220X0.0500*%
%ADD21R,0.2280X0.2440*%
%ADD22R,0.0630X0.1180*%
%ADD23C,0.0740*%
%ADD24R,0.0591X0.0512*%
%ADD25R,0.0945X0.0945*%
%ADD26R,0.0250X0.0500*%
%ADD27C,0.0080*%
%ADD28C,0.0270*%
%ADD29C,0.0200*%
%ADD30C,0.0340*%
%ADD31C,0.0125*%
%ADD32C,0.0100*%
%ADD33C,0.0060*%
%ADD34C,0.0290*%
D10*
X005040Y006300D03*
X005040Y006800D03*
X005040Y007300D03*
X005040Y007800D03*
X005040Y008300D03*
X005040Y008800D03*
X005040Y009300D03*
X005040Y009800D03*
X005040Y010300D03*
X005040Y010800D03*
X010340Y010800D03*
X010340Y010300D03*
X010340Y009800D03*
X010340Y009300D03*
X010340Y008800D03*
X010340Y008300D03*
X010340Y007800D03*
X010340Y007300D03*
X010340Y006800D03*
X010340Y006300D03*
D11*
X014140Y005900D03*
X014240Y004900D03*
X014240Y006900D03*
X014140Y007900D03*
X014240Y008900D03*
X014140Y009900D03*
X014240Y010900D03*
X014140Y011900D03*
X012240Y012900D03*
X012140Y013900D03*
X012240Y014900D03*
X012140Y015900D03*
X012240Y016900D03*
X012140Y017900D03*
X012240Y018900D03*
X012140Y019900D03*
X003240Y018900D03*
X003140Y017900D03*
X003240Y016900D03*
X003140Y015900D03*
X003240Y014900D03*
X003140Y013900D03*
X003240Y012900D03*
X001240Y010900D03*
X001140Y011900D03*
X001140Y009900D03*
X001240Y008900D03*
X001140Y007900D03*
X001240Y006900D03*
X001140Y005900D03*
X001240Y004900D03*
X003140Y019900D03*
D12*
X003040Y009869D03*
X003840Y009869D03*
X003840Y008531D03*
X003040Y008531D03*
X003040Y007519D03*
X003840Y007519D03*
X003840Y006181D03*
X003040Y006181D03*
X011540Y006281D03*
X012340Y006281D03*
X012340Y007619D03*
X012340Y008531D03*
X011540Y008531D03*
X011540Y007619D03*
X011540Y009869D03*
X012340Y009869D03*
D13*
X013153Y013266D03*
X013153Y013659D03*
X013153Y014053D03*
X013153Y014447D03*
X013153Y014841D03*
X013153Y015234D03*
X002229Y015234D03*
X002229Y014841D03*
X002229Y014447D03*
X002229Y014053D03*
X002229Y013659D03*
X002229Y013266D03*
D14*
X000654Y012754D03*
X000654Y015746D03*
X014728Y015746D03*
X014728Y012754D03*
D15*
X010940Y012350D03*
X010840Y013350D03*
X010940Y014350D03*
X009940Y014350D03*
X009840Y013350D03*
X009940Y012350D03*
D16*
X006950Y018800D03*
X006280Y018800D03*
X012840Y004985D03*
X012840Y004315D03*
D17*
X011425Y005625D03*
X010755Y005625D03*
X005690Y002560D03*
X005690Y001890D03*
X003240Y002715D03*
X003240Y003385D03*
X004155Y013850D03*
X004825Y013850D03*
X004725Y017075D03*
X004055Y017075D03*
X008490Y018315D03*
X008490Y018985D03*
X009140Y018985D03*
X009140Y018315D03*
X009740Y018285D03*
X009740Y017615D03*
X010390Y017615D03*
X010390Y018285D03*
X011140Y018285D03*
X011140Y017615D03*
X010340Y016535D03*
X010340Y015865D03*
D18*
X005012Y016316D03*
X004068Y016316D03*
X004068Y014584D03*
X005012Y014584D03*
D19*
X005900Y014948D03*
X005900Y015263D03*
X005900Y015578D03*
X005900Y015893D03*
X005900Y016207D03*
X005900Y016522D03*
X005900Y016837D03*
X005900Y017152D03*
X009280Y017152D03*
X009280Y016837D03*
X009280Y016522D03*
X009280Y016207D03*
X009280Y015893D03*
X009280Y015578D03*
X009280Y015263D03*
X009280Y014948D03*
D20*
X008692Y014360D03*
X008377Y014360D03*
X008062Y014360D03*
X007747Y014360D03*
X007433Y014360D03*
X007118Y014360D03*
X006803Y014360D03*
X006488Y014360D03*
X006488Y017740D03*
X006803Y017740D03*
X007118Y017740D03*
X007433Y017740D03*
X007747Y017740D03*
X008062Y017740D03*
X008377Y017740D03*
X008692Y017740D03*
D21*
X011090Y001850D03*
D22*
X010190Y004680D03*
X011990Y004680D03*
D23*
X008190Y001050D03*
X007190Y001050D03*
X000690Y016650D03*
X000690Y017650D03*
X004340Y017850D03*
X004340Y018850D03*
X004340Y019850D03*
X005390Y018850D03*
X005390Y017850D03*
X008040Y019850D03*
X009040Y019850D03*
X010040Y019850D03*
X011040Y019850D03*
X014690Y017650D03*
X014690Y016650D03*
D24*
X004890Y001885D03*
X004890Y001215D03*
X003890Y001215D03*
X003890Y001885D03*
D25*
X007474Y004050D03*
X009206Y004050D03*
D26*
X007202Y002250D03*
X006878Y002250D03*
X003440Y004950D03*
X003040Y004950D03*
D27*
X003090Y004950D02*
X003390Y004950D01*
X004340Y005350D02*
X004940Y005950D01*
X006040Y005950D01*
X006240Y006150D01*
X006240Y012250D01*
X006540Y012550D01*
X007240Y012550D01*
X007540Y012150D02*
X007690Y012300D01*
X007690Y012550D01*
X007540Y012150D02*
X006740Y012150D01*
X006440Y011850D01*
X006440Y006050D01*
X006040Y005650D01*
X005140Y005650D01*
X004840Y005350D01*
X004840Y005050D01*
X005540Y005350D02*
X005756Y005350D01*
X005886Y005480D01*
X008786Y005480D01*
X008935Y005629D01*
X008935Y010971D01*
X008810Y011096D01*
X008810Y011448D01*
X008705Y011553D01*
X008705Y011650D01*
X006580Y011650D01*
X006580Y005992D01*
X006498Y005910D01*
X006098Y005510D01*
X005540Y005510D01*
X005540Y005350D01*
X005540Y005396D02*
X005802Y005396D01*
X005880Y005474D02*
X005540Y005474D01*
X005540Y005790D02*
X005982Y005790D01*
X006002Y005810D01*
X005540Y005810D01*
X005540Y005790D01*
X005540Y006090D02*
X005540Y006670D01*
X005994Y006670D01*
X006100Y006776D01*
X006100Y006208D01*
X005982Y006090D01*
X005540Y006090D01*
X005540Y006102D02*
X005994Y006102D01*
X006073Y006181D02*
X005540Y006181D01*
X005540Y006259D02*
X006100Y006259D01*
X006100Y006338D02*
X005540Y006338D01*
X005540Y006416D02*
X006100Y006416D01*
X006100Y006495D02*
X005540Y006495D01*
X005540Y006573D02*
X006100Y006573D01*
X006100Y006652D02*
X005540Y006652D01*
X005540Y006930D02*
X005886Y006930D01*
X005935Y006979D01*
X005935Y008783D01*
X005802Y008650D01*
X005540Y008650D01*
X005540Y006930D01*
X005540Y006966D02*
X005922Y006966D01*
X005935Y007044D02*
X005540Y007044D01*
X005540Y007123D02*
X005935Y007123D01*
X005935Y007201D02*
X005540Y007201D01*
X005540Y007280D02*
X005935Y007280D01*
X005935Y007358D02*
X005540Y007358D01*
X005540Y007437D02*
X005935Y007437D01*
X005935Y007515D02*
X005540Y007515D01*
X005540Y007594D02*
X005935Y007594D01*
X005935Y007672D02*
X005540Y007672D01*
X005540Y007751D02*
X005935Y007751D01*
X005935Y007829D02*
X005540Y007829D01*
X005540Y007908D02*
X005935Y007908D01*
X005935Y007986D02*
X005540Y007986D01*
X005540Y008065D02*
X005935Y008065D01*
X005935Y008143D02*
X005540Y008143D01*
X005540Y008222D02*
X005935Y008222D01*
X005935Y008300D02*
X005540Y008300D01*
X005540Y008379D02*
X005935Y008379D01*
X005935Y008457D02*
X005540Y008457D01*
X005540Y008536D02*
X005935Y008536D01*
X005935Y008614D02*
X005540Y008614D01*
X005845Y008693D02*
X005935Y008693D01*
X005923Y008771D02*
X005935Y008771D01*
X005734Y009007D02*
X005540Y009007D01*
X005540Y008950D02*
X005540Y009065D01*
X005687Y009065D01*
X005740Y009118D01*
X005740Y009012D01*
X005678Y008950D01*
X005540Y008950D01*
X005707Y009085D02*
X005740Y009085D01*
X005740Y009482D02*
X005687Y009535D01*
X005540Y009535D01*
X005540Y009688D01*
X005652Y009800D01*
X005740Y009888D01*
X005740Y011650D01*
X005740Y009482D01*
X005740Y009556D02*
X005540Y009556D01*
X005540Y009635D02*
X005740Y009635D01*
X005740Y009713D02*
X005565Y009713D01*
X005644Y009792D02*
X005740Y009792D01*
X005740Y009870D02*
X005722Y009870D01*
X005740Y009949D02*
X005740Y009949D01*
X005740Y010027D02*
X005740Y010027D01*
X005740Y010106D02*
X005740Y010106D01*
X005740Y010184D02*
X005740Y010184D01*
X005740Y010263D02*
X005740Y010263D01*
X005740Y010341D02*
X005740Y010341D01*
X005740Y010420D02*
X005740Y010420D01*
X005740Y010498D02*
X005740Y010498D01*
X005740Y010577D02*
X005740Y010577D01*
X005740Y010655D02*
X005740Y010655D01*
X005740Y010734D02*
X005740Y010734D01*
X005740Y010812D02*
X005740Y010812D01*
X005740Y010891D02*
X005740Y010891D01*
X005740Y010969D02*
X005740Y010969D01*
X005740Y011048D02*
X005740Y011048D01*
X005740Y011126D02*
X005740Y011126D01*
X005740Y011205D02*
X005740Y011205D01*
X005740Y011283D02*
X005740Y011283D01*
X005740Y011362D02*
X005740Y011362D01*
X005740Y011440D02*
X005740Y011440D01*
X005740Y011519D02*
X005740Y011519D01*
X005740Y011597D02*
X005740Y011597D01*
X005740Y011650D02*
X005740Y011650D01*
X006580Y011597D02*
X008705Y011597D01*
X008739Y011519D02*
X006580Y011519D01*
X006580Y011440D02*
X008810Y011440D01*
X008810Y011362D02*
X006580Y011362D01*
X006580Y011283D02*
X008810Y011283D01*
X008810Y011205D02*
X006580Y011205D01*
X006580Y011126D02*
X008810Y011126D01*
X008859Y011048D02*
X006580Y011048D01*
X006580Y010969D02*
X008935Y010969D01*
X008935Y010891D02*
X006580Y010891D01*
X006580Y010812D02*
X008935Y010812D01*
X008935Y010734D02*
X006580Y010734D01*
X006580Y010655D02*
X008935Y010655D01*
X008935Y010577D02*
X006580Y010577D01*
X006580Y010498D02*
X008935Y010498D01*
X008935Y010420D02*
X006580Y010420D01*
X006580Y010341D02*
X008935Y010341D01*
X008935Y010263D02*
X006580Y010263D01*
X006580Y010184D02*
X008935Y010184D01*
X008935Y010106D02*
X006580Y010106D01*
X006580Y010027D02*
X008935Y010027D01*
X008935Y009949D02*
X006580Y009949D01*
X006580Y009870D02*
X008935Y009870D01*
X008935Y009792D02*
X006580Y009792D01*
X006580Y009713D02*
X008935Y009713D01*
X008935Y009635D02*
X006580Y009635D01*
X006580Y009556D02*
X008935Y009556D01*
X008935Y009478D02*
X006580Y009478D01*
X006580Y009399D02*
X008935Y009399D01*
X008935Y009321D02*
X006580Y009321D01*
X006580Y009242D02*
X008935Y009242D01*
X008935Y009164D02*
X006580Y009164D01*
X006580Y009085D02*
X008935Y009085D01*
X008935Y009007D02*
X006580Y009007D01*
X006580Y008928D02*
X008935Y008928D01*
X008935Y008850D02*
X006580Y008850D01*
X006580Y008771D02*
X008935Y008771D01*
X008935Y008693D02*
X006580Y008693D01*
X006580Y008614D02*
X008935Y008614D01*
X008935Y008536D02*
X006580Y008536D01*
X006580Y008457D02*
X008935Y008457D01*
X008935Y008379D02*
X006580Y008379D01*
X006580Y008300D02*
X008935Y008300D01*
X008935Y008222D02*
X006580Y008222D01*
X006580Y008143D02*
X008935Y008143D01*
X008935Y008065D02*
X006580Y008065D01*
X006580Y007986D02*
X008935Y007986D01*
X008935Y007908D02*
X006580Y007908D01*
X006580Y007829D02*
X008935Y007829D01*
X008935Y007751D02*
X006580Y007751D01*
X006580Y007672D02*
X008935Y007672D01*
X008935Y007594D02*
X006580Y007594D01*
X006580Y007515D02*
X008935Y007515D01*
X008935Y007437D02*
X006580Y007437D01*
X006580Y007358D02*
X008935Y007358D01*
X008935Y007280D02*
X006580Y007280D01*
X006580Y007201D02*
X008935Y007201D01*
X008935Y007123D02*
X006580Y007123D01*
X006580Y007044D02*
X008935Y007044D01*
X008935Y006966D02*
X006580Y006966D01*
X006580Y006887D02*
X008935Y006887D01*
X008935Y006809D02*
X006580Y006809D01*
X006580Y006730D02*
X008935Y006730D01*
X008935Y006652D02*
X006580Y006652D01*
X006580Y006573D02*
X008935Y006573D01*
X008935Y006495D02*
X006580Y006495D01*
X006580Y006416D02*
X008935Y006416D01*
X008935Y006338D02*
X006580Y006338D01*
X006580Y006259D02*
X008935Y006259D01*
X008935Y006181D02*
X006580Y006181D01*
X006580Y006102D02*
X008935Y006102D01*
X008935Y006024D02*
X006580Y006024D01*
X006533Y005945D02*
X008935Y005945D01*
X008935Y005867D02*
X006455Y005867D01*
X006376Y005788D02*
X008935Y005788D01*
X008935Y005710D02*
X006298Y005710D01*
X006219Y005631D02*
X008935Y005631D01*
X008859Y005553D02*
X006141Y005553D01*
X006100Y006730D02*
X006054Y006730D01*
X009024Y005350D02*
X009195Y005521D01*
X009195Y006761D01*
X009286Y006670D01*
X009840Y006670D01*
X009840Y005983D01*
X009207Y005350D01*
X009024Y005350D01*
X009069Y005396D02*
X009253Y005396D01*
X009331Y005474D02*
X009148Y005474D01*
X009195Y005553D02*
X009410Y005553D01*
X009488Y005631D02*
X009195Y005631D01*
X009195Y005710D02*
X009567Y005710D01*
X009645Y005788D02*
X009195Y005788D01*
X009195Y005867D02*
X009724Y005867D01*
X009802Y005945D02*
X009195Y005945D01*
X009195Y006024D02*
X009840Y006024D01*
X009840Y006102D02*
X009195Y006102D01*
X009195Y006181D02*
X009840Y006181D01*
X009840Y006259D02*
X009195Y006259D01*
X009195Y006338D02*
X009840Y006338D01*
X009840Y006416D02*
X009195Y006416D01*
X009195Y006495D02*
X009840Y006495D01*
X009840Y006573D02*
X009195Y006573D01*
X009195Y006652D02*
X009840Y006652D01*
X009840Y006930D02*
X009394Y006930D01*
X009320Y007004D01*
X009320Y010408D01*
X009578Y010150D01*
X009840Y010150D01*
X009840Y010035D01*
X009693Y010035D01*
X009555Y009897D01*
X009555Y009703D01*
X009693Y009565D01*
X009840Y009565D01*
X009840Y009535D01*
X009693Y009535D01*
X009555Y009397D01*
X009555Y009203D01*
X009693Y009065D01*
X009840Y009065D01*
X009840Y006930D01*
X009840Y006966D02*
X009358Y006966D01*
X009320Y007044D02*
X009840Y007044D01*
X009840Y007123D02*
X009320Y007123D01*
X009320Y007201D02*
X009840Y007201D01*
X009840Y007280D02*
X009320Y007280D01*
X009320Y007358D02*
X009840Y007358D01*
X009840Y007437D02*
X009320Y007437D01*
X009320Y007515D02*
X009840Y007515D01*
X009840Y007594D02*
X009320Y007594D01*
X009320Y007672D02*
X009840Y007672D01*
X009840Y007751D02*
X009320Y007751D01*
X009320Y007829D02*
X009840Y007829D01*
X009840Y007908D02*
X009320Y007908D01*
X009320Y007986D02*
X009840Y007986D01*
X009840Y008065D02*
X009320Y008065D01*
X009320Y008143D02*
X009840Y008143D01*
X009840Y008222D02*
X009320Y008222D01*
X009320Y008300D02*
X009840Y008300D01*
X009840Y008379D02*
X009320Y008379D01*
X009320Y008457D02*
X009840Y008457D01*
X009840Y008536D02*
X009320Y008536D01*
X009320Y008614D02*
X009840Y008614D01*
X009840Y008693D02*
X009320Y008693D01*
X009320Y008771D02*
X009840Y008771D01*
X009840Y008850D02*
X009320Y008850D01*
X009320Y008928D02*
X009840Y008928D01*
X009840Y009007D02*
X009320Y009007D01*
X009320Y009085D02*
X009673Y009085D01*
X009594Y009164D02*
X009320Y009164D01*
X009320Y009242D02*
X009555Y009242D01*
X009555Y009321D02*
X009320Y009321D01*
X009320Y009399D02*
X009557Y009399D01*
X009635Y009478D02*
X009320Y009478D01*
X009320Y009556D02*
X009840Y009556D01*
X009623Y009635D02*
X009320Y009635D01*
X009320Y009713D02*
X009555Y009713D01*
X009555Y009792D02*
X009320Y009792D01*
X009320Y009870D02*
X009555Y009870D01*
X009606Y009949D02*
X009320Y009949D01*
X009320Y010027D02*
X009685Y010027D01*
X009840Y010106D02*
X009320Y010106D01*
X009320Y010184D02*
X009544Y010184D01*
X009465Y010263D02*
X009320Y010263D01*
X009320Y010341D02*
X009387Y010341D01*
X009576Y010577D02*
X009840Y010577D01*
X009840Y010655D02*
X009514Y010655D01*
X009514Y010638D02*
X009506Y011650D01*
X009840Y011650D01*
X009840Y010450D01*
X009702Y010450D01*
X009514Y010638D01*
X009514Y010734D02*
X009840Y010734D01*
X009840Y010812D02*
X009513Y010812D01*
X009512Y010891D02*
X009840Y010891D01*
X009840Y010969D02*
X009512Y010969D01*
X009511Y011048D02*
X009840Y011048D01*
X009840Y011126D02*
X009510Y011126D01*
X009510Y011205D02*
X009840Y011205D01*
X009840Y011283D02*
X009509Y011283D01*
X009508Y011362D02*
X009840Y011362D01*
X009840Y011440D02*
X009508Y011440D01*
X009507Y011519D02*
X009840Y011519D01*
X009840Y011597D02*
X009506Y011597D01*
X009654Y010498D02*
X009840Y010498D01*
X010840Y013350D02*
X010440Y013850D01*
X008490Y013850D01*
X008377Y013963D01*
X008377Y014360D01*
X008377Y014638D01*
X008240Y014775D01*
X007915Y014775D01*
X007740Y014950D01*
X008190Y015150D02*
X008540Y015150D01*
X008692Y014998D01*
X008692Y014360D01*
X008702Y014350D01*
X009940Y014350D01*
X009640Y014950D02*
X009282Y014950D01*
X009280Y015263D02*
X008927Y015263D01*
X008612Y015578D01*
X005900Y015578D01*
X005512Y015578D01*
X005440Y015650D01*
X005440Y016065D01*
X005583Y016207D01*
X005440Y016350D01*
X005440Y016800D01*
X005365Y016875D01*
X005265Y016875D01*
X005140Y017000D01*
X005140Y017350D01*
X004865Y017625D01*
X004865Y018325D01*
X004340Y018850D01*
X003740Y018450D02*
X004340Y017850D01*
X004740Y017150D02*
X004590Y017000D01*
X004590Y015650D01*
X004068Y016316D02*
X004055Y016378D01*
X004055Y017075D01*
X004725Y017075D02*
X004740Y017150D01*
X005583Y016207D02*
X005900Y016207D01*
X005900Y015893D02*
X006297Y015893D01*
X006340Y015850D01*
X005900Y016522D02*
X007718Y016522D01*
X007790Y016450D01*
X007790Y016250D01*
X007890Y016150D01*
X009090Y016150D01*
X009147Y016207D01*
X009280Y016207D01*
X009780Y015100D02*
X009780Y015090D01*
X009640Y014950D01*
X008065Y014357D02*
X008065Y013900D01*
X008065Y014357D02*
X008062Y014360D01*
X005012Y014584D02*
X004825Y014446D01*
X004825Y013850D01*
X004155Y013850D02*
X004005Y013700D01*
X003790Y013700D01*
X003490Y013400D01*
X002890Y013400D01*
X002756Y013266D01*
X002229Y013266D01*
X002226Y014050D02*
X001690Y014050D01*
X002226Y014050D02*
X002229Y014053D01*
X003040Y018450D02*
X003740Y018450D01*
X003040Y018450D02*
X002840Y018650D01*
X002840Y019550D01*
X003140Y019900D01*
X004340Y019850D02*
X006940Y019850D01*
X007440Y019350D01*
X010540Y019350D01*
X011040Y019850D01*
X009226Y006730D02*
X009195Y006730D01*
D28*
X010190Y005525D03*
X011090Y006300D03*
X011540Y006950D03*
X012340Y006850D03*
X013090Y008850D03*
X012340Y009200D03*
X011540Y009200D03*
X012590Y010775D03*
X012040Y012350D03*
X009790Y009800D03*
X009790Y009300D03*
X008940Y011650D03*
X007690Y012550D03*
X007240Y012550D03*
X006800Y013850D03*
X006040Y013800D03*
X006070Y014360D03*
X005565Y014600D03*
X004590Y015650D03*
X005440Y017125D03*
X006390Y016840D03*
X006840Y017050D03*
X007730Y017250D03*
X008070Y017240D03*
X008040Y016400D03*
X008390Y016400D03*
X008790Y016400D03*
X009840Y016700D03*
X009780Y015100D03*
X011190Y015850D03*
X011540Y016050D03*
X011190Y016750D03*
X011790Y017400D03*
X011940Y018400D03*
X013090Y015625D03*
X013490Y015550D03*
X008990Y013350D03*
X008590Y013350D03*
X008065Y013900D03*
X007740Y014950D03*
X008190Y015150D03*
X006940Y014950D03*
X007090Y018250D03*
X006740Y018250D03*
X003340Y014375D03*
X002390Y012850D03*
X001690Y014050D03*
X002740Y017150D03*
X004365Y010300D03*
X003840Y009200D03*
X003040Y009200D03*
X003040Y006850D03*
X003840Y006850D03*
X004340Y005350D03*
X004840Y005050D03*
X005340Y004750D03*
X005890Y006300D03*
X005590Y009300D03*
X003240Y003850D03*
X005690Y003050D03*
D29*
X006040Y003950D02*
X006740Y004650D01*
X006740Y002925D01*
X006890Y002775D01*
X006890Y002262D01*
X006878Y002250D01*
X006865Y002263D01*
X007190Y002238D02*
X007202Y002250D01*
X007202Y004178D01*
X007474Y004050D01*
X007178Y004154D01*
X006740Y004650D02*
X007140Y005050D01*
X009140Y005050D01*
X009206Y004984D01*
X009206Y004050D01*
X009206Y005066D01*
X010140Y006000D01*
X011265Y006000D01*
X011340Y006075D01*
X011540Y006075D01*
X011740Y006075D01*
X011915Y005900D01*
X011915Y005225D01*
X011994Y005146D01*
X011994Y005054D01*
X011990Y005050D01*
X011990Y004950D01*
X012025Y004985D01*
X012840Y004985D01*
X012840Y004315D02*
X012840Y003850D01*
X012640Y003650D01*
X012090Y003650D01*
X011890Y003450D01*
X011890Y002750D01*
X010290Y002750D01*
X010290Y002650D01*
X011090Y001850D01*
X011315Y002075D01*
X011315Y005425D01*
X011425Y005535D01*
X011425Y005625D01*
X011540Y006075D02*
X011540Y006281D01*
X011565Y006156D01*
X011540Y006281D02*
X011540Y006950D01*
X011490Y007569D02*
X011540Y007619D01*
X012340Y007619D01*
X013159Y007619D01*
X013390Y007850D01*
X013390Y012750D01*
X013153Y012987D01*
X013153Y013266D01*
X013153Y013659D02*
X012749Y013659D01*
X012640Y013550D01*
X012640Y011500D01*
X013090Y011050D01*
X013090Y008850D01*
X012771Y008531D01*
X012340Y008531D01*
X011540Y008531D01*
X011490Y008481D01*
X011490Y008350D01*
X011440Y008300D01*
X010340Y008300D01*
X010340Y008800D02*
X010890Y008800D01*
X011290Y009200D01*
X011540Y009200D01*
X011540Y009869D01*
X012340Y010550D02*
X012090Y010800D01*
X010340Y010800D01*
X010340Y011150D01*
X010490Y011300D01*
X010790Y011300D01*
X010940Y011450D01*
X010940Y012350D01*
X012590Y010800D02*
X012340Y010550D01*
X012340Y009869D01*
X012340Y009200D01*
X011440Y007800D02*
X011490Y007750D01*
X011490Y007569D01*
X011440Y007800D02*
X010340Y007800D01*
X010340Y006300D02*
X011090Y006300D01*
X010755Y005625D02*
X010740Y005535D01*
X010200Y005535D01*
X010190Y005525D01*
X010190Y004680D01*
X010090Y002950D02*
X010090Y002850D01*
X011090Y001850D01*
X010290Y001050D01*
X010290Y000950D01*
X011090Y001850D02*
X011890Y001050D01*
X011890Y000950D01*
X011990Y004680D02*
X011970Y004700D01*
X011990Y004680D02*
X011990Y004950D01*
X012340Y006281D02*
X013309Y006281D01*
X013640Y005950D01*
X013640Y005450D01*
X014240Y004900D01*
X012340Y006281D02*
X012340Y006850D01*
X012590Y010775D02*
X012590Y010800D01*
X013390Y012750D02*
X013690Y013050D01*
X013690Y013450D01*
X014090Y013850D01*
X014090Y017450D01*
X014290Y017650D01*
X014690Y017650D01*
X013090Y019500D02*
X013090Y015625D01*
X013090Y019500D02*
X012690Y019900D01*
X012140Y019900D01*
X005040Y010800D02*
X003290Y010800D01*
X003040Y010550D01*
X003040Y009869D01*
X003040Y009200D01*
X003040Y008531D02*
X002709Y008531D01*
X002390Y008850D01*
X002390Y012850D01*
X002090Y012650D02*
X001290Y013450D01*
X001290Y014350D01*
X001781Y014841D01*
X002229Y014841D01*
X002229Y015234D02*
X002229Y017261D01*
X001840Y017650D01*
X000690Y017650D01*
X000690Y016650D02*
X001090Y016650D01*
X001290Y016450D01*
X001290Y014350D01*
X002090Y012650D02*
X002090Y007850D01*
X002421Y007519D01*
X003040Y007519D01*
X003840Y007519D01*
X003890Y007569D01*
X003890Y007750D01*
X003940Y007800D01*
X005040Y007800D01*
X005040Y008300D02*
X003840Y008300D01*
X003790Y008350D01*
X003790Y008481D01*
X003840Y008531D01*
X003040Y008531D01*
X003840Y009200D02*
X003840Y009869D01*
X004365Y010300D02*
X005040Y010300D01*
X003840Y006850D02*
X003840Y006181D01*
X003840Y005350D01*
X003440Y004950D01*
X004240Y004950D01*
X004540Y004650D01*
X004540Y004150D01*
X004740Y003950D01*
X006040Y003950D01*
X007190Y002238D02*
X007190Y001050D01*
X005890Y006300D02*
X005040Y006300D01*
X003040Y006181D02*
X003040Y006850D01*
X002040Y005900D02*
X002290Y005650D01*
X002290Y005200D01*
X002540Y004950D01*
X003040Y004950D01*
X002040Y005900D02*
X001140Y005900D01*
D30*
X006890Y008350D03*
X008440Y007450D03*
X007740Y010650D03*
X010290Y002750D03*
X011090Y001850D03*
X011890Y000950D03*
X011890Y002750D03*
X010290Y000950D03*
D31*
X005390Y013500D02*
X004390Y013500D01*
X004290Y013600D01*
X004290Y013715D01*
X004155Y013850D01*
X005390Y013500D02*
X005690Y013800D01*
X006040Y013800D01*
X009280Y016207D02*
X011033Y016207D01*
X011190Y016050D01*
X011190Y015850D01*
X012240Y018900D02*
X012540Y018900D01*
X012690Y018750D01*
D32*
X002690Y001450D02*
X002940Y001200D01*
X003875Y001200D01*
X003890Y001215D01*
X004890Y001215D01*
X004890Y001885D02*
X005684Y001885D01*
X005690Y001890D01*
X005690Y002560D02*
X005690Y003050D01*
X003890Y002550D02*
X003890Y001885D01*
X003890Y002550D02*
X003725Y002715D01*
X003240Y002715D01*
X003240Y003385D02*
X003240Y003850D01*
X002690Y004150D02*
X002690Y001450D01*
X002690Y004150D02*
X002290Y004550D01*
X001540Y004550D01*
X001240Y004900D01*
X005040Y008800D02*
X005740Y008800D01*
X005890Y008950D01*
X005890Y012950D01*
X006090Y013150D01*
X007190Y013150D01*
X007433Y013393D01*
X007433Y014360D01*
X007747Y014360D02*
X007747Y013793D01*
X007890Y013650D01*
X009190Y013650D01*
X009340Y013500D01*
X009365Y010575D01*
X009640Y010300D01*
X010340Y010300D01*
X010340Y009800D02*
X009790Y009800D01*
X009790Y009300D02*
X010340Y009300D01*
X010390Y005050D02*
X010190Y004850D01*
X010190Y004680D01*
X005590Y009300D02*
X005040Y009300D01*
X005040Y009800D02*
X005440Y009800D01*
X005590Y009950D01*
X005590Y013250D01*
X005790Y013450D01*
X006890Y013450D01*
X007118Y013678D01*
X007118Y014360D01*
X006803Y014360D02*
X006800Y014357D01*
X006800Y013850D01*
X006488Y014360D02*
X006070Y014360D01*
X005900Y014948D02*
X005898Y014950D01*
X005490Y014950D01*
X005440Y014900D01*
X005190Y014900D01*
X005140Y014850D01*
X005140Y014711D01*
X005012Y014584D01*
X005012Y014722D01*
X004327Y015263D02*
X004090Y015500D01*
X004090Y015944D01*
X004068Y016316D01*
X004327Y015263D02*
X005900Y015263D01*
X005900Y016837D02*
X006387Y016837D01*
X006390Y016840D01*
X007730Y017250D02*
X007730Y017723D01*
X007747Y017740D01*
X008062Y017740D02*
X008070Y017732D01*
X008070Y017240D01*
X009282Y014950D02*
X009280Y014948D01*
X011040Y019850D02*
X011740Y019850D01*
X011790Y019900D01*
X012140Y019900D01*
D33*
X012240Y018900D02*
X010565Y018900D01*
X010390Y018725D01*
X010390Y018285D01*
X009740Y018285D01*
X009740Y018700D01*
X009455Y018985D01*
X009140Y018985D01*
X008490Y018985D01*
X008490Y018315D02*
X008377Y018303D01*
X008377Y017740D01*
X008390Y017727D01*
X008390Y016400D01*
X008553Y016245D02*
X008627Y016245D01*
X008590Y016282D02*
X008483Y016175D01*
X008297Y016175D01*
X008215Y016257D01*
X008133Y016175D01*
X007947Y016175D01*
X007815Y016307D01*
X007815Y016493D01*
X007920Y016598D01*
X007920Y016750D01*
X007840Y016830D01*
X007540Y016830D01*
X006938Y016830D01*
X006933Y016825D02*
X007065Y016957D01*
X007065Y017143D01*
X006933Y017275D01*
X006747Y017275D01*
X006642Y017170D01*
X006640Y017170D01*
X006608Y017202D01*
X006608Y017400D01*
X006635Y017400D01*
X006645Y017410D01*
X006655Y017400D01*
X006950Y017400D01*
X006960Y017410D01*
X006970Y017400D01*
X007265Y017400D01*
X007275Y017410D01*
X007285Y017400D01*
X007313Y017400D01*
X007313Y017058D01*
X007470Y016900D01*
X007540Y016830D01*
X007482Y016889D02*
X006997Y016889D01*
X007055Y016947D02*
X007423Y016947D01*
X007365Y017006D02*
X007065Y017006D01*
X007065Y017064D02*
X007313Y017064D01*
X007313Y017123D02*
X007065Y017123D01*
X007027Y017181D02*
X007313Y017181D01*
X007313Y017240D02*
X006969Y017240D01*
X006840Y017050D02*
X006590Y017050D01*
X006488Y017152D01*
X006488Y017740D01*
X006740Y017803D02*
X006803Y017740D01*
X006740Y017803D02*
X006740Y018250D01*
X006540Y018450D02*
X006715Y018625D01*
X006775Y018625D01*
X006950Y018800D01*
X007125Y018625D01*
X007190Y018625D01*
X007433Y018382D01*
X007433Y017740D01*
X007433Y017107D01*
X007590Y016950D01*
X007890Y016950D01*
X008040Y016800D01*
X008040Y016400D01*
X008203Y016245D02*
X008227Y016245D01*
X008285Y016187D02*
X008145Y016187D01*
X007935Y016187D02*
X006240Y016187D01*
X006240Y016245D02*
X007877Y016245D01*
X007818Y016304D02*
X006240Y016304D01*
X006240Y016319D02*
X006254Y016333D01*
X006271Y016362D01*
X007815Y016362D01*
X007815Y016421D02*
X006280Y016421D01*
X006280Y016395D02*
X006280Y016497D01*
X006240Y016497D01*
X006240Y016547D01*
X006280Y016547D01*
X006280Y016632D01*
X006297Y016615D01*
X006483Y016615D01*
X006615Y016747D01*
X006615Y016930D01*
X006642Y016930D01*
X006747Y016825D01*
X006933Y016825D01*
X006742Y016830D02*
X006615Y016830D01*
X006615Y016772D02*
X007899Y016772D01*
X007920Y016713D02*
X006581Y016713D01*
X006523Y016655D02*
X007920Y016655D01*
X007918Y016596D02*
X006280Y016596D01*
X006240Y016538D02*
X007859Y016538D01*
X007815Y016479D02*
X006280Y016479D01*
X006280Y016395D02*
X006271Y016362D01*
X006240Y016319D02*
X006240Y016096D01*
X006254Y016082D01*
X006271Y016053D01*
X006280Y016020D01*
X006280Y015918D01*
X006240Y015918D01*
X006240Y015868D01*
X006280Y015868D01*
X006280Y015765D01*
X006271Y015732D01*
X006257Y015708D01*
X008666Y015708D01*
X008940Y015434D01*
X008940Y015725D01*
X008950Y015735D01*
X008940Y015745D01*
X008940Y016004D01*
X008926Y016018D01*
X008909Y016047D01*
X008900Y016080D01*
X008900Y016182D01*
X009040Y016182D01*
X009040Y016232D01*
X008941Y016232D01*
X008883Y016175D01*
X008697Y016175D01*
X008590Y016282D01*
X008495Y016187D02*
X008685Y016187D01*
X008895Y016187D02*
X009040Y016187D01*
X008900Y016128D02*
X006240Y016128D01*
X006261Y016070D02*
X008903Y016070D01*
X008933Y016011D02*
X006280Y016011D01*
X006280Y015953D02*
X008940Y015953D01*
X008940Y015894D02*
X006240Y015894D01*
X006280Y015836D02*
X008940Y015836D01*
X008940Y015777D02*
X006280Y015777D01*
X006263Y015719D02*
X008940Y015719D01*
X008940Y015660D02*
X008714Y015660D01*
X008772Y015602D02*
X008940Y015602D01*
X008940Y015543D02*
X008831Y015543D01*
X008889Y015485D02*
X008940Y015485D01*
X008756Y015251D02*
X008623Y015251D01*
X008594Y015280D02*
X008670Y015204D01*
X008822Y015051D01*
X008822Y014700D01*
X008840Y014700D01*
X008890Y014650D01*
X009040Y014650D01*
X009040Y014748D01*
X008993Y014748D01*
X008940Y014800D01*
X008940Y015095D01*
X008950Y015105D01*
X008940Y015115D01*
X008940Y015133D01*
X008874Y015133D01*
X008559Y015448D01*
X006240Y015448D01*
X006240Y014650D01*
X006290Y014650D01*
X006340Y014700D01*
X006635Y014700D01*
X006645Y014690D01*
X006655Y014700D01*
X006950Y014700D01*
X006960Y014690D01*
X006970Y014700D01*
X007265Y014700D01*
X007275Y014690D01*
X007285Y014700D01*
X007580Y014700D01*
X007590Y014690D01*
X007600Y014700D01*
X007806Y014700D01*
X007781Y014725D01*
X007647Y014725D01*
X007515Y014857D01*
X007515Y015043D01*
X007647Y015175D01*
X007833Y015175D01*
X007965Y015043D01*
X007965Y014909D01*
X007969Y014905D01*
X008294Y014905D01*
X008370Y014829D01*
X008499Y014700D01*
X008525Y014700D01*
X008535Y014690D01*
X008545Y014700D01*
X008562Y014700D01*
X008562Y014944D01*
X008486Y015020D01*
X008378Y015020D01*
X008283Y014925D01*
X008097Y014925D01*
X007965Y015057D01*
X007965Y015243D01*
X008097Y015375D01*
X008283Y015375D01*
X008378Y015280D01*
X008594Y015280D01*
X008639Y015368D02*
X008291Y015368D01*
X008349Y015309D02*
X008697Y015309D01*
X008682Y015192D02*
X008814Y015192D01*
X008873Y015134D02*
X008740Y015134D01*
X008799Y015075D02*
X008940Y015075D01*
X008940Y015017D02*
X008822Y015017D01*
X008822Y014958D02*
X008940Y014958D01*
X008940Y014900D02*
X008822Y014900D01*
X008822Y014841D02*
X008940Y014841D01*
X008958Y014783D02*
X008822Y014783D01*
X008822Y014724D02*
X009040Y014724D01*
X009040Y014666D02*
X008874Y014666D01*
X008562Y014724D02*
X008475Y014724D01*
X008416Y014783D02*
X008562Y014783D01*
X008562Y014841D02*
X008358Y014841D01*
X008299Y014900D02*
X008562Y014900D01*
X008548Y014958D02*
X008316Y014958D01*
X008375Y015017D02*
X008490Y015017D01*
X008580Y015426D02*
X006240Y015426D01*
X006240Y015368D02*
X008089Y015368D01*
X008031Y015309D02*
X006240Y015309D01*
X006240Y015251D02*
X007972Y015251D01*
X007965Y015192D02*
X006240Y015192D01*
X006240Y015134D02*
X007605Y015134D01*
X007547Y015075D02*
X006240Y015075D01*
X006240Y015017D02*
X007515Y015017D01*
X007515Y014958D02*
X006240Y014958D01*
X006240Y014900D02*
X007515Y014900D01*
X007531Y014841D02*
X006240Y014841D01*
X006240Y014783D02*
X007589Y014783D01*
X007782Y014724D02*
X006240Y014724D01*
X006240Y014666D02*
X006306Y014666D01*
X006290Y012850D02*
X008390Y012850D01*
X008590Y013050D01*
X008590Y013350D01*
X008990Y013350D02*
X009190Y013150D01*
X009190Y006950D01*
X009340Y006800D01*
X010340Y006800D01*
X009065Y005575D02*
X008840Y005350D01*
X005940Y005350D01*
X005340Y004750D01*
X005040Y006800D02*
X005940Y006800D01*
X006065Y006925D01*
X006065Y012625D01*
X006290Y012850D01*
X007965Y014958D02*
X008064Y014958D01*
X008005Y015017D02*
X007965Y015017D01*
X007965Y015075D02*
X007933Y015075D01*
X007965Y015134D02*
X007875Y015134D01*
X008790Y016400D02*
X008690Y016500D01*
X008690Y017738D01*
X008692Y017740D01*
X009715Y017740D01*
X009740Y017615D01*
X010390Y017615D01*
X009703Y016837D02*
X009840Y016700D01*
X009703Y016837D02*
X009280Y016837D01*
X009282Y017150D02*
X009280Y017152D01*
X009282Y017150D02*
X011590Y017150D01*
X011765Y016975D01*
X011765Y014675D01*
X011993Y014447D01*
X011996Y014450D01*
X012540Y014450D01*
X012640Y014550D01*
X012640Y014650D01*
X012831Y014841D01*
X013153Y014841D01*
X013157Y014450D02*
X013153Y014447D01*
X013157Y014450D02*
X013440Y014450D01*
X013565Y014575D01*
X013565Y015275D01*
X013740Y015450D01*
X013740Y015650D01*
X013590Y015800D01*
X013265Y015800D01*
X013090Y015625D01*
X013340Y015400D02*
X013340Y015250D01*
X013169Y015250D01*
X013153Y015234D01*
X013340Y015400D02*
X013490Y015550D01*
X012590Y014300D02*
X011840Y014300D01*
X011540Y014600D01*
X011540Y016050D01*
X010975Y016535D02*
X011190Y016750D01*
X010975Y016535D02*
X010340Y016535D01*
X010340Y015865D02*
X010340Y015650D01*
X010940Y015050D01*
X010940Y014350D01*
X009840Y013350D02*
X010340Y012850D01*
X011540Y012850D01*
X012040Y012350D01*
X012837Y014053D02*
X012590Y014300D01*
X012837Y014053D02*
X013153Y014053D01*
X011790Y017400D02*
X011575Y017615D01*
X011140Y017615D01*
X011140Y018285D02*
X011255Y018400D01*
X011940Y018400D01*
X009140Y018315D02*
X008490Y018315D01*
X007313Y017357D02*
X006608Y017357D01*
X006608Y017298D02*
X007313Y017298D01*
X007118Y017740D02*
X007090Y017768D01*
X007090Y018250D01*
X007115Y017743D02*
X007118Y017740D01*
X006711Y017240D02*
X006608Y017240D01*
X006629Y017181D02*
X006653Y017181D01*
X006683Y016889D02*
X006615Y016889D01*
X005900Y017152D02*
X005873Y017125D01*
X005440Y017125D01*
X005898Y017150D02*
X005900Y017152D01*
X005390Y017850D02*
X005990Y018450D01*
X006540Y018450D01*
X006280Y018800D02*
X006105Y018625D01*
X005915Y018625D01*
X005640Y018350D01*
X004865Y018350D01*
X004865Y018325D01*
X005390Y018850D02*
X004890Y019350D01*
X003690Y019350D01*
X003240Y018900D01*
X002740Y017150D02*
X002740Y014650D01*
X002540Y014450D01*
X002232Y014450D01*
X002229Y014447D01*
X002740Y014050D02*
X002740Y013850D01*
X002549Y013659D01*
X002229Y013659D01*
X002740Y014050D02*
X003065Y014375D01*
X003340Y014375D01*
X008940Y011650D02*
X008940Y011150D01*
X009065Y011025D01*
X009065Y005575D01*
D34*
X007940Y005950D03*
M02*
