G75*
%MOIN*%
%OFA0B0*%
%FSLAX24Y24*%
%IPPOS*%
%LPD*%
%AMOC8*
5,1,8,0,0,1.08239X$1,22.5*
%
%ADD10C,0.0000*%
D10*
X000140Y000450D02*
X000140Y020450D01*
X015240Y020450D01*
X015240Y000450D01*
X000140Y000450D01*
X000565Y001450D02*
X000567Y001500D01*
X000573Y001549D01*
X000583Y001598D01*
X000596Y001645D01*
X000614Y001692D01*
X000635Y001737D01*
X000659Y001780D01*
X000687Y001821D01*
X000718Y001860D01*
X000752Y001896D01*
X000789Y001930D01*
X000829Y001960D01*
X000870Y001987D01*
X000914Y002011D01*
X000959Y002031D01*
X001006Y002047D01*
X001054Y002060D01*
X001103Y002069D01*
X001153Y002074D01*
X001202Y002075D01*
X001252Y002072D01*
X001301Y002065D01*
X001350Y002054D01*
X001397Y002040D01*
X001443Y002021D01*
X001488Y001999D01*
X001531Y001974D01*
X001571Y001945D01*
X001609Y001913D01*
X001645Y001879D01*
X001678Y001841D01*
X001707Y001801D01*
X001733Y001759D01*
X001756Y001715D01*
X001775Y001669D01*
X001791Y001622D01*
X001803Y001573D01*
X001811Y001524D01*
X001815Y001475D01*
X001815Y001425D01*
X001811Y001376D01*
X001803Y001327D01*
X001791Y001278D01*
X001775Y001231D01*
X001756Y001185D01*
X001733Y001141D01*
X001707Y001099D01*
X001678Y001059D01*
X001645Y001021D01*
X001609Y000987D01*
X001571Y000955D01*
X001531Y000926D01*
X001488Y000901D01*
X001443Y000879D01*
X001397Y000860D01*
X001350Y000846D01*
X001301Y000835D01*
X001252Y000828D01*
X001202Y000825D01*
X001153Y000826D01*
X001103Y000831D01*
X001054Y000840D01*
X001006Y000853D01*
X000959Y000869D01*
X000914Y000889D01*
X000870Y000913D01*
X000829Y000940D01*
X000789Y000970D01*
X000752Y001004D01*
X000718Y001040D01*
X000687Y001079D01*
X000659Y001120D01*
X000635Y001163D01*
X000614Y001208D01*
X000596Y001255D01*
X000583Y001302D01*
X000573Y001351D01*
X000567Y001400D01*
X000565Y001450D01*
X000565Y019450D02*
X000567Y019500D01*
X000573Y019549D01*
X000583Y019598D01*
X000596Y019645D01*
X000614Y019692D01*
X000635Y019737D01*
X000659Y019780D01*
X000687Y019821D01*
X000718Y019860D01*
X000752Y019896D01*
X000789Y019930D01*
X000829Y019960D01*
X000870Y019987D01*
X000914Y020011D01*
X000959Y020031D01*
X001006Y020047D01*
X001054Y020060D01*
X001103Y020069D01*
X001153Y020074D01*
X001202Y020075D01*
X001252Y020072D01*
X001301Y020065D01*
X001350Y020054D01*
X001397Y020040D01*
X001443Y020021D01*
X001488Y019999D01*
X001531Y019974D01*
X001571Y019945D01*
X001609Y019913D01*
X001645Y019879D01*
X001678Y019841D01*
X001707Y019801D01*
X001733Y019759D01*
X001756Y019715D01*
X001775Y019669D01*
X001791Y019622D01*
X001803Y019573D01*
X001811Y019524D01*
X001815Y019475D01*
X001815Y019425D01*
X001811Y019376D01*
X001803Y019327D01*
X001791Y019278D01*
X001775Y019231D01*
X001756Y019185D01*
X001733Y019141D01*
X001707Y019099D01*
X001678Y019059D01*
X001645Y019021D01*
X001609Y018987D01*
X001571Y018955D01*
X001531Y018926D01*
X001488Y018901D01*
X001443Y018879D01*
X001397Y018860D01*
X001350Y018846D01*
X001301Y018835D01*
X001252Y018828D01*
X001202Y018825D01*
X001153Y018826D01*
X001103Y018831D01*
X001054Y018840D01*
X001006Y018853D01*
X000959Y018869D01*
X000914Y018889D01*
X000870Y018913D01*
X000829Y018940D01*
X000789Y018970D01*
X000752Y019004D01*
X000718Y019040D01*
X000687Y019079D01*
X000659Y019120D01*
X000635Y019163D01*
X000614Y019208D01*
X000596Y019255D01*
X000583Y019302D01*
X000573Y019351D01*
X000567Y019400D01*
X000565Y019450D01*
X013565Y019450D02*
X013567Y019500D01*
X013573Y019549D01*
X013583Y019598D01*
X013596Y019645D01*
X013614Y019692D01*
X013635Y019737D01*
X013659Y019780D01*
X013687Y019821D01*
X013718Y019860D01*
X013752Y019896D01*
X013789Y019930D01*
X013829Y019960D01*
X013870Y019987D01*
X013914Y020011D01*
X013959Y020031D01*
X014006Y020047D01*
X014054Y020060D01*
X014103Y020069D01*
X014153Y020074D01*
X014202Y020075D01*
X014252Y020072D01*
X014301Y020065D01*
X014350Y020054D01*
X014397Y020040D01*
X014443Y020021D01*
X014488Y019999D01*
X014531Y019974D01*
X014571Y019945D01*
X014609Y019913D01*
X014645Y019879D01*
X014678Y019841D01*
X014707Y019801D01*
X014733Y019759D01*
X014756Y019715D01*
X014775Y019669D01*
X014791Y019622D01*
X014803Y019573D01*
X014811Y019524D01*
X014815Y019475D01*
X014815Y019425D01*
X014811Y019376D01*
X014803Y019327D01*
X014791Y019278D01*
X014775Y019231D01*
X014756Y019185D01*
X014733Y019141D01*
X014707Y019099D01*
X014678Y019059D01*
X014645Y019021D01*
X014609Y018987D01*
X014571Y018955D01*
X014531Y018926D01*
X014488Y018901D01*
X014443Y018879D01*
X014397Y018860D01*
X014350Y018846D01*
X014301Y018835D01*
X014252Y018828D01*
X014202Y018825D01*
X014153Y018826D01*
X014103Y018831D01*
X014054Y018840D01*
X014006Y018853D01*
X013959Y018869D01*
X013914Y018889D01*
X013870Y018913D01*
X013829Y018940D01*
X013789Y018970D01*
X013752Y019004D01*
X013718Y019040D01*
X013687Y019079D01*
X013659Y019120D01*
X013635Y019163D01*
X013614Y019208D01*
X013596Y019255D01*
X013583Y019302D01*
X013573Y019351D01*
X013567Y019400D01*
X013565Y019450D01*
X013565Y001450D02*
X013567Y001500D01*
X013573Y001549D01*
X013583Y001598D01*
X013596Y001645D01*
X013614Y001692D01*
X013635Y001737D01*
X013659Y001780D01*
X013687Y001821D01*
X013718Y001860D01*
X013752Y001896D01*
X013789Y001930D01*
X013829Y001960D01*
X013870Y001987D01*
X013914Y002011D01*
X013959Y002031D01*
X014006Y002047D01*
X014054Y002060D01*
X014103Y002069D01*
X014153Y002074D01*
X014202Y002075D01*
X014252Y002072D01*
X014301Y002065D01*
X014350Y002054D01*
X014397Y002040D01*
X014443Y002021D01*
X014488Y001999D01*
X014531Y001974D01*
X014571Y001945D01*
X014609Y001913D01*
X014645Y001879D01*
X014678Y001841D01*
X014707Y001801D01*
X014733Y001759D01*
X014756Y001715D01*
X014775Y001669D01*
X014791Y001622D01*
X014803Y001573D01*
X014811Y001524D01*
X014815Y001475D01*
X014815Y001425D01*
X014811Y001376D01*
X014803Y001327D01*
X014791Y001278D01*
X014775Y001231D01*
X014756Y001185D01*
X014733Y001141D01*
X014707Y001099D01*
X014678Y001059D01*
X014645Y001021D01*
X014609Y000987D01*
X014571Y000955D01*
X014531Y000926D01*
X014488Y000901D01*
X014443Y000879D01*
X014397Y000860D01*
X014350Y000846D01*
X014301Y000835D01*
X014252Y000828D01*
X014202Y000825D01*
X014153Y000826D01*
X014103Y000831D01*
X014054Y000840D01*
X014006Y000853D01*
X013959Y000869D01*
X013914Y000889D01*
X013870Y000913D01*
X013829Y000940D01*
X013789Y000970D01*
X013752Y001004D01*
X013718Y001040D01*
X013687Y001079D01*
X013659Y001120D01*
X013635Y001163D01*
X013614Y001208D01*
X013596Y001255D01*
X013583Y001302D01*
X013573Y001351D01*
X013567Y001400D01*
X013565Y001450D01*
M02*
