%
M48
M72
T01C0.0130
T02C0.0315
T03C0.0380
T04C0.0400
T05C0.1160
%
T01
X5425Y4775
X6600Y4900
X7600Y4900
X7600Y3900
X11100Y6600
X11350Y6900
X7400Y9550
X6700Y9550
T02
X3150Y13050
X3050Y14050
X3150Y15050
X3050Y16050
X3150Y17050
X3050Y18050
X3150Y19050
X3050Y20050
X1050Y12050
X1150Y11050
X1050Y10050
X1150Y9050
X1050Y8050
X1150Y7050
X1050Y6050
X1150Y5050
X12050Y14050
X12150Y13050
X12150Y15050
X12050Y16050
X12150Y17050
X12050Y18050
X12150Y19050
X12050Y20050
X14050Y12050
X14150Y11050
X14050Y10050
X14150Y9050
X14050Y8050
X14150Y7050
X14050Y6050
X14150Y5050
T03
X10600Y7050
X10600Y8050
X10600Y9050
X10600Y10050
X10600Y11050
X10600Y12050
X10600Y13050
X10600Y14050
X10600Y15050
X10600Y16050
X10600Y17050
X10600Y18050
X10600Y19050
X10600Y20050
X9600Y19050
X9600Y17050
X9600Y16050
X9600Y15050
X8600Y14050
X8600Y13050
X8600Y12050
X8600Y11050
X8600Y10050
X8600Y9050
X8600Y8050
X8600Y7050
X7600Y7050
X7600Y8050
X7600Y9050
X7600Y10050
X7600Y11050
X7600Y12050
X7600Y13050
X7600Y14050
X4600Y14050
X4600Y13050
X4600Y12050
X4600Y11050
X4600Y10050
X4600Y9050
X4600Y8050
X4600Y7050
X5600Y7050
X6600Y7050
X9600Y7050
X4600Y15050
X4600Y16050
X4600Y17050
X4600Y18050
X4600Y19050
X4600Y20050
T04
X2100Y20050
X2100Y19050
X2100Y18050
X2100Y17050
X2100Y16050
X2100Y15050
X2100Y14050
X2100Y13050
X2100Y12050
X2100Y11050
X2100Y10050
X2100Y9050
X2100Y8050
X2100Y7050
X2100Y6050
X2100Y5050
X3100Y2550
X3100Y1550
X4100Y1550
X4100Y2550
X5100Y2550
X5100Y1550
X6100Y1550
X6100Y2550
X7100Y2550
X7100Y1550
X8100Y1550
X8100Y2550
X9100Y2550
X9100Y1550
X10100Y1550
X10100Y2550
X11100Y2550
X11100Y1550
X12100Y1550
X12100Y2550
X13100Y5050
X13100Y6050
X13100Y7050
X13100Y8050
X13100Y9050
X13100Y10050
X13100Y11050
X13100Y12050
X13100Y13050
X13100Y14050
X13100Y15050
X13100Y16050
X13100Y17050
X13100Y18050
X13100Y19050
X13100Y20050
T05
X1090Y1600
X1090Y19600
X14110Y19600
X14110Y1600
M30
