G75*
%MOIN*%
%OFA0B0*%
%FSLAX24Y24*%
%IPPOS*%
%LPD*%
%AMOC8*
5,1,8,0,0,1.08239X$1,22.5*
%
%ADD10R,0.0056X0.0008*%
%ADD11R,0.0072X0.0008*%
%ADD12R,0.0088X0.0008*%
%ADD13R,0.0112X0.0008*%
%ADD14R,0.0144X0.0008*%
%ADD15R,0.0160X0.0008*%
%ADD16R,0.0176X0.0008*%
%ADD17R,0.0192X0.0008*%
%ADD18R,0.0208X0.0008*%
%ADD19R,0.0240X0.0008*%
%ADD20R,0.0256X0.0008*%
%ADD21R,0.0272X0.0008*%
%ADD22R,0.0016X0.0008*%
%ADD23R,0.0296X0.0008*%
%ADD24R,0.0064X0.0008*%
%ADD25R,0.0304X0.0008*%
%ADD26R,0.0080X0.0008*%
%ADD27R,0.0328X0.0008*%
%ADD28R,0.0096X0.0008*%
%ADD29R,0.0352X0.0008*%
%ADD30R,0.0120X0.0008*%
%ADD31R,0.0368X0.0008*%
%ADD32R,0.0136X0.0008*%
%ADD33R,0.0392X0.0008*%
%ADD34R,0.0408X0.0008*%
%ADD35R,0.0184X0.0008*%
%ADD36R,0.0424X0.0008*%
%ADD37R,0.0008X0.0008*%
%ADD38R,0.0440X0.0008*%
%ADD39R,0.0216X0.0008*%
%ADD40R,0.0464X0.0008*%
%ADD41R,0.0232X0.0008*%
%ADD42R,0.0480X0.0008*%
%ADD43R,0.0504X0.0008*%
%ADD44R,0.0280X0.0008*%
%ADD45R,0.0520X0.0008*%
%ADD46R,0.0544X0.0008*%
%ADD47R,0.0552X0.0008*%
%ADD48R,0.0320X0.0008*%
%ADD49R,0.0576X0.0008*%
%ADD50R,0.0592X0.0008*%
%ADD51R,0.0336X0.0008*%
%ADD52R,0.0632X0.0008*%
%ADD53R,0.0344X0.0008*%
%ADD54R,0.0640X0.0008*%
%ADD55R,0.0656X0.0008*%
%ADD56R,0.0680X0.0008*%
%ADD57R,0.0344X0.0008*%
%ADD58R,0.0688X0.0008*%
%ADD59R,0.0728X0.0008*%
%ADD60R,0.0744X0.0008*%
%ADD61R,0.0768X0.0008*%
%ADD62R,0.0776X0.0008*%
%ADD63R,0.0784X0.0008*%
%ADD64R,0.0800X0.0008*%
%ADD65R,0.0840X0.0008*%
%ADD66R,0.0856X0.0008*%
%ADD67R,0.0880X0.0008*%
%ADD68R,0.0896X0.0008*%
%ADD69R,0.0888X0.0008*%
%ADD70R,0.0912X0.0008*%
%ADD71R,0.0928X0.0008*%
%ADD72R,0.0360X0.0008*%
%ADD73R,0.0936X0.0008*%
%ADD74R,0.1272X0.0008*%
%ADD75R,0.1256X0.0008*%
%ADD76R,0.1224X0.0008*%
%ADD77R,0.1208X0.0008*%
%ADD78R,0.1184X0.0008*%
%ADD79R,0.1168X0.0008*%
%ADD80R,0.1160X0.0008*%
%ADD81R,0.1144X0.0008*%
%ADD82R,0.1120X0.0008*%
%ADD83R,0.1096X0.0008*%
%ADD84R,0.1080X0.0008*%
%ADD85R,0.1056X0.0008*%
%ADD86R,0.1024X0.0008*%
%ADD87R,0.1000X0.0008*%
%ADD88R,0.0976X0.0008*%
%ADD89R,0.0960X0.0008*%
%ADD90R,0.0912X0.0008*%
%ADD91R,0.0872X0.0008*%
%ADD92R,0.0848X0.0008*%
%ADD93R,0.0824X0.0008*%
%ADD94R,0.0752X0.0008*%
%ADD95R,0.0704X0.0008*%
%ADD96R,0.0032X0.0008*%
%ADD97R,0.0664X0.0008*%
%ADD98R,0.0048X0.0008*%
%ADD99R,0.0648X0.0008*%
%ADD100R,0.0624X0.0008*%
%ADD101R,0.0616X0.0008*%
%ADD102R,0.0128X0.0008*%
%ADD103R,0.0144X0.0008*%
%ADD104R,0.0536X0.0008*%
%ADD105R,0.0512X0.0008*%
%ADD106R,0.0192X0.0008*%
%ADD107R,0.0496X0.0008*%
%ADD108R,0.0224X0.0008*%
%ADD109R,0.0232X0.0008*%
%ADD110R,0.0456X0.0008*%
%ADD111R,0.0264X0.0008*%
%ADD112R,0.0416X0.0008*%
%ADD113R,0.0288X0.0008*%
%ADD114R,0.0400X0.0008*%
%ADD115R,0.0376X0.0008*%
%ADD116R,0.0312X0.0008*%
%ADD117R,0.0352X0.0008*%
%ADD118R,0.0072X0.0008*%
%ADD119R,0.0112X0.0008*%
%ADD120R,0.0248X0.0008*%
%ADD121R,0.0424X0.0008*%
%ADD122R,0.0472X0.0008*%
%ADD123R,0.0488X0.0008*%
%ADD124R,0.0528X0.0008*%
%ADD125R,0.0560X0.0008*%
%ADD126R,0.0584X0.0008*%
%ADD127R,0.0592X0.0008*%
%ADD128R,0.0696X0.0008*%
%ADD129R,0.0720X0.0008*%
%ADD130R,0.0752X0.0008*%
%ADD131R,0.0168X0.0008*%
%ADD132R,0.0808X0.0008*%
%ADD133R,0.0824X0.0008*%
%ADD134R,0.0104X0.0008*%
%ADD135R,0.0384X0.0008*%
%ADD136R,0.0384X0.0008*%
%ADD137R,0.0448X0.0008*%
%ADD138R,0.0272X0.0008*%
%ADD139R,0.0312X0.0008*%
%ADD140R,0.0152X0.0008*%
%ADD141R,0.0152X0.0008*%
%ADD142R,0.0200X0.0008*%
%ADD143R,0.0064X0.0008*%
%ADD144R,0.0040X0.0008*%
%ADD145R,0.0712X0.0008*%
%ADD146R,0.0704X0.0008*%
%ADD147R,0.0672X0.0008*%
%ADD148R,0.0600X0.0008*%
%ADD149R,0.0568X0.0008*%
%ADD150R,0.0432X0.0008*%
%ADD151R,0.0392X0.0008*%
%ADD152R,0.0432X0.0008*%
%ADD153R,0.0472X0.0008*%
%ADD154R,0.0632X0.0008*%
%ADD155R,0.0672X0.0008*%
%ADD156R,0.0736X0.0008*%
%ADD157R,0.0872X0.0008*%
%ADD158R,0.0864X0.0008*%
%ADD159R,0.0832X0.0008*%
%ADD160R,0.0816X0.0008*%
%ADD161R,0.0264X0.0008*%
%ADD162R,0.0104X0.0008*%
%ADD163C,0.0130*%
%ADD164C,0.0070*%
%ADD165C,0.0080*%
%ADD166C,0.0060*%
D10*
G36*
X008734Y003764D02*
X008688Y003793D01*
X008692Y003800D01*
X008738Y003771D01*
X008734Y003764D01*
G37*
G36*
X009576Y004238D02*
X009530Y004267D01*
X009534Y004274D01*
X009580Y004245D01*
X009576Y004238D01*
G37*
G36*
X009428Y005097D02*
X009382Y005126D01*
X009386Y005133D01*
X009432Y005104D01*
X009428Y005097D01*
G37*
G36*
X008842Y005163D02*
X008796Y005192D01*
X008800Y005199D01*
X008846Y005170D01*
X008842Y005163D01*
G37*
G36*
X010214Y004911D02*
X010168Y004940D01*
X010172Y004947D01*
X010218Y004918D01*
X010214Y004911D01*
G37*
D11*
G36*
X010225Y004914D02*
X010165Y004952D01*
X010169Y004958D01*
X010229Y004920D01*
X010225Y004914D01*
G37*
G36*
X009846Y005094D02*
X009786Y005132D01*
X009790Y005138D01*
X009850Y005100D01*
X009846Y005094D01*
G37*
G36*
X009224Y004239D02*
X009164Y004277D01*
X009168Y004283D01*
X009228Y004245D01*
X009224Y004239D01*
G37*
G36*
X008746Y003767D02*
X008686Y003805D01*
X008690Y003811D01*
X008750Y003773D01*
X008746Y003767D01*
G37*
D12*
G36*
X008749Y003773D02*
X008676Y003820D01*
X008681Y003827D01*
X008754Y003780D01*
X008749Y003773D01*
G37*
G36*
X009605Y004238D02*
X009532Y004285D01*
X009537Y004292D01*
X009610Y004245D01*
X009605Y004238D01*
G37*
G36*
X009437Y005081D02*
X009364Y005128D01*
X009369Y005135D01*
X009442Y005088D01*
X009437Y005081D01*
G37*
G36*
X009848Y005082D02*
X009775Y005129D01*
X009780Y005136D01*
X009853Y005089D01*
X009848Y005082D01*
G37*
G36*
X010242Y004911D02*
X010169Y004958D01*
X010174Y004965D01*
X010247Y004918D01*
X010242Y004911D01*
G37*
G36*
X010512Y004240D02*
X010439Y004287D01*
X010444Y004294D01*
X010517Y004247D01*
X010512Y004240D01*
G37*
G36*
X011026Y005090D02*
X010953Y005137D01*
X010958Y005144D01*
X011031Y005097D01*
X011026Y005090D01*
G37*
G36*
X012200Y005090D02*
X012127Y005137D01*
X012132Y005144D01*
X012205Y005097D01*
X012200Y005090D01*
G37*
D13*
G36*
X011575Y004247D02*
X011482Y004307D01*
X011487Y004313D01*
X011580Y004253D01*
X011575Y004247D01*
G37*
G36*
X009252Y004239D02*
X009159Y004299D01*
X009164Y004305D01*
X009257Y004245D01*
X009252Y004239D01*
G37*
G36*
X008760Y003776D02*
X008667Y003836D01*
X008672Y003842D01*
X008765Y003782D01*
X008760Y003776D01*
G37*
D14*
G36*
X008772Y003778D02*
X008652Y003855D01*
X008656Y003862D01*
X008776Y003785D01*
X008772Y003778D01*
G37*
G36*
X011604Y004247D02*
X011484Y004324D01*
X011488Y004331D01*
X011608Y004254D01*
X011604Y004247D01*
G37*
D15*
G36*
X011028Y005050D02*
X010895Y005136D01*
X010900Y005142D01*
X011033Y005056D01*
X011028Y005050D01*
G37*
G36*
X010300Y004913D02*
X010167Y004999D01*
X010172Y005005D01*
X010305Y004919D01*
X010300Y004913D01*
G37*
G36*
X009662Y004239D02*
X009529Y004325D01*
X009534Y004331D01*
X009667Y004245D01*
X009662Y004239D01*
G37*
G36*
X009298Y004237D02*
X009165Y004323D01*
X009170Y004329D01*
X009303Y004243D01*
X009298Y004237D01*
G37*
G36*
X008776Y003785D02*
X008643Y003871D01*
X008648Y003877D01*
X008781Y003791D01*
X008776Y003785D01*
G37*
G36*
X008007Y004408D02*
X007874Y004494D01*
X007879Y004500D01*
X008012Y004414D01*
X008007Y004408D01*
G37*
G36*
X009440Y005042D02*
X009307Y005128D01*
X009312Y005134D01*
X009445Y005048D01*
X009440Y005042D01*
G37*
D16*
G36*
X009435Y005035D02*
X009289Y005130D01*
X009293Y005137D01*
X009439Y005042D01*
X009435Y005035D01*
G37*
G36*
X009846Y005035D02*
X009700Y005130D01*
X009704Y005137D01*
X009850Y005042D01*
X009846Y005035D01*
G37*
G36*
X010311Y004914D02*
X010165Y005009D01*
X010169Y005016D01*
X010315Y004921D01*
X010311Y004914D01*
G37*
G36*
X009680Y004237D02*
X009534Y004332D01*
X009538Y004339D01*
X009684Y004244D01*
X009680Y004237D01*
G37*
G36*
X009310Y004239D02*
X009164Y004334D01*
X009168Y004341D01*
X009314Y004246D01*
X009310Y004239D01*
G37*
G36*
X008787Y003787D02*
X008641Y003882D01*
X008645Y003889D01*
X008791Y003794D01*
X008787Y003787D01*
G37*
G36*
X011031Y005039D02*
X010885Y005134D01*
X010889Y005141D01*
X011035Y005046D01*
X011031Y005039D01*
G37*
G36*
X011633Y004247D02*
X011487Y004342D01*
X011491Y004349D01*
X011637Y004254D01*
X011633Y004247D01*
G37*
G36*
X012169Y005043D02*
X012023Y005138D01*
X012027Y005145D01*
X012173Y005050D01*
X012169Y005043D01*
G37*
D17*
G36*
X011027Y005032D02*
X010867Y005135D01*
X010871Y005142D01*
X011031Y005039D01*
X011027Y005032D01*
G37*
G36*
X010599Y004241D02*
X010439Y004344D01*
X010443Y004351D01*
X010603Y004248D01*
X010599Y004241D01*
G37*
G36*
X010329Y004913D02*
X010169Y005016D01*
X010173Y005023D01*
X010333Y004920D01*
X010329Y004913D01*
G37*
G36*
X009849Y005025D02*
X009689Y005128D01*
X009693Y005135D01*
X009853Y005032D01*
X009849Y005025D01*
G37*
G36*
X009438Y005024D02*
X009278Y005127D01*
X009282Y005134D01*
X009442Y005031D01*
X009438Y005024D01*
G37*
G36*
X009692Y004239D02*
X009532Y004342D01*
X009536Y004349D01*
X009696Y004246D01*
X009692Y004239D01*
G37*
G36*
X008792Y003794D02*
X008632Y003897D01*
X008636Y003904D01*
X008796Y003801D01*
X008792Y003794D01*
G37*
G36*
X008023Y004417D02*
X007863Y004520D01*
X007867Y004527D01*
X008027Y004424D01*
X008023Y004417D01*
G37*
D18*
G36*
X008803Y003796D02*
X008629Y003908D01*
X008633Y003914D01*
X008807Y003802D01*
X008803Y003796D01*
G37*
G36*
X008912Y005051D02*
X008738Y005163D01*
X008742Y005169D01*
X008916Y005057D01*
X008912Y005051D01*
G37*
G36*
X009845Y005018D02*
X009671Y005130D01*
X009675Y005136D01*
X009849Y005024D01*
X009845Y005018D01*
G37*
G36*
X010341Y004916D02*
X010167Y005028D01*
X010171Y005034D01*
X010345Y004922D01*
X010341Y004916D01*
G37*
G36*
X010314Y004389D02*
X010140Y004501D01*
X010144Y004507D01*
X010318Y004395D01*
X010314Y004389D01*
G37*
G36*
X011029Y005021D02*
X010855Y005133D01*
X010859Y005139D01*
X011033Y005027D01*
X011029Y005021D01*
G37*
G36*
X011509Y005025D02*
X011335Y005137D01*
X011339Y005143D01*
X011513Y005031D01*
X011509Y005025D01*
G37*
D19*
G36*
X011524Y005005D02*
X011324Y005135D01*
X011328Y005141D01*
X011528Y005011D01*
X011524Y005005D01*
G37*
G36*
X012136Y005008D02*
X011936Y005138D01*
X011940Y005144D01*
X012140Y005014D01*
X012136Y005008D01*
G37*
G36*
X011680Y004246D02*
X011480Y004376D01*
X011484Y004382D01*
X011684Y004252D01*
X011680Y004246D01*
G37*
G36*
X011027Y005003D02*
X010827Y005133D01*
X010831Y005139D01*
X011031Y005009D01*
X011027Y005003D01*
G37*
G36*
X010369Y004916D02*
X010169Y005046D01*
X010173Y005052D01*
X010373Y004922D01*
X010369Y004916D01*
G37*
G36*
X010311Y004371D02*
X010111Y004501D01*
X010115Y004507D01*
X010315Y004377D01*
X010311Y004371D01*
G37*
G36*
X008923Y005025D02*
X008723Y005155D01*
X008727Y005161D01*
X008927Y005031D01*
X008923Y005025D01*
G37*
G36*
X008814Y003798D02*
X008614Y003928D01*
X008618Y003934D01*
X008818Y003804D01*
X008814Y003798D01*
G37*
D20*
G36*
X008818Y003805D02*
X008604Y003944D01*
X008608Y003951D01*
X008822Y003812D01*
X008818Y003805D01*
G37*
G36*
X009375Y004235D02*
X009161Y004374D01*
X009165Y004381D01*
X009379Y004242D01*
X009375Y004235D01*
G37*
G36*
X009434Y004988D02*
X009220Y005127D01*
X009224Y005134D01*
X009438Y004995D01*
X009434Y004988D01*
G37*
G36*
X009845Y004988D02*
X009631Y005127D01*
X009635Y005134D01*
X009849Y004995D01*
X009845Y004988D01*
G37*
G36*
X010314Y004360D02*
X010100Y004499D01*
X010104Y004506D01*
X010318Y004367D01*
X010314Y004360D01*
G37*
G36*
X010657Y004242D02*
X010443Y004381D01*
X010447Y004388D01*
X010661Y004249D01*
X010657Y004242D01*
G37*
G36*
X011887Y004711D02*
X011673Y004850D01*
X011677Y004857D01*
X011891Y004718D01*
X011887Y004711D01*
G37*
G36*
X011898Y004714D02*
X011684Y004853D01*
X011688Y004860D01*
X011902Y004721D01*
X011898Y004714D01*
G37*
G36*
X011911Y004734D02*
X011697Y004873D01*
X011701Y004880D01*
X011915Y004741D01*
X011911Y004734D01*
G37*
G36*
X011916Y004741D02*
X011702Y004880D01*
X011706Y004887D01*
X011920Y004748D01*
X011916Y004741D01*
G37*
G36*
X011929Y004761D02*
X011715Y004900D01*
X011719Y004907D01*
X011933Y004768D01*
X011929Y004761D01*
G37*
G36*
X012132Y005001D02*
X011918Y005140D01*
X011922Y005147D01*
X012136Y005008D01*
X012132Y005001D01*
G37*
G36*
X008050Y004428D02*
X007836Y004567D01*
X007840Y004574D01*
X008054Y004435D01*
X008050Y004428D01*
G37*
D21*
G36*
X008822Y003812D02*
X008595Y003959D01*
X008600Y003966D01*
X008827Y003819D01*
X008822Y003812D01*
G37*
G36*
X011708Y004246D02*
X011481Y004393D01*
X011486Y004400D01*
X011713Y004253D01*
X011708Y004246D01*
G37*
G36*
X011968Y004793D02*
X011741Y004940D01*
X011746Y004947D01*
X011973Y004800D01*
X011968Y004793D01*
G37*
G36*
X011985Y004819D02*
X011758Y004966D01*
X011763Y004973D01*
X011990Y004826D01*
X011985Y004819D01*
G37*
G36*
X012003Y004846D02*
X011776Y004993D01*
X011781Y005000D01*
X012008Y004853D01*
X012003Y004846D01*
G37*
G36*
X012090Y004952D02*
X011863Y005099D01*
X011868Y005106D01*
X012095Y004959D01*
X012090Y004952D01*
G37*
G36*
X012099Y004965D02*
X011872Y005112D01*
X011877Y005119D01*
X012104Y004972D01*
X012099Y004965D01*
G37*
D22*
G36*
X011513Y005031D02*
X011501Y005039D01*
X011505Y005045D01*
X011517Y005037D01*
X011513Y005031D01*
G37*
G36*
X011436Y005119D02*
X011424Y005127D01*
X011428Y005133D01*
X011440Y005125D01*
X011436Y005119D01*
G37*
G36*
X011507Y004244D02*
X011495Y004252D01*
X011499Y004258D01*
X011511Y004250D01*
X011507Y004244D01*
G37*
G36*
X010303Y004491D02*
X010291Y004499D01*
X010295Y004505D01*
X010307Y004497D01*
X010303Y004491D01*
G37*
G36*
X009552Y004244D02*
X009540Y004252D01*
X009544Y004258D01*
X009556Y004250D01*
X009552Y004244D01*
G37*
G36*
X008955Y004222D02*
X008943Y004230D01*
X008947Y004236D01*
X008959Y004228D01*
X008955Y004222D01*
G37*
G36*
X009423Y005119D02*
X009411Y005127D01*
X009415Y005133D01*
X009427Y005125D01*
X009423Y005119D01*
G37*
G36*
X007934Y004398D02*
X007922Y004406D01*
X007926Y004412D01*
X007938Y004404D01*
X007934Y004398D01*
G37*
D23*
G36*
X008064Y004438D02*
X007817Y004598D01*
X007822Y004604D01*
X008069Y004444D01*
X008064Y004438D01*
G37*
G36*
X008833Y003814D02*
X008586Y003974D01*
X008591Y003980D01*
X008838Y003820D01*
X008833Y003814D01*
G37*
G36*
X009778Y004241D02*
X009531Y004401D01*
X009536Y004407D01*
X009783Y004247D01*
X009778Y004241D01*
G37*
G36*
X009842Y004972D02*
X009595Y005132D01*
X009600Y005138D01*
X009847Y004978D01*
X009842Y004972D01*
G37*
G36*
X010415Y004914D02*
X010168Y005074D01*
X010173Y005080D01*
X010420Y004920D01*
X010415Y004914D01*
G37*
G36*
X011027Y004975D02*
X010780Y005135D01*
X010785Y005141D01*
X011032Y004981D01*
X011027Y004975D01*
G37*
G36*
X009438Y004967D02*
X009191Y005127D01*
X009196Y005133D01*
X009443Y004973D01*
X009438Y004967D01*
G37*
D24*
G36*
X010495Y004243D02*
X010442Y004277D01*
X010447Y004283D01*
X010500Y004249D01*
X010495Y004243D01*
G37*
G36*
X011535Y004244D02*
X011482Y004278D01*
X011487Y004284D01*
X011540Y004250D01*
X011535Y004244D01*
G37*
G36*
X007965Y004387D02*
X007912Y004421D01*
X007917Y004427D01*
X007970Y004393D01*
X007965Y004387D01*
G37*
D25*
G36*
X008069Y004444D02*
X007815Y004609D01*
X007819Y004616D01*
X008073Y004451D01*
X008069Y004444D01*
G37*
G36*
X008838Y003820D02*
X008584Y003985D01*
X008588Y003992D01*
X008842Y003827D01*
X008838Y003820D01*
G37*
G36*
X009414Y004238D02*
X009160Y004403D01*
X009164Y004410D01*
X009418Y004245D01*
X009414Y004238D01*
G37*
G36*
X009434Y004959D02*
X009180Y005124D01*
X009184Y005131D01*
X009438Y004966D01*
X009434Y004959D01*
G37*
G36*
X008951Y004978D02*
X008697Y005143D01*
X008701Y005150D01*
X008955Y004985D01*
X008951Y004978D01*
G37*
G36*
X008946Y004971D02*
X008692Y005136D01*
X008696Y005143D01*
X008950Y004978D01*
X008946Y004971D01*
G37*
G36*
X011737Y004246D02*
X011483Y004411D01*
X011487Y004418D01*
X011741Y004253D01*
X011737Y004246D01*
G37*
D26*
G36*
X012204Y005097D02*
X012138Y005140D01*
X012142Y005147D01*
X012208Y005104D01*
X012204Y005097D01*
G37*
G36*
X010310Y004457D02*
X010244Y004500D01*
X010248Y004507D01*
X010314Y004464D01*
X010310Y004457D01*
G37*
G36*
X007977Y004389D02*
X007911Y004432D01*
X007915Y004439D01*
X007981Y004396D01*
X007977Y004389D01*
G37*
D27*
G36*
X008849Y003823D02*
X008575Y004000D01*
X008579Y004007D01*
X008853Y003830D01*
X008849Y003823D01*
G37*
G36*
X009432Y004265D02*
X009158Y004442D01*
X009162Y004449D01*
X009436Y004272D01*
X009432Y004265D01*
G37*
G36*
X009436Y004272D02*
X009162Y004449D01*
X009166Y004456D01*
X009440Y004279D01*
X009436Y004272D01*
G37*
G36*
X009438Y004290D02*
X009164Y004467D01*
X009168Y004474D01*
X009442Y004297D01*
X009438Y004290D01*
G37*
G36*
X009440Y004307D02*
X009166Y004484D01*
X009170Y004491D01*
X009444Y004314D01*
X009440Y004307D01*
G37*
G36*
X009438Y004319D02*
X009164Y004496D01*
X009168Y004503D01*
X009442Y004326D01*
X009438Y004319D01*
G37*
G36*
X009437Y004347D02*
X009163Y004524D01*
X009167Y004531D01*
X009441Y004354D01*
X009437Y004347D01*
G37*
G36*
X009437Y004376D02*
X009163Y004553D01*
X009167Y004560D01*
X009441Y004383D01*
X009437Y004376D01*
G37*
G36*
X009439Y004394D02*
X009165Y004571D01*
X009169Y004578D01*
X009443Y004401D01*
X009439Y004394D01*
G37*
G36*
X009437Y004405D02*
X009163Y004582D01*
X009167Y004589D01*
X009441Y004412D01*
X009437Y004405D01*
G37*
G36*
X009441Y004412D02*
X009167Y004589D01*
X009171Y004596D01*
X009445Y004419D01*
X009441Y004412D01*
G37*
G36*
X009438Y004452D02*
X009164Y004629D01*
X009168Y004636D01*
X009442Y004459D01*
X009438Y004452D01*
G37*
G36*
X009438Y004480D02*
X009164Y004657D01*
X009168Y004664D01*
X009442Y004487D01*
X009438Y004480D01*
G37*
G36*
X009440Y004498D02*
X009166Y004675D01*
X009170Y004682D01*
X009444Y004505D01*
X009440Y004498D01*
G37*
G36*
X009437Y004538D02*
X009163Y004715D01*
X009167Y004722D01*
X009441Y004545D01*
X009437Y004538D01*
G37*
G36*
X009439Y004556D02*
X009165Y004733D01*
X009169Y004740D01*
X009443Y004563D01*
X009439Y004556D01*
G37*
G36*
X009437Y004567D02*
X009163Y004744D01*
X009167Y004751D01*
X009441Y004574D01*
X009437Y004567D01*
G37*
G36*
X009437Y004596D02*
X009163Y004773D01*
X009167Y004780D01*
X009441Y004603D01*
X009437Y004596D01*
G37*
G36*
X009436Y004625D02*
X009162Y004802D01*
X009166Y004809D01*
X009440Y004632D01*
X009436Y004625D01*
G37*
G36*
X009438Y004642D02*
X009164Y004819D01*
X009168Y004826D01*
X009442Y004649D01*
X009438Y004642D01*
G37*
G36*
X009436Y004654D02*
X009162Y004831D01*
X009166Y004838D01*
X009440Y004661D01*
X009436Y004654D01*
G37*
G36*
X009436Y004682D02*
X009162Y004859D01*
X009166Y004866D01*
X009440Y004689D01*
X009436Y004682D01*
G37*
G36*
X009437Y004729D02*
X009163Y004906D01*
X009167Y004913D01*
X009441Y004736D01*
X009437Y004729D01*
G37*
G36*
X009435Y004740D02*
X009161Y004917D01*
X009165Y004924D01*
X009439Y004747D01*
X009435Y004740D01*
G37*
G36*
X009439Y004747D02*
X009165Y004924D01*
X009169Y004931D01*
X009443Y004754D01*
X009439Y004747D01*
G37*
G36*
X009436Y004787D02*
X009162Y004964D01*
X009166Y004971D01*
X009440Y004794D01*
X009436Y004787D01*
G37*
G36*
X009436Y004816D02*
X009162Y004993D01*
X009166Y005000D01*
X009440Y004823D01*
X009436Y004816D01*
G37*
G36*
X009438Y004833D02*
X009164Y005010D01*
X009168Y005017D01*
X009442Y004840D01*
X009438Y004833D01*
G37*
G36*
X009436Y004844D02*
X009162Y005021D01*
X009166Y005028D01*
X009440Y004851D01*
X009436Y004844D01*
G37*
G36*
X009435Y004873D02*
X009161Y005050D01*
X009165Y005057D01*
X009439Y004880D01*
X009435Y004873D01*
G37*
G36*
X009437Y004891D02*
X009163Y005068D01*
X009167Y005075D01*
X009441Y004898D01*
X009437Y004891D01*
G37*
G36*
X009435Y004902D02*
X009161Y005079D01*
X009165Y005086D01*
X009439Y004909D01*
X009435Y004902D01*
G37*
G36*
X009439Y004909D02*
X009165Y005086D01*
X009169Y005093D01*
X009443Y004916D01*
X009439Y004909D01*
G37*
G36*
X009807Y004241D02*
X009533Y004418D01*
X009537Y004425D01*
X009811Y004248D01*
X009807Y004241D01*
G37*
G36*
X010715Y004243D02*
X010441Y004420D01*
X010445Y004427D01*
X010719Y004250D01*
X010715Y004243D01*
G37*
G36*
X008955Y004956D02*
X008681Y005133D01*
X008685Y005140D01*
X008959Y004963D01*
X008955Y004956D01*
G37*
G36*
X008951Y004949D02*
X008677Y005126D01*
X008681Y005133D01*
X008955Y004956D01*
X008951Y004949D01*
G37*
D28*
G36*
X008864Y005139D02*
X008784Y005190D01*
X008788Y005197D01*
X008868Y005146D01*
X008864Y005139D01*
G37*
G36*
X009241Y004236D02*
X009161Y004287D01*
X009165Y004294D01*
X009245Y004243D01*
X009241Y004236D01*
G37*
G36*
X010313Y004446D02*
X010233Y004497D01*
X010237Y004504D01*
X010317Y004453D01*
X010313Y004446D01*
G37*
G36*
X010524Y004243D02*
X010444Y004294D01*
X010448Y004301D01*
X010528Y004250D01*
X010524Y004243D01*
G37*
G36*
X011461Y005084D02*
X011381Y005135D01*
X011385Y005142D01*
X011465Y005091D01*
X011461Y005084D01*
G37*
G36*
X007981Y004396D02*
X007901Y004447D01*
X007905Y004454D01*
X007985Y004403D01*
X007981Y004396D01*
G37*
D29*
G36*
X008122Y004466D02*
X007828Y004657D01*
X007832Y004664D01*
X008126Y004473D01*
X008122Y004466D01*
G37*
G36*
X008138Y004475D02*
X007844Y004666D01*
X007848Y004673D01*
X008142Y004482D01*
X008138Y004475D01*
G37*
G36*
X008656Y004759D02*
X008362Y004950D01*
X008366Y004957D01*
X008660Y004766D01*
X008656Y004759D01*
G37*
G36*
X008722Y004802D02*
X008428Y004993D01*
X008432Y005000D01*
X008726Y004809D01*
X008722Y004802D01*
G37*
G36*
X008794Y004841D02*
X008500Y005032D01*
X008504Y005039D01*
X008798Y004848D01*
X008794Y004841D01*
G37*
G36*
X008872Y004886D02*
X008578Y005077D01*
X008582Y005084D01*
X008876Y004893D01*
X008872Y004886D01*
G37*
G36*
X008887Y004895D02*
X008593Y005086D01*
X008597Y005093D01*
X008891Y004902D01*
X008887Y004895D01*
G37*
G36*
X008810Y004850D02*
X008516Y005041D01*
X008520Y005048D01*
X008814Y004857D01*
X008810Y004850D01*
G37*
G36*
X008799Y004847D02*
X008505Y005038D01*
X008509Y005045D01*
X008803Y004854D01*
X008799Y004847D01*
G37*
G36*
X008860Y003825D02*
X008566Y004016D01*
X008570Y004023D01*
X008864Y003832D01*
X008860Y003825D01*
G37*
D30*
G36*
X007992Y004398D02*
X007892Y004463D01*
X007896Y004470D01*
X007996Y004405D01*
X007992Y004398D01*
G37*
G36*
X009436Y005063D02*
X009336Y005128D01*
X009340Y005135D01*
X009440Y005070D01*
X009436Y005063D01*
G37*
G36*
X009846Y005064D02*
X009746Y005129D01*
X009750Y005136D01*
X009850Y005071D01*
X009846Y005064D01*
G37*
G36*
X010272Y004911D02*
X010172Y004976D01*
X010176Y004983D01*
X010276Y004918D01*
X010272Y004911D01*
G37*
G36*
X010542Y004240D02*
X010442Y004305D01*
X010446Y004312D01*
X010546Y004247D01*
X010542Y004240D01*
G37*
G36*
X012198Y005072D02*
X012098Y005137D01*
X012102Y005144D01*
X012202Y005079D01*
X012198Y005072D01*
G37*
D31*
G36*
X011019Y004932D02*
X010711Y005131D01*
X010715Y005138D01*
X011023Y004939D01*
X011019Y004932D01*
G37*
G36*
X010752Y004257D02*
X010444Y004456D01*
X010448Y004463D01*
X010756Y004264D01*
X010752Y004257D01*
G37*
G36*
X010748Y004250D02*
X010440Y004449D01*
X010444Y004456D01*
X010752Y004257D01*
X010748Y004250D01*
G37*
G36*
X009836Y004241D02*
X009528Y004440D01*
X009532Y004447D01*
X009840Y004248D01*
X009836Y004241D01*
G37*
G36*
X009843Y004914D02*
X009535Y005113D01*
X009539Y005120D01*
X009847Y004921D01*
X009843Y004914D01*
G37*
G36*
X008865Y003832D02*
X008557Y004031D01*
X008561Y004038D01*
X008869Y003839D01*
X008865Y003832D01*
G37*
D32*
G36*
X007996Y004405D02*
X007883Y004478D01*
X007888Y004485D01*
X008001Y004412D01*
X007996Y004405D01*
G37*
G36*
X010310Y004429D02*
X010197Y004502D01*
X010202Y004509D01*
X010315Y004436D01*
X010310Y004429D01*
G37*
G36*
X010282Y004914D02*
X010169Y004987D01*
X010174Y004994D01*
X010287Y004921D01*
X010282Y004914D01*
G37*
G36*
X011026Y005061D02*
X010913Y005134D01*
X010918Y005141D01*
X011031Y005068D01*
X011026Y005061D01*
G37*
G36*
X011476Y005064D02*
X011363Y005137D01*
X011368Y005144D01*
X011481Y005071D01*
X011476Y005064D01*
G37*
G36*
X012182Y005064D02*
X012069Y005137D01*
X012074Y005144D01*
X012187Y005071D01*
X012182Y005064D01*
G37*
G36*
X011593Y004244D02*
X011480Y004317D01*
X011485Y004324D01*
X011598Y004251D01*
X011593Y004244D01*
G37*
D33*
G36*
X011810Y004284D02*
X011482Y004497D01*
X011486Y004504D01*
X011814Y004291D01*
X011810Y004284D01*
G37*
G36*
X011810Y004313D02*
X011482Y004526D01*
X011486Y004533D01*
X011814Y004320D01*
X011810Y004313D01*
G37*
G36*
X011807Y004353D02*
X011479Y004566D01*
X011483Y004573D01*
X011811Y004360D01*
X011807Y004353D01*
G37*
G36*
X011807Y004382D02*
X011479Y004595D01*
X011483Y004602D01*
X011811Y004389D01*
X011807Y004382D01*
G37*
G36*
X010313Y004284D02*
X009985Y004497D01*
X009989Y004504D01*
X010317Y004291D01*
X010313Y004284D01*
G37*
G36*
X009854Y004239D02*
X009526Y004452D01*
X009530Y004459D01*
X009858Y004246D01*
X009854Y004239D01*
G37*
G36*
X008876Y003834D02*
X008548Y004047D01*
X008552Y004054D01*
X008880Y003841D01*
X008876Y003834D01*
G37*
D34*
G36*
X008879Y003841D02*
X008538Y004062D01*
X008543Y004069D01*
X008884Y003848D01*
X008879Y003841D01*
G37*
G36*
X010757Y004911D02*
X010416Y005132D01*
X010421Y005139D01*
X010762Y004918D01*
X010757Y004911D01*
G37*
G36*
X010930Y004913D02*
X010589Y005134D01*
X010594Y005141D01*
X010935Y004920D01*
X010930Y004913D01*
G37*
G36*
X010988Y004914D02*
X010647Y005135D01*
X010652Y005142D01*
X010993Y004921D01*
X010988Y004914D01*
G37*
G36*
X010959Y004914D02*
X010618Y005135D01*
X010623Y005142D01*
X010964Y004921D01*
X010959Y004914D01*
G37*
D35*
G36*
X010310Y004400D02*
X010157Y004499D01*
X010162Y004506D01*
X010315Y004407D01*
X010310Y004400D01*
G37*
G36*
X008902Y005066D02*
X008749Y005165D01*
X008754Y005172D01*
X008907Y005073D01*
X008902Y005066D01*
G37*
G36*
X008018Y004410D02*
X007865Y004509D01*
X007870Y004516D01*
X008023Y004417D01*
X008018Y004410D01*
G37*
G36*
X012158Y005041D02*
X012005Y005140D01*
X012010Y005147D01*
X012163Y005048D01*
X012158Y005041D01*
G37*
D36*
G36*
X010310Y004267D02*
X009956Y004497D01*
X009960Y004503D01*
X010314Y004273D01*
X010310Y004267D01*
G37*
G36*
X008891Y003844D02*
X008537Y004074D01*
X008541Y004080D01*
X008895Y003850D01*
X008891Y003844D01*
G37*
D37*
G36*
X008940Y004241D02*
X008934Y004245D01*
X008938Y004251D01*
X008944Y004247D01*
X008940Y004241D01*
G37*
G36*
X008835Y004433D02*
X008829Y004437D01*
X008833Y004443D01*
X008839Y004439D01*
X008835Y004433D01*
G37*
G36*
X009184Y004235D02*
X009178Y004239D01*
X009182Y004245D01*
X009188Y004241D01*
X009184Y004235D01*
G37*
G36*
X008960Y004963D02*
X008954Y004967D01*
X008958Y004973D01*
X008964Y004969D01*
X008960Y004963D01*
G37*
G36*
X008855Y005155D02*
X008849Y005159D01*
X008853Y005165D01*
X008859Y005161D01*
X008855Y005155D01*
G37*
G36*
X008830Y005190D02*
X008824Y005194D01*
X008828Y005200D01*
X008834Y005196D01*
X008830Y005190D01*
G37*
G36*
X009821Y005128D02*
X009815Y005132D01*
X009819Y005138D01*
X009825Y005134D01*
X009821Y005128D01*
G37*
G36*
X009834Y005120D02*
X009828Y005124D01*
X009832Y005130D01*
X009838Y005126D01*
X009834Y005120D01*
G37*
G36*
X010466Y004242D02*
X010460Y004246D01*
X010464Y004252D01*
X010470Y004248D01*
X010466Y004242D01*
G37*
G36*
X011006Y005132D02*
X011000Y005136D01*
X011004Y005142D01*
X011010Y005138D01*
X011006Y005132D01*
G37*
G36*
X011416Y005132D02*
X011410Y005136D01*
X011414Y005142D01*
X011420Y005138D01*
X011416Y005132D01*
G37*
G36*
X011538Y004996D02*
X011532Y005000D01*
X011536Y005006D01*
X011542Y005002D01*
X011538Y004996D01*
G37*
G36*
X011569Y004956D02*
X011563Y004960D01*
X011567Y004966D01*
X011573Y004962D01*
X011569Y004956D01*
G37*
G36*
X011601Y004917D02*
X011595Y004921D01*
X011599Y004927D01*
X011605Y004923D01*
X011601Y004917D01*
G37*
G36*
X011632Y004877D02*
X011626Y004881D01*
X011630Y004887D01*
X011636Y004883D01*
X011632Y004877D01*
G37*
G36*
X012191Y005135D02*
X012185Y005139D01*
X012189Y005145D01*
X012195Y005141D01*
X012191Y005135D01*
G37*
G36*
X007855Y004526D02*
X007849Y004530D01*
X007853Y004536D01*
X007859Y004532D01*
X007855Y004526D01*
G37*
D38*
G36*
X008688Y004691D02*
X008320Y004930D01*
X008324Y004937D01*
X008692Y004698D01*
X008688Y004691D01*
G37*
G36*
X008895Y003850D02*
X008527Y004089D01*
X008531Y004096D01*
X008899Y003857D01*
X008895Y003850D01*
G37*
G36*
X009900Y004237D02*
X009532Y004476D01*
X009536Y004483D01*
X009904Y004244D01*
X009900Y004237D01*
G37*
G36*
X010756Y004893D02*
X010388Y005132D01*
X010392Y005139D01*
X010760Y004900D01*
X010756Y004893D01*
G37*
G36*
X011616Y004897D02*
X011248Y005136D01*
X011252Y005143D01*
X011620Y004904D01*
X011616Y004897D01*
G37*
G36*
X011804Y004422D02*
X011436Y004661D01*
X011440Y004668D01*
X011808Y004429D01*
X011804Y004422D01*
G37*
D39*
G36*
X011662Y004247D02*
X011482Y004364D01*
X011486Y004371D01*
X011666Y004254D01*
X011662Y004247D01*
G37*
G36*
X012145Y005021D02*
X011965Y005138D01*
X011969Y005145D01*
X012149Y005028D01*
X012145Y005021D01*
G37*
G36*
X012156Y005023D02*
X011976Y005140D01*
X011980Y005147D01*
X012160Y005030D01*
X012156Y005023D01*
G37*
G36*
X010309Y004382D02*
X010129Y004499D01*
X010133Y004506D01*
X010313Y004389D01*
X010309Y004382D01*
G37*
G36*
X009709Y004237D02*
X009529Y004354D01*
X009533Y004361D01*
X009713Y004244D01*
X009709Y004237D01*
G37*
G36*
X009440Y005013D02*
X009260Y005130D01*
X009264Y005137D01*
X009444Y005020D01*
X009440Y005013D01*
G37*
G36*
X008914Y005040D02*
X008734Y005157D01*
X008738Y005164D01*
X008918Y005047D01*
X008914Y005040D01*
G37*
G36*
X008034Y004419D02*
X007854Y004536D01*
X007858Y004543D01*
X008038Y004426D01*
X008034Y004419D01*
G37*
D40*
G36*
X008906Y003853D02*
X008518Y004105D01*
X008522Y004111D01*
X008910Y003859D01*
X008906Y003853D01*
G37*
G36*
X010297Y004247D02*
X009909Y004499D01*
X009913Y004505D01*
X010301Y004253D01*
X010297Y004247D01*
G37*
G36*
X010758Y004883D02*
X010370Y005135D01*
X010374Y005141D01*
X010762Y004889D01*
X010758Y004883D01*
G37*
G36*
X011619Y004886D02*
X011231Y005138D01*
X011235Y005144D01*
X011623Y004892D01*
X011619Y004886D01*
G37*
D41*
G36*
X012141Y005014D02*
X011947Y005139D01*
X011951Y005146D01*
X012145Y005021D01*
X012141Y005014D01*
G37*
G36*
X010639Y004244D02*
X010445Y004369D01*
X010449Y004376D01*
X010643Y004251D01*
X010639Y004244D01*
G37*
G36*
X010358Y004913D02*
X010164Y005038D01*
X010168Y005045D01*
X010362Y004920D01*
X010358Y004913D01*
G37*
G36*
X008039Y004426D02*
X007845Y004551D01*
X007849Y004558D01*
X008043Y004433D01*
X008039Y004426D01*
G37*
D42*
G36*
X008706Y004660D02*
X008304Y004921D01*
X008308Y004928D01*
X008710Y004667D01*
X008706Y004660D01*
G37*
G36*
X008911Y003859D02*
X008509Y004120D01*
X008513Y004127D01*
X008915Y003866D01*
X008911Y003859D01*
G37*
G36*
X010264Y004239D02*
X009862Y004500D01*
X009866Y004507D01*
X010268Y004246D01*
X010264Y004239D01*
G37*
G36*
X010293Y004239D02*
X009891Y004500D01*
X009895Y004507D01*
X010297Y004246D01*
X010293Y004239D01*
G37*
G36*
X010760Y004871D02*
X010358Y005132D01*
X010362Y005139D01*
X010764Y004878D01*
X010760Y004871D01*
G37*
G36*
X011806Y004440D02*
X011404Y004701D01*
X011408Y004708D01*
X011810Y004447D01*
X011806Y004440D01*
G37*
D43*
G36*
X008922Y003862D02*
X008500Y004135D01*
X008504Y004142D01*
X008926Y003869D01*
X008922Y003862D01*
G37*
D44*
G36*
X009767Y004238D02*
X009533Y004389D01*
X009537Y004396D01*
X009771Y004245D01*
X009767Y004238D01*
G37*
G36*
X009847Y004978D02*
X009613Y005129D01*
X009617Y005136D01*
X009851Y004985D01*
X009847Y004978D01*
G37*
G36*
X010405Y004911D02*
X010171Y005062D01*
X010175Y005069D01*
X010409Y004918D01*
X010405Y004911D01*
G37*
G36*
X011032Y004981D02*
X010798Y005132D01*
X010802Y005139D01*
X011036Y004988D01*
X011032Y004981D01*
G37*
G36*
X012069Y004918D02*
X011835Y005069D01*
X011839Y005076D01*
X012073Y004925D01*
X012069Y004918D01*
G37*
G36*
X012073Y004925D02*
X011839Y005076D01*
X011843Y005083D01*
X012077Y004932D01*
X012073Y004925D01*
G37*
G36*
X012078Y004932D02*
X011844Y005083D01*
X011848Y005090D01*
X012082Y004939D01*
X012078Y004932D01*
G37*
G36*
X012082Y004938D02*
X011848Y005089D01*
X011852Y005096D01*
X012086Y004945D01*
X012082Y004938D01*
G37*
G36*
X012111Y004968D02*
X011877Y005119D01*
X011881Y005126D01*
X012115Y004975D01*
X012111Y004968D01*
G37*
G36*
X012115Y004974D02*
X011881Y005125D01*
X011885Y005132D01*
X012119Y004981D01*
X012115Y004974D01*
G37*
G36*
X012095Y004958D02*
X011861Y005109D01*
X011865Y005116D01*
X012099Y004965D01*
X012095Y004958D01*
G37*
G36*
X012086Y004945D02*
X011852Y005096D01*
X011856Y005103D01*
X012090Y004952D01*
X012086Y004945D01*
G37*
G36*
X009437Y004977D02*
X009203Y005128D01*
X009207Y005135D01*
X009441Y004984D01*
X009437Y004977D01*
G37*
G36*
X008061Y004431D02*
X007827Y004582D01*
X007831Y004589D01*
X008065Y004438D01*
X008061Y004431D01*
G37*
D45*
G36*
X008926Y003869D02*
X008491Y004151D01*
X008496Y004157D01*
X008931Y003875D01*
X008926Y003869D01*
G37*
D46*
G36*
X008937Y003871D02*
X008482Y004166D01*
X008487Y004173D01*
X008942Y003878D01*
X008937Y003871D01*
G37*
G36*
X009986Y004238D02*
X009531Y004533D01*
X009536Y004540D01*
X009991Y004245D01*
X009986Y004238D01*
G37*
G36*
X010756Y004836D02*
X010301Y005131D01*
X010306Y005138D01*
X010761Y004843D01*
X010756Y004836D01*
G37*
D47*
G36*
X011806Y004469D02*
X011344Y004768D01*
X011348Y004775D01*
X011810Y004476D01*
X011806Y004469D01*
G37*
G36*
X008942Y003878D02*
X008480Y004177D01*
X008484Y004184D01*
X008946Y003885D01*
X008942Y003878D01*
G37*
G36*
X008735Y004603D02*
X008273Y004902D01*
X008277Y004909D01*
X008739Y004610D01*
X008735Y004603D01*
G37*
D48*
G36*
X009430Y004247D02*
X009162Y004420D01*
X009166Y004427D01*
X009434Y004254D01*
X009430Y004247D01*
G37*
G36*
X009434Y004254D02*
X009166Y004427D01*
X009170Y004434D01*
X009438Y004261D01*
X009434Y004254D01*
G37*
G36*
X009796Y004238D02*
X009528Y004411D01*
X009532Y004418D01*
X009800Y004245D01*
X009796Y004238D01*
G37*
G36*
X010310Y004324D02*
X010042Y004497D01*
X010046Y004504D01*
X010314Y004331D01*
X010310Y004324D01*
G37*
G36*
X009437Y004920D02*
X009169Y005093D01*
X009173Y005100D01*
X009441Y004927D01*
X009437Y004920D01*
G37*
G36*
X009435Y004931D02*
X009167Y005104D01*
X009171Y005111D01*
X009439Y004938D01*
X009435Y004931D01*
G37*
G36*
X009439Y004937D02*
X009171Y005110D01*
X009175Y005117D01*
X009443Y004944D01*
X009439Y004937D01*
G37*
G36*
X008085Y004453D02*
X007817Y004626D01*
X007821Y004633D01*
X008089Y004460D01*
X008085Y004453D01*
G37*
G36*
X008081Y004446D02*
X007813Y004619D01*
X007817Y004626D01*
X008085Y004453D01*
X008081Y004446D01*
G37*
G36*
X011749Y004249D02*
X011481Y004422D01*
X011485Y004429D01*
X011753Y004256D01*
X011749Y004249D01*
G37*
D49*
G36*
X008953Y003880D02*
X008471Y004193D01*
X008475Y004200D01*
X008957Y003887D01*
X008953Y003880D01*
G37*
G36*
X008744Y004587D02*
X008262Y004900D01*
X008266Y004907D01*
X008748Y004594D01*
X008744Y004587D01*
G37*
D50*
G36*
X008754Y004572D02*
X008258Y004893D01*
X008262Y004900D01*
X008758Y004579D01*
X008754Y004572D01*
G37*
G36*
X008957Y003887D02*
X008461Y004208D01*
X008465Y004215D01*
X008961Y003894D01*
X008957Y003887D01*
G37*
D51*
G36*
X009440Y004279D02*
X009159Y004461D01*
X009164Y004467D01*
X009445Y004285D01*
X009440Y004279D01*
G37*
G36*
X009442Y004297D02*
X009161Y004479D01*
X009166Y004485D01*
X009447Y004303D01*
X009442Y004297D01*
G37*
G36*
X009442Y004325D02*
X009161Y004507D01*
X009166Y004513D01*
X009447Y004331D01*
X009442Y004325D01*
G37*
G36*
X009439Y004336D02*
X009158Y004518D01*
X009163Y004524D01*
X009444Y004342D01*
X009439Y004336D01*
G37*
G36*
X009441Y004354D02*
X009160Y004536D01*
X009165Y004542D01*
X009446Y004360D01*
X009441Y004354D01*
G37*
G36*
X009439Y004365D02*
X009158Y004547D01*
X009163Y004553D01*
X009444Y004371D01*
X009439Y004365D01*
G37*
G36*
X009441Y004383D02*
X009160Y004565D01*
X009165Y004571D01*
X009446Y004389D01*
X009441Y004383D01*
G37*
G36*
X009438Y004423D02*
X009157Y004605D01*
X009162Y004611D01*
X009443Y004429D01*
X009438Y004423D01*
G37*
G36*
X009443Y004430D02*
X009162Y004612D01*
X009167Y004618D01*
X009448Y004436D01*
X009443Y004430D01*
G37*
G36*
X009440Y004441D02*
X009159Y004623D01*
X009164Y004629D01*
X009445Y004447D01*
X009440Y004441D01*
G37*
G36*
X009442Y004459D02*
X009161Y004641D01*
X009166Y004647D01*
X009447Y004465D01*
X009442Y004459D01*
G37*
G36*
X009440Y004470D02*
X009159Y004652D01*
X009164Y004658D01*
X009445Y004476D01*
X009440Y004470D01*
G37*
G36*
X009442Y004487D02*
X009161Y004669D01*
X009166Y004675D01*
X009447Y004493D01*
X009442Y004487D01*
G37*
G36*
X009437Y004510D02*
X009156Y004692D01*
X009161Y004698D01*
X009442Y004516D01*
X009437Y004510D01*
G37*
G36*
X009442Y004516D02*
X009161Y004698D01*
X009166Y004704D01*
X009447Y004522D01*
X009442Y004516D01*
G37*
G36*
X009439Y004527D02*
X009158Y004709D01*
X009163Y004715D01*
X009444Y004533D01*
X009439Y004527D01*
G37*
G36*
X009441Y004545D02*
X009160Y004727D01*
X009165Y004733D01*
X009446Y004551D01*
X009441Y004545D01*
G37*
G36*
X009441Y004574D02*
X009160Y004756D01*
X009165Y004762D01*
X009446Y004580D01*
X009441Y004574D01*
G37*
G36*
X009439Y004585D02*
X009158Y004767D01*
X009163Y004773D01*
X009444Y004591D01*
X009439Y004585D01*
G37*
G36*
X009441Y004603D02*
X009160Y004785D01*
X009165Y004791D01*
X009446Y004609D01*
X009441Y004603D01*
G37*
G36*
X009438Y004614D02*
X009157Y004796D01*
X009162Y004802D01*
X009443Y004620D01*
X009438Y004614D01*
G37*
G36*
X009440Y004632D02*
X009159Y004814D01*
X009164Y004820D01*
X009445Y004638D01*
X009440Y004632D01*
G37*
G36*
X009440Y004660D02*
X009159Y004842D01*
X009164Y004848D01*
X009445Y004666D01*
X009440Y004660D01*
G37*
G36*
X009438Y004672D02*
X009157Y004854D01*
X009162Y004860D01*
X009443Y004678D01*
X009438Y004672D01*
G37*
G36*
X009440Y004689D02*
X009159Y004871D01*
X009164Y004877D01*
X009445Y004695D01*
X009440Y004689D01*
G37*
G36*
X009437Y004700D02*
X009156Y004882D01*
X009161Y004888D01*
X009442Y004706D01*
X009437Y004700D01*
G37*
G36*
X009442Y004707D02*
X009161Y004889D01*
X009166Y004895D01*
X009447Y004713D01*
X009442Y004707D01*
G37*
G36*
X009439Y004718D02*
X009158Y004900D01*
X009163Y004906D01*
X009444Y004724D01*
X009439Y004718D01*
G37*
G36*
X009436Y004758D02*
X009155Y004940D01*
X009160Y004946D01*
X009441Y004764D01*
X009436Y004758D01*
G37*
G36*
X009441Y004765D02*
X009160Y004947D01*
X009165Y004953D01*
X009446Y004771D01*
X009441Y004765D01*
G37*
G36*
X009438Y004776D02*
X009157Y004958D01*
X009162Y004964D01*
X009443Y004782D01*
X009438Y004776D01*
G37*
G36*
X009440Y004794D02*
X009159Y004976D01*
X009164Y004982D01*
X009445Y004800D01*
X009440Y004794D01*
G37*
G36*
X009438Y004805D02*
X009157Y004987D01*
X009162Y004993D01*
X009443Y004811D01*
X009438Y004805D01*
G37*
G36*
X009440Y004822D02*
X009159Y005004D01*
X009164Y005010D01*
X009445Y004828D01*
X009440Y004822D01*
G37*
G36*
X009440Y004851D02*
X009159Y005033D01*
X009164Y005039D01*
X009445Y004857D01*
X009440Y004851D01*
G37*
G36*
X009437Y004862D02*
X009156Y005044D01*
X009161Y005050D01*
X009442Y004868D01*
X009437Y004862D01*
G37*
G36*
X009439Y004880D02*
X009158Y005062D01*
X009163Y005068D01*
X009444Y004886D01*
X009439Y004880D01*
G37*
G36*
X009847Y004949D02*
X009566Y005131D01*
X009571Y005137D01*
X009852Y004955D01*
X009847Y004949D01*
G37*
G36*
X008922Y004920D02*
X008641Y005102D01*
X008646Y005108D01*
X008927Y004926D01*
X008922Y004920D01*
G37*
G36*
X008834Y004873D02*
X008553Y005055D01*
X008558Y005061D01*
X008839Y004879D01*
X008834Y004873D01*
G37*
G36*
X008684Y004789D02*
X008403Y004971D01*
X008408Y004977D01*
X008689Y004795D01*
X008684Y004789D01*
G37*
G36*
X008095Y004456D02*
X007814Y004638D01*
X007819Y004644D01*
X008100Y004462D01*
X008095Y004456D01*
G37*
G36*
X011032Y004953D02*
X010751Y005135D01*
X010756Y005141D01*
X011037Y004959D01*
X011032Y004953D01*
G37*
G36*
X011766Y004247D02*
X011485Y004429D01*
X011490Y004435D01*
X011771Y004253D01*
X011766Y004247D01*
G37*
D52*
G36*
X008968Y003889D02*
X008439Y004232D01*
X008444Y004239D01*
X008973Y003896D01*
X008968Y003889D01*
G37*
D53*
G36*
X008665Y004772D02*
X008377Y004959D01*
X008381Y004966D01*
X008669Y004779D01*
X008665Y004772D01*
G37*
G36*
X008738Y004811D02*
X008450Y004998D01*
X008454Y005005D01*
X008742Y004818D01*
X008738Y004811D01*
G37*
G36*
X008826Y004859D02*
X008538Y005046D01*
X008542Y005053D01*
X008830Y004866D01*
X008826Y004859D01*
G37*
G36*
X008918Y004913D02*
X008630Y005100D01*
X008634Y005107D01*
X008922Y004920D01*
X008918Y004913D01*
G37*
G36*
X008934Y004922D02*
X008646Y005109D01*
X008650Y005116D01*
X008938Y004929D01*
X008934Y004922D01*
G37*
G36*
X008938Y004929D02*
X008650Y005116D01*
X008654Y005123D01*
X008942Y004936D01*
X008938Y004929D01*
G37*
G36*
X008907Y004911D02*
X008619Y005098D01*
X008623Y005105D01*
X008911Y004918D01*
X008907Y004911D01*
G37*
G36*
X008861Y004883D02*
X008573Y005070D01*
X008577Y005077D01*
X008865Y004890D01*
X008861Y004883D01*
G37*
G36*
X008857Y004877D02*
X008569Y005064D01*
X008573Y005071D01*
X008861Y004884D01*
X008857Y004877D01*
G37*
G36*
X008845Y004874D02*
X008557Y005061D01*
X008561Y005068D01*
X008849Y004881D01*
X008845Y004874D01*
G37*
G36*
X008830Y004865D02*
X008542Y005052D01*
X008546Y005059D01*
X008834Y004872D01*
X008830Y004865D01*
G37*
G36*
X008815Y004856D02*
X008527Y005043D01*
X008531Y005050D01*
X008819Y004863D01*
X008815Y004856D01*
G37*
G36*
X008784Y004838D02*
X008496Y005025D01*
X008500Y005032D01*
X008788Y004845D01*
X008784Y004838D01*
G37*
G36*
X008773Y004836D02*
X008485Y005023D01*
X008489Y005030D01*
X008777Y004843D01*
X008773Y004836D01*
G37*
G36*
X008768Y004829D02*
X008480Y005016D01*
X008484Y005023D01*
X008772Y004836D01*
X008768Y004829D01*
G37*
G36*
X008757Y004827D02*
X008469Y005014D01*
X008473Y005021D01*
X008761Y004834D01*
X008757Y004827D01*
G37*
G36*
X008753Y004820D02*
X008465Y005007D01*
X008469Y005014D01*
X008757Y004827D01*
X008753Y004820D01*
G37*
G36*
X008742Y004818D02*
X008454Y005005D01*
X008458Y005012D01*
X008746Y004825D01*
X008742Y004818D01*
G37*
G36*
X008696Y004790D02*
X008408Y004977D01*
X008412Y004984D01*
X008700Y004797D01*
X008696Y004790D01*
G37*
G36*
X008680Y004781D02*
X008392Y004968D01*
X008396Y004975D01*
X008684Y004788D01*
X008680Y004781D01*
G37*
G36*
X008250Y004545D02*
X007962Y004732D01*
X007966Y004739D01*
X008254Y004552D01*
X008250Y004545D01*
G37*
G36*
X008246Y004539D02*
X007958Y004726D01*
X007962Y004733D01*
X008250Y004546D01*
X008246Y004539D01*
G37*
G36*
X008235Y004536D02*
X007947Y004723D01*
X007951Y004730D01*
X008239Y004543D01*
X008235Y004536D01*
G37*
G36*
X008231Y004530D02*
X007943Y004717D01*
X007947Y004724D01*
X008235Y004537D01*
X008231Y004530D01*
G37*
G36*
X008219Y004527D02*
X007931Y004714D01*
X007935Y004721D01*
X008223Y004534D01*
X008219Y004527D01*
G37*
G36*
X008215Y004521D02*
X007927Y004708D01*
X007931Y004715D01*
X008219Y004528D01*
X008215Y004521D01*
G37*
G36*
X008189Y004509D02*
X007901Y004696D01*
X007905Y004703D01*
X008193Y004516D01*
X008189Y004509D01*
G37*
G36*
X008184Y004502D02*
X007896Y004689D01*
X007900Y004696D01*
X008188Y004509D01*
X008184Y004502D01*
G37*
G36*
X008173Y004500D02*
X007885Y004687D01*
X007889Y004694D01*
X008177Y004507D01*
X008173Y004500D01*
G37*
G36*
X008162Y004498D02*
X007874Y004685D01*
X007878Y004692D01*
X008166Y004505D01*
X008162Y004498D01*
G37*
G36*
X008158Y004491D02*
X007870Y004678D01*
X007874Y004685D01*
X008162Y004498D01*
X008158Y004491D01*
G37*
G36*
X008147Y004489D02*
X007859Y004676D01*
X007863Y004683D01*
X008151Y004496D01*
X008147Y004489D01*
G37*
G36*
X008142Y004482D02*
X007854Y004669D01*
X007858Y004676D01*
X008146Y004489D01*
X008142Y004482D01*
G37*
G36*
X008112Y004464D02*
X007824Y004651D01*
X007828Y004658D01*
X008116Y004471D01*
X008112Y004464D01*
G37*
G36*
X008100Y004462D02*
X007812Y004649D01*
X007816Y004656D01*
X008104Y004469D01*
X008100Y004462D01*
G37*
G36*
X009843Y004942D02*
X009555Y005129D01*
X009559Y005136D01*
X009847Y004949D01*
X009843Y004942D01*
G37*
G36*
X011028Y004945D02*
X010740Y005132D01*
X010744Y005139D01*
X011032Y004952D01*
X011028Y004945D01*
G37*
D54*
G36*
X010761Y004785D02*
X010225Y005132D01*
X010229Y005139D01*
X010765Y004792D01*
X010761Y004785D01*
G37*
G36*
X008973Y003896D02*
X008437Y004243D01*
X008441Y004250D01*
X008977Y003903D01*
X008973Y003896D01*
G37*
D55*
G36*
X008983Y003898D02*
X008434Y004254D01*
X008439Y004260D01*
X008988Y003904D01*
X008983Y003898D01*
G37*
G36*
X011807Y004516D02*
X011258Y004872D01*
X011263Y004878D01*
X011812Y004522D01*
X011807Y004516D01*
G37*
D56*
G36*
X010761Y004756D02*
X010192Y005125D01*
X010197Y005132D01*
X010766Y004763D01*
X010761Y004756D01*
G37*
G36*
X008994Y003900D02*
X008425Y004269D01*
X008430Y004276D01*
X008999Y003907D01*
X008994Y003900D01*
G37*
D57*
G36*
X008654Y004770D02*
X008366Y004957D01*
X008370Y004964D01*
X008658Y004777D01*
X008654Y004770D01*
G37*
G36*
X008726Y004809D02*
X008438Y004996D01*
X008442Y005003D01*
X008730Y004816D01*
X008726Y004809D01*
G37*
G36*
X008876Y004892D02*
X008588Y005079D01*
X008592Y005086D01*
X008880Y004899D01*
X008876Y004892D01*
G37*
G36*
X008949Y004931D02*
X008661Y005118D01*
X008665Y005125D01*
X008953Y004938D01*
X008949Y004931D01*
G37*
G36*
X008953Y004938D02*
X008665Y005125D01*
X008669Y005132D01*
X008957Y004945D01*
X008953Y004938D01*
G37*
G36*
X008204Y004518D02*
X007916Y004705D01*
X007920Y004712D01*
X008208Y004525D01*
X008204Y004518D01*
G37*
G36*
X008200Y004512D02*
X007912Y004699D01*
X007916Y004706D01*
X008204Y004519D01*
X008200Y004512D01*
G37*
G36*
X008127Y004473D02*
X007839Y004660D01*
X007843Y004667D01*
X008131Y004480D01*
X008127Y004473D01*
G37*
G36*
X010312Y004313D02*
X010024Y004500D01*
X010028Y004507D01*
X010316Y004320D01*
X010312Y004313D01*
G37*
D58*
G36*
X010102Y004240D02*
X009526Y004614D01*
X009530Y004620D01*
X010106Y004246D01*
X010102Y004240D01*
G37*
G36*
X010757Y004749D02*
X010181Y005123D01*
X010185Y005129D01*
X010761Y004755D01*
X010757Y004749D01*
G37*
G36*
X008999Y003907D02*
X008423Y004281D01*
X008427Y004287D01*
X009003Y003913D01*
X008999Y003907D01*
G37*
G36*
X008792Y004499D02*
X008216Y004873D01*
X008220Y004879D01*
X008796Y004505D01*
X008792Y004499D01*
G37*
D59*
G36*
X008810Y004468D02*
X008200Y004863D01*
X008204Y004870D01*
X008814Y004475D01*
X008810Y004468D01*
G37*
G36*
X009010Y003909D02*
X008400Y004304D01*
X008404Y004311D01*
X009014Y003916D01*
X009010Y003909D01*
G37*
G36*
X010142Y004243D02*
X009532Y004638D01*
X009536Y004645D01*
X010146Y004250D01*
X010142Y004243D01*
G37*
G36*
X011807Y004544D02*
X011197Y004939D01*
X011201Y004946D01*
X011811Y004551D01*
X011807Y004544D01*
G37*
D60*
G36*
X009014Y003917D02*
X008391Y004321D01*
X008396Y004327D01*
X009019Y003923D01*
X009014Y003917D01*
G37*
D61*
G36*
X009025Y003918D02*
X008382Y004335D01*
X008387Y004342D01*
X009030Y003925D01*
X009025Y003918D01*
G37*
D62*
G36*
X009030Y003925D02*
X008380Y004346D01*
X008384Y004353D01*
X009034Y003932D01*
X009030Y003925D01*
G37*
G36*
X008831Y004427D02*
X008181Y004848D01*
X008185Y004855D01*
X008835Y004434D01*
X008831Y004427D01*
G37*
G36*
X010178Y004239D02*
X009528Y004660D01*
X009532Y004667D01*
X010182Y004246D01*
X010178Y004239D01*
G37*
G36*
X011809Y004562D02*
X011159Y004983D01*
X011163Y004990D01*
X011813Y004569D01*
X011809Y004562D01*
G37*
D63*
G36*
X011806Y004574D02*
X011150Y005000D01*
X011154Y005006D01*
X011810Y004580D01*
X011806Y004574D01*
G37*
G36*
X010188Y004241D02*
X009532Y004667D01*
X009536Y004673D01*
X010192Y004247D01*
X010188Y004241D01*
G37*
G36*
X009034Y003932D02*
X008378Y004358D01*
X008382Y004364D01*
X009038Y003938D01*
X009034Y003932D01*
G37*
D64*
G36*
X009045Y003934D02*
X008375Y004369D01*
X008379Y004376D01*
X009049Y003941D01*
X009045Y003934D01*
G37*
G36*
X008840Y004411D02*
X008170Y004846D01*
X008174Y004853D01*
X008844Y004418D01*
X008840Y004411D01*
G37*
D65*
G36*
X009056Y003936D02*
X008352Y004393D01*
X008356Y004400D01*
X009060Y003943D01*
X009056Y003936D01*
G37*
G36*
X011866Y004678D02*
X011162Y005135D01*
X011166Y005142D01*
X011870Y004685D01*
X011866Y004678D01*
G37*
D66*
G36*
X011861Y004671D02*
X011144Y005136D01*
X011149Y005143D01*
X011866Y004678D01*
X011861Y004671D01*
G37*
G36*
X010246Y004241D02*
X009529Y004706D01*
X009534Y004713D01*
X010251Y004248D01*
X010246Y004241D01*
G37*
G36*
X009060Y003943D02*
X008343Y004408D01*
X008348Y004415D01*
X009065Y003950D01*
X009060Y003943D01*
G37*
D67*
G36*
X009071Y003946D02*
X008334Y004424D01*
X008339Y004430D01*
X009076Y003952D01*
X009071Y003946D01*
G37*
G36*
X011852Y004659D02*
X011115Y005137D01*
X011120Y005143D01*
X011857Y004665D01*
X011852Y004659D01*
G37*
D68*
G36*
X011843Y004645D02*
X011093Y005132D01*
X011097Y005139D01*
X011847Y004652D01*
X011843Y004645D01*
G37*
G36*
X011839Y004638D02*
X011089Y005125D01*
X011093Y005132D01*
X011843Y004645D01*
X011839Y004638D01*
G37*
G36*
X011819Y004622D02*
X011069Y005109D01*
X011073Y005116D01*
X011823Y004629D01*
X011819Y004622D01*
G37*
G36*
X009076Y003952D02*
X008326Y004439D01*
X008330Y004446D01*
X009080Y003959D01*
X009076Y003952D01*
G37*
G36*
X008878Y004338D02*
X008128Y004825D01*
X008132Y004832D01*
X008882Y004345D01*
X008878Y004338D01*
G37*
D69*
G36*
X009074Y003963D02*
X008330Y004446D01*
X008334Y004453D01*
X009078Y003970D01*
X009074Y003963D01*
G37*
G36*
X008883Y004345D02*
X008139Y004828D01*
X008143Y004835D01*
X008887Y004352D01*
X008883Y004345D01*
G37*
G36*
X011815Y004615D02*
X011071Y005098D01*
X011075Y005105D01*
X011819Y004622D01*
X011815Y004615D01*
G37*
G36*
X011848Y004651D02*
X011104Y005134D01*
X011108Y005141D01*
X011852Y004658D01*
X011848Y004651D01*
G37*
G36*
X011828Y004635D02*
X011084Y005118D01*
X011088Y005125D01*
X011832Y004642D01*
X011828Y004635D01*
G37*
G36*
X011824Y004629D02*
X011080Y005112D01*
X011084Y005119D01*
X011828Y004636D01*
X011824Y004629D01*
G37*
D70*
G36*
X009078Y003970D02*
X008314Y004466D01*
X008318Y004472D01*
X009082Y003976D01*
X009078Y003970D01*
G37*
D71*
G36*
X009082Y003976D02*
X008305Y004481D01*
X008310Y004488D01*
X009087Y003983D01*
X009082Y003976D01*
G37*
G36*
X009073Y003992D02*
X008296Y004497D01*
X008301Y004504D01*
X009078Y003999D01*
X009073Y003992D01*
G37*
G36*
X009064Y004007D02*
X008287Y004512D01*
X008292Y004519D01*
X009069Y004014D01*
X009064Y004007D01*
G37*
G36*
X009055Y004023D02*
X008278Y004528D01*
X008283Y004535D01*
X009060Y004030D01*
X009055Y004023D01*
G37*
D72*
G36*
X008651Y004753D02*
X008350Y004948D01*
X008355Y004955D01*
X008656Y004760D01*
X008651Y004753D01*
G37*
G36*
X008267Y004544D02*
X007966Y004739D01*
X007971Y004746D01*
X008272Y004551D01*
X008267Y004544D01*
G37*
G36*
X009847Y004920D02*
X009546Y005115D01*
X009551Y005122D01*
X009852Y004927D01*
X009847Y004920D01*
G37*
G36*
X010314Y004302D02*
X010013Y004497D01*
X010018Y004504D01*
X010319Y004309D01*
X010314Y004302D01*
G37*
G36*
X010743Y004243D02*
X010442Y004438D01*
X010447Y004445D01*
X010748Y004250D01*
X010743Y004243D01*
G37*
G36*
X011023Y004939D02*
X010722Y005134D01*
X010727Y005141D01*
X011028Y004946D01*
X011023Y004939D01*
G37*
G36*
X011578Y004941D02*
X011277Y005136D01*
X011282Y005143D01*
X011583Y004948D01*
X011578Y004941D01*
G37*
G36*
X011788Y004251D02*
X011487Y004446D01*
X011492Y004453D01*
X011793Y004258D01*
X011788Y004251D01*
G37*
G36*
X011784Y004244D02*
X011483Y004439D01*
X011488Y004446D01*
X011789Y004251D01*
X011784Y004244D01*
G37*
D73*
G36*
X009060Y004029D02*
X008276Y004538D01*
X008280Y004545D01*
X009064Y004036D01*
X009060Y004029D01*
G37*
G36*
X008896Y004307D02*
X008112Y004816D01*
X008116Y004823D01*
X008900Y004314D01*
X008896Y004307D01*
G37*
D74*
G36*
X009051Y004045D02*
X007985Y004737D01*
X007989Y004743D01*
X009055Y004051D01*
X009051Y004045D01*
G37*
D75*
G36*
X009041Y004060D02*
X007989Y004743D01*
X007993Y004750D01*
X009045Y004067D01*
X009041Y004060D01*
G37*
D76*
G36*
X009026Y004081D02*
X008000Y004746D01*
X008004Y004753D01*
X009030Y004088D01*
X009026Y004081D01*
G37*
D77*
G36*
X009017Y004096D02*
X008005Y004753D01*
X008009Y004760D01*
X009021Y004103D01*
X009017Y004096D01*
G37*
D78*
G36*
X009008Y004112D02*
X008016Y004756D01*
X008020Y004762D01*
X009012Y004118D01*
X009008Y004112D01*
G37*
D79*
G36*
X008998Y004127D02*
X008020Y004762D01*
X008024Y004769D01*
X009002Y004134D01*
X008998Y004127D01*
G37*
D80*
G36*
X009003Y004133D02*
X008031Y004764D01*
X008035Y004771D01*
X009007Y004140D01*
X009003Y004133D01*
G37*
D81*
G36*
X008994Y004149D02*
X008036Y004771D01*
X008040Y004777D01*
X008998Y004155D01*
X008994Y004149D01*
G37*
D82*
G36*
X008978Y004168D02*
X008040Y004777D01*
X008044Y004784D01*
X008982Y004175D01*
X008978Y004168D01*
G37*
D83*
G36*
X008969Y004184D02*
X008051Y004780D01*
X008055Y004786D01*
X008973Y004190D01*
X008969Y004184D01*
G37*
D84*
G36*
X008959Y004199D02*
X008054Y004786D01*
X008059Y004793D01*
X008964Y004206D01*
X008959Y004199D01*
G37*
D85*
G36*
X008950Y004215D02*
X008066Y004789D01*
X008070Y004795D01*
X008954Y004221D01*
X008950Y004215D01*
G37*
D86*
G36*
X008935Y004234D02*
X008077Y004791D01*
X008081Y004798D01*
X008939Y004241D01*
X008935Y004234D01*
G37*
D87*
G36*
X008926Y004250D02*
X008088Y004793D01*
X008092Y004800D01*
X008930Y004257D01*
X008926Y004250D01*
G37*
G36*
X008931Y004257D02*
X008093Y004800D01*
X008097Y004807D01*
X008935Y004264D01*
X008931Y004257D01*
G37*
D88*
G36*
X008922Y004272D02*
X008104Y004803D01*
X008108Y004810D01*
X008926Y004279D01*
X008922Y004272D01*
G37*
D89*
G36*
X008912Y004288D02*
X008108Y004810D01*
X008112Y004816D01*
X008916Y004294D01*
X008912Y004288D01*
G37*
D90*
G36*
X008887Y004323D02*
X008123Y004819D01*
X008127Y004825D01*
X008891Y004329D01*
X008887Y004323D01*
G37*
D91*
G36*
X008873Y004361D02*
X008143Y004835D01*
X008147Y004841D01*
X008877Y004367D01*
X008873Y004361D01*
G37*
D92*
G36*
X008864Y004376D02*
X008154Y004837D01*
X008158Y004844D01*
X008868Y004383D01*
X008864Y004376D01*
G37*
G36*
X010235Y004239D02*
X009525Y004700D01*
X009529Y004707D01*
X010239Y004246D01*
X010235Y004239D01*
G37*
G36*
X011806Y004602D02*
X011096Y005063D01*
X011100Y005070D01*
X011810Y004609D01*
X011806Y004602D01*
G37*
D93*
G36*
X011809Y004591D02*
X011119Y005039D01*
X011123Y005045D01*
X011813Y004597D01*
X011809Y004591D01*
G37*
G36*
X008849Y004396D02*
X008159Y004844D01*
X008163Y004850D01*
X008853Y004402D01*
X008849Y004396D01*
G37*
D94*
G36*
X008822Y004441D02*
X008192Y004850D01*
X008196Y004857D01*
X008826Y004448D01*
X008822Y004441D01*
G37*
G36*
X008826Y004448D02*
X008196Y004857D01*
X008200Y004864D01*
X008830Y004455D01*
X008826Y004448D01*
G37*
D95*
G36*
X008801Y004483D02*
X008211Y004866D01*
X008215Y004873D01*
X008805Y004490D01*
X008801Y004483D01*
G37*
D96*
G36*
X009195Y004237D02*
X009169Y004254D01*
X009173Y004261D01*
X009199Y004244D01*
X009195Y004237D01*
G37*
G36*
X011518Y004245D02*
X011492Y004262D01*
X011496Y004269D01*
X011522Y004252D01*
X011518Y004245D01*
G37*
D97*
G36*
X010084Y004241D02*
X009528Y004602D01*
X009532Y004609D01*
X010088Y004248D01*
X010084Y004241D01*
G37*
G36*
X008783Y004514D02*
X008227Y004875D01*
X008231Y004882D01*
X008787Y004521D01*
X008783Y004514D01*
G37*
D98*
G36*
X009212Y004236D02*
X009173Y004261D01*
X009178Y004268D01*
X009217Y004243D01*
X009212Y004236D01*
G37*
G36*
X008845Y005170D02*
X008806Y005195D01*
X008811Y005202D01*
X008850Y005177D01*
X008845Y005170D01*
G37*
G36*
X009843Y005104D02*
X009804Y005129D01*
X009809Y005136D01*
X009848Y005111D01*
X009843Y005104D01*
G37*
G36*
X010312Y004475D02*
X010273Y004500D01*
X010278Y004507D01*
X010317Y004482D01*
X010312Y004475D01*
G37*
G36*
X010483Y004240D02*
X010444Y004265D01*
X010449Y004272D01*
X010488Y004247D01*
X010483Y004240D01*
G37*
G36*
X012206Y005115D02*
X012167Y005140D01*
X012172Y005147D01*
X012211Y005122D01*
X012206Y005115D01*
G37*
D99*
G36*
X010757Y004778D02*
X010215Y005130D01*
X010219Y005136D01*
X010761Y004784D01*
X010757Y004778D01*
G37*
G36*
X010073Y004240D02*
X009531Y004592D01*
X009535Y004598D01*
X010077Y004246D01*
X010073Y004240D01*
G37*
G36*
X008774Y004530D02*
X008232Y004882D01*
X008236Y004888D01*
X008778Y004536D01*
X008774Y004530D01*
G37*
D100*
G36*
X008765Y004545D02*
X008243Y004884D01*
X008247Y004891D01*
X008769Y004552D01*
X008765Y004545D01*
G37*
G36*
X010055Y004241D02*
X009533Y004580D01*
X009537Y004587D01*
X010059Y004248D01*
X010055Y004241D01*
G37*
D101*
G36*
X010045Y004239D02*
X009529Y004574D01*
X009533Y004581D01*
X010049Y004246D01*
X010045Y004239D01*
G37*
G36*
X010759Y004795D02*
X010243Y005130D01*
X010247Y005137D01*
X010763Y004802D01*
X010759Y004795D01*
G37*
G36*
X011806Y004497D02*
X011290Y004832D01*
X011294Y004839D01*
X011810Y004504D01*
X011806Y004497D01*
G37*
G36*
X008763Y004556D02*
X008247Y004891D01*
X008251Y004898D01*
X008767Y004563D01*
X008763Y004556D01*
G37*
D102*
G36*
X008875Y005112D02*
X008769Y005181D01*
X008773Y005188D01*
X008879Y005119D01*
X008875Y005112D01*
G37*
G36*
X009270Y004236D02*
X009164Y004305D01*
X009168Y004312D01*
X009274Y004243D01*
X009270Y004236D01*
G37*
G36*
X009634Y004238D02*
X009528Y004307D01*
X009532Y004314D01*
X009638Y004245D01*
X009634Y004238D01*
G37*
G36*
X010552Y004243D02*
X010446Y004312D01*
X010450Y004319D01*
X010556Y004250D01*
X010552Y004243D01*
G37*
G36*
X011031Y005067D02*
X010925Y005136D01*
X010929Y005143D01*
X011035Y005074D01*
X011031Y005067D01*
G37*
G36*
X012187Y005070D02*
X012081Y005139D01*
X012085Y005146D01*
X012191Y005077D01*
X012187Y005070D01*
G37*
D103*
G36*
X009848Y005053D02*
X009728Y005130D01*
X009732Y005137D01*
X009852Y005060D01*
X009848Y005053D01*
G37*
G36*
X009438Y005053D02*
X009318Y005130D01*
X009322Y005137D01*
X009442Y005060D01*
X009438Y005053D01*
G37*
G36*
X008885Y005097D02*
X008765Y005174D01*
X008769Y005181D01*
X008889Y005104D01*
X008885Y005097D01*
G37*
G36*
X009281Y004239D02*
X009161Y004316D01*
X009165Y004323D01*
X009285Y004246D01*
X009281Y004239D01*
G37*
G36*
X009652Y004237D02*
X009532Y004314D01*
X009536Y004321D01*
X009656Y004244D01*
X009652Y004237D01*
G37*
D104*
G36*
X010760Y004842D02*
X010312Y005133D01*
X010316Y005140D01*
X010764Y004849D01*
X010760Y004842D01*
G37*
G36*
X011808Y004458D02*
X011360Y004749D01*
X011364Y004756D01*
X011812Y004465D01*
X011808Y004458D01*
G37*
G36*
X008726Y004618D02*
X008278Y004909D01*
X008282Y004916D01*
X008730Y004625D01*
X008726Y004618D01*
G37*
D105*
G36*
X008717Y004634D02*
X008289Y004912D01*
X008293Y004918D01*
X008721Y004640D01*
X008717Y004634D01*
G37*
G36*
X009958Y004238D02*
X009530Y004516D01*
X009534Y004522D01*
X009962Y004244D01*
X009958Y004238D01*
G37*
G36*
X010758Y004854D02*
X010330Y005132D01*
X010334Y005138D01*
X010762Y004860D01*
X010758Y004854D01*
G37*
G36*
X011648Y004858D02*
X011220Y005136D01*
X011224Y005142D01*
X011652Y004864D01*
X011648Y004858D01*
G37*
G36*
X011810Y004447D02*
X011382Y004725D01*
X011386Y004731D01*
X011814Y004453D01*
X011810Y004447D01*
G37*
D106*
G36*
X009328Y004237D02*
X009168Y004340D01*
X009172Y004347D01*
X009332Y004244D01*
X009328Y004237D01*
G37*
D107*
G36*
X008708Y004649D02*
X008293Y004918D01*
X008298Y004925D01*
X008713Y004656D01*
X008708Y004649D01*
G37*
G36*
X010755Y004864D02*
X010340Y005133D01*
X010345Y005140D01*
X010760Y004871D01*
X010755Y004864D01*
G37*
D108*
G36*
X010628Y004242D02*
X010441Y004363D01*
X010446Y004370D01*
X010633Y004249D01*
X010628Y004242D01*
G37*
G36*
X009846Y005007D02*
X009659Y005128D01*
X009664Y005135D01*
X009851Y005014D01*
X009846Y005007D01*
G37*
G36*
X009436Y005006D02*
X009249Y005127D01*
X009254Y005134D01*
X009441Y005013D01*
X009436Y005006D01*
G37*
G36*
X009345Y004235D02*
X009158Y004356D01*
X009163Y004363D01*
X009350Y004242D01*
X009345Y004235D01*
G37*
D109*
G36*
X009357Y004238D02*
X009163Y004363D01*
X009167Y004370D01*
X009361Y004245D01*
X009357Y004238D01*
G37*
G36*
X009721Y004240D02*
X009527Y004365D01*
X009531Y004372D01*
X009725Y004247D01*
X009721Y004240D01*
G37*
G36*
X011032Y005010D02*
X010838Y005135D01*
X010842Y005142D01*
X011036Y005017D01*
X011032Y005010D01*
G37*
D110*
G36*
X010302Y004253D02*
X009920Y004500D01*
X009924Y004507D01*
X010306Y004260D01*
X010302Y004253D01*
G37*
G36*
X009912Y004240D02*
X009530Y004487D01*
X009534Y004494D01*
X009916Y004247D01*
X009912Y004240D01*
G37*
G36*
X008697Y004676D02*
X008315Y004923D01*
X008319Y004930D01*
X008701Y004683D01*
X008697Y004676D01*
G37*
D111*
G36*
X008932Y005009D02*
X008712Y005152D01*
X008716Y005159D01*
X008936Y005016D01*
X008932Y005009D01*
G37*
G36*
X009385Y004238D02*
X009165Y004381D01*
X009169Y004388D01*
X009389Y004245D01*
X009385Y004238D01*
G37*
G36*
X009749Y004240D02*
X009529Y004383D01*
X009533Y004390D01*
X009753Y004247D01*
X009749Y004240D01*
G37*
G36*
X010387Y004913D02*
X010167Y005056D01*
X010171Y005063D01*
X010391Y004920D01*
X010387Y004913D01*
G37*
G36*
X011029Y004992D02*
X010809Y005135D01*
X010813Y005142D01*
X011033Y004999D01*
X011029Y004992D01*
G37*
G36*
X011889Y004700D02*
X011669Y004843D01*
X011673Y004850D01*
X011893Y004707D01*
X011889Y004700D01*
G37*
G36*
X011902Y004721D02*
X011682Y004864D01*
X011686Y004871D01*
X011906Y004728D01*
X011902Y004721D01*
G37*
G36*
X011907Y004727D02*
X011687Y004870D01*
X011691Y004877D01*
X011911Y004734D01*
X011907Y004727D01*
G37*
G36*
X011924Y004754D02*
X011704Y004897D01*
X011708Y004904D01*
X011928Y004761D01*
X011924Y004754D01*
G37*
G36*
X011990Y004826D02*
X011770Y004969D01*
X011774Y004976D01*
X011994Y004833D01*
X011990Y004826D01*
G37*
G36*
X011994Y004833D02*
X011774Y004976D01*
X011778Y004983D01*
X011998Y004840D01*
X011994Y004833D01*
G37*
G36*
X011999Y004839D02*
X011779Y004982D01*
X011783Y004989D01*
X012003Y004846D01*
X011999Y004839D01*
G37*
G36*
X012007Y004853D02*
X011787Y004996D01*
X011791Y005003D01*
X012011Y004860D01*
X012007Y004853D01*
G37*
G36*
X012012Y004859D02*
X011792Y005002D01*
X011796Y005009D01*
X012016Y004866D01*
X012012Y004859D01*
G37*
G36*
X012016Y004866D02*
X011796Y005009D01*
X011800Y005016D01*
X012020Y004873D01*
X012016Y004866D01*
G37*
G36*
X012117Y004992D02*
X011897Y005135D01*
X011901Y005142D01*
X012121Y004999D01*
X012117Y004992D01*
G37*
G36*
X012128Y004994D02*
X011908Y005137D01*
X011912Y005144D01*
X012132Y005001D01*
X012128Y004994D01*
G37*
D112*
G36*
X010315Y004274D02*
X009967Y004499D01*
X009971Y004506D01*
X010319Y004281D01*
X010315Y004274D01*
G37*
G36*
X008679Y004707D02*
X008331Y004932D01*
X008335Y004939D01*
X008683Y004714D01*
X008679Y004707D01*
G37*
D113*
G36*
X008948Y004990D02*
X008708Y005146D01*
X008712Y005152D01*
X008952Y004996D01*
X008948Y004990D01*
G37*
G36*
X009403Y004236D02*
X009163Y004392D01*
X009167Y004398D01*
X009407Y004242D01*
X009403Y004236D01*
G37*
G36*
X010311Y004342D02*
X010071Y004498D01*
X010075Y004504D01*
X010315Y004348D01*
X010311Y004342D01*
G37*
G36*
X010685Y004243D02*
X010445Y004399D01*
X010449Y004405D01*
X010689Y004249D01*
X010685Y004243D01*
G37*
G36*
X011546Y004981D02*
X011306Y005137D01*
X011310Y005143D01*
X011550Y004987D01*
X011546Y004981D01*
G37*
G36*
X011719Y004248D02*
X011479Y004404D01*
X011483Y004410D01*
X011723Y004254D01*
X011719Y004248D01*
G37*
D114*
G36*
X011811Y004389D02*
X011477Y004606D01*
X011481Y004613D01*
X011815Y004396D01*
X011811Y004389D01*
G37*
G36*
X011809Y004400D02*
X011475Y004617D01*
X011479Y004624D01*
X011813Y004407D01*
X011809Y004400D01*
G37*
G36*
X011010Y004918D02*
X010676Y005135D01*
X010680Y005142D01*
X011014Y004925D01*
X011010Y004918D01*
G37*
G36*
X010999Y004916D02*
X010665Y005133D01*
X010669Y005140D01*
X011003Y004923D01*
X010999Y004916D01*
G37*
G36*
X010970Y004916D02*
X010636Y005133D01*
X010640Y005140D01*
X010974Y004923D01*
X010970Y004916D01*
G37*
G36*
X010941Y004915D02*
X010607Y005132D01*
X010611Y005139D01*
X010945Y004922D01*
X010941Y004915D01*
G37*
G36*
X010913Y004915D02*
X010579Y005132D01*
X010583Y005139D01*
X010917Y004922D01*
X010913Y004915D01*
G37*
G36*
X010895Y004917D02*
X010561Y005134D01*
X010565Y005141D01*
X010899Y004924D01*
X010895Y004917D01*
G37*
G36*
X010884Y004915D02*
X010550Y005132D01*
X010554Y005139D01*
X010888Y004922D01*
X010884Y004915D01*
G37*
G36*
X010866Y004917D02*
X010532Y005134D01*
X010536Y005141D01*
X010870Y004924D01*
X010866Y004917D01*
G37*
G36*
X010855Y004914D02*
X010521Y005131D01*
X010525Y005138D01*
X010859Y004921D01*
X010855Y004914D01*
G37*
G36*
X010837Y004916D02*
X010503Y005133D01*
X010507Y005140D01*
X010841Y004923D01*
X010837Y004916D01*
G37*
G36*
X010826Y004914D02*
X010492Y005131D01*
X010496Y005138D01*
X010830Y004921D01*
X010826Y004914D01*
G37*
G36*
X010808Y004916D02*
X010474Y005133D01*
X010478Y005140D01*
X010812Y004923D01*
X010808Y004916D01*
G37*
G36*
X010797Y004914D02*
X010463Y005131D01*
X010467Y005138D01*
X010801Y004921D01*
X010797Y004914D01*
G37*
G36*
X010779Y004916D02*
X010445Y005133D01*
X010449Y005140D01*
X010783Y004923D01*
X010779Y004916D01*
G37*
G36*
X010768Y004913D02*
X010434Y005130D01*
X010438Y005137D01*
X010772Y004920D01*
X010768Y004913D01*
G37*
G36*
X009864Y004241D02*
X009530Y004458D01*
X009534Y004465D01*
X009868Y004248D01*
X009864Y004241D01*
G37*
G36*
X008669Y004722D02*
X008335Y004939D01*
X008339Y004946D01*
X008673Y004729D01*
X008669Y004722D01*
G37*
D115*
G36*
X008660Y004737D02*
X008346Y004941D01*
X008350Y004947D01*
X008664Y004743D01*
X008660Y004737D01*
G37*
G36*
X009843Y004590D02*
X009529Y004794D01*
X009533Y004800D01*
X009847Y004596D01*
X009843Y004590D01*
G37*
G36*
X009846Y004521D02*
X009532Y004725D01*
X009536Y004731D01*
X009850Y004527D01*
X009846Y004521D01*
G37*
G36*
X009848Y004539D02*
X009534Y004743D01*
X009538Y004749D01*
X009852Y004545D01*
X009848Y004539D01*
G37*
G36*
X009845Y004550D02*
X009531Y004754D01*
X009535Y004760D01*
X009849Y004556D01*
X009845Y004550D01*
G37*
G36*
X009845Y004579D02*
X009531Y004783D01*
X009535Y004789D01*
X009849Y004585D01*
X009845Y004579D01*
G37*
G36*
X009845Y004608D02*
X009531Y004812D01*
X009535Y004818D01*
X009849Y004614D01*
X009845Y004608D01*
G37*
G36*
X009847Y004625D02*
X009533Y004829D01*
X009537Y004835D01*
X009851Y004631D01*
X009847Y004625D01*
G37*
G36*
X009844Y004636D02*
X009530Y004840D01*
X009534Y004846D01*
X009848Y004642D01*
X009844Y004636D01*
G37*
G36*
X009844Y004665D02*
X009530Y004869D01*
X009534Y004875D01*
X009848Y004671D01*
X009844Y004665D01*
G37*
G36*
X009846Y004683D02*
X009532Y004887D01*
X009536Y004893D01*
X009850Y004689D01*
X009846Y004683D01*
G37*
G36*
X009844Y004694D02*
X009530Y004898D01*
X009534Y004904D01*
X009848Y004700D01*
X009844Y004694D01*
G37*
G36*
X009846Y004712D02*
X009532Y004916D01*
X009536Y004922D01*
X009850Y004718D01*
X009846Y004712D01*
G37*
G36*
X009845Y004769D02*
X009531Y004973D01*
X009535Y004979D01*
X009849Y004775D01*
X009845Y004769D01*
G37*
G36*
X009847Y004787D02*
X009533Y004991D01*
X009537Y004997D01*
X009851Y004793D01*
X009847Y004787D01*
G37*
G36*
X009845Y004798D02*
X009531Y005002D01*
X009535Y005008D01*
X009849Y004804D01*
X009845Y004798D01*
G37*
G36*
X009844Y004827D02*
X009530Y005031D01*
X009534Y005037D01*
X009848Y004833D01*
X009844Y004827D01*
G37*
G36*
X009844Y004856D02*
X009530Y005060D01*
X009534Y005066D01*
X009848Y004862D01*
X009844Y004856D01*
G37*
G36*
X009846Y004874D02*
X009532Y005078D01*
X009536Y005084D01*
X009850Y004880D01*
X009846Y004874D01*
G37*
G36*
X009843Y004885D02*
X009529Y005089D01*
X009533Y005095D01*
X009847Y004891D01*
X009843Y004885D01*
G37*
G36*
X009845Y004903D02*
X009531Y005107D01*
X009535Y005113D01*
X009849Y004909D01*
X009845Y004903D01*
G37*
G36*
X010310Y004296D02*
X009996Y004500D01*
X010000Y004506D01*
X010314Y004302D01*
X010310Y004296D01*
G37*
G36*
X010756Y004263D02*
X010442Y004467D01*
X010446Y004473D01*
X010760Y004269D01*
X010756Y004263D01*
G37*
G36*
X010761Y004270D02*
X010447Y004474D01*
X010451Y004480D01*
X010765Y004276D01*
X010761Y004270D01*
G37*
G36*
X010758Y004281D02*
X010444Y004485D01*
X010448Y004491D01*
X010762Y004287D01*
X010758Y004281D01*
G37*
G36*
X010758Y004310D02*
X010444Y004514D01*
X010448Y004520D01*
X010762Y004316D01*
X010758Y004310D01*
G37*
G36*
X010758Y004339D02*
X010444Y004543D01*
X010448Y004549D01*
X010762Y004345D01*
X010758Y004339D01*
G37*
G36*
X010760Y004357D02*
X010446Y004561D01*
X010450Y004567D01*
X010764Y004363D01*
X010760Y004357D01*
G37*
G36*
X010757Y004368D02*
X010443Y004572D01*
X010447Y004578D01*
X010761Y004374D01*
X010757Y004368D01*
G37*
G36*
X010757Y004397D02*
X010443Y004601D01*
X010447Y004607D01*
X010761Y004403D01*
X010757Y004397D01*
G37*
G36*
X010759Y004414D02*
X010445Y004618D01*
X010449Y004624D01*
X010763Y004420D01*
X010759Y004414D01*
G37*
G36*
X010757Y004425D02*
X010443Y004629D01*
X010447Y004635D01*
X010761Y004431D01*
X010757Y004425D01*
G37*
G36*
X010759Y004443D02*
X010445Y004647D01*
X010449Y004653D01*
X010763Y004449D01*
X010759Y004443D01*
G37*
G36*
X010758Y004501D02*
X010444Y004705D01*
X010448Y004711D01*
X010762Y004507D01*
X010758Y004501D01*
G37*
G36*
X010760Y004519D02*
X010446Y004723D01*
X010450Y004729D01*
X010764Y004525D01*
X010760Y004519D01*
G37*
G36*
X010758Y004530D02*
X010444Y004734D01*
X010448Y004740D01*
X010762Y004536D01*
X010758Y004530D01*
G37*
G36*
X010757Y004559D02*
X010443Y004763D01*
X010447Y004769D01*
X010761Y004565D01*
X010757Y004559D01*
G37*
G36*
X010755Y004570D02*
X010441Y004774D01*
X010445Y004780D01*
X010759Y004576D01*
X010755Y004570D01*
G37*
G36*
X010757Y004587D02*
X010443Y004791D01*
X010447Y004797D01*
X010761Y004593D01*
X010757Y004587D01*
G37*
G36*
X010759Y004605D02*
X010445Y004809D01*
X010449Y004815D01*
X010763Y004611D01*
X010759Y004605D01*
G37*
G36*
X010756Y004616D02*
X010442Y004820D01*
X010446Y004826D01*
X010760Y004622D01*
X010756Y004616D01*
G37*
G36*
X010756Y004645D02*
X010442Y004849D01*
X010446Y004855D01*
X010760Y004651D01*
X010756Y004645D01*
G37*
G36*
X010756Y004674D02*
X010442Y004878D01*
X010446Y004884D01*
X010760Y004680D01*
X010756Y004674D01*
G37*
G36*
X010758Y004692D02*
X010444Y004896D01*
X010448Y004902D01*
X010762Y004698D01*
X010758Y004692D01*
G37*
G36*
X010755Y004703D02*
X010441Y004907D01*
X010445Y004913D01*
X010759Y004709D01*
X010755Y004703D01*
G37*
D116*
G36*
X010433Y004912D02*
X010172Y005081D01*
X010177Y005088D01*
X010438Y004919D01*
X010433Y004912D01*
G37*
G36*
X010314Y004331D02*
X010053Y004500D01*
X010058Y004507D01*
X010319Y004338D01*
X010314Y004331D01*
G37*
G36*
X009845Y004960D02*
X009584Y005129D01*
X009589Y005136D01*
X009850Y004967D01*
X009845Y004960D01*
G37*
G36*
X009425Y004240D02*
X009164Y004409D01*
X009169Y004416D01*
X009430Y004247D01*
X009425Y004240D01*
G37*
D117*
G36*
X009825Y004238D02*
X009531Y004429D01*
X009535Y004436D01*
X009829Y004245D01*
X009825Y004238D01*
G37*
G36*
X009845Y004931D02*
X009551Y005122D01*
X009555Y005129D01*
X009849Y004938D01*
X009845Y004931D01*
G37*
G36*
X010732Y004240D02*
X010438Y004431D01*
X010442Y004438D01*
X010736Y004247D01*
X010732Y004240D01*
G37*
G36*
X008902Y004904D02*
X008608Y005095D01*
X008612Y005102D01*
X008906Y004911D01*
X008902Y004904D01*
G37*
G36*
X008898Y004897D02*
X008604Y005088D01*
X008608Y005095D01*
X008902Y004904D01*
X008898Y004897D01*
G37*
G36*
X008711Y004800D02*
X008417Y004991D01*
X008421Y004998D01*
X008715Y004807D01*
X008711Y004800D01*
G37*
G36*
X008706Y004793D02*
X008412Y004984D01*
X008416Y004991D01*
X008710Y004800D01*
X008706Y004793D01*
G37*
G36*
X008675Y004775D02*
X008381Y004966D01*
X008385Y004973D01*
X008679Y004782D01*
X008675Y004775D01*
G37*
D118*
G36*
X009588Y004241D02*
X009528Y004279D01*
X009532Y004285D01*
X009592Y004247D01*
X009588Y004241D01*
G37*
G36*
X011031Y005097D02*
X010971Y005135D01*
X010975Y005141D01*
X011035Y005103D01*
X011031Y005097D01*
G37*
G36*
X011547Y004247D02*
X011487Y004285D01*
X011491Y004291D01*
X011551Y004253D01*
X011547Y004247D01*
G37*
D119*
G36*
X010308Y004440D02*
X010215Y004500D01*
X010220Y004506D01*
X010313Y004446D01*
X010308Y004440D01*
G37*
G36*
X009622Y004237D02*
X009529Y004297D01*
X009534Y004303D01*
X009627Y004243D01*
X009622Y004237D01*
G37*
D120*
G36*
X009738Y004238D02*
X009531Y004372D01*
X009536Y004378D01*
X009743Y004244D01*
X009738Y004238D01*
G37*
G36*
X009848Y004996D02*
X009641Y005130D01*
X009646Y005136D01*
X009853Y005002D01*
X009848Y004996D01*
G37*
G36*
X009438Y004996D02*
X009231Y005130D01*
X009236Y005136D01*
X009443Y005002D01*
X009438Y004996D01*
G37*
G36*
X011690Y004248D02*
X011483Y004382D01*
X011488Y004388D01*
X011695Y004254D01*
X011690Y004248D01*
G37*
D121*
G36*
X009882Y004240D02*
X009528Y004470D01*
X009532Y004476D01*
X009886Y004246D01*
X009882Y004240D01*
G37*
D122*
G36*
X009929Y004238D02*
X009534Y004494D01*
X009539Y004500D01*
X009934Y004244D01*
X009929Y004238D01*
G37*
G36*
X010275Y004242D02*
X009880Y004498D01*
X009885Y004504D01*
X010280Y004248D01*
X010275Y004242D01*
G37*
D123*
G36*
X009940Y004240D02*
X009532Y004505D01*
X009536Y004512D01*
X009944Y004247D01*
X009940Y004240D01*
G37*
D124*
G36*
X009969Y004240D02*
X009527Y004527D01*
X009531Y004534D01*
X009973Y004247D01*
X009969Y004240D01*
G37*
D125*
G36*
X009998Y004241D02*
X009529Y004545D01*
X009534Y004551D01*
X010003Y004247D01*
X009998Y004241D01*
G37*
D126*
G36*
X010015Y004239D02*
X009526Y004556D01*
X009531Y004563D01*
X010020Y004246D01*
X010015Y004239D01*
G37*
G36*
X010761Y004813D02*
X010272Y005130D01*
X010277Y005137D01*
X010766Y004820D01*
X010761Y004813D01*
G37*
G36*
X011810Y004475D02*
X011321Y004792D01*
X011326Y004799D01*
X011815Y004482D01*
X011810Y004475D01*
G37*
D127*
G36*
X011808Y004487D02*
X011312Y004808D01*
X011316Y004815D01*
X011812Y004494D01*
X011808Y004487D01*
G37*
G36*
X010027Y004241D02*
X009531Y004562D01*
X009535Y004569D01*
X010031Y004248D01*
X010027Y004241D01*
G37*
D128*
G36*
X010113Y004243D02*
X009530Y004621D01*
X009535Y004627D01*
X010118Y004249D01*
X010113Y004243D01*
G37*
G36*
X010759Y004738D02*
X010176Y005116D01*
X010181Y005122D01*
X010764Y004744D01*
X010759Y004738D01*
G37*
D129*
G36*
X010131Y004240D02*
X009528Y004631D01*
X009533Y004638D01*
X010136Y004247D01*
X010131Y004240D01*
G37*
D130*
G36*
X010160Y004240D02*
X009530Y004649D01*
X009534Y004656D01*
X010164Y004247D01*
X010160Y004240D01*
G37*
D131*
G36*
X010309Y004411D02*
X010169Y004502D01*
X010173Y004509D01*
X010313Y004418D01*
X010309Y004411D01*
G37*
G36*
X010581Y004243D02*
X010441Y004334D01*
X010445Y004341D01*
X010585Y004250D01*
X010581Y004243D01*
G37*
G36*
X011622Y004244D02*
X011482Y004335D01*
X011486Y004342D01*
X011626Y004251D01*
X011622Y004244D01*
G37*
G36*
X011493Y005044D02*
X011353Y005135D01*
X011357Y005142D01*
X011497Y005051D01*
X011493Y005044D01*
G37*
G36*
X012174Y005050D02*
X012034Y005141D01*
X012038Y005148D01*
X012178Y005057D01*
X012174Y005050D01*
G37*
G36*
X008894Y005081D02*
X008754Y005172D01*
X008758Y005179D01*
X008898Y005088D01*
X008894Y005081D01*
G37*
D132*
G36*
X010206Y004239D02*
X009529Y004678D01*
X009534Y004685D01*
X010211Y004246D01*
X010206Y004239D01*
G37*
G36*
X011804Y004584D02*
X011127Y005023D01*
X011132Y005030D01*
X011809Y004591D01*
X011804Y004584D01*
G37*
D133*
G36*
X010217Y004241D02*
X009527Y004689D01*
X009531Y004695D01*
X010221Y004247D01*
X010217Y004241D01*
G37*
D134*
G36*
X010254Y004914D02*
X010168Y004969D01*
X010172Y004976D01*
X010258Y004921D01*
X010254Y004914D01*
G37*
G36*
X009843Y005076D02*
X009757Y005131D01*
X009761Y005138D01*
X009847Y005083D01*
X009843Y005076D01*
G37*
G36*
X009440Y005071D02*
X009354Y005126D01*
X009358Y005133D01*
X009444Y005078D01*
X009440Y005071D01*
G37*
G36*
X008866Y005128D02*
X008780Y005183D01*
X008784Y005190D01*
X008870Y005135D01*
X008866Y005128D01*
G37*
G36*
X011028Y005079D02*
X010942Y005134D01*
X010946Y005141D01*
X011032Y005086D01*
X011028Y005079D01*
G37*
G36*
X011564Y004244D02*
X011478Y004299D01*
X011482Y004306D01*
X011568Y004251D01*
X011564Y004244D01*
G37*
D135*
G36*
X011801Y004272D02*
X011480Y004480D01*
X011485Y004486D01*
X011806Y004278D01*
X011801Y004272D01*
G37*
G36*
X011805Y004278D02*
X011484Y004486D01*
X011489Y004492D01*
X011810Y004284D01*
X011805Y004278D01*
G37*
G36*
X011805Y004307D02*
X011484Y004515D01*
X011489Y004521D01*
X011810Y004313D01*
X011805Y004307D01*
G37*
G36*
X011807Y004325D02*
X011486Y004533D01*
X011491Y004539D01*
X011812Y004331D01*
X011807Y004325D01*
G37*
G36*
X011804Y004365D02*
X011483Y004573D01*
X011488Y004579D01*
X011809Y004371D01*
X011804Y004365D01*
G37*
G36*
X011587Y004926D02*
X011266Y005134D01*
X011271Y005140D01*
X011592Y004932D01*
X011587Y004926D01*
G37*
G36*
X011014Y004926D02*
X010693Y005134D01*
X010698Y005140D01*
X011019Y004932D01*
X011014Y004926D01*
G37*
G36*
X010760Y004681D02*
X010439Y004889D01*
X010444Y004895D01*
X010765Y004687D01*
X010760Y004681D01*
G37*
G36*
X010761Y004594D02*
X010440Y004802D01*
X010445Y004808D01*
X010766Y004600D01*
X010761Y004594D01*
G37*
G36*
X010762Y004479D02*
X010441Y004687D01*
X010446Y004693D01*
X010767Y004485D01*
X010762Y004479D01*
G37*
G36*
X010761Y004375D02*
X010440Y004583D01*
X010445Y004589D01*
X010766Y004381D01*
X010761Y004375D01*
G37*
G36*
X010762Y004288D02*
X010441Y004496D01*
X010446Y004502D01*
X010767Y004294D01*
X010762Y004288D01*
G37*
G36*
X010760Y004299D02*
X010439Y004507D01*
X010444Y004513D01*
X010765Y004305D01*
X010760Y004299D01*
G37*
G36*
X010762Y004317D02*
X010441Y004525D01*
X010446Y004531D01*
X010767Y004323D01*
X010762Y004317D01*
G37*
G36*
X010760Y004328D02*
X010439Y004536D01*
X010444Y004542D01*
X010765Y004334D01*
X010760Y004328D01*
G37*
G36*
X010759Y004386D02*
X010438Y004594D01*
X010443Y004600D01*
X010764Y004392D01*
X010759Y004386D01*
G37*
G36*
X010761Y004403D02*
X010440Y004611D01*
X010445Y004617D01*
X010766Y004409D01*
X010761Y004403D01*
G37*
G36*
X010761Y004432D02*
X010440Y004640D01*
X010445Y004646D01*
X010766Y004438D01*
X010761Y004432D01*
G37*
G36*
X010763Y004450D02*
X010442Y004658D01*
X010447Y004664D01*
X010768Y004456D01*
X010763Y004450D01*
G37*
G36*
X010760Y004461D02*
X010439Y004669D01*
X010444Y004675D01*
X010765Y004467D01*
X010760Y004461D01*
G37*
G36*
X010758Y004472D02*
X010437Y004680D01*
X010442Y004686D01*
X010763Y004478D01*
X010758Y004472D01*
G37*
G36*
X010762Y004508D02*
X010441Y004716D01*
X010446Y004722D01*
X010767Y004514D01*
X010762Y004508D01*
G37*
G36*
X010762Y004537D02*
X010441Y004745D01*
X010446Y004751D01*
X010767Y004543D01*
X010762Y004537D01*
G37*
G36*
X010759Y004548D02*
X010438Y004756D01*
X010443Y004762D01*
X010764Y004554D01*
X010759Y004548D01*
G37*
G36*
X010759Y004577D02*
X010438Y004785D01*
X010443Y004791D01*
X010764Y004583D01*
X010759Y004577D01*
G37*
G36*
X010760Y004623D02*
X010439Y004831D01*
X010444Y004837D01*
X010765Y004629D01*
X010760Y004623D01*
G37*
G36*
X010760Y004652D02*
X010439Y004860D01*
X010444Y004866D01*
X010765Y004658D01*
X010760Y004652D01*
G37*
G36*
X010758Y004663D02*
X010437Y004871D01*
X010442Y004877D01*
X010763Y004669D01*
X010758Y004663D01*
G37*
G36*
X009850Y004528D02*
X009529Y004736D01*
X009534Y004742D01*
X009855Y004534D01*
X009850Y004528D01*
G37*
G36*
X009848Y004510D02*
X009527Y004718D01*
X009532Y004724D01*
X009853Y004516D01*
X009848Y004510D01*
G37*
G36*
X009847Y004568D02*
X009526Y004776D01*
X009531Y004782D01*
X009852Y004574D01*
X009847Y004568D01*
G37*
G36*
X009847Y004597D02*
X009526Y004805D01*
X009531Y004811D01*
X009852Y004603D01*
X009847Y004597D01*
G37*
G36*
X009849Y004614D02*
X009528Y004822D01*
X009533Y004828D01*
X009854Y004620D01*
X009849Y004614D01*
G37*
G36*
X009848Y004643D02*
X009527Y004851D01*
X009532Y004857D01*
X009853Y004649D01*
X009848Y004643D01*
G37*
G36*
X009846Y004654D02*
X009525Y004862D01*
X009530Y004868D01*
X009851Y004660D01*
X009846Y004654D01*
G37*
G36*
X009848Y004672D02*
X009527Y004880D01*
X009532Y004886D01*
X009853Y004678D01*
X009848Y004672D01*
G37*
G36*
X009850Y004719D02*
X009529Y004927D01*
X009534Y004933D01*
X009855Y004725D01*
X009850Y004719D01*
G37*
G36*
X009847Y004730D02*
X009526Y004938D01*
X009531Y004944D01*
X009852Y004736D01*
X009847Y004730D01*
G37*
G36*
X009845Y004741D02*
X009524Y004949D01*
X009529Y004955D01*
X009850Y004747D01*
X009845Y004741D01*
G37*
G36*
X009849Y004748D02*
X009528Y004956D01*
X009533Y004962D01*
X009854Y004754D01*
X009849Y004748D01*
G37*
G36*
X009847Y004759D02*
X009526Y004967D01*
X009531Y004973D01*
X009852Y004765D01*
X009847Y004759D01*
G37*
G36*
X009849Y004805D02*
X009528Y005013D01*
X009533Y005019D01*
X009854Y004811D01*
X009849Y004805D01*
G37*
G36*
X009846Y004816D02*
X009525Y005024D01*
X009530Y005030D01*
X009851Y004822D01*
X009846Y004816D01*
G37*
G36*
X009848Y004834D02*
X009527Y005042D01*
X009532Y005048D01*
X009853Y004840D01*
X009848Y004834D01*
G37*
G36*
X009848Y004863D02*
X009527Y005071D01*
X009532Y005077D01*
X009853Y004869D01*
X009848Y004863D01*
G37*
G36*
X009847Y004892D02*
X009526Y005100D01*
X009531Y005106D01*
X009852Y004898D01*
X009847Y004892D01*
G37*
D136*
G36*
X009849Y004776D02*
X009528Y004984D01*
X009533Y004990D01*
X009854Y004782D01*
X009849Y004776D01*
G37*
G36*
X009848Y004701D02*
X009527Y004909D01*
X009532Y004915D01*
X009853Y004707D01*
X009848Y004701D01*
G37*
G36*
X009849Y004557D02*
X009528Y004765D01*
X009533Y004771D01*
X009854Y004563D01*
X009849Y004557D01*
G37*
G36*
X009846Y004845D02*
X009525Y005053D01*
X009530Y005059D01*
X009851Y004851D01*
X009846Y004845D01*
G37*
G36*
X010758Y004634D02*
X010437Y004842D01*
X010442Y004848D01*
X010763Y004640D01*
X010758Y004634D01*
G37*
G36*
X010760Y004490D02*
X010439Y004698D01*
X010444Y004704D01*
X010765Y004496D01*
X010760Y004490D01*
G37*
G36*
X010762Y004346D02*
X010441Y004554D01*
X010446Y004560D01*
X010767Y004352D01*
X010762Y004346D01*
G37*
G36*
X011799Y004254D02*
X011478Y004462D01*
X011483Y004468D01*
X011804Y004260D01*
X011799Y004254D01*
G37*
G36*
X011803Y004261D02*
X011482Y004469D01*
X011487Y004475D01*
X011808Y004267D01*
X011803Y004261D01*
G37*
D137*
G36*
X010312Y004256D02*
X009937Y004499D01*
X009942Y004506D01*
X010317Y004263D01*
X010312Y004256D01*
G37*
D138*
G36*
X010309Y004353D02*
X010082Y004500D01*
X010087Y004507D01*
X010314Y004360D01*
X010309Y004353D01*
G37*
G36*
X010667Y004244D02*
X010440Y004391D01*
X010445Y004398D01*
X010672Y004251D01*
X010667Y004244D01*
G37*
G36*
X012027Y004869D02*
X011800Y005016D01*
X011805Y005023D01*
X012032Y004876D01*
X012027Y004869D01*
G37*
G36*
X012031Y004875D02*
X011804Y005022D01*
X011809Y005029D01*
X012036Y004882D01*
X012031Y004875D01*
G37*
G36*
X012035Y004882D02*
X011808Y005029D01*
X011813Y005036D01*
X012040Y004889D01*
X012035Y004882D01*
G37*
G36*
X012040Y004889D02*
X011813Y005036D01*
X011818Y005043D01*
X012045Y004896D01*
X012040Y004889D01*
G37*
G36*
X012044Y004896D02*
X011817Y005043D01*
X011822Y005050D01*
X012049Y004903D01*
X012044Y004896D01*
G37*
G36*
X012049Y004902D02*
X011822Y005049D01*
X011827Y005056D01*
X012054Y004909D01*
X012049Y004902D01*
G37*
G36*
X012053Y004909D02*
X011826Y005056D01*
X011831Y005063D01*
X012058Y004916D01*
X012053Y004909D01*
G37*
G36*
X012057Y004916D02*
X011830Y005063D01*
X011835Y005070D01*
X012062Y004923D01*
X012057Y004916D01*
G37*
G36*
X012119Y004981D02*
X011892Y005128D01*
X011897Y005135D01*
X012124Y004988D01*
X012119Y004981D01*
G37*
D139*
G36*
X011555Y004965D02*
X011294Y005134D01*
X011299Y005141D01*
X011560Y004972D01*
X011555Y004965D01*
G37*
G36*
X011030Y004963D02*
X010769Y005132D01*
X010774Y005139D01*
X011035Y004970D01*
X011030Y004963D01*
G37*
G36*
X010703Y004240D02*
X010442Y004409D01*
X010447Y004416D01*
X010708Y004247D01*
X010703Y004240D01*
G37*
G36*
X009436Y004948D02*
X009175Y005117D01*
X009180Y005124D01*
X009441Y004955D01*
X009436Y004948D01*
G37*
D140*
G36*
X010570Y004241D02*
X010444Y004323D01*
X010448Y004329D01*
X010574Y004247D01*
X010570Y004241D01*
G37*
D141*
G36*
X010313Y004418D02*
X010187Y004500D01*
X010191Y004506D01*
X010317Y004424D01*
X010313Y004418D01*
G37*
G36*
X009844Y005047D02*
X009718Y005129D01*
X009722Y005135D01*
X009848Y005053D01*
X009844Y005047D01*
G37*
G36*
X012178Y005057D02*
X012052Y005139D01*
X012056Y005145D01*
X012182Y005063D01*
X012178Y005057D01*
G37*
D142*
G36*
X012160Y005030D02*
X011993Y005138D01*
X011998Y005144D01*
X012165Y005036D01*
X012160Y005030D01*
G37*
G36*
X011651Y004245D02*
X011484Y004353D01*
X011489Y004359D01*
X011656Y004251D01*
X011651Y004245D01*
G37*
G36*
X010610Y004244D02*
X010443Y004352D01*
X010448Y004358D01*
X010615Y004250D01*
X010610Y004244D01*
G37*
D143*
G36*
X010314Y004465D02*
X010261Y004499D01*
X010266Y004505D01*
X010319Y004471D01*
X010314Y004465D01*
G37*
G36*
X011445Y005104D02*
X011392Y005138D01*
X011397Y005144D01*
X011450Y005110D01*
X011445Y005104D01*
G37*
G36*
X012208Y005104D02*
X012155Y005138D01*
X012160Y005144D01*
X012213Y005110D01*
X012208Y005104D01*
G37*
D144*
G36*
X011021Y005112D02*
X010989Y005133D01*
X010993Y005140D01*
X011025Y005119D01*
X011021Y005112D01*
G37*
G36*
X010196Y004913D02*
X010164Y004934D01*
X010168Y004941D01*
X010200Y004920D01*
X010196Y004913D01*
G37*
G36*
X009426Y005108D02*
X009394Y005129D01*
X009398Y005136D01*
X009430Y005115D01*
X009426Y005108D01*
G37*
D145*
G36*
X010760Y004709D02*
X010164Y005096D01*
X010168Y005103D01*
X010764Y004716D01*
X010760Y004709D01*
G37*
D146*
G36*
X010758Y004720D02*
X010168Y005103D01*
X010172Y005110D01*
X010762Y004727D01*
X010758Y004720D01*
G37*
G36*
X010762Y004727D02*
X010172Y005110D01*
X010176Y005117D01*
X010766Y004734D01*
X010762Y004727D01*
G37*
G36*
X011810Y004533D02*
X011220Y004916D01*
X011224Y004923D01*
X011814Y004540D01*
X011810Y004533D01*
G37*
D147*
G36*
X010759Y004767D02*
X010197Y005132D01*
X010201Y005139D01*
X010763Y004774D01*
X010759Y004767D01*
G37*
D148*
G36*
X010756Y004807D02*
X010254Y005133D01*
X010258Y005139D01*
X010760Y004813D01*
X010756Y004807D01*
G37*
D149*
G36*
X010759Y004824D02*
X010283Y005133D01*
X010287Y005140D01*
X010763Y004831D01*
X010759Y004824D01*
G37*
D150*
G36*
X010759Y004901D02*
X010398Y005135D01*
X010403Y005141D01*
X010764Y004907D01*
X010759Y004901D01*
G37*
D151*
G36*
X011809Y004371D02*
X011481Y004584D01*
X011485Y004591D01*
X011813Y004378D01*
X011809Y004371D01*
G37*
G36*
X011808Y004295D02*
X011480Y004508D01*
X011484Y004515D01*
X011812Y004302D01*
X011808Y004295D01*
G37*
G36*
X011805Y004335D02*
X011477Y004548D01*
X011481Y004555D01*
X011809Y004342D01*
X011805Y004335D01*
G37*
G36*
X011810Y004342D02*
X011482Y004555D01*
X011486Y004562D01*
X011814Y004349D01*
X011810Y004342D01*
G37*
D152*
G36*
X011806Y004412D02*
X011445Y004646D01*
X011450Y004652D01*
X011811Y004418D01*
X011806Y004412D01*
G37*
D153*
G36*
X011808Y004429D02*
X011413Y004685D01*
X011418Y004691D01*
X011813Y004435D01*
X011808Y004429D01*
G37*
D154*
G36*
X011809Y004504D02*
X011280Y004847D01*
X011285Y004854D01*
X011814Y004511D01*
X011809Y004504D01*
G37*
D155*
G36*
X011805Y004526D02*
X011243Y004891D01*
X011247Y004898D01*
X011809Y004533D01*
X011805Y004526D01*
G37*
D156*
G36*
X011805Y004556D02*
X011189Y004956D01*
X011193Y004962D01*
X011809Y004562D01*
X011805Y004556D01*
G37*
D157*
G36*
X011811Y004609D02*
X011081Y005083D01*
X011085Y005089D01*
X011815Y004615D01*
X011811Y004609D01*
G37*
D158*
G36*
X011857Y004665D02*
X011133Y005134D01*
X011137Y005141D01*
X011861Y004672D01*
X011857Y004665D01*
G37*
D159*
G36*
X011869Y004685D02*
X011172Y005137D01*
X011177Y005143D01*
X011874Y004691D01*
X011869Y004685D01*
G37*
D160*
G36*
X011884Y004694D02*
X011201Y005137D01*
X011206Y005144D01*
X011889Y004701D01*
X011884Y004694D01*
G37*
G36*
X011873Y004692D02*
X011190Y005135D01*
X011195Y005142D01*
X011878Y004699D01*
X011873Y004692D01*
G37*
D161*
G36*
X011927Y004743D02*
X011707Y004886D01*
X011711Y004893D01*
X011931Y004750D01*
X011927Y004743D01*
G37*
G36*
X011940Y004763D02*
X011720Y004906D01*
X011724Y004913D01*
X011944Y004770D01*
X011940Y004763D01*
G37*
G36*
X011944Y004770D02*
X011724Y004913D01*
X011728Y004920D01*
X011948Y004777D01*
X011944Y004770D01*
G37*
G36*
X011948Y004777D02*
X011728Y004920D01*
X011732Y004927D01*
X011952Y004784D01*
X011948Y004777D01*
G37*
G36*
X011953Y004783D02*
X011733Y004926D01*
X011737Y004933D01*
X011957Y004790D01*
X011953Y004783D01*
G37*
G36*
X011957Y004790D02*
X011737Y004933D01*
X011741Y004940D01*
X011961Y004797D01*
X011957Y004790D01*
G37*
G36*
X011966Y004803D02*
X011746Y004946D01*
X011750Y004953D01*
X011970Y004810D01*
X011966Y004803D01*
G37*
G36*
X011970Y004810D02*
X011750Y004953D01*
X011754Y004960D01*
X011974Y004817D01*
X011970Y004810D01*
G37*
G36*
X011974Y004817D02*
X011754Y004960D01*
X011758Y004967D01*
X011978Y004824D01*
X011974Y004817D01*
G37*
D162*
G36*
X012195Y005084D02*
X012109Y005139D01*
X012113Y005146D01*
X012199Y005091D01*
X012195Y005084D01*
G37*
D163*
X011579Y004039D02*
X011597Y003522D01*
X011497Y003415D01*
X011290Y003408D01*
X011183Y003507D01*
X011165Y004024D01*
X010889Y004014D02*
X010910Y003394D01*
X010497Y003380D02*
X010475Y004000D01*
X010689Y003801D01*
X010889Y004014D01*
X010222Y003991D02*
X010015Y003984D01*
X010118Y003988D02*
X010140Y003367D01*
X010037Y003364D02*
X010243Y003371D01*
D164*
X004715Y004198D02*
X004652Y004135D01*
X004715Y004198D02*
X004715Y004325D01*
X004652Y004389D01*
X004588Y004389D01*
X004525Y004325D01*
X004525Y004262D01*
X004525Y004325D02*
X004461Y004389D01*
X004398Y004389D01*
X004335Y004325D01*
X004335Y004198D01*
X004398Y004135D01*
X004461Y004549D02*
X004715Y004676D01*
X004461Y004803D01*
X004398Y004964D02*
X004335Y005027D01*
X004335Y005154D01*
X004398Y005217D01*
X004461Y005217D01*
X004525Y005154D01*
X004588Y005217D01*
X004652Y005217D01*
X004715Y005154D01*
X004715Y005027D01*
X004652Y004964D01*
X004525Y005090D02*
X004525Y005154D01*
X003415Y005462D02*
X003288Y005335D01*
X003035Y005335D01*
X003035Y005589D02*
X003288Y005589D01*
X003415Y005462D01*
X003415Y005749D02*
X003415Y005940D01*
X003352Y006003D01*
X003225Y006003D01*
X003161Y005940D01*
X003161Y005749D01*
X003035Y005749D02*
X003415Y005749D01*
X003352Y006164D02*
X003288Y006227D01*
X003288Y006417D01*
X003225Y006417D02*
X003415Y006417D01*
X003415Y006227D01*
X003352Y006164D01*
X003161Y006227D02*
X003161Y006354D01*
X003225Y006417D01*
X003161Y006578D02*
X003161Y006705D01*
X003098Y006641D02*
X003352Y006641D01*
X003415Y006705D01*
D165*
X004100Y006550D02*
X004100Y020550D01*
X007100Y020550D01*
X007100Y020050D01*
X008100Y020050D01*
X008100Y020550D01*
X011100Y020550D01*
X011100Y006550D01*
X004100Y006550D01*
X002600Y006300D02*
X002600Y005800D01*
X002350Y005550D01*
X002600Y005300D01*
X002600Y004800D01*
X002350Y004550D01*
X001850Y004550D01*
X001600Y004800D01*
X001600Y005300D01*
X001850Y005550D01*
X001600Y005800D01*
X001600Y006300D01*
X001850Y006550D01*
X001600Y006800D01*
X001600Y007300D01*
X001850Y007550D01*
X001600Y007800D01*
X001600Y008300D01*
X001850Y008550D01*
X001600Y008800D01*
X001600Y009300D01*
X001850Y009550D01*
X001600Y009800D01*
X001600Y010300D01*
X001850Y010550D01*
X001600Y010800D01*
X001600Y011300D01*
X001850Y011550D01*
X001600Y011800D01*
X001600Y012300D01*
X001850Y012550D01*
X001600Y012800D01*
X001600Y013300D01*
X001850Y013550D01*
X001600Y013800D01*
X001600Y014300D01*
X001850Y014550D01*
X001600Y014800D01*
X001600Y015300D01*
X001850Y015550D01*
X001600Y015800D01*
X001600Y016300D01*
X001850Y016550D01*
X001600Y016800D01*
X001600Y017300D01*
X001850Y017550D01*
X001600Y017800D01*
X001600Y018300D01*
X001850Y018550D01*
X001600Y018800D01*
X001600Y019300D01*
X001850Y019550D01*
X001600Y019800D01*
X001600Y020300D01*
X001850Y020550D01*
X002350Y020550D01*
X002600Y020300D01*
X002600Y019800D01*
X002350Y019550D01*
X002600Y019300D01*
X002600Y018800D01*
X002350Y018550D01*
X002600Y018300D01*
X002600Y017800D01*
X002350Y017550D01*
X002600Y017300D01*
X002600Y016800D01*
X002350Y016550D01*
X002600Y016300D01*
X002600Y015800D01*
X002350Y015550D01*
X002600Y015300D01*
X002600Y014800D01*
X002350Y014550D01*
X002600Y014300D01*
X002600Y013800D01*
X002350Y013550D01*
X002600Y013300D01*
X002600Y012800D01*
X002350Y012550D01*
X002600Y012300D01*
X002600Y011800D01*
X002350Y011550D01*
X002600Y011300D01*
X002600Y010800D01*
X002350Y010550D01*
X002600Y010300D01*
X002600Y009800D01*
X002350Y009550D01*
X002600Y009300D01*
X002600Y008800D01*
X002350Y008550D01*
X002600Y008300D01*
X002600Y007800D01*
X002350Y007550D01*
X002600Y007300D01*
X002600Y006800D01*
X002350Y006550D01*
X002600Y006300D01*
X002350Y004550D02*
X001850Y004550D01*
X012600Y004800D02*
X012850Y004550D01*
X013350Y004550D01*
X013600Y004800D01*
X013600Y005300D01*
X013350Y005550D01*
X013600Y005800D01*
X013600Y006300D01*
X013350Y006550D01*
X013600Y006800D01*
X013600Y007300D01*
X013350Y007550D01*
X013600Y007800D01*
X013600Y008300D01*
X013350Y008550D01*
X013600Y008800D01*
X013600Y009300D01*
X013350Y009550D01*
X013600Y009800D01*
X013600Y010300D01*
X013350Y010550D01*
X013600Y010800D01*
X013600Y011300D01*
X013350Y011550D01*
X013600Y011800D01*
X013600Y012300D01*
X013350Y012550D01*
X013600Y012800D01*
X013600Y013300D01*
X013350Y013550D01*
X013600Y013800D01*
X013600Y014300D01*
X013350Y014550D01*
X013600Y014800D01*
X013600Y015300D01*
X013350Y015550D01*
X013600Y015800D01*
X013600Y016300D01*
X013350Y016550D01*
X013600Y016800D01*
X013600Y017300D01*
X013350Y017550D01*
X013600Y017800D01*
X013600Y018300D01*
X013350Y018550D01*
X013600Y018800D01*
X013600Y019300D01*
X013350Y019550D01*
X013600Y019800D01*
X013600Y020300D01*
X013350Y020550D01*
X012850Y020550D01*
X012600Y020300D01*
X012600Y019800D01*
X012850Y019550D01*
X012600Y019300D01*
X012600Y018800D01*
X012850Y018550D01*
X012600Y018300D01*
X012600Y017800D01*
X012850Y017550D01*
X012600Y017300D01*
X012600Y016800D01*
X012850Y016550D01*
X012600Y016300D01*
X012600Y015800D01*
X012850Y015550D01*
X012600Y015300D01*
X012600Y014800D01*
X012850Y014550D01*
X012600Y014300D01*
X012600Y013800D01*
X012850Y013550D01*
X012600Y013300D01*
X012600Y012800D01*
X012850Y012550D01*
X012600Y012300D01*
X012600Y011800D01*
X012850Y011550D01*
X012600Y011300D01*
X012600Y010800D01*
X012850Y010550D01*
X012600Y010300D01*
X012600Y009800D01*
X012850Y009550D01*
X012600Y009300D01*
X012600Y008800D01*
X012850Y008550D01*
X012600Y008300D01*
X012600Y007800D01*
X012850Y007550D01*
X012600Y007300D01*
X012600Y006800D01*
X012850Y006550D01*
X012600Y006300D01*
X012600Y005800D01*
X012850Y005550D01*
X012600Y005300D01*
X012600Y004800D01*
X012850Y004550D02*
X013350Y004550D01*
X013350Y020550D02*
X012850Y020550D01*
X002350Y020550D02*
X001850Y020550D01*
D166*
X002600Y002800D02*
X002600Y001300D01*
X002850Y001050D01*
X003350Y001050D01*
X003600Y001300D01*
X003600Y002800D01*
X003850Y003050D01*
X004350Y003050D01*
X004600Y002800D01*
X004600Y001300D01*
X004850Y001050D01*
X005350Y001050D01*
X005600Y001300D01*
X005600Y002800D01*
X005850Y003050D01*
X006350Y003050D01*
X006600Y002800D01*
X006600Y001300D01*
X006850Y001050D01*
X007350Y001050D01*
X007600Y001300D01*
X007600Y002800D01*
X007850Y003050D01*
X008350Y003050D01*
X008600Y002800D01*
X008600Y001300D01*
X008850Y001050D01*
X009350Y001050D01*
X009600Y001300D01*
X009600Y002800D01*
X009850Y003050D01*
X010350Y003050D01*
X010600Y002800D01*
X010600Y001300D01*
X010350Y001050D01*
X009850Y001050D01*
X009600Y001300D01*
X010600Y001300D02*
X010850Y001050D01*
X011350Y001050D01*
X011600Y001300D01*
X011850Y001050D01*
X012350Y001050D01*
X012600Y001300D01*
X012600Y002800D01*
X012350Y003050D01*
X011850Y003050D01*
X011600Y002800D01*
X011600Y001300D01*
X011600Y002800D02*
X011350Y003050D01*
X010850Y003050D01*
X010600Y002800D01*
X009600Y002800D02*
X009350Y003050D01*
X008850Y003050D01*
X008600Y002800D01*
X007600Y002800D02*
X007350Y003050D01*
X006850Y003050D01*
X006600Y002800D01*
X005600Y002800D02*
X005350Y003050D01*
X004850Y003050D01*
X004600Y002800D01*
X003600Y002800D02*
X003350Y003050D01*
X002850Y003050D01*
X002600Y002800D01*
X003100Y004300D02*
X004100Y004300D01*
X004117Y004302D01*
X004134Y004306D01*
X004150Y004313D01*
X004164Y004323D01*
X004177Y004336D01*
X004187Y004350D01*
X004194Y004366D01*
X004198Y004383D01*
X004200Y004400D01*
X004200Y005000D01*
X004198Y005017D01*
X004194Y005034D01*
X004187Y005050D01*
X004177Y005064D01*
X004164Y005077D01*
X004150Y005087D01*
X004134Y005094D01*
X004117Y005098D01*
X004100Y005100D01*
X003100Y005100D01*
X003083Y005098D01*
X003066Y005094D01*
X003050Y005087D01*
X003036Y005077D01*
X003023Y005064D01*
X003013Y005050D01*
X003006Y005034D01*
X003002Y005017D01*
X003000Y005000D01*
X003000Y004400D01*
X003002Y004383D01*
X003006Y004366D01*
X003013Y004350D01*
X003023Y004336D01*
X003036Y004323D01*
X003050Y004313D01*
X003066Y004306D01*
X003083Y004302D01*
X003100Y004300D01*
X003600Y001300D02*
X003850Y001050D01*
X004350Y001050D01*
X004600Y001300D01*
X005600Y001300D02*
X005850Y001050D01*
X006350Y001050D01*
X006600Y001300D01*
X007600Y001300D02*
X007850Y001050D01*
X008350Y001050D01*
X008600Y001300D01*
M02*
