G75*
%MOIN*%
%OFA0B0*%
%FSLAX24Y24*%
%IPPOS*%
%LPD*%
%AMOC8*
5,1,8,0,0,1.08239X$1,22.5*
%
%ADD10C,0.1240*%
%ADD11C,0.0650*%
%ADD12R,0.0474X0.0513*%
%ADD13R,0.0513X0.0474*%
%ADD14OC8,0.0820*%
%ADD15C,0.0552*%
%ADD16R,0.0330X0.0580*%
%ADD17C,0.0820*%
D10*
X001090Y001600D03*
X001090Y019600D03*
X014110Y019600D03*
X014110Y001600D03*
D11*
X010600Y007050D03*
X010600Y008050D03*
X010600Y009050D03*
X010600Y010050D03*
X010600Y011050D03*
X010600Y012050D03*
X010600Y013050D03*
X010600Y014050D03*
X010600Y015050D03*
X010600Y016050D03*
X010600Y017050D03*
X010600Y018050D03*
X010600Y019050D03*
X010600Y020050D03*
X009600Y019050D03*
X009600Y017050D03*
X009600Y016050D03*
X009600Y015050D03*
X008600Y014050D03*
X008600Y013050D03*
X008600Y012050D03*
X008600Y011050D03*
X008600Y010050D03*
X008600Y009050D03*
X008600Y008050D03*
X008600Y007050D03*
X007600Y007050D03*
X007600Y008050D03*
X007600Y009050D03*
X007600Y010050D03*
X007600Y011050D03*
X007600Y012050D03*
X007600Y013050D03*
X007600Y014050D03*
X004600Y014050D03*
X004600Y013050D03*
X004600Y012050D03*
X004600Y011050D03*
X004600Y010050D03*
X004600Y009050D03*
X004600Y008050D03*
X004600Y007050D03*
X005600Y007050D03*
X006600Y007050D03*
X009600Y007050D03*
X004600Y015050D03*
X004600Y016050D03*
X004600Y017050D03*
X004600Y018050D03*
X004600Y019050D03*
X004600Y020050D03*
D12*
X004465Y003700D03*
X005135Y003700D03*
D13*
X005900Y004565D03*
X005900Y005235D03*
X014000Y012865D03*
X014000Y013535D03*
X014000Y014265D03*
X014000Y014935D03*
D14*
X012100Y002550D03*
X012100Y001550D03*
X011100Y001550D03*
X011100Y002550D03*
X010100Y002550D03*
X010100Y001550D03*
X009100Y001550D03*
X009100Y002550D03*
X008100Y002550D03*
X008100Y001550D03*
X007100Y001550D03*
X007100Y002550D03*
X006100Y002550D03*
X006100Y001550D03*
X005100Y001550D03*
X005100Y002550D03*
X004100Y002550D03*
X004100Y001550D03*
X003100Y001550D03*
X003100Y002550D03*
D15*
X001150Y005050D03*
X001050Y006050D03*
X001150Y007050D03*
X001050Y008050D03*
X001150Y009050D03*
X001050Y010050D03*
X001150Y011050D03*
X001050Y012050D03*
X003050Y014050D03*
X003150Y013050D03*
X003150Y015050D03*
X003050Y016050D03*
X003150Y017050D03*
X003050Y018050D03*
X003150Y019050D03*
X003050Y020050D03*
X012050Y020050D03*
X012150Y019050D03*
X012050Y018050D03*
X012150Y017050D03*
X012050Y016050D03*
X012150Y015050D03*
X012050Y014050D03*
X012150Y013050D03*
X014050Y012050D03*
X014150Y011050D03*
X014050Y010050D03*
X014150Y009050D03*
X014050Y008050D03*
X014150Y007050D03*
X014050Y006050D03*
X014150Y005050D03*
D16*
X003920Y004700D03*
X003600Y004700D03*
X003280Y004700D03*
D17*
X002100Y005050D03*
X002100Y006050D03*
X002100Y007050D03*
X002100Y008050D03*
X002100Y009050D03*
X002100Y010050D03*
X002100Y011050D03*
X002100Y012050D03*
X002100Y013050D03*
X002100Y014050D03*
X002100Y015050D03*
X002100Y016050D03*
X002100Y017050D03*
X002100Y018050D03*
X002100Y019050D03*
X002100Y020050D03*
X013100Y020050D03*
X013100Y019050D03*
X013100Y018050D03*
X013100Y017050D03*
X013100Y016050D03*
X013100Y015050D03*
X013100Y014050D03*
X013100Y013050D03*
X013100Y012050D03*
X013100Y011050D03*
X013100Y010050D03*
X013100Y009050D03*
X013100Y008050D03*
X013100Y007050D03*
X013100Y006050D03*
X013100Y005050D03*
M02*
